<svg width="698" height="408" viewBox="0 0 698 408" fill="none" xmlns="http://www.w3.org/2000/svg">
<rect x="0.5" y="0.5" width="697" height="371" fill="white"/>
<rect x="0.5" y="0.5" width="697" height="371" stroke="#ECEFF4"/>
<path d="M20.3789 13.4404L23.832 23.2373H23.9727L27.4258 13.4404H28.8945L24.6289 25.0811H23.1758L18.8945 13.4404H20.3789ZM29.7852 25.0811V16.3467H31.1133V25.0811H29.7852ZM30.457 14.8936C30.1966 14.8936 29.9727 14.805 29.7852 14.6279C29.5977 14.4508 29.5039 14.2373 29.5039 13.9873C29.5039 13.7373 29.5977 13.5238 29.7852 13.3467C29.9727 13.1696 30.1966 13.0811 30.457 13.0811C30.7174 13.0811 30.9414 13.1696 31.1289 13.3467C31.3164 13.5238 31.4102 13.7373 31.4102 13.9873C31.4102 14.2373 31.3164 14.4508 31.1289 14.6279C30.9414 14.805 30.7174 14.8936 30.457 14.8936ZM39.0039 18.3154L37.8008 18.6436C37.6862 18.3467 37.4883 18.0654 37.207 17.7998C36.931 17.529 36.4987 17.3936 35.9102 17.3936C35.3789 17.3936 34.9362 17.5186 34.582 17.7686C34.2279 18.0133 34.0508 18.3206 34.0508 18.6904C34.0508 19.0238 34.1706 19.2894 34.4102 19.4873C34.6549 19.6852 35.0352 19.8467 35.5508 19.9717L36.8477 20.2842C37.6237 20.4717 38.2018 20.7607 38.582 21.1514C38.9674 21.542 39.1602 22.0394 39.1602 22.6436C39.1602 23.1436 39.0169 23.5915 38.7305 23.9873C38.444 24.3831 38.0456 24.6956 37.5352 24.9248C37.0247 25.154 36.431 25.2686 35.7539 25.2686C34.8633 25.2686 34.1263 25.0732 33.543 24.6826C32.9648 24.292 32.5977 23.7269 32.4414 22.9873L33.707 22.6748C33.8268 23.1436 34.056 23.4951 34.3945 23.7295C34.7383 23.9639 35.1862 24.0811 35.7383 24.0811C36.3581 24.0811 36.8529 23.9482 37.2227 23.6826C37.5977 23.4118 37.7852 23.0915 37.7852 22.7217C37.7852 22.1071 37.3529 21.6956 36.4883 21.4873L35.0352 21.1436C34.2331 20.9508 33.6445 20.6566 33.2695 20.2607C32.8945 19.8649 32.707 19.3675 32.707 18.7686C32.707 18.2738 32.8451 17.8363 33.1211 17.4561C33.4023 17.0758 33.7852 16.779 34.2695 16.5654C34.7539 16.3467 35.3008 16.2373 35.9102 16.2373C36.7799 16.2373 37.4596 16.43 37.9492 16.8154C38.444 17.1956 38.7956 17.6956 39.0039 18.3154ZM40.4414 25.0811V16.3467H41.7695V25.0811H40.4414ZM41.1133 14.8936C40.8529 14.8936 40.6289 14.805 40.4414 14.6279C40.2539 14.4508 40.1602 14.2373 40.1602 13.9873C40.1602 13.7373 40.2539 13.5238 40.4414 13.3467C40.6289 13.1696 40.8529 13.0811 41.1133 13.0811C41.3737 13.0811 41.5977 13.1696 41.7852 13.3467C41.9727 13.5238 42.0664 13.7373 42.0664 13.9873C42.0664 14.2373 41.9727 14.4508 41.7852 14.6279C41.5977 14.805 41.3737 14.8936 41.1133 14.8936ZM47.2695 16.3467V17.4873H42.7539V16.3467H47.2695ZM44.0664 14.2686H45.3945V22.5811C45.3945 23.0342 45.4883 23.3675 45.6758 23.5811C45.8633 23.7894 46.1602 23.8936 46.5664 23.8936C46.6549 23.8936 46.7461 23.8883 46.8398 23.8779C46.9388 23.8675 47.0456 23.8519 47.1602 23.8311L47.4414 25.0342C47.3164 25.0811 47.1628 25.1175 46.9805 25.1436C46.8034 25.1748 46.6237 25.1904 46.4414 25.1904C45.7383 25.1904 45.1654 24.9821 44.7227 24.5654C44.2852 24.1488 44.0664 23.6071 44.0664 22.9404V14.2686ZM51.9883 25.2686C51.2018 25.2686 50.5117 25.0811 49.918 24.7061C49.3242 24.3311 48.8607 23.805 48.5273 23.1279C48.1992 22.4508 48.0352 21.6644 48.0352 20.7686C48.0352 19.8571 48.1992 19.0628 48.5273 18.3857C48.8607 17.7035 49.3242 17.1748 49.918 16.7998C50.5117 16.4248 51.2018 16.2373 51.9883 16.2373C52.7799 16.2373 53.4727 16.4248 54.0664 16.7998C54.6602 17.1748 55.1237 17.7035 55.457 18.3857C55.7904 19.0628 55.957 19.8571 55.957 20.7686C55.957 21.6644 55.7904 22.4508 55.457 23.1279C55.1237 23.805 54.6602 24.3311 54.0664 24.7061C53.4727 25.0811 52.7799 25.2686 51.9883 25.2686ZM51.9883 24.0654C52.5924 24.0654 53.0872 23.9118 53.4727 23.6045C53.8581 23.2972 54.1445 22.8936 54.332 22.3936C54.5195 21.8883 54.6133 21.3467 54.6133 20.7686C54.6133 20.18 54.5195 19.6331 54.332 19.1279C54.1445 18.6227 53.8581 18.2165 53.4727 17.9092C53.0872 17.5967 52.5924 17.4404 51.9883 17.4404C51.3945 17.4404 50.9049 17.5967 50.5195 17.9092C50.1341 18.2165 49.8477 18.6227 49.6602 19.1279C49.4727 19.6331 49.3789 20.18 49.3789 20.7686C49.3789 21.3467 49.4727 21.8883 49.6602 22.3936C49.8477 22.8936 50.1341 23.2972 50.5195 23.6045C50.9049 23.9118 51.3945 24.0654 51.9883 24.0654ZM57.2539 25.0811V16.3467H58.5352V17.6748H58.6289C58.7904 17.2425 59.0794 16.8936 59.4961 16.6279C59.918 16.3571 60.3893 16.2217 60.9102 16.2217C61.0091 16.2217 61.1315 16.2243 61.2773 16.2295C61.4232 16.2295 61.5352 16.2321 61.6133 16.2373V17.5967C61.5664 17.5863 61.4622 17.5706 61.3008 17.5498C61.1393 17.529 60.9674 17.5186 60.7852 17.5186C60.3633 17.5186 59.9857 17.6071 59.6523 17.7842C59.319 17.9613 59.056 18.2035 58.8633 18.5107C58.6758 18.818 58.582 19.1696 58.582 19.5654V25.0811H57.2539ZM68.6289 18.3154L67.4258 18.6436C67.3112 18.3467 67.1133 18.0654 66.832 17.7998C66.556 17.529 66.1237 17.3936 65.5352 17.3936C65.0039 17.3936 64.5612 17.5186 64.207 17.7686C63.8529 18.0133 63.6758 18.3206 63.6758 18.6904C63.6758 19.0238 63.7956 19.2894 64.0352 19.4873C64.2799 19.6852 64.6602 19.8467 65.1758 19.9717L66.4727 20.2842C67.2487 20.4717 67.8268 20.7607 68.207 21.1514C68.5924 21.542 68.7852 22.0394 68.7852 22.6436C68.7852 23.1436 68.6419 23.5915 68.3555 23.9873C68.069 24.3831 67.6706 24.6956 67.1602 24.9248C66.6497 25.154 66.056 25.2686 65.3789 25.2686C64.4883 25.2686 63.7513 25.0732 63.168 24.6826C62.5898 24.292 62.2227 23.7269 62.0664 22.9873L63.332 22.6748C63.4518 23.1436 63.681 23.4951 64.0195 23.7295C64.3633 23.9639 64.8112 24.0811 65.3633 24.0811C65.9831 24.0811 66.4779 23.9482 66.8477 23.6826C67.2227 23.4118 67.4102 23.0915 67.4102 22.7217C67.4102 22.1071 66.9779 21.6956 66.1133 21.4873L64.6602 21.1436C63.8581 20.9508 63.2695 20.6566 62.8945 20.2607C62.5195 19.8649 62.332 19.3675 62.332 18.7686C62.332 18.2738 62.4701 17.8363 62.7461 17.4561C63.0273 17.0758 63.4102 16.779 63.8945 16.5654C64.3789 16.3467 64.9258 16.2373 65.5352 16.2373C66.4049 16.2373 67.0846 16.43 67.5742 16.8154C68.069 17.1956 68.4206 17.6956 68.6289 18.3154ZM74.4727 25.0811H72.9883L77.2695 13.4404H78.7227L82.9883 25.0811H81.5195L78.0352 15.2842H77.9414L74.4727 25.0811ZM75.0195 20.5342H80.9727V21.7842H75.0195V20.5342ZM85.207 19.8311V25.0811H83.8789V16.3467H85.1602V17.7217H85.2852C85.4883 17.2738 85.7982 16.9144 86.2148 16.6436C86.6315 16.3727 87.1706 16.2373 87.832 16.2373C88.4206 16.2373 88.9362 16.3571 89.3789 16.5967C89.8216 16.8363 90.1654 17.2008 90.4102 17.6904C90.6602 18.1748 90.7852 18.7894 90.7852 19.5342V25.0811H89.457V19.6279C89.457 18.9456 89.2773 18.4118 88.918 18.0264C88.5586 17.6357 88.069 17.4404 87.4492 17.4404C87.0221 17.4404 86.6393 17.5342 86.3008 17.7217C85.9622 17.9092 85.694 18.18 85.4961 18.5342C85.3034 18.8883 85.207 19.3206 85.207 19.8311ZM95.0664 25.2842C94.5143 25.2842 94.0117 25.18 93.5586 24.9717C93.1055 24.7581 92.7461 24.4508 92.4805 24.0498C92.2148 23.6488 92.082 23.1644 92.082 22.5967C92.082 22.0967 92.181 21.693 92.3789 21.3857C92.5768 21.0732 92.8398 20.8285 93.168 20.6514C93.5013 20.4691 93.8659 20.3337 94.2617 20.2451C94.6628 20.1566 95.0664 20.0863 95.4727 20.0342C96.0039 19.9665 96.4336 19.9144 96.7617 19.8779C97.0951 19.8415 97.3372 19.779 97.4883 19.6904C97.6445 19.6019 97.7227 19.4508 97.7227 19.2373V19.1904C97.7227 18.6331 97.569 18.2008 97.2617 17.8936C96.9596 17.5811 96.4987 17.4248 95.8789 17.4248C95.2435 17.4248 94.7435 17.5654 94.3789 17.8467C94.0143 18.1227 93.7591 18.4196 93.6133 18.7373L92.332 18.2842C92.5612 17.7529 92.8659 17.3389 93.2461 17.042C93.6315 16.7451 94.0482 16.5368 94.4961 16.417C94.9492 16.2972 95.3945 16.2373 95.832 16.2373C96.1133 16.2373 96.4362 16.2712 96.8008 16.3389C97.1654 16.4014 97.5195 16.5368 97.8633 16.7451C98.2122 16.9482 98.4987 17.2581 98.7227 17.6748C98.9518 18.0863 99.0664 18.6383 99.0664 19.3311V25.0811H97.7227V23.8936H97.6602C97.5716 24.0811 97.4206 24.2842 97.207 24.5029C96.9935 24.7165 96.7096 24.9014 96.3555 25.0576C96.0065 25.2087 95.5768 25.2842 95.0664 25.2842ZM95.2695 24.0811C95.8008 24.0811 96.2487 23.9769 96.6133 23.7686C96.9779 23.5602 97.2539 23.292 97.4414 22.9639C97.6289 22.6305 97.7227 22.2842 97.7227 21.9248V20.6904C97.6654 20.7581 97.5404 20.8206 97.3477 20.8779C97.1602 20.93 96.9414 20.9769 96.6914 21.0186C96.4466 21.0602 96.207 21.0967 95.9727 21.1279C95.7383 21.154 95.5508 21.1748 95.4102 21.1904C95.0612 21.2373 94.7357 21.3128 94.4336 21.417C94.1315 21.516 93.8867 21.6644 93.6992 21.8623C93.5169 22.0602 93.4258 22.3311 93.4258 22.6748C93.4258 23.1383 93.5977 23.4899 93.9414 23.7295C94.2904 23.9639 94.7331 24.0811 95.2695 24.0811ZM102.113 13.4404V25.0811H100.785V13.4404H102.113ZM104.691 28.3467C104.462 28.3519 104.259 28.3363 104.082 28.2998C103.905 28.2633 103.78 28.2269 103.707 28.1904L104.051 27.0186L104.184 27.0498C104.632 27.154 105.007 27.1305 105.309 26.9795C105.616 26.8337 105.884 26.4456 106.113 25.8154L106.363 25.1279L103.145 16.3467H104.598L107.004 23.3154H107.098L109.504 16.3467H110.957L107.254 26.3467C107.087 26.7998 106.882 27.1748 106.637 27.4717C106.392 27.7686 106.108 27.9873 105.785 28.1279C105.462 28.2738 105.098 28.3467 104.691 28.3467ZM115.77 16.3467V17.4873H111.254V16.3467H115.77ZM112.566 14.2686H113.895V22.5811C113.895 23.0342 113.988 23.3675 114.176 23.5811C114.363 23.7894 114.66 23.8936 115.066 23.8936C115.155 23.8936 115.246 23.8883 115.34 23.8779C115.439 23.8675 115.546 23.8519 115.66 23.8311L115.941 25.0342C115.816 25.0811 115.663 25.1175 115.48 25.1436C115.303 25.1748 115.124 25.1904 114.941 25.1904C114.238 25.1904 113.665 24.9821 113.223 24.5654C112.785 24.1488 112.566 23.6071 112.566 22.9404V14.2686ZM117.051 25.0811V16.3467H118.379V25.0811H117.051ZM117.723 14.8936C117.462 14.8936 117.238 14.805 117.051 14.6279C116.863 14.4508 116.77 14.2373 116.77 13.9873C116.77 13.7373 116.863 13.5238 117.051 13.3467C117.238 13.1696 117.462 13.0811 117.723 13.0811C117.983 13.0811 118.207 13.1696 118.395 13.3467C118.582 13.5238 118.676 13.7373 118.676 13.9873C118.676 14.2373 118.582 14.4508 118.395 14.6279C118.207 14.805 117.983 14.8936 117.723 14.8936ZM123.629 25.2686C122.816 25.2686 122.113 25.0758 121.52 24.6904C120.931 24.2998 120.475 23.766 120.152 23.0889C119.835 22.4118 119.676 21.6383 119.676 20.7686C119.676 19.8779 119.84 19.0941 120.168 18.417C120.496 17.7347 120.954 17.2008 121.543 16.8154C122.137 16.43 122.827 16.2373 123.613 16.2373C124.228 16.2373 124.78 16.3519 125.27 16.5811C125.764 16.805 126.168 17.1227 126.48 17.5342C126.798 17.9456 126.993 18.4248 127.066 18.9717H125.723C125.655 18.7061 125.533 18.4561 125.355 18.2217C125.178 17.9873 124.944 17.7998 124.652 17.6592C124.366 17.5133 124.025 17.4404 123.629 17.4404C123.108 17.4404 122.652 17.5758 122.262 17.8467C121.871 18.1175 121.566 18.5003 121.348 18.9951C121.129 19.4847 121.02 20.0602 121.02 20.7217C121.02 21.3936 121.126 21.9821 121.34 22.4873C121.553 22.9873 121.855 23.3753 122.246 23.6514C122.642 23.9274 123.103 24.0654 123.629 24.0654C124.155 24.0654 124.605 23.93 124.98 23.6592C125.355 23.3831 125.603 23.0081 125.723 22.5342H127.066C126.993 23.0498 126.806 23.5133 126.504 23.9248C126.207 24.3363 125.814 24.6644 125.324 24.9092C124.84 25.1488 124.275 25.2686 123.629 25.2686ZM134.504 18.3154L133.301 18.6436C133.186 18.3467 132.988 18.0654 132.707 17.7998C132.431 17.529 131.999 17.3936 131.41 17.3936C130.879 17.3936 130.436 17.5186 130.082 17.7686C129.728 18.0133 129.551 18.3206 129.551 18.6904C129.551 19.0238 129.671 19.2894 129.91 19.4873C130.155 19.6852 130.535 19.8467 131.051 19.9717L132.348 20.2842C133.124 20.4717 133.702 20.7607 134.082 21.1514C134.467 21.542 134.66 22.0394 134.66 22.6436C134.66 23.1436 134.517 23.5915 134.23 23.9873C133.944 24.3831 133.546 24.6956 133.035 24.9248C132.525 25.154 131.931 25.2686 131.254 25.2686C130.363 25.2686 129.626 25.0732 129.043 24.6826C128.465 24.292 128.098 23.7269 127.941 22.9873L129.207 22.6748C129.327 23.1436 129.556 23.4951 129.895 23.7295C130.238 23.9639 130.686 24.0811 131.238 24.0811C131.858 24.0811 132.353 23.9482 132.723 23.6826C133.098 23.4118 133.285 23.0915 133.285 22.7217C133.285 22.1071 132.853 21.6956 131.988 21.4873L130.535 21.1436C129.733 20.9508 129.145 20.6566 128.77 20.2607C128.395 19.8649 128.207 19.3675 128.207 18.7686C128.207 18.2738 128.345 17.8363 128.621 17.4561C128.902 17.0758 129.285 16.779 129.77 16.5654C130.254 16.3467 130.801 16.2373 131.41 16.2373C132.28 16.2373 132.96 16.43 133.449 16.8154C133.944 17.1956 134.296 17.6956 134.504 18.3154Z" fill="#1A1A1C"/>
<path d="M16.9806 121.614V120.602L21.4513 113.52H22.1896V115.093H21.6838L18.3068 120.438V120.52H24.3361V121.614H16.9806ZM21.7658 123.706V121.313V120.835V113.52H22.9416V123.706H21.7658ZM28.8615 123.843C28.1141 123.843 27.4761 123.637 26.9474 123.227C26.4188 122.817 26.0155 122.225 25.7375 121.45C25.4595 120.671 25.3205 119.727 25.3205 118.62C25.3205 117.517 25.4595 116.576 25.7375 115.797C26.02 115.013 26.4256 114.416 26.9543 114.006C27.4829 113.591 28.1187 113.384 28.8615 113.384C29.6043 113.384 30.2401 113.591 30.7687 114.006C31.2974 114.416 31.7007 115.013 31.9787 115.797C32.2612 116.576 32.4025 117.517 32.4025 118.62C32.4025 119.727 32.2635 120.671 31.9855 121.45C31.7075 122.225 31.3042 122.817 30.7756 123.227C30.2515 123.637 29.6134 123.843 28.8615 123.843ZM28.8615 122.762C29.3674 122.762 29.7957 122.601 30.1467 122.277C30.4976 121.949 30.7642 121.475 30.9465 120.855C31.1333 120.235 31.2267 119.49 31.2267 118.62C31.2267 117.745 31.1333 116.997 30.9465 116.378C30.7642 115.758 30.4976 115.284 30.1467 114.956C29.7957 114.628 29.3674 114.464 28.8615 114.464C28.105 114.464 27.5217 114.828 27.1115 115.557C26.7013 116.287 26.4963 117.307 26.4963 118.62C26.4963 119.49 26.5874 120.235 26.7697 120.855C26.9565 121.475 27.2254 121.949 27.5763 122.277C27.9318 122.601 28.3602 122.762 28.8615 122.762ZM36.9552 123.843C36.2078 123.843 35.5698 123.637 35.0412 123.227C34.5125 122.817 34.1092 122.225 33.8312 121.45C33.5532 120.671 33.4142 119.727 33.4142 118.62C33.4142 117.517 33.5532 116.576 33.8312 115.797C34.1138 115.013 34.5194 114.416 35.048 114.006C35.5767 113.591 36.2124 113.384 36.9552 113.384C37.6981 113.384 38.3338 113.591 38.8625 114.006C39.3911 114.416 39.7944 115.013 40.0724 115.797C40.355 116.576 40.4963 117.517 40.4963 118.62C40.4963 119.727 40.3573 120.671 40.0793 121.45C39.8013 122.225 39.398 122.817 38.8693 123.227C38.3452 123.637 37.7072 123.843 36.9552 123.843ZM36.9552 122.762C37.4611 122.762 37.8895 122.601 38.2404 122.277C38.5913 121.949 38.8579 121.475 39.0402 120.855C39.2271 120.235 39.3205 119.49 39.3205 118.62C39.3205 117.745 39.2271 116.997 39.0402 116.378C38.8579 115.758 38.5913 115.284 38.2404 114.956C37.8895 114.628 37.4611 114.464 36.9552 114.464C36.1987 114.464 35.6154 114.828 35.2052 115.557C34.7951 116.287 34.59 117.307 34.59 118.62C34.59 119.49 34.6812 120.235 34.8634 120.855C35.0503 121.475 35.3192 121.949 35.6701 122.277C36.0256 122.601 36.4539 122.762 36.9552 122.762Z" fill="#1A1A1C"/>
<line x1="60.1855" y1="118.443" x2="681.865" y2="118.443" stroke="#ECEFF4"/>
<path d="M20.6447 182.708C19.9839 182.708 19.3983 182.596 18.8879 182.373C18.3774 182.149 17.9718 181.837 17.6711 181.436C17.3703 181.031 17.2085 180.561 17.1857 180.028H18.4299C18.4572 180.356 18.5689 180.639 18.7648 180.876C18.9653 181.113 19.2251 181.295 19.5441 181.423C19.8677 181.55 20.2254 181.614 20.6174 181.614C21.0549 181.614 21.4422 181.539 21.7795 181.388C22.1213 181.233 22.3879 181.022 22.5793 180.753C22.7752 180.479 22.8732 180.165 22.8732 179.809C22.8732 179.431 22.7798 179.098 22.5929 178.811C22.4061 178.524 22.1327 178.301 21.7726 178.141C21.4172 177.977 20.9819 177.895 20.467 177.895H19.6467V176.802H20.467C20.868 176.802 21.2212 176.729 21.5265 176.583C21.8319 176.437 22.0711 176.232 22.2443 175.968C22.4175 175.703 22.5041 175.393 22.5041 175.038C22.5041 174.691 22.4289 174.391 22.2785 174.135C22.1281 173.88 21.9139 173.682 21.6359 173.541C21.3625 173.399 21.0366 173.329 20.6584 173.329C20.3075 173.329 19.9771 173.393 19.6672 173.52C19.3573 173.648 19.1043 173.83 18.9084 174.067C18.7124 174.304 18.6076 174.591 18.5939 174.928H17.4045C17.4227 174.395 17.5822 173.928 17.883 173.527C18.1838 173.126 18.578 172.814 19.0656 172.591C19.5578 172.363 20.0978 172.249 20.6857 172.249C21.3146 172.249 21.8547 172.376 22.3058 172.632C22.757 172.882 23.1034 173.215 23.3449 173.63C23.5864 174.044 23.7072 174.491 23.7072 174.969C23.7072 175.548 23.5568 176.038 23.256 176.439C22.9598 176.84 22.5542 177.121 22.0392 177.28V177.362C22.6772 177.467 23.1763 177.74 23.5363 178.182C23.8963 178.62 24.0763 179.162 24.0763 179.809C24.0763 180.361 23.9259 180.855 23.6252 181.293C23.3289 181.73 22.9211 182.077 22.4015 182.332C21.8866 182.582 21.3009 182.708 20.6447 182.708ZM28.7795 182.708C28.0321 182.708 27.394 182.503 26.8654 182.093C26.3368 181.682 25.9334 181.09 25.6554 180.315C25.3774 179.536 25.2384 178.593 25.2384 177.485C25.2384 176.382 25.3774 175.441 25.6554 174.662C25.938 173.878 26.3436 173.281 26.8722 172.871C27.4009 172.456 28.0366 172.249 28.7795 172.249C29.5223 172.249 30.158 172.456 30.6867 172.871C31.2153 173.281 31.6187 173.878 31.8967 174.662C32.1792 175.441 32.3205 176.382 32.3205 177.485C32.3205 178.593 32.1815 179.536 31.9035 180.315C31.6255 181.09 31.2222 181.682 30.6935 182.093C30.1694 182.503 29.5314 182.708 28.7795 182.708ZM28.7795 181.628C29.2853 181.628 29.7137 181.466 30.0646 181.142C30.4155 180.814 30.6821 180.34 30.8644 179.72C31.0513 179.101 31.1447 178.356 31.1447 177.485C31.1447 176.61 31.0513 175.863 30.8644 175.243C30.6821 174.623 30.4155 174.149 30.0646 173.821C29.7137 173.493 29.2853 173.329 28.7795 173.329C28.023 173.329 27.4396 173.693 27.0295 174.423C26.6193 175.152 26.4142 176.173 26.4142 177.485C26.4142 178.356 26.5054 179.101 26.6877 179.72C26.8745 180.34 27.1434 180.814 27.4943 181.142C27.8498 181.466 28.2782 181.628 28.7795 181.628ZM36.8732 182.708C36.1258 182.708 35.4878 182.503 34.9592 182.093C34.4305 181.682 34.0272 181.09 33.7492 180.315C33.4712 179.536 33.3322 178.593 33.3322 177.485C33.3322 176.382 33.4712 175.441 33.7492 174.662C34.0317 173.878 34.4373 173.281 34.966 172.871C35.4946 172.456 36.1304 172.249 36.8732 172.249C37.6161 172.249 38.2518 172.456 38.7804 172.871C39.3091 173.281 39.7124 173.878 39.9904 174.662C40.273 175.441 40.4142 176.382 40.4142 177.485C40.4142 178.593 40.2752 179.536 39.9972 180.315C39.7192 181.09 39.3159 181.682 38.7873 182.093C38.2632 182.503 37.6252 182.708 36.8732 182.708ZM36.8732 181.628C37.3791 181.628 37.8075 181.466 38.1584 181.142C38.5093 180.814 38.7759 180.34 38.9582 179.72C39.145 179.101 39.2384 178.356 39.2384 177.485C39.2384 176.61 39.145 175.863 38.9582 175.243C38.7759 174.623 38.5093 174.149 38.1584 173.821C37.8075 173.493 37.3791 173.329 36.8732 173.329C36.1167 173.329 35.5334 173.693 35.1232 174.423C34.7131 175.152 34.508 176.173 34.508 177.485C34.508 178.356 34.5991 179.101 34.7814 179.72C34.9683 180.34 35.2371 180.814 35.5881 181.142C35.9435 181.466 36.3719 181.628 36.8732 181.628Z" fill="#1A1A1C"/>
<line x1="60.1836" y1="177.986" x2="681.863" y2="177.986" stroke="#ECEFF4"/>
<path d="M17.6369 240.575V239.687L21.0002 235.995C21.3921 235.567 21.7134 235.193 21.964 234.874C22.2192 234.555 22.4084 234.254 22.5314 233.972C22.659 233.689 22.7228 233.393 22.7228 233.083C22.7228 232.723 22.6362 232.413 22.4631 232.154C22.2944 231.889 22.0643 231.686 21.7726 231.545C21.481 231.404 21.1506 231.333 20.7814 231.333C20.3895 231.333 20.0477 231.413 19.756 231.573C19.4689 231.732 19.2456 231.958 19.0861 232.249C18.9312 232.536 18.8537 232.874 18.8537 233.261H17.6779C17.6779 232.664 17.8146 232.14 18.0881 231.689C18.3661 231.238 18.742 230.887 19.216 230.636C19.6945 230.381 20.23 230.253 20.8224 230.253C21.4194 230.253 21.9481 230.381 22.4084 230.636C22.8687 230.887 23.2287 231.226 23.4884 231.655C23.7528 232.078 23.8849 232.555 23.8849 233.083C23.8849 233.457 23.8166 233.822 23.6799 234.177C23.5477 234.528 23.3153 234.922 22.9826 235.36C22.6545 235.797 22.1987 236.328 21.6154 236.952L19.3322 239.4V239.482H24.0627V240.575H17.6369ZM28.7795 240.712C28.0321 240.712 27.394 240.507 26.8654 240.097C26.3368 239.687 25.9334 239.094 25.6554 238.32C25.3774 237.54 25.2384 236.597 25.2384 235.49C25.2384 234.387 25.3774 233.446 25.6554 232.666C25.938 231.882 26.3436 231.285 26.8722 230.875C27.4009 230.461 28.0366 230.253 28.7795 230.253C29.5223 230.253 30.158 230.461 30.6867 230.875C31.2153 231.285 31.6187 231.882 31.8967 232.666C32.1792 233.446 32.3205 234.387 32.3205 235.49C32.3205 236.597 32.1815 237.54 31.9035 238.32C31.6255 239.094 31.2222 239.687 30.6935 240.097C30.1694 240.507 29.5314 240.712 28.7795 240.712ZM28.7795 239.632C29.2853 239.632 29.7137 239.47 30.0646 239.147C30.4155 238.819 30.6821 238.345 30.8644 237.725C31.0513 237.105 31.1447 236.36 31.1447 235.49C31.1447 234.615 31.0513 233.867 30.8644 233.247C30.6821 232.628 30.4155 232.154 30.0646 231.825C29.7137 231.497 29.2853 231.333 28.7795 231.333C28.023 231.333 27.4396 231.698 27.0295 232.427C26.6193 233.156 26.4142 234.177 26.4142 235.49C26.4142 236.36 26.5054 237.105 26.6877 237.725C26.8745 238.345 27.1434 238.819 27.4943 239.147C27.8498 239.47 28.2782 239.632 28.7795 239.632ZM36.8732 240.712C36.1258 240.712 35.4878 240.507 34.9592 240.097C34.4305 239.687 34.0272 239.094 33.7492 238.32C33.4712 237.54 33.3322 236.597 33.3322 235.49C33.3322 234.387 33.4712 233.446 33.7492 232.666C34.0317 231.882 34.4373 231.285 34.966 230.875C35.4946 230.461 36.1304 230.253 36.8732 230.253C37.6161 230.253 38.2518 230.461 38.7804 230.875C39.3091 231.285 39.7124 231.882 39.9904 232.666C40.273 233.446 40.4142 234.387 40.4142 235.49C40.4142 236.597 40.2752 237.54 39.9972 238.32C39.7192 239.094 39.3159 239.687 38.7873 240.097C38.2632 240.507 37.6252 240.712 36.8732 240.712ZM36.8732 239.632C37.3791 239.632 37.8075 239.47 38.1584 239.147C38.5093 238.819 38.7759 238.345 38.9582 237.725C39.145 237.105 39.2384 236.36 39.2384 235.49C39.2384 234.615 39.145 233.867 38.9582 233.247C38.7759 232.628 38.5093 232.154 38.1584 231.825C37.8075 231.497 37.3791 231.333 36.8732 231.333C36.1167 231.333 35.5334 231.698 35.1232 232.427C34.7131 233.156 34.508 234.177 34.508 235.49C34.508 236.36 34.5991 237.105 34.7814 237.725C34.9683 238.345 35.2371 238.819 35.5881 239.147C35.9435 239.47 36.3719 239.632 36.8732 239.632Z" fill="#1A1A1C"/>
<line x1="60.1836" y1="235.925" x2="681.863" y2="235.925" stroke="#ECEFF4"/>
<path d="M24.4023 289.249V299.435H23.1992V290.548H23.1309L20.6562 292.202V290.945L23.1992 289.249H24.4023ZM29.3516 299.572C28.6042 299.572 27.9661 299.366 27.4375 298.956C26.9089 298.546 26.5055 297.954 26.2275 297.179C25.9495 296.4 25.8105 295.456 25.8105 294.349C25.8105 293.246 25.9495 292.305 26.2275 291.526C26.5101 290.742 26.9157 290.145 27.4443 289.735C27.973 289.32 28.6087 289.113 29.3516 289.113C30.0944 289.113 30.7301 289.32 31.2588 289.735C31.7874 290.145 32.1908 290.742 32.4687 291.526C32.7513 292.305 32.8926 293.246 32.8926 294.349C32.8926 295.456 32.7536 296.4 32.4756 297.179C32.1976 297.954 31.7943 298.546 31.2656 298.956C30.7415 299.366 30.1035 299.572 29.3516 299.572ZM29.3516 298.491C29.8574 298.491 30.2858 298.33 30.6367 298.006C30.9876 297.678 31.2542 297.204 31.4365 296.584C31.6234 295.964 31.7168 295.219 31.7168 294.349C31.7168 293.474 31.6234 292.726 31.4365 292.107C31.2542 291.487 30.9876 291.013 30.6367 290.685C30.2858 290.357 29.8574 290.193 29.3516 290.193C28.595 290.193 28.0117 290.557 27.6016 291.286C27.1914 292.016 26.9863 293.036 26.9863 294.349C26.9863 295.219 27.0775 295.964 27.2598 296.584C27.4466 297.204 27.7155 297.678 28.0664 298.006C28.4219 298.33 28.8503 298.491 29.3516 298.491ZM37.4453 299.572C36.6979 299.572 36.0599 299.366 35.5312 298.956C35.0026 298.546 34.5993 297.954 34.3213 297.179C34.0433 296.4 33.9043 295.456 33.9043 294.349C33.9043 293.246 34.0433 292.305 34.3213 291.526C34.6038 290.742 35.0094 290.145 35.5381 289.735C36.0667 289.32 36.7025 289.113 37.4453 289.113C38.1881 289.113 38.8239 289.32 39.3525 289.735C39.8812 290.145 40.2845 290.742 40.5625 291.526C40.845 292.305 40.9863 293.246 40.9863 294.349C40.9863 295.456 40.8473 296.4 40.5693 297.179C40.2913 297.954 39.888 298.546 39.3594 298.956C38.8353 299.366 38.1973 299.572 37.4453 299.572ZM37.4453 298.491C37.9512 298.491 38.3796 298.33 38.7305 298.006C39.0814 297.678 39.348 297.204 39.5303 296.584C39.7171 295.964 39.8105 295.219 39.8105 294.349C39.8105 293.474 39.7171 292.726 39.5303 292.107C39.348 291.487 39.0814 291.013 38.7305 290.685C38.3796 290.357 37.9512 290.193 37.4453 290.193C36.6888 290.193 36.1055 290.557 35.6953 291.286C35.2852 292.016 35.0801 293.036 35.0801 294.349C35.0801 295.219 35.1712 295.964 35.3535 296.584C35.5404 297.204 35.8092 297.678 36.1602 298.006C36.5156 298.33 36.944 298.491 37.4453 298.491Z" fill="#1A1A1C"/>
<line x1="60.1855" y1="295.038" x2="681.865" y2="295.038" stroke="#ECEFF4"/>
<path d="M37.5845 358.01C36.8371 358.01 36.1991 357.804 35.6705 357.394C35.1418 356.984 34.7385 356.392 34.4605 355.617C34.1825 354.838 34.0435 353.894 34.0435 352.787C34.0435 351.684 34.1825 350.743 34.4605 349.964C34.743 349.18 35.1486 348.583 35.6773 348.173C36.2059 347.758 36.8417 347.551 37.5845 347.551C38.3274 347.551 38.9631 347.758 39.4917 348.173C40.0204 348.583 40.4237 349.18 40.7017 349.964C40.9843 350.743 41.1255 351.684 41.1255 352.787C41.1255 353.894 40.9865 354.838 40.7085 355.617C40.4305 356.392 40.0272 356.984 39.4986 357.394C38.9745 357.804 38.3365 358.01 37.5845 358.01ZM37.5845 356.929C38.0904 356.929 38.5188 356.768 38.8697 356.444C39.2206 356.116 39.4872 355.642 39.6695 355.022C39.8563 354.402 39.9497 353.657 39.9497 352.787C39.9497 351.912 39.8563 351.164 39.6695 350.545C39.4872 349.925 39.2206 349.451 38.8697 349.123C38.5188 348.795 38.0904 348.631 37.5845 348.631C36.828 348.631 36.2447 348.995 35.8345 349.724C35.4244 350.454 35.2193 351.474 35.2193 352.787C35.2193 353.657 35.3104 354.402 35.4927 355.022C35.6796 355.642 35.9484 356.116 36.2994 356.444C36.6548 356.768 37.0832 356.929 37.5845 356.929Z" fill="#1A1A1C"/>
<rect x="61.8018" y="194.808" width="4" height="136" fill="url(#paint0_linear_43_1277)"/>
<path d="M65.3877 348.622V358.808H64.1845V349.921H64.1162L61.6416 351.575V350.318L64.1845 348.622H65.3877Z" fill="#1A1A1C"/>
<rect x="88.9756" y="224.808" width="4" height="106" fill="url(#paint1_linear_43_1277)"/>
<path d="M87.7902 358.808V357.919L91.1535 354.228C91.5454 353.799 91.8667 353.426 92.1173 353.107C92.3725 352.788 92.5617 352.487 92.6847 352.204C92.8123 351.922 92.8761 351.626 92.8761 351.316C92.8761 350.956 92.7895 350.646 92.6163 350.386C92.4477 350.122 92.2176 349.919 91.9259 349.778C91.6342 349.636 91.3038 349.566 90.9347 349.566C90.5428 349.566 90.201 349.645 89.9093 349.805C89.6222 349.964 89.3989 350.19 89.2394 350.482C89.0844 350.769 89.007 351.106 89.007 351.493H87.8312C87.8312 350.896 87.9679 350.372 88.2413 349.921C88.5193 349.47 88.8953 349.119 89.3693 348.868C89.8478 348.613 90.3833 348.486 90.9757 348.486C91.5727 348.486 92.1014 348.613 92.5617 348.868C93.0219 349.119 93.382 349.459 93.6417 349.887C93.9061 350.311 94.0382 350.787 94.0382 351.316C94.0382 351.689 93.9699 352.054 93.8331 352.409C93.701 352.76 93.4686 353.155 93.1359 353.592C92.8078 354.03 92.352 354.56 91.7687 355.185L89.4855 357.632V357.714H94.216V358.808H87.7902Z" fill="#1A1A1C"/>
<rect x="117.499" y="149.808" width="4" height="182" fill="url(#paint2_linear_43_1277)"/>
<path d="M119.54 358.945C118.879 358.945 118.294 358.833 117.783 358.61C117.273 358.386 116.867 358.074 116.566 357.673C116.266 357.267 116.104 356.798 116.081 356.265H117.325C117.353 356.593 117.464 356.876 117.66 357.113C117.861 357.35 118.121 357.532 118.44 357.659C118.763 357.787 119.121 357.851 119.513 357.851C119.95 357.851 120.338 357.776 120.675 357.625C121.017 357.47 121.283 357.258 121.475 356.99C121.671 356.716 121.769 356.402 121.769 356.046C121.769 355.668 121.675 355.335 121.488 355.048C121.302 354.761 121.028 354.538 120.668 354.378C120.313 354.214 119.877 354.132 119.362 354.132H118.542V353.038H119.362C119.763 353.038 120.117 352.965 120.422 352.82C120.727 352.674 120.967 352.469 121.14 352.204C121.313 351.94 121.4 351.63 121.4 351.275C121.4 350.928 121.324 350.628 121.174 350.372C121.024 350.117 120.809 349.919 120.531 349.778C120.258 349.636 119.932 349.566 119.554 349.566C119.203 349.566 118.872 349.629 118.563 349.757C118.253 349.885 118 350.067 117.804 350.304C117.608 350.541 117.503 350.828 117.489 351.165H116.3C116.318 350.632 116.478 350.165 116.778 349.764C117.079 349.363 117.473 349.051 117.961 348.827C118.453 348.6 118.993 348.486 119.581 348.486C120.21 348.486 120.75 348.613 121.201 348.868C121.652 349.119 121.999 349.452 122.24 349.866C122.482 350.281 122.603 350.728 122.603 351.206C122.603 351.785 122.452 352.275 122.151 352.676C121.855 353.077 121.45 353.357 120.935 353.517V353.599C121.573 353.704 122.072 353.977 122.432 354.419C122.792 354.857 122.972 355.399 122.972 356.046C122.972 356.598 122.821 357.092 122.521 357.53C122.224 357.967 121.816 358.313 121.297 358.569C120.782 358.819 120.196 358.945 119.54 358.945Z" fill="#1A1A1C"/>
<rect x="146.147" y="264.808" width="4" height="67" fill="url(#paint3_linear_43_1277)"/>
<path d="M144.476 356.716V355.704L148.947 348.622H149.685V350.195H149.18L145.803 355.54V355.622H151.832V356.716H144.476ZM149.262 358.808V356.415V355.937V348.622H150.437V358.808H149.262Z" fill="#1A1A1C"/>
<rect x="174.185" y="196.808" width="4" height="134" fill="url(#paint4_linear_43_1277)"/>
<path d="M176.205 358.945C175.621 358.945 175.095 358.831 174.626 358.603C174.161 358.37 173.787 358.051 173.505 357.646C173.222 357.24 173.069 356.78 173.047 356.265H174.236C174.282 356.721 174.489 357.099 174.858 357.4C175.232 357.7 175.681 357.851 176.205 357.851C176.624 357.851 176.995 357.753 177.319 357.557C177.643 357.361 177.898 357.092 178.085 356.75C178.271 356.408 178.365 356.019 178.365 355.581C178.365 355.139 178.267 354.743 178.071 354.392C177.88 354.041 177.615 353.765 177.278 353.565C176.941 353.36 176.556 353.257 176.123 353.257C175.808 353.257 175.487 353.307 175.159 353.407C174.835 353.503 174.569 353.626 174.359 353.777L173.197 353.64L173.812 348.622H179.103V349.716H174.851L174.496 352.724H174.55C174.76 352.555 175.022 352.419 175.337 352.314C175.651 352.204 175.981 352.15 176.328 352.15C176.952 352.15 177.508 352.298 177.996 352.594C178.483 352.89 178.866 353.296 179.144 353.811C179.427 354.321 179.568 354.907 179.568 355.568C179.568 356.215 179.422 356.794 179.131 357.304C178.839 357.814 178.44 358.215 177.934 358.507C177.428 358.799 176.852 358.945 176.205 358.945Z" fill="#1A1A1C"/>
<rect x="201.733" y="284.113" width="4" height="46.695" fill="url(#paint5_linear_43_1277)"/>
<path d="M203.802 358.945C203.387 358.945 202.97 358.869 202.551 358.719C202.132 358.564 201.749 358.307 201.402 357.947C201.061 357.582 200.785 357.087 200.575 356.463C200.366 355.839 200.261 355.057 200.261 354.118C200.261 353.216 200.345 352.416 200.514 351.719C200.687 351.022 200.933 350.434 201.252 349.955C201.576 349.472 201.965 349.108 202.421 348.862C202.877 348.611 203.392 348.486 203.966 348.486C204.535 348.486 205.041 348.6 205.483 348.827C205.93 349.055 206.295 349.372 206.577 349.778C206.86 350.179 207.042 350.641 207.124 351.165H205.921C205.807 350.71 205.586 350.331 205.258 350.031C204.934 349.73 204.504 349.579 203.966 349.579C203.177 349.579 202.555 349.923 202.1 350.612C201.648 351.295 201.423 352.259 201.423 353.503H201.505C201.692 353.221 201.913 352.979 202.168 352.779C202.423 352.573 202.706 352.419 203.016 352.314C203.326 352.204 203.656 352.15 204.007 352.15C204.59 352.15 205.123 352.295 205.606 352.587C206.09 352.874 206.477 353.273 206.769 353.783C207.06 354.289 207.206 354.87 207.206 355.527C207.206 356.156 207.065 356.73 206.782 357.249C206.504 357.764 206.11 358.177 205.6 358.487C205.089 358.792 204.49 358.945 203.802 358.945ZM203.802 357.851C204.221 357.851 204.597 357.748 204.93 357.543C205.262 357.334 205.527 357.053 205.723 356.702C205.919 356.347 206.017 355.955 206.017 355.527C206.017 355.103 205.921 354.72 205.729 354.378C205.543 354.032 205.285 353.756 204.957 353.551C204.633 353.346 204.262 353.243 203.843 353.243C203.424 353.243 203.043 353.351 202.701 353.565C202.364 353.779 202.095 354.061 201.895 354.412C201.699 354.759 201.601 355.135 201.601 355.54C201.601 355.946 201.696 356.326 201.888 356.682C202.079 357.033 202.339 357.315 202.667 357.53C203 357.744 203.378 357.851 203.802 357.851Z" fill="#1A1A1C"/>
<rect x="229.609" y="244.113" width="4" height="85" fill="url(#paint6_linear_43_1277)"/>
<path d="M229.039 358.113L233.592 349.103V349.021H228.342V347.927H234.877V349.089L230.338 358.113H229.039Z" fill="#1A1A1C"/>
<rect x="257.985" y="206.808" width="4" height="125" fill="url(#paint7_linear_43_1277)"/>
<path d="M259.985 358.945C259.302 358.945 258.7 358.824 258.181 358.582C257.661 358.336 257.256 357.999 256.964 357.571C256.672 357.142 256.526 356.652 256.526 356.101C256.526 355.672 256.611 355.276 256.779 354.911C256.952 354.542 257.187 354.235 257.483 353.989C257.784 353.742 258.121 353.585 258.495 353.517V353.462C258.007 353.335 257.618 353.059 257.326 352.635C257.039 352.211 256.896 351.73 256.896 351.193C256.896 350.673 257.028 350.211 257.292 349.805C257.556 349.395 257.921 349.073 258.386 348.841C258.855 348.604 259.388 348.486 259.985 348.486C260.573 348.486 261.1 348.604 261.564 348.841C262.029 349.073 262.394 349.395 262.658 349.805C262.927 350.211 263.062 350.673 263.062 351.193C263.062 351.73 262.916 352.211 262.624 352.635C262.332 353.059 261.95 353.335 261.476 353.462V353.517C261.84 353.585 262.171 353.742 262.467 353.989C262.768 354.235 263.005 354.542 263.178 354.911C263.355 355.276 263.444 355.672 263.444 356.101C263.444 356.652 263.296 357.142 263 357.571C262.708 357.999 262.303 358.336 261.783 358.582C261.264 358.824 260.664 358.945 259.985 358.945ZM259.985 357.851C260.446 357.851 260.842 357.778 261.175 357.632C261.512 357.482 261.772 357.272 261.954 357.003C262.136 356.73 262.228 356.411 262.228 356.046C262.228 355.663 262.13 355.324 261.934 355.028C261.738 354.731 261.471 354.499 261.134 354.33C260.797 354.162 260.414 354.077 259.985 354.077C259.548 354.077 259.158 354.162 258.816 354.33C258.479 354.499 258.213 354.731 258.017 355.028C257.825 355.324 257.729 355.663 257.729 356.046C257.729 356.411 257.821 356.73 258.003 357.003C258.185 357.272 258.445 357.482 258.782 357.632C259.119 357.778 259.521 357.851 259.985 357.851ZM259.985 353.025C260.35 353.025 260.674 352.952 260.956 352.806C261.239 352.66 261.462 352.457 261.626 352.198C261.79 351.933 261.872 351.626 261.872 351.275C261.872 350.928 261.792 350.628 261.633 350.372C261.473 350.117 261.252 349.919 260.97 349.778C260.687 349.636 260.359 349.566 259.985 349.566C259.603 349.566 259.268 349.636 258.98 349.778C258.698 349.919 258.477 350.117 258.317 350.372C258.162 350.628 258.085 350.928 258.085 351.275C258.085 351.626 258.165 351.933 258.324 352.198C258.488 352.457 258.712 352.66 258.994 352.806C259.281 352.952 259.612 353.025 259.985 353.025Z" fill="#1A1A1C"/>
<rect x="286.003" y="264.808" width="4" height="67" fill="url(#paint8_linear_43_1277)"/>
<path d="M287.934 348.486C288.353 348.49 288.77 348.57 289.185 348.725C289.604 348.88 289.987 349.137 290.334 349.497C290.68 349.857 290.956 350.347 291.161 350.967C291.37 351.587 291.475 352.364 291.475 353.298C291.475 354.205 291.391 355.009 291.222 355.711C291.054 356.408 290.808 356.999 290.484 357.482C290.165 357.96 289.778 358.325 289.322 358.575C288.866 358.822 288.353 358.945 287.784 358.945C287.214 358.945 286.704 358.831 286.253 358.603C285.806 358.375 285.441 358.058 285.159 357.653C284.876 357.247 284.694 356.775 284.612 356.238H285.829C285.938 356.707 286.157 357.094 286.485 357.4C286.813 357.7 287.246 357.851 287.784 357.851C288.568 357.851 289.185 357.509 289.636 356.825C290.092 356.137 290.322 355.167 290.327 353.913H290.245C290.058 354.191 289.837 354.433 289.582 354.638C289.326 354.838 289.044 354.993 288.734 355.103C288.424 355.212 288.094 355.267 287.743 355.267C287.159 355.267 286.624 355.123 286.136 354.836C285.649 354.545 285.259 354.146 284.967 353.64C284.68 353.129 284.534 352.546 284.53 351.89C284.534 351.266 284.676 350.696 284.954 350.181C285.236 349.661 285.631 349.247 286.136 348.937C286.647 348.627 287.246 348.476 287.934 348.486ZM287.934 349.579C287.52 349.579 287.144 349.684 286.806 349.894C286.474 350.099 286.212 350.377 286.02 350.728C285.829 351.074 285.733 351.462 285.733 351.89C285.733 352.314 285.824 352.699 286.006 353.045C286.193 353.392 286.451 353.667 286.779 353.872C287.107 354.073 287.478 354.173 287.893 354.173C288.312 354.173 288.691 354.066 289.028 353.852C289.37 353.633 289.641 353.348 289.841 352.997C290.047 352.646 290.149 352.268 290.149 351.863C290.149 351.466 290.053 351.095 289.862 350.748C289.671 350.397 289.409 350.115 289.076 349.901C288.743 349.686 288.363 349.579 287.934 349.579Z" fill="#1A1A1C"/>
<rect x="316.521" y="225.808" width="4" height="106" fill="url(#paint9_linear_43_1277)"/>
<path d="M316.06 348.622V358.808H314.856V349.921H314.788L312.313 351.575V350.318L314.856 348.622H316.06ZM321.009 358.945C320.261 358.945 319.623 358.74 319.095 358.329C318.566 357.919 318.163 357.327 317.885 356.552C317.607 355.773 317.468 354.829 317.468 353.722C317.468 352.619 317.607 351.678 317.885 350.899C318.167 350.115 318.573 349.518 319.102 349.108C319.63 348.693 320.266 348.486 321.009 348.486C321.752 348.486 322.387 348.693 322.916 349.108C323.445 349.518 323.848 350.115 324.126 350.899C324.409 351.678 324.55 352.619 324.55 353.722C324.55 354.829 324.411 355.773 324.133 356.552C323.855 357.327 323.451 357.919 322.923 358.329C322.399 358.74 321.761 358.945 321.009 358.945ZM321.009 357.865C321.515 357.865 321.943 357.703 322.294 357.379C322.645 357.051 322.911 356.577 323.094 355.957C323.281 355.337 323.374 354.592 323.374 353.722C323.374 352.847 323.281 352.1 323.094 351.48C322.911 350.86 322.645 350.386 322.294 350.058C321.943 349.73 321.515 349.566 321.009 349.566C320.252 349.566 319.669 349.93 319.259 350.659C318.849 351.389 318.644 352.409 318.644 353.722C318.644 354.592 318.735 355.337 318.917 355.957C319.104 356.577 319.373 357.051 319.724 357.379C320.079 357.703 320.507 357.865 321.009 357.865Z" fill="#1A1A1C"/>
<rect x="348.396" y="178.808" width="4" height="153" fill="url(#paint10_linear_43_1277)"/>
<path d="M349.494 348.622V358.808H348.291V349.921H348.223L345.748 351.575V350.318L348.291 348.622H349.494ZM354.471 348.622V358.808H353.268V349.921H353.199L350.725 351.575V350.318L353.268 348.622H354.471Z" fill="#1A1A1C"/>
<rect x="379.772" y="236.113" width="4" height="94.695" fill="url(#paint11_linear_43_1277)"/>
<path d="M379.448 348.622V358.808H378.245V349.921H378.177L375.702 351.575V350.318L378.245 348.622H379.448ZM381.075 358.808V357.919L384.438 354.228C384.83 353.799 385.152 353.426 385.402 353.107C385.658 352.788 385.847 352.487 385.97 352.204C386.097 351.922 386.161 351.626 386.161 351.316C386.161 350.956 386.075 350.646 385.901 350.386C385.733 350.122 385.503 349.919 385.211 349.778C384.919 349.636 384.589 349.566 384.22 349.566C383.828 349.566 383.486 349.645 383.194 349.805C382.907 349.964 382.684 350.19 382.524 350.482C382.369 350.769 382.292 351.106 382.292 351.493H381.116C381.116 350.896 381.253 350.372 381.526 349.921C381.804 349.47 382.18 349.119 382.654 348.868C383.133 348.613 383.668 348.486 384.261 348.486C384.858 348.486 385.386 348.613 385.847 348.868C386.307 349.119 386.667 349.459 386.927 349.887C387.191 350.311 387.323 350.787 387.323 351.316C387.323 351.689 387.255 352.054 387.118 352.409C386.986 352.76 386.754 353.155 386.421 353.592C386.093 354.03 385.637 354.56 385.054 355.185L382.771 357.632V357.714H387.501V358.808H381.075Z" fill="#1A1A1C"/>
<rect x="412.316" y="250.808" width="4" height="80" fill="url(#paint12_linear_43_1277)"/>
<path d="M411.773 348.622V358.808H410.57V349.921H410.502L408.027 351.575V350.318L410.57 348.622H411.773ZM416.846 358.945C416.185 358.945 415.599 358.833 415.089 358.61C414.578 358.386 414.173 358.074 413.872 357.673C413.571 357.267 413.409 356.798 413.387 356.265H414.631C414.658 356.593 414.77 356.876 414.966 357.113C415.166 357.35 415.426 357.532 415.745 357.659C416.069 357.787 416.426 357.851 416.818 357.851C417.256 357.851 417.643 357.776 417.98 357.625C418.322 357.47 418.589 357.258 418.78 356.99C418.976 356.716 419.074 356.402 419.074 356.046C419.074 355.668 418.981 355.335 418.794 355.048C418.607 354.761 418.334 354.538 417.974 354.378C417.618 354.214 417.183 354.132 416.668 354.132H415.848V353.038H416.668C417.069 353.038 417.422 352.965 417.727 352.82C418.033 352.674 418.272 352.469 418.445 352.204C418.618 351.94 418.705 351.63 418.705 351.275C418.705 350.928 418.63 350.628 418.479 350.372C418.329 350.117 418.115 349.919 417.837 349.778C417.563 349.636 417.237 349.566 416.859 349.566C416.508 349.566 416.178 349.629 415.868 349.757C415.558 349.885 415.305 350.067 415.109 350.304C414.913 350.541 414.808 350.828 414.795 351.165H413.605C413.624 350.632 413.783 350.165 414.084 349.764C414.385 349.363 414.779 349.051 415.266 348.827C415.759 348.6 416.299 348.486 416.887 348.486C417.515 348.486 418.056 348.613 418.507 348.868C418.958 349.119 419.304 349.452 419.546 349.866C419.787 350.281 419.908 350.728 419.908 351.206C419.908 351.785 419.758 352.275 419.457 352.676C419.161 353.077 418.755 353.357 418.24 353.517V353.599C418.878 353.704 419.377 353.977 419.737 354.419C420.097 354.857 420.277 355.399 420.277 356.046C420.277 356.598 420.127 357.092 419.826 357.53C419.53 357.967 419.122 358.313 418.602 358.569C418.087 358.819 417.502 358.945 416.846 358.945Z" fill="#1A1A1C"/>
<rect x="445.028" y="206.808" width="4" height="125" fill="url(#paint13_linear_43_1277)"/>
<path d="M444.451 348.622V358.808H443.248V349.921H443.18L440.705 351.575V350.318L443.248 348.622H444.451ZM445.846 356.716V355.704L450.316 348.622H451.055V350.195H450.549L447.172 355.54V355.622H453.201V356.716H445.846ZM450.631 358.808V356.415V355.937V348.622H451.807V358.808H450.631Z" fill="#1A1A1C"/>
<rect x="477.74" y="238.808" width="4" height="93" fill="url(#paint14_linear_43_1277)"/>
<path d="M477.436 348.622V358.808H476.233V349.921H476.165L473.69 351.575V350.318L476.233 348.622H477.436ZM482.249 358.945C481.666 358.945 481.139 358.831 480.67 358.603C480.205 358.37 479.831 358.051 479.549 357.646C479.266 357.24 479.113 356.78 479.091 356.265H480.28C480.326 356.721 480.533 357.099 480.902 357.4C481.276 357.7 481.725 357.851 482.249 357.851C482.668 357.851 483.04 357.753 483.363 357.557C483.687 357.361 483.942 357.092 484.129 356.75C484.316 356.408 484.409 356.019 484.409 355.581C484.409 355.139 484.311 354.743 484.115 354.392C483.924 354.041 483.659 353.765 483.322 353.565C482.985 353.36 482.6 353.257 482.167 353.257C481.852 353.257 481.531 353.307 481.203 353.407C480.879 353.503 480.613 353.626 480.403 353.777L479.241 353.64L479.856 348.622H485.147V349.716H480.895L480.54 352.724H480.595C480.804 352.555 481.066 352.419 481.381 352.314C481.695 352.204 482.026 352.15 482.372 352.15C482.996 352.15 483.552 352.298 484.04 352.594C484.528 352.89 484.91 353.296 485.188 353.811C485.471 354.321 485.612 354.907 485.612 355.568C485.612 356.215 485.466 356.794 485.175 357.304C484.883 357.814 484.484 358.215 483.978 358.507C483.473 358.799 482.896 358.945 482.249 358.945Z" fill="#1A1A1C"/>
<rect x="510.452" y="119.808" width="4" height="212" fill="url(#paint15_linear_43_1277)"/>
<path d="M510.059 348.622V358.808H508.856V349.921H508.788L506.313 351.575V350.318L508.856 348.622H510.059ZM515.009 358.945C514.594 358.945 514.177 358.869 513.758 358.719C513.338 358.564 512.956 358.307 512.609 357.947C512.267 357.582 511.992 357.087 511.782 356.463C511.572 355.839 511.468 355.057 511.468 354.118C511.468 353.216 511.552 352.416 511.721 351.719C511.894 351.022 512.14 350.434 512.459 349.955C512.782 349.472 513.172 349.108 513.628 348.862C514.084 348.611 514.599 348.486 515.173 348.486C515.742 348.486 516.248 348.6 516.69 348.827C517.137 349.055 517.501 349.372 517.784 349.778C518.067 350.179 518.249 350.641 518.331 351.165H517.128C517.014 350.71 516.793 350.331 516.465 350.031C516.141 349.73 515.71 349.579 515.173 349.579C514.384 349.579 513.762 349.923 513.307 350.612C512.855 351.295 512.63 352.259 512.63 353.503H512.712C512.899 353.221 513.12 352.979 513.375 352.779C513.63 352.573 513.913 352.419 514.223 352.314C514.532 352.204 514.863 352.15 515.214 352.15C515.797 352.15 516.33 352.295 516.813 352.587C517.296 352.874 517.684 353.273 517.975 353.783C518.267 354.289 518.413 354.87 518.413 355.527C518.413 356.156 518.272 356.73 517.989 357.249C517.711 357.764 517.317 358.177 516.807 358.487C516.296 358.792 515.697 358.945 515.009 358.945ZM515.009 357.851C515.428 357.851 515.804 357.748 516.137 357.543C516.469 357.334 516.734 357.053 516.93 356.702C517.126 356.347 517.224 355.955 517.224 355.527C517.224 355.103 517.128 354.72 516.936 354.378C516.75 354.032 516.492 353.756 516.164 353.551C515.84 353.346 515.469 353.243 515.05 353.243C514.63 353.243 514.25 353.351 513.908 353.565C513.571 353.779 513.302 354.061 513.101 354.412C512.905 354.759 512.807 355.135 512.807 355.54C512.807 355.946 512.903 356.326 513.095 356.682C513.286 357.033 513.546 357.315 513.874 357.53C514.207 357.744 514.585 357.851 515.009 357.851Z" fill="#1A1A1C"/>
<rect x="542.996" y="159.113" width="4" height="172.695" fill="url(#paint16_linear_43_1277)"/>
<path d="M542.617 348.622V358.808H541.414V349.921H541.346L538.871 351.575V350.318L541.414 348.622H542.617ZM547.484 358.945C546.801 358.945 546.199 358.824 545.68 358.582C545.16 358.336 544.755 357.999 544.463 357.571C544.171 357.142 544.025 356.652 544.025 356.101C544.025 355.672 544.11 355.276 544.278 354.911C544.451 354.542 544.686 354.235 544.982 353.989C545.283 353.742 545.62 353.585 545.994 353.517V353.462C545.507 353.335 545.117 353.059 544.825 352.635C544.538 352.211 544.395 351.73 544.395 351.193C544.395 350.673 544.527 350.211 544.791 349.805C545.055 349.395 545.42 349.073 545.885 348.841C546.354 348.604 546.887 348.486 547.484 348.486C548.072 348.486 548.599 348.604 549.063 348.841C549.528 349.073 549.893 349.395 550.157 349.805C550.426 350.211 550.561 350.673 550.561 351.193C550.561 351.73 550.415 352.211 550.123 352.635C549.831 353.059 549.449 353.335 548.975 353.462V353.517C549.339 353.585 549.67 353.742 549.966 353.989C550.267 354.235 550.504 354.542 550.677 354.911C550.854 355.276 550.943 355.672 550.943 356.101C550.943 356.652 550.795 357.142 550.499 357.571C550.207 357.999 549.802 358.336 549.282 358.582C548.763 358.824 548.163 358.945 547.484 358.945ZM547.484 357.851C547.945 357.851 548.341 357.778 548.674 357.632C549.011 357.482 549.271 357.272 549.453 357.003C549.635 356.73 549.727 356.411 549.727 356.046C549.727 355.663 549.629 355.324 549.433 355.028C549.237 354.731 548.97 354.499 548.633 354.33C548.296 354.162 547.913 354.077 547.484 354.077C547.047 354.077 546.657 354.162 546.315 354.33C545.978 354.499 545.712 354.731 545.516 355.028C545.324 355.324 545.229 355.663 545.229 356.046C545.229 356.411 545.32 356.73 545.502 357.003C545.684 357.272 545.944 357.482 546.281 357.632C546.618 357.778 547.02 357.851 547.484 357.851ZM547.484 353.025C547.849 353.025 548.173 352.952 548.455 352.806C548.738 352.66 548.961 352.457 549.125 352.198C549.289 351.933 549.371 351.626 549.371 351.275C549.371 350.928 549.291 350.628 549.132 350.372C548.972 350.117 548.751 349.919 548.469 349.778C548.186 349.636 547.858 349.566 547.484 349.566C547.102 349.566 546.767 349.636 546.479 349.778C546.197 349.919 545.976 350.117 545.816 350.372C545.661 350.628 545.584 350.928 545.584 351.275C545.584 351.626 545.664 351.933 545.823 352.198C545.987 352.457 546.211 352.66 546.493 352.806C546.78 352.952 547.111 353.025 547.484 353.025Z" fill="#1A1A1C"/>
<rect x="575.372" y="206.113" width="4" height="125.695" fill="url(#paint17_linear_43_1277)"/>
<path d="M574.979 348.622V358.808H573.776V349.921H573.708L571.233 351.575V350.318L573.776 348.622H574.979ZM579.792 348.486C580.211 348.49 580.628 348.57 581.043 348.725C581.462 348.88 581.845 349.137 582.191 349.497C582.538 349.857 582.813 350.347 583.019 350.967C583.228 351.587 583.333 352.364 583.333 353.298C583.333 354.205 583.249 355.009 583.08 355.711C582.911 356.408 582.665 356.999 582.342 357.482C582.023 357.96 581.635 358.325 581.18 358.575C580.724 358.822 580.211 358.945 579.642 358.945C579.072 358.945 578.562 358.831 578.11 358.603C577.664 358.375 577.299 358.058 577.017 357.653C576.734 357.247 576.552 356.775 576.47 356.238H577.687C577.796 356.707 578.015 357.094 578.343 357.4C578.671 357.7 579.104 357.851 579.642 357.851C580.425 357.851 581.043 357.509 581.494 356.825C581.95 356.137 582.18 355.167 582.185 353.913H582.103C581.916 354.191 581.695 354.433 581.439 354.638C581.184 354.838 580.902 354.993 580.592 355.103C580.282 355.212 579.951 355.267 579.601 355.267C579.017 355.267 578.482 355.123 577.994 354.836C577.507 354.545 577.117 354.146 576.825 353.64C576.538 353.129 576.392 352.546 576.388 351.89C576.392 351.266 576.534 350.696 576.812 350.181C577.094 349.661 577.488 349.247 577.994 348.937C578.505 348.627 579.104 348.476 579.792 348.486ZM579.792 349.579C579.377 349.579 579.001 349.684 578.664 349.894C578.331 350.099 578.069 350.377 577.878 350.728C577.687 351.074 577.591 351.462 577.591 351.89C577.591 352.314 577.682 352.699 577.864 353.045C578.051 353.392 578.309 353.667 578.637 353.872C578.965 354.073 579.336 354.173 579.751 354.173C580.17 354.173 580.549 354.066 580.886 353.852C581.228 353.633 581.499 353.348 581.699 352.997C581.904 352.646 582.007 352.268 582.007 351.863C582.007 351.466 581.911 351.095 581.72 350.748C581.528 350.397 581.266 350.115 580.934 349.901C580.601 349.686 580.22 349.579 579.792 349.579Z" fill="#1A1A1C"/>
<rect x="608.248" y="232.113" width="4" height="99" fill="url(#paint18_linear_43_1277)"/>
<path d="M603.016 358.113V357.224L606.379 353.533C606.771 353.104 607.092 352.731 607.343 352.412C607.598 352.093 607.787 351.792 607.91 351.509C608.038 351.227 608.102 350.931 608.102 350.621C608.102 350.261 608.015 349.951 607.842 349.691C607.673 349.427 607.443 349.224 607.151 349.083C606.86 348.941 606.529 348.871 606.16 348.871C605.768 348.871 605.426 348.95 605.135 349.11C604.848 349.269 604.624 349.495 604.465 349.787C604.31 350.074 604.232 350.411 604.232 350.798H603.057C603.057 350.201 603.193 349.677 603.467 349.226C603.745 348.775 604.121 348.424 604.595 348.173C605.073 347.918 605.609 347.791 606.201 347.791C606.798 347.791 607.327 347.918 607.787 348.173C608.247 348.424 608.607 348.764 608.867 349.192C609.132 349.616 609.264 350.092 609.264 350.621C609.264 350.994 609.195 351.359 609.059 351.714C608.926 352.065 608.694 352.459 608.361 352.897C608.033 353.334 607.577 353.865 606.994 354.49L604.711 356.937V357.019H609.441V358.113H603.016ZM614.158 358.25C613.411 358.25 612.773 358.044 612.244 357.634C611.715 357.224 611.312 356.632 611.034 355.857C610.756 355.078 610.617 354.134 610.617 353.027C610.617 351.924 610.756 350.983 611.034 350.204C611.317 349.42 611.722 348.823 612.251 348.413C612.78 347.998 613.415 347.791 614.158 347.791C614.901 347.791 615.537 347.998 616.065 348.413C616.594 348.823 616.997 349.42 617.275 350.204C617.558 350.983 617.699 351.924 617.699 353.027C617.699 354.134 617.56 355.078 617.282 355.857C617.004 356.632 616.601 357.224 616.072 357.634C615.548 358.044 614.91 358.25 614.158 358.25ZM614.158 357.169C614.664 357.169 615.092 357.008 615.443 356.684C615.794 356.356 616.061 355.882 616.243 355.262C616.43 354.642 616.523 353.897 616.523 353.027C616.523 352.152 616.43 351.404 616.243 350.785C616.061 350.165 615.794 349.691 615.443 349.363C615.092 349.035 614.664 348.871 614.158 348.871C613.402 348.871 612.818 349.235 612.408 349.964C611.998 350.694 611.793 351.714 611.793 353.027C611.793 353.897 611.884 354.642 612.066 355.262C612.253 355.882 612.522 356.356 612.873 356.684C613.229 357.008 613.657 357.169 614.158 357.169Z" fill="#1A1A1C"/>
<rect x="641.124" y="159.113" width="4" height="172.695" fill="url(#paint19_linear_43_1277)"/>
<path d="M637.45 358.808V357.919L640.813 354.228C641.205 353.799 641.527 353.426 641.777 353.107C642.033 352.788 642.222 352.487 642.345 352.204C642.472 351.922 642.536 351.626 642.536 351.316C642.536 350.956 642.45 350.646 642.276 350.386C642.108 350.122 641.878 349.919 641.586 349.778C641.294 349.636 640.964 349.566 640.595 349.566C640.203 349.566 639.861 349.645 639.569 349.805C639.282 349.964 639.059 350.19 638.899 350.482C638.744 350.769 638.667 351.106 638.667 351.493H637.491C637.491 350.896 637.628 350.372 637.901 349.921C638.179 349.47 638.555 349.119 639.029 348.868C639.508 348.613 640.043 348.486 640.636 348.486C641.233 348.486 641.761 348.613 642.222 348.868C642.682 349.119 643.042 349.459 643.302 349.887C643.566 350.311 643.698 350.787 643.698 351.316C643.698 351.689 643.63 352.054 643.493 352.409C643.361 352.76 643.129 353.155 642.796 353.592C642.468 354.03 642.012 354.56 641.429 355.185L639.146 357.632V357.714H643.876V358.808H637.45ZM648.62 348.622V358.808H647.417V349.921H647.349L644.874 351.575V350.318L647.417 348.622H648.62Z" fill="#1A1A1C"/>
<rect x="673.5" y="199.113" width="4" height="132" fill="url(#paint20_linear_43_1277)"/>
<path d="M668.404 358.113V357.224L671.768 353.533C672.16 353.104 672.481 352.731 672.731 352.412C672.987 352.093 673.176 351.792 673.299 351.509C673.426 351.227 673.49 350.931 673.49 350.621C673.49 350.261 673.404 349.951 673.23 349.691C673.062 349.427 672.832 349.224 672.54 349.083C672.248 348.941 671.918 348.871 671.549 348.871C671.157 348.871 670.815 348.95 670.523 349.11C670.236 349.269 670.013 349.495 669.854 349.787C669.699 350.074 669.621 350.411 669.621 350.798H668.445C668.445 350.201 668.582 349.677 668.855 349.226C669.133 348.775 669.509 348.424 669.983 348.173C670.462 347.918 670.997 347.791 671.59 347.791C672.187 347.791 672.715 347.918 673.176 348.173C673.636 348.424 673.996 348.764 674.256 349.192C674.52 349.616 674.652 350.092 674.652 350.621C674.652 350.994 674.584 351.359 674.447 351.714C674.315 352.065 674.083 352.459 673.75 352.897C673.422 353.334 672.966 353.865 672.383 354.49L670.1 356.937V357.019H674.83V358.113H668.404ZM676.225 358.113V357.224L679.588 353.533C679.98 353.104 680.301 352.731 680.552 352.412C680.807 352.093 680.996 351.792 681.119 351.509C681.247 351.227 681.311 350.931 681.311 350.621C681.311 350.261 681.224 349.951 681.051 349.691C680.882 349.427 680.652 349.224 680.36 349.083C680.069 348.941 679.738 348.871 679.369 348.871C678.977 348.871 678.635 348.95 678.344 349.11C678.057 349.269 677.833 349.495 677.674 349.787C677.519 350.074 677.441 350.411 677.441 350.798H676.266C676.266 350.201 676.402 349.677 676.676 349.226C676.954 348.775 677.33 348.424 677.804 348.173C678.282 347.918 678.818 347.791 679.41 347.791C680.007 347.791 680.536 347.918 680.996 348.173C681.456 348.424 681.816 348.764 682.076 349.192C682.34 349.616 682.473 350.092 682.473 350.621C682.473 350.994 682.404 351.359 682.268 351.714C682.135 352.065 681.903 352.459 681.57 352.897C681.242 353.334 680.786 353.865 680.203 354.49L677.92 356.937V357.019H682.65V358.113H676.225Z" fill="#1A1A1C"/>
<rect y="229" width="698" height="179" fill="url(#paint21_linear_43_1277)"/>
<defs>
<linearGradient id="paint0_linear_43_1277" x1="63.8018" y1="194.808" x2="63.8018" y2="330.808" gradientUnits="userSpaceOnUse">
<stop stop-color="#864FFE"/>
<stop offset="1" stop-color="white" stop-opacity="0"/>
</linearGradient>
<linearGradient id="paint1_linear_43_1277" x1="90.9756" y1="224.808" x2="90.9756" y2="330.808" gradientUnits="userSpaceOnUse">
<stop stop-color="#864FFE"/>
<stop offset="1" stop-color="white" stop-opacity="0"/>
</linearGradient>
<linearGradient id="paint2_linear_43_1277" x1="119.499" y1="149.808" x2="119.499" y2="331.808" gradientUnits="userSpaceOnUse">
<stop stop-color="#864FFE"/>
<stop offset="1" stop-color="white" stop-opacity="0"/>
</linearGradient>
<linearGradient id="paint3_linear_43_1277" x1="148.147" y1="264.808" x2="148.147" y2="331.808" gradientUnits="userSpaceOnUse">
<stop stop-color="#864FFE"/>
<stop offset="1" stop-color="white" stop-opacity="0"/>
</linearGradient>
<linearGradient id="paint4_linear_43_1277" x1="176.185" y1="196.808" x2="176.185" y2="330.808" gradientUnits="userSpaceOnUse">
<stop stop-color="#864FFE"/>
<stop offset="1" stop-color="white" stop-opacity="0"/>
</linearGradient>
<linearGradient id="paint5_linear_43_1277" x1="203.733" y1="284.113" x2="203.733" y2="330.808" gradientUnits="userSpaceOnUse">
<stop stop-color="#864FFE"/>
<stop offset="1" stop-color="white" stop-opacity="0"/>
</linearGradient>
<linearGradient id="paint6_linear_43_1277" x1="231.609" y1="244.113" x2="231.609" y2="329.113" gradientUnits="userSpaceOnUse">
<stop stop-color="#864FFE"/>
<stop offset="1" stop-color="white" stop-opacity="0"/>
</linearGradient>
<linearGradient id="paint7_linear_43_1277" x1="259.985" y1="206.808" x2="259.985" y2="331.808" gradientUnits="userSpaceOnUse">
<stop stop-color="#864FFE"/>
<stop offset="1" stop-color="white" stop-opacity="0"/>
</linearGradient>
<linearGradient id="paint8_linear_43_1277" x1="288.003" y1="264.808" x2="288.003" y2="331.808" gradientUnits="userSpaceOnUse">
<stop stop-color="#864FFE"/>
<stop offset="1" stop-color="white" stop-opacity="0"/>
</linearGradient>
<linearGradient id="paint9_linear_43_1277" x1="318.521" y1="225.808" x2="318.521" y2="331.808" gradientUnits="userSpaceOnUse">
<stop stop-color="#864FFE"/>
<stop offset="1" stop-color="white" stop-opacity="0"/>
</linearGradient>
<linearGradient id="paint10_linear_43_1277" x1="350.396" y1="178.808" x2="350.396" y2="331.808" gradientUnits="userSpaceOnUse">
<stop stop-color="#864FFE"/>
<stop offset="1" stop-color="white" stop-opacity="0"/>
</linearGradient>
<linearGradient id="paint11_linear_43_1277" x1="381.772" y1="236.113" x2="381.772" y2="330.808" gradientUnits="userSpaceOnUse">
<stop stop-color="#864FFE"/>
<stop offset="1" stop-color="white" stop-opacity="0"/>
</linearGradient>
<linearGradient id="paint12_linear_43_1277" x1="414.316" y1="250.808" x2="414.316" y2="330.808" gradientUnits="userSpaceOnUse">
<stop stop-color="#864FFE"/>
<stop offset="1" stop-color="white" stop-opacity="0"/>
</linearGradient>
<linearGradient id="paint13_linear_43_1277" x1="447.028" y1="206.808" x2="447.028" y2="331.808" gradientUnits="userSpaceOnUse">
<stop stop-color="#864FFE"/>
<stop offset="1" stop-color="white" stop-opacity="0"/>
</linearGradient>
<linearGradient id="paint14_linear_43_1277" x1="479.74" y1="238.808" x2="479.74" y2="331.808" gradientUnits="userSpaceOnUse">
<stop stop-color="#864FFE"/>
<stop offset="1" stop-color="white" stop-opacity="0"/>
</linearGradient>
<linearGradient id="paint15_linear_43_1277" x1="512.452" y1="119.808" x2="512.452" y2="331.808" gradientUnits="userSpaceOnUse">
<stop stop-color="#864FFE"/>
<stop offset="1" stop-color="white" stop-opacity="0"/>
</linearGradient>
<linearGradient id="paint16_linear_43_1277" x1="544.996" y1="159.113" x2="544.996" y2="331.808" gradientUnits="userSpaceOnUse">
<stop stop-color="#864FFE"/>
<stop offset="1" stop-color="white" stop-opacity="0"/>
</linearGradient>
<linearGradient id="paint17_linear_43_1277" x1="577.372" y1="206.113" x2="577.372" y2="331.808" gradientUnits="userSpaceOnUse">
<stop stop-color="#864FFE"/>
<stop offset="1" stop-color="white" stop-opacity="0"/>
</linearGradient>
<linearGradient id="paint18_linear_43_1277" x1="610.248" y1="232.113" x2="610.248" y2="331.113" gradientUnits="userSpaceOnUse">
<stop stop-color="#864FFE"/>
<stop offset="1" stop-color="white" stop-opacity="0"/>
</linearGradient>
<linearGradient id="paint19_linear_43_1277" x1="643.124" y1="159.113" x2="643.124" y2="331.808" gradientUnits="userSpaceOnUse">
<stop stop-color="#864FFE"/>
<stop offset="1" stop-color="white" stop-opacity="0"/>
</linearGradient>
<linearGradient id="paint20_linear_43_1277" x1="675.5" y1="199.113" x2="675.5" y2="331.113" gradientUnits="userSpaceOnUse">
<stop stop-color="#864FFE"/>
<stop offset="1" stop-color="white" stop-opacity="0"/>
</linearGradient>
<linearGradient id="paint21_linear_43_1277" x1="349" y1="188.655" x2="349" y2="390.842" gradientUnits="userSpaceOnUse">
<stop stop-color="white" stop-opacity="0"/>
<stop offset="0.725315" stop-color="white" stop-opacity="0"/>
<stop offset="0.846256" stop-color="white"/>
<stop offset="1" stop-color="white"/>
</linearGradient>
</defs>
</svg>
