<svg width="585" height="285" viewBox="0 0 585 285" fill="none" xmlns="http://www.w3.org/2000/svg">
<path d="M1.51562 7.85205L4.96875 17.6489H5.10938L8.5625 7.85205H10.0312L5.76562 19.4927H4.3125L0.03125 7.85205H1.51562ZM10.9219 19.4927V10.7583H12.25V19.4927H10.9219ZM11.5938 9.30518C11.3333 9.30518 11.1094 9.21663 10.9219 9.03955C10.7344 8.86247 10.6406 8.64893 10.6406 8.39893C10.6406 8.14893 10.7344 7.93538 10.9219 7.7583C11.1094 7.58122 11.3333 7.49268 11.5938 7.49268C11.8542 7.49268 12.0781 7.58122 12.2656 7.7583C12.4531 7.93538 12.5469 8.14893 12.5469 8.39893C12.5469 8.64893 12.4531 8.86247 12.2656 9.03955C12.0781 9.21663 11.8542 9.30518 11.5938 9.30518ZM20.1406 12.7271L18.9375 13.0552C18.8229 12.7583 18.625 12.4771 18.3438 12.2114C18.0677 11.9406 17.6354 11.8052 17.0469 11.8052C16.5156 11.8052 16.0729 11.9302 15.7188 12.1802C15.3646 12.425 15.1875 12.7323 15.1875 13.1021C15.1875 13.4354 15.3073 13.701 15.5469 13.8989C15.7917 14.0968 16.1719 14.2583 16.6875 14.3833L17.9844 14.6958C18.7604 14.8833 19.3385 15.1724 19.7188 15.563C20.1042 15.9536 20.2969 16.451 20.2969 17.0552C20.2969 17.5552 20.1536 18.0031 19.8672 18.3989C19.5807 18.7948 19.1823 19.1073 18.6719 19.3364C18.1615 19.5656 17.5677 19.6802 16.8906 19.6802C16 19.6802 15.263 19.4849 14.6797 19.0942C14.1016 18.7036 13.7344 18.1385 13.5781 17.3989L14.8438 17.0864C14.9635 17.5552 15.1927 17.9067 15.5312 18.1411C15.875 18.3755 16.3229 18.4927 16.875 18.4927C17.4948 18.4927 17.9896 18.3599 18.3594 18.0942C18.7344 17.8234 18.9219 17.5031 18.9219 17.1333C18.9219 16.5187 18.4896 16.1073 17.625 15.8989L16.1719 15.5552C15.3698 15.3625 14.7812 15.0682 14.4062 14.6724C14.0312 14.2765 13.8438 13.7791 13.8438 13.1802C13.8438 12.6854 13.9818 12.2479 14.2578 11.8677C14.5391 11.4875 14.9219 11.1906 15.4062 10.9771C15.8906 10.7583 16.4375 10.6489 17.0469 10.6489C17.9167 10.6489 18.5964 10.8416 19.0859 11.2271C19.5807 11.6073 19.9323 12.1073 20.1406 12.7271ZM21.5781 19.4927V10.7583H22.9062V19.4927H21.5781ZM22.25 9.30518C21.9896 9.30518 21.7656 9.21663 21.5781 9.03955C21.3906 8.86247 21.2969 8.64893 21.2969 8.39893C21.2969 8.14893 21.3906 7.93538 21.5781 7.7583C21.7656 7.58122 21.9896 7.49268 22.25 7.49268C22.5104 7.49268 22.7344 7.58122 22.9219 7.7583C23.1094 7.93538 23.2031 8.14893 23.2031 8.39893C23.2031 8.64893 23.1094 8.86247 22.9219 9.03955C22.7344 9.21663 22.5104 9.30518 22.25 9.30518ZM28.4062 10.7583V11.8989H23.8906V10.7583H28.4062ZM25.2031 8.68018H26.5312V16.9927C26.5312 17.4458 26.625 17.7791 26.8125 17.9927C27 18.201 27.2969 18.3052 27.7031 18.3052C27.7917 18.3052 27.8828 18.3 27.9766 18.2896C28.0755 18.2791 28.1823 18.2635 28.2969 18.2427L28.5781 19.4458C28.4531 19.4927 28.2995 19.5291 28.1172 19.5552C27.9401 19.5864 27.7604 19.6021 27.5781 19.6021C26.875 19.6021 26.3021 19.3937 25.8594 18.9771C25.4219 18.5604 25.2031 18.0187 25.2031 17.3521V8.68018ZM33.125 19.6802C32.3385 19.6802 31.6484 19.4927 31.0547 19.1177C30.4609 18.7427 29.9974 18.2166 29.6641 17.5396C29.3359 16.8625 29.1719 16.076 29.1719 15.1802C29.1719 14.2687 29.3359 13.4744 29.6641 12.7974C29.9974 12.1151 30.4609 11.5864 31.0547 11.2114C31.6484 10.8364 32.3385 10.6489 33.125 10.6489C33.9167 10.6489 34.6094 10.8364 35.2031 11.2114C35.7969 11.5864 36.2604 12.1151 36.5938 12.7974C36.9271 13.4744 37.0938 14.2687 37.0938 15.1802C37.0938 16.076 36.9271 16.8625 36.5938 17.5396C36.2604 18.2166 35.7969 18.7427 35.2031 19.1177C34.6094 19.4927 33.9167 19.6802 33.125 19.6802ZM33.125 18.4771C33.7292 18.4771 34.224 18.3234 34.6094 18.0161C34.9948 17.7088 35.2812 17.3052 35.4688 16.8052C35.6562 16.3 35.75 15.7583 35.75 15.1802C35.75 14.5916 35.6562 14.0448 35.4688 13.5396C35.2812 13.0343 34.9948 12.6281 34.6094 12.3208C34.224 12.0083 33.7292 11.8521 33.125 11.8521C32.5312 11.8521 32.0417 12.0083 31.6562 12.3208C31.2708 12.6281 30.9844 13.0343 30.7969 13.5396C30.6094 14.0448 30.5156 14.5916 30.5156 15.1802C30.5156 15.7583 30.6094 16.3 30.7969 16.8052C30.9844 17.3052 31.2708 17.7088 31.6562 18.0161C32.0417 18.3234 32.5312 18.4771 33.125 18.4771ZM38.3906 19.4927V10.7583H39.6719V12.0864H39.7656C39.9271 11.6541 40.2161 11.3052 40.6328 11.0396C41.0547 10.7687 41.526 10.6333 42.0469 10.6333C42.1458 10.6333 42.2682 10.6359 42.4141 10.6411C42.5599 10.6411 42.6719 10.6437 42.75 10.6489V12.0083C42.7031 11.9979 42.599 11.9823 42.4375 11.9614C42.276 11.9406 42.1042 11.9302 41.9219 11.9302C41.5 11.9302 41.1224 12.0187 40.7891 12.1958C40.4557 12.3729 40.1927 12.6151 40 12.9224C39.8125 13.2297 39.7188 13.5812 39.7188 13.9771V19.4927H38.3906ZM49.7656 12.7271L48.5625 13.0552C48.4479 12.7583 48.25 12.4771 47.9688 12.2114C47.6927 11.9406 47.2604 11.8052 46.6719 11.8052C46.1406 11.8052 45.6979 11.9302 45.3438 12.1802C44.9896 12.425 44.8125 12.7323 44.8125 13.1021C44.8125 13.4354 44.9323 13.701 45.1719 13.8989C45.4167 14.0968 45.7969 14.2583 46.3125 14.3833L47.6094 14.6958C48.3854 14.8833 48.9635 15.1724 49.3438 15.563C49.7292 15.9536 49.9219 16.451 49.9219 17.0552C49.9219 17.5552 49.7786 18.0031 49.4922 18.3989C49.2057 18.7948 48.8073 19.1073 48.2969 19.3364C47.7865 19.5656 47.1927 19.6802 46.5156 19.6802C45.625 19.6802 44.888 19.4849 44.3047 19.0942C43.7266 18.7036 43.3594 18.1385 43.2031 17.3989L44.4688 17.0864C44.5885 17.5552 44.8177 17.9067 45.1562 18.1411C45.5 18.3755 45.9479 18.4927 46.5 18.4927C47.1198 18.4927 47.6146 18.3599 47.9844 18.0942C48.3594 17.8234 48.5469 17.5031 48.5469 17.1333C48.5469 16.5187 48.1146 16.1073 47.25 15.8989L45.7969 15.5552C44.9948 15.3625 44.4062 15.0682 44.0312 14.6724C43.6562 14.2765 43.4688 13.7791 43.4688 13.1802C43.4688 12.6854 43.6068 12.2479 43.8828 11.8677C44.1641 11.4875 44.5469 11.1906 45.0312 10.9771C45.5156 10.7583 46.0625 10.6489 46.6719 10.6489C47.5417 10.6489 48.2214 10.8416 48.7109 11.2271C49.2057 11.6073 49.5573 12.1073 49.7656 12.7271ZM55.6094 19.4927H54.125L58.4062 7.85205H59.8594L64.125 19.4927H62.6562L59.1719 9.6958H59.0781L55.6094 19.4927ZM56.1562 14.9458H62.1094V16.1958H56.1562V14.9458ZM66.3438 14.2427V19.4927H65.0156V10.7583H66.2969V12.1333H66.4219C66.625 11.6854 66.9349 11.326 67.3516 11.0552C67.7682 10.7843 68.3073 10.6489 68.9688 10.6489C69.5573 10.6489 70.0729 10.7687 70.5156 11.0083C70.9583 11.2479 71.3021 11.6125 71.5469 12.1021C71.7969 12.5864 71.9219 13.201 71.9219 13.9458V19.4927H70.5938V14.0396C70.5938 13.3573 70.4141 12.8234 70.0547 12.438C69.6953 12.0474 69.2057 11.8521 68.5859 11.8521C68.1589 11.8521 67.776 11.9458 67.4375 12.1333C67.099 12.3208 66.8307 12.5916 66.6328 12.9458C66.4401 13.3 66.3438 13.7323 66.3438 14.2427ZM76.2031 19.6958C75.651 19.6958 75.1484 19.5916 74.6953 19.3833C74.2422 19.1698 73.8828 18.8625 73.6172 18.4614C73.3516 18.0604 73.2188 17.576 73.2188 17.0083C73.2188 16.5083 73.3177 16.1047 73.5156 15.7974C73.7135 15.4849 73.9766 15.2401 74.3047 15.063C74.638 14.8807 75.0026 14.7453 75.3984 14.6567C75.7995 14.5682 76.2031 14.4979 76.6094 14.4458C77.1406 14.3781 77.5703 14.326 77.8984 14.2896C78.2318 14.2531 78.474 14.1906 78.625 14.1021C78.7812 14.0135 78.8594 13.8625 78.8594 13.6489V13.6021C78.8594 13.0448 78.7057 12.6125 78.3984 12.3052C78.0964 11.9927 77.6354 11.8364 77.0156 11.8364C76.3802 11.8364 75.8802 11.9771 75.5156 12.2583C75.151 12.5343 74.8958 12.8312 74.75 13.1489L73.4688 12.6958C73.6979 12.1646 74.0026 11.7505 74.3828 11.4536C74.7682 11.1567 75.1849 10.9484 75.6328 10.8286C76.0859 10.7088 76.5312 10.6489 76.9688 10.6489C77.25 10.6489 77.5729 10.6828 77.9375 10.7505C78.3021 10.813 78.6562 10.9484 79 11.1567C79.349 11.3599 79.6354 11.6698 79.8594 12.0864C80.0885 12.4979 80.2031 13.05 80.2031 13.7427V19.4927H78.8594V18.3052H78.7969C78.7083 18.4927 78.5573 18.6958 78.3438 18.9146C78.1302 19.1281 77.8464 19.313 77.4922 19.4692C77.1432 19.6203 76.7135 19.6958 76.2031 19.6958ZM76.4062 18.4927C76.9375 18.4927 77.3854 18.3885 77.75 18.1802C78.1146 17.9718 78.3906 17.7036 78.5781 17.3755C78.7656 17.0422 78.8594 16.6958 78.8594 16.3364V15.1021C78.8021 15.1698 78.6771 15.2323 78.4844 15.2896C78.2969 15.3416 78.0781 15.3885 77.8281 15.4302C77.5833 15.4718 77.3438 15.5083 77.1094 15.5396C76.875 15.5656 76.6875 15.5864 76.5469 15.6021C76.1979 15.6489 75.8724 15.7244 75.5703 15.8286C75.2682 15.9276 75.0234 16.076 74.8359 16.2739C74.6536 16.4718 74.5625 16.7427 74.5625 17.0864C74.5625 17.55 74.7344 17.9015 75.0781 18.1411C75.4271 18.3755 75.8698 18.4927 76.4062 18.4927ZM83.25 7.85205V19.4927H81.9219V7.85205H83.25ZM85.8281 22.7583C85.599 22.7635 85.3958 22.7479 85.2188 22.7114C85.0417 22.675 84.9167 22.6385 84.8438 22.6021L85.1875 21.4302L85.3203 21.4614C85.7682 21.5656 86.1432 21.5422 86.4453 21.3911C86.7526 21.2453 87.0208 20.8573 87.25 20.2271L87.5 19.5396L84.2812 10.7583H85.7344L88.1406 17.7271H88.2344L90.6406 10.7583H92.0938L88.3906 20.7583C88.224 21.2114 88.0182 21.5864 87.7734 21.8833C87.5286 22.1802 87.2448 22.3989 86.9219 22.5396C86.599 22.6854 86.2344 22.7583 85.8281 22.7583ZM96.9062 10.7583V11.8989H92.3906V10.7583H96.9062ZM93.7031 8.68018H95.0312V16.9927C95.0312 17.4458 95.125 17.7791 95.3125 17.9927C95.5 18.201 95.7969 18.3052 96.2031 18.3052C96.2917 18.3052 96.3828 18.3 96.4766 18.2896C96.5755 18.2791 96.6823 18.2635 96.7969 18.2427L97.0781 19.4458C96.9531 19.4927 96.7995 19.5291 96.6172 19.5552C96.4401 19.5864 96.2604 19.6021 96.0781 19.6021C95.375 19.6021 94.8021 19.3937 94.3594 18.9771C93.9219 18.5604 93.7031 18.0187 93.7031 17.3521V8.68018ZM98.1875 19.4927V10.7583H99.5156V19.4927H98.1875ZM98.8594 9.30518C98.599 9.30518 98.375 9.21663 98.1875 9.03955C98 8.86247 97.9062 8.64893 97.9062 8.39893C97.9062 8.14893 98 7.93538 98.1875 7.7583C98.375 7.58122 98.599 7.49268 98.8594 7.49268C99.1198 7.49268 99.3438 7.58122 99.5312 7.7583C99.7188 7.93538 99.8125 8.14893 99.8125 8.39893C99.8125 8.64893 99.7188 8.86247 99.5312 9.03955C99.3438 9.21663 99.1198 9.30518 98.8594 9.30518ZM104.766 19.6802C103.953 19.6802 103.25 19.4875 102.656 19.1021C102.068 18.7114 101.612 18.1776 101.289 17.5005C100.971 16.8234 100.812 16.05 100.812 15.1802C100.812 14.2896 100.977 13.5057 101.305 12.8286C101.633 12.1463 102.091 11.6125 102.68 11.2271C103.273 10.8416 103.964 10.6489 104.75 10.6489C105.365 10.6489 105.917 10.7635 106.406 10.9927C106.901 11.2166 107.305 11.5343 107.617 11.9458C107.935 12.3573 108.13 12.8364 108.203 13.3833H106.859C106.792 13.1177 106.669 12.8677 106.492 12.6333C106.315 12.3989 106.081 12.2114 105.789 12.0708C105.503 11.925 105.161 11.8521 104.766 11.8521C104.245 11.8521 103.789 11.9875 103.398 12.2583C103.008 12.5291 102.703 12.9119 102.484 13.4067C102.266 13.8963 102.156 14.4718 102.156 15.1333C102.156 15.8052 102.263 16.3937 102.477 16.8989C102.69 17.3989 102.992 17.7869 103.383 18.063C103.779 18.339 104.24 18.4771 104.766 18.4771C105.292 18.4771 105.742 18.3416 106.117 18.0708C106.492 17.7948 106.74 17.4198 106.859 16.9458H108.203C108.13 17.4614 107.943 17.925 107.641 18.3364C107.344 18.7479 106.951 19.076 106.461 19.3208C105.977 19.5604 105.411 19.6802 104.766 19.6802ZM115.641 12.7271L114.438 13.0552C114.323 12.7583 114.125 12.4771 113.844 12.2114C113.568 11.9406 113.135 11.8052 112.547 11.8052C112.016 11.8052 111.573 11.9302 111.219 12.1802C110.865 12.425 110.688 12.7323 110.688 13.1021C110.688 13.4354 110.807 13.701 111.047 13.8989C111.292 14.0968 111.672 14.2583 112.188 14.3833L113.484 14.6958C114.26 14.8833 114.839 15.1724 115.219 15.563C115.604 15.9536 115.797 16.451 115.797 17.0552C115.797 17.5552 115.654 18.0031 115.367 18.3989C115.081 18.7948 114.682 19.1073 114.172 19.3364C113.661 19.5656 113.068 19.6802 112.391 19.6802C111.5 19.6802 110.763 19.4849 110.18 19.0942C109.602 18.7036 109.234 18.1385 109.078 17.3989L110.344 17.0864C110.464 17.5552 110.693 17.9067 111.031 18.1411C111.375 18.3755 111.823 18.4927 112.375 18.4927C112.995 18.4927 113.49 18.3599 113.859 18.0942C114.234 17.8234 114.422 17.5031 114.422 17.1333C114.422 16.5187 113.99 16.1073 113.125 15.8989L111.672 15.5552C110.87 15.3625 110.281 15.0682 109.906 14.6724C109.531 14.2765 109.344 13.7791 109.344 13.1802C109.344 12.6854 109.482 12.2479 109.758 11.8677C110.039 11.4875 110.422 11.1906 110.906 10.9771C111.391 10.7583 111.938 10.6489 112.547 10.6489C113.417 10.6489 114.096 10.8416 114.586 11.2271C115.081 11.6073 115.432 12.1073 115.641 12.7271Z" fill="#1A1A1C"/>
<rect x="502.913" y="0.449275" width="81.6377" height="26.087" rx="3.14493" fill="white"/>
<rect x="502.913" y="0.449275" width="81.6377" height="26.087" rx="3.14493" stroke="#ECEFF4" stroke-width="0.898551"/>
<path d="M515.366 8.76221H516.632L519.597 16.0044H519.702L522.667 8.76221H523.974V17.4927H522.937V10.8599H522.854L520.106 17.4927H519.157L516.444 10.8599H516.362V17.4927H515.366V8.76221ZM528.046 17.6333C527.456 17.6333 526.938 17.4927 526.493 17.2114C526.048 16.9302 525.7 16.5356 525.45 16.0278C525.204 15.52 525.081 14.9302 525.081 14.2583C525.081 13.5747 525.204 12.979 525.45 12.4712C525.7 11.9595 526.048 11.563 526.493 11.2817C526.938 11.0005 527.456 10.8599 528.046 10.8599C528.64 10.8599 529.159 11.0005 529.604 11.2817C530.05 11.563 530.397 11.9595 530.647 12.4712C530.897 12.979 531.022 13.5747 531.022 14.2583C531.022 14.9302 530.897 15.52 530.647 16.0278C530.397 16.5356 530.05 16.9302 529.604 17.2114C529.159 17.4927 528.64 17.6333 528.046 17.6333ZM528.046 16.731C528.499 16.731 528.87 16.6157 529.159 16.3853C529.448 16.1548 529.663 15.8521 529.804 15.4771C529.944 15.0981 530.015 14.6919 530.015 14.2583C530.015 13.8169 529.944 13.4067 529.804 13.0278C529.663 12.6489 529.448 12.3442 529.159 12.1138C528.87 11.8794 528.499 11.7622 528.046 11.7622C527.601 11.7622 527.233 11.8794 526.944 12.1138C526.655 12.3442 526.44 12.6489 526.3 13.0278C526.159 13.4067 526.089 13.8169 526.089 14.2583C526.089 14.6919 526.159 15.0981 526.3 15.4771C526.44 15.8521 526.655 16.1548 526.944 16.3853C527.233 16.6157 527.601 16.731 528.046 16.731ZM532.991 13.5552V17.4927H531.995V10.9419H532.956V11.9731H533.05C533.202 11.6372 533.435 11.3677 533.747 11.1646C534.06 10.9614 534.464 10.8599 534.96 10.8599C535.401 10.8599 535.788 10.9497 536.12 11.1294C536.452 11.3091 536.71 11.5825 536.894 11.9497C537.081 12.313 537.175 12.7739 537.175 13.3325V17.4927H536.179V13.4028C536.179 12.8911 536.044 12.4907 535.774 12.2017C535.505 11.9087 535.138 11.7622 534.673 11.7622C534.353 11.7622 534.065 11.8325 533.812 11.9731C533.558 12.1138 533.356 12.3169 533.208 12.5825C533.063 12.8481 532.991 13.1724 532.991 13.5552ZM541.3 10.9419V11.7974H537.913V10.9419H541.3ZM538.897 9.3833H539.894V15.6177C539.894 15.9575 539.964 16.2075 540.104 16.3677C540.245 16.5239 540.468 16.6021 540.772 16.6021C540.839 16.6021 540.907 16.5981 540.978 16.5903C541.052 16.5825 541.132 16.5708 541.218 16.5552L541.429 17.4575C541.335 17.4927 541.22 17.52 541.083 17.5396C540.95 17.563 540.815 17.5747 540.679 17.5747C540.151 17.5747 539.722 17.4185 539.39 17.106C539.062 16.7935 538.897 16.3872 538.897 15.8872V9.3833ZM543.397 13.5552V17.4927H542.401V8.76221H543.397V11.9731H543.491C543.644 11.6333 543.872 11.3638 544.177 11.1646C544.485 10.9614 544.897 10.8599 545.413 10.8599C545.858 10.8599 546.249 10.9497 546.585 11.1294C546.921 11.3052 547.183 11.5767 547.37 11.9438C547.558 12.3071 547.651 12.77 547.651 13.3325V17.4927H546.644V13.4028C546.644 12.8794 546.509 12.4751 546.239 12.1899C545.97 11.9048 545.597 11.7622 545.12 11.7622C544.788 11.7622 544.493 11.8325 544.235 11.9731C543.978 12.1138 543.772 12.3169 543.62 12.5825C543.472 12.8481 543.397 13.1724 543.397 13.5552ZM549.937 8.76221V17.4927H548.94V8.76221H549.937ZM551.87 19.9419C551.698 19.9458 551.546 19.9341 551.413 19.9067C551.28 19.8794 551.187 19.8521 551.132 19.8247L551.39 18.9458L551.489 18.9692C551.825 19.0474 552.106 19.0298 552.333 18.9165C552.563 18.8071 552.765 18.5161 552.937 18.0435L553.124 17.5278L550.71 10.9419H551.8L553.604 16.1685H553.675L555.479 10.9419H556.569L553.792 18.4419C553.667 18.7817 553.513 19.063 553.329 19.2856C553.146 19.5083 552.933 19.6724 552.69 19.7778C552.448 19.8872 552.175 19.9419 551.87 19.9419Z" fill="#1A1A1C"/>
<path d="M564.757 11.7746C564.757 11.7217 564.783 11.6556 564.823 11.616C564.915 11.5234 565.061 11.5234 565.153 11.6027L568.696 14.9336C568.762 14.9997 568.881 14.9997 568.96 14.9336L572.502 11.6027C572.595 11.5102 572.74 11.5234 572.833 11.616C572.925 11.7085 572.912 11.8539 572.82 11.9464L569.277 15.2773C569.026 15.502 568.63 15.502 568.392 15.2773L564.836 11.9464C564.783 11.8935 564.757 11.8407 564.757 11.7746Z" fill="#1A1A1C"/>
<path fill-rule="evenodd" clip-rule="evenodd" d="M565.436 11.2879L568.828 14.4773L572.209 11.2981C572.497 11.0165 572.908 11.0928 573.132 11.3169C573.42 11.605 573.344 12.0199 573.119 12.2455L573.109 12.2547L569.559 15.5926C569.152 15.9567 568.507 15.9674 568.102 15.5854C568.102 15.5852 568.102 15.5856 568.102 15.5854L564.537 12.2456C564.426 12.1349 564.334 11.98 564.334 11.7746C564.334 11.6108 564.404 11.4367 564.524 11.3169C564.778 11.0623 565.174 11.0638 565.429 11.2816L565.436 11.2879ZM568.392 15.2773C568.63 15.502 569.026 15.502 569.277 15.2773L572.82 11.9464C572.912 11.8539 572.925 11.7085 572.833 11.616C572.74 11.5234 572.595 11.5102 572.502 11.6027L568.96 14.9336C568.881 14.9997 568.762 14.9997 568.696 14.9336L565.153 11.6027C565.061 11.5234 564.915 11.5234 564.823 11.616C564.783 11.6556 564.757 11.7217 564.757 11.7746C564.757 11.8407 564.783 11.8935 564.836 11.9464L568.392 15.2773Z" fill="#1A1A1C"/>
<mask id="path-5-inside-1_1_1923" fill="white">
<path d="M225.069 54.9854C246.605 54.9854 267.657 61.3713 285.563 73.3358C303.469 85.3002 317.425 102.306 325.666 122.202C333.907 142.098 336.063 163.991 331.862 185.113C327.661 206.234 317.29 225.636 302.063 240.863L294.363 233.164C308.068 219.459 317.402 201.998 321.183 182.988C324.964 163.979 323.023 144.275 315.606 126.369C308.189 108.462 295.629 93.1572 279.513 82.3892C263.398 71.6212 244.451 65.8738 225.069 65.8738V54.9854Z"/>
</mask>
<path d="M225.069 54.9854C246.605 54.9854 267.657 61.3713 285.563 73.3358C303.469 85.3002 317.425 102.306 325.666 122.202C333.907 142.098 336.063 163.991 331.862 185.113C327.661 206.234 317.29 225.636 302.063 240.863L294.363 233.164C308.068 219.459 317.402 201.998 321.183 182.988C324.964 163.979 323.023 144.275 315.606 126.369C308.189 108.462 295.629 93.1572 279.513 82.3892C263.398 71.6212 244.451 65.8738 225.069 65.8738V54.9854Z" stroke="#DCD4FF" stroke-width="71.3283" mask="url(#path-5-inside-1_1_1923)"/>
<mask id="path-6-inside-2_1_1923" fill="white">
<path d="M302.063 240.863C288.343 254.583 271.207 264.387 252.427 269.262C233.648 274.137 213.906 273.905 195.246 268.591L198.228 258.119C215.023 262.902 232.79 263.11 249.692 258.723C266.593 254.336 282.016 245.512 294.363 233.164L302.063 240.863Z"/>
</mask>
<path d="M302.063 240.863C288.343 254.583 271.207 264.387 252.427 269.262C233.648 274.137 213.906 273.905 195.246 268.591L198.228 258.119C215.023 262.902 232.79 263.11 249.692 258.723C266.593 254.336 282.016 245.512 294.363 233.164L302.063 240.863Z" stroke="#ECE8FF" stroke-width="85.594" mask="url(#path-6-inside-2_1_1923)"/>
<mask id="path-7-inside-3_1_1923" fill="white">
<path d="M123.939 123.515C132.03 103.239 146.03 85.8624 164.12 73.6421C182.211 61.4219 203.557 54.9218 225.389 54.9858L225.357 65.8743C205.708 65.8167 186.497 71.6667 170.215 82.665C153.934 93.6632 141.334 109.302 134.052 127.551L123.939 123.515Z"/>
</mask>
<path d="M123.939 123.515C132.03 103.239 146.03 85.8624 164.12 73.6421C182.211 61.4219 203.557 54.9218 225.389 54.9858L225.357 65.8743C205.708 65.8167 186.497 71.6667 170.215 82.665C153.934 93.6632 141.334 109.302 134.052 127.551L123.939 123.515Z" stroke="#C3B1FF" stroke-width="57.0627" mask="url(#path-7-inside-3_1_1923)"/>
<path d="M159.358 137.649C155.665 146.906 153.968 156.839 154.38 166.797C154.792 176.756 157.304 186.514 161.751 195.434C166.198 204.354 172.479 212.234 180.183 218.557C187.887 224.88 196.839 229.505 206.455 232.127L192.041 284.985C174.979 280.332 159.093 272.127 145.423 260.907C131.753 249.687 120.607 235.705 112.717 219.877C104.827 204.05 100.37 186.734 99.6387 169.064C98.907 151.394 101.917 133.769 108.472 117.343L159.358 137.649Z" fill="#864FFE"/>
<path d="M159.358 137.649C155.665 146.906 153.968 156.839 154.38 166.797C154.792 176.756 157.304 186.514 161.751 195.434C166.198 204.354 172.479 212.234 180.183 218.557C187.887 224.88 196.839 229.505 206.455 232.127L192.041 284.985C174.979 280.332 159.093 272.127 145.423 260.907C131.753 249.687 120.607 235.705 112.717 219.877C104.827 204.05 100.37 186.734 99.6387 169.064C98.907 151.394 101.917 133.769 108.472 117.343L159.358 137.649Z" stroke="#864FFE"/>
<path d="M203.427 163.184V161.915L208.231 156.641C208.791 156.029 209.25 155.495 209.608 155.04C209.973 154.584 210.243 154.154 210.419 153.75C210.601 153.347 210.692 152.924 210.692 152.481C210.692 151.967 210.569 151.524 210.321 151.153C210.08 150.775 209.752 150.486 209.335 150.284C208.918 150.082 208.446 149.981 207.919 149.981C207.359 149.981 206.871 150.095 206.454 150.323C206.044 150.551 205.725 150.873 205.497 151.29C205.276 151.7 205.165 152.181 205.165 152.735H203.485C203.485 151.882 203.681 151.133 204.071 150.489C204.468 149.844 205.006 149.343 205.683 148.985C206.366 148.62 207.131 148.438 207.978 148.438C208.83 148.438 209.586 148.62 210.243 148.985C210.901 149.343 211.415 149.828 211.786 150.44C212.164 151.045 212.353 151.726 212.353 152.481C212.353 153.015 212.255 153.536 212.06 154.043C211.871 154.545 211.539 155.108 211.063 155.733C210.595 156.358 209.944 157.116 209.11 158.008L205.849 161.504V161.622H212.606V163.184H203.427ZM219.149 163.379C218.316 163.379 217.564 163.217 216.894 162.891C216.229 162.559 215.696 162.103 215.292 161.524C214.888 160.944 214.67 160.287 214.638 159.551H216.337C216.402 160.202 216.698 160.743 217.226 161.172C217.759 161.602 218.401 161.817 219.149 161.817C219.748 161.817 220.279 161.677 220.741 161.397C221.203 161.117 221.568 160.733 221.835 160.245C222.102 159.756 222.235 159.2 222.235 158.575C222.235 157.943 222.095 157.377 221.815 156.875C221.542 156.374 221.164 155.98 220.683 155.694C220.201 155.401 219.651 155.254 219.032 155.254C218.583 155.254 218.124 155.326 217.655 155.469C217.193 155.606 216.812 155.782 216.513 155.997L214.853 155.801L215.731 148.633H223.29V150.196H217.216L216.708 154.493H216.786C217.086 154.252 217.46 154.056 217.909 153.907C218.358 153.75 218.83 153.672 219.325 153.672C220.217 153.672 221.011 153.884 221.708 154.307C222.405 154.73 222.951 155.31 223.349 156.045C223.752 156.775 223.954 157.611 223.954 158.555C223.954 159.48 223.746 160.306 223.329 161.036C222.912 161.765 222.343 162.338 221.62 162.754C220.897 163.171 220.074 163.379 219.149 163.379ZM225.38 160.196V158.75L231.767 148.633H232.821V150.879H232.099L227.274 158.516V158.633H235.888V160.196H225.38ZM232.216 163.184V159.766V159.083V148.633H233.896V163.184H232.216ZM242.235 163.379C241.259 163.379 240.399 163.207 239.657 162.862C238.915 162.51 238.336 162.028 237.919 161.417C237.502 160.805 237.294 160.105 237.294 159.317C237.294 158.705 237.414 158.139 237.655 157.618C237.903 157.09 238.238 156.651 238.661 156.299C239.091 155.948 239.573 155.723 240.106 155.625V155.547C239.41 155.365 238.853 154.971 238.437 154.366C238.026 153.76 237.821 153.073 237.821 152.305C237.821 151.563 238.01 150.902 238.388 150.323C238.765 149.737 239.286 149.278 239.95 148.946C240.621 148.607 241.382 148.438 242.235 148.438C243.075 148.438 243.827 148.607 244.491 148.946C245.155 149.278 245.676 149.737 246.054 150.323C246.438 150.902 246.63 151.563 246.63 152.305C246.63 153.073 246.422 153.76 246.005 154.366C245.588 154.971 245.041 155.365 244.364 155.547V155.625C244.885 155.723 245.357 155.948 245.78 156.299C246.21 156.651 246.549 157.09 246.796 157.618C247.05 158.139 247.177 158.705 247.177 159.317C247.177 160.105 246.965 160.805 246.542 161.417C246.125 162.028 245.546 162.51 244.804 162.862C244.062 163.207 243.205 163.379 242.235 163.379ZM242.235 161.817C242.893 161.817 243.459 161.713 243.935 161.504C244.416 161.29 244.787 160.99 245.048 160.606C245.308 160.215 245.438 159.76 245.438 159.239C245.438 158.692 245.299 158.207 245.019 157.784C244.739 157.361 244.358 157.028 243.876 156.788C243.394 156.547 242.847 156.426 242.235 156.426C241.61 156.426 241.054 156.547 240.565 156.788C240.084 157.028 239.703 157.361 239.423 157.784C239.149 158.207 239.013 158.692 239.013 159.239C239.013 159.76 239.143 160.215 239.403 160.606C239.664 160.99 240.035 161.29 240.517 161.504C240.998 161.713 241.571 161.817 242.235 161.817ZM242.235 154.922C242.756 154.922 243.218 154.818 243.622 154.61C244.026 154.402 244.345 154.112 244.579 153.741C244.813 153.363 244.931 152.924 244.931 152.422C244.931 151.928 244.817 151.498 244.589 151.133C244.361 150.769 244.045 150.486 243.642 150.284C243.238 150.082 242.769 149.981 242.235 149.981C241.688 149.981 241.21 150.082 240.8 150.284C240.396 150.486 240.08 150.769 239.853 151.133C239.631 151.498 239.521 151.928 239.521 152.422C239.521 152.924 239.634 153.363 239.862 153.741C240.097 154.112 240.416 154.402 240.819 154.61C241.229 154.818 241.701 154.922 242.235 154.922Z" fill="#1A1A1C"/>
<path d="M208.521 175.453L211.111 182.801H211.217L213.807 175.453H214.908L211.709 184.184H210.619L207.408 175.453H208.521ZM215.576 184.184V177.633H216.572V184.184H215.576ZM216.08 176.543C215.885 176.543 215.717 176.477 215.576 176.344C215.436 176.211 215.365 176.051 215.365 175.863C215.365 175.676 215.436 175.516 215.576 175.383C215.717 175.25 215.885 175.184 216.08 175.184C216.275 175.184 216.443 175.25 216.584 175.383C216.725 175.516 216.795 175.676 216.795 175.863C216.795 176.051 216.725 176.211 216.584 176.344C216.443 176.477 216.275 176.543 216.08 176.543ZM222.49 179.109L221.588 179.355C221.502 179.133 221.354 178.922 221.143 178.723C220.936 178.52 220.611 178.418 220.17 178.418C219.771 178.418 219.439 178.512 219.174 178.699C218.908 178.883 218.775 179.113 218.775 179.391C218.775 179.641 218.865 179.84 219.045 179.988C219.229 180.137 219.514 180.258 219.9 180.352L220.873 180.586C221.455 180.727 221.889 180.943 222.174 181.236C222.463 181.529 222.607 181.902 222.607 182.355C222.607 182.73 222.5 183.066 222.285 183.363C222.07 183.66 221.771 183.895 221.389 184.066C221.006 184.238 220.561 184.324 220.053 184.324C219.385 184.324 218.832 184.178 218.395 183.885C217.961 183.592 217.686 183.168 217.568 182.613L218.518 182.379C218.607 182.73 218.779 182.994 219.033 183.17C219.291 183.346 219.627 183.434 220.041 183.434C220.506 183.434 220.877 183.334 221.154 183.135C221.436 182.932 221.576 182.691 221.576 182.414C221.576 181.953 221.252 181.645 220.604 181.488L219.514 181.23C218.912 181.086 218.471 180.865 218.189 180.568C217.908 180.271 217.768 179.898 217.768 179.449C217.768 179.078 217.871 178.75 218.078 178.465C218.289 178.18 218.576 177.957 218.939 177.797C219.303 177.633 219.713 177.551 220.17 177.551C220.822 177.551 221.332 177.695 221.699 177.984C222.07 178.27 222.334 178.645 222.49 179.109ZM223.568 184.184V177.633H224.564V184.184H223.568ZM224.072 176.543C223.877 176.543 223.709 176.477 223.568 176.344C223.428 176.211 223.357 176.051 223.357 175.863C223.357 175.676 223.428 175.516 223.568 175.383C223.709 175.25 223.877 175.184 224.072 175.184C224.268 175.184 224.436 175.25 224.576 175.383C224.717 175.516 224.787 175.676 224.787 175.863C224.787 176.051 224.717 176.211 224.576 176.344C224.436 176.477 224.268 176.543 224.072 176.543ZM228.689 177.633V178.488H225.303V177.633H228.689ZM226.287 176.074H227.283V182.309C227.283 182.648 227.354 182.898 227.494 183.059C227.635 183.215 227.857 183.293 228.162 183.293C228.229 183.293 228.297 183.289 228.367 183.281C228.441 183.273 228.521 183.262 228.607 183.246L228.818 184.148C228.725 184.184 228.609 184.211 228.473 184.23C228.34 184.254 228.205 184.266 228.068 184.266C227.541 184.266 227.111 184.109 226.779 183.797C226.451 183.484 226.287 183.078 226.287 182.578V176.074ZM232.229 184.324C231.639 184.324 231.121 184.184 230.676 183.902C230.23 183.621 229.883 183.227 229.633 182.719C229.387 182.211 229.264 181.621 229.264 180.949C229.264 180.266 229.387 179.67 229.633 179.162C229.883 178.65 230.23 178.254 230.676 177.973C231.121 177.691 231.639 177.551 232.229 177.551C232.822 177.551 233.342 177.691 233.787 177.973C234.232 178.254 234.58 178.65 234.83 179.162C235.08 179.67 235.205 180.266 235.205 180.949C235.205 181.621 235.08 182.211 234.83 182.719C234.58 183.227 234.232 183.621 233.787 183.902C233.342 184.184 232.822 184.324 232.229 184.324ZM232.229 183.422C232.682 183.422 233.053 183.307 233.342 183.076C233.631 182.846 233.846 182.543 233.986 182.168C234.127 181.789 234.197 181.383 234.197 180.949C234.197 180.508 234.127 180.098 233.986 179.719C233.846 179.34 233.631 179.035 233.342 178.805C233.053 178.57 232.682 178.453 232.229 178.453C231.783 178.453 231.416 178.57 231.127 178.805C230.838 179.035 230.623 179.34 230.482 179.719C230.342 180.098 230.271 180.508 230.271 180.949C230.271 181.383 230.342 181.789 230.482 182.168C230.623 182.543 230.838 182.846 231.127 183.076C231.416 183.307 231.783 183.422 232.229 183.422ZM236.178 184.184V177.633H237.139V178.629H237.209C237.33 178.305 237.547 178.043 237.859 177.844C238.176 177.641 238.529 177.539 238.92 177.539C238.994 177.539 239.086 177.541 239.195 177.545C239.305 177.545 239.389 177.547 239.447 177.551V178.57C239.412 178.562 239.334 178.551 239.213 178.535C239.092 178.52 238.963 178.512 238.826 178.512C238.51 178.512 238.227 178.578 237.977 178.711C237.727 178.844 237.529 179.025 237.385 179.256C237.244 179.486 237.174 179.75 237.174 180.047V184.184H236.178ZM244.709 179.109L243.807 179.355C243.721 179.133 243.572 178.922 243.361 178.723C243.154 178.52 242.83 178.418 242.389 178.418C241.99 178.418 241.658 178.512 241.393 178.699C241.127 178.883 240.994 179.113 240.994 179.391C240.994 179.641 241.084 179.84 241.264 179.988C241.447 180.137 241.732 180.258 242.119 180.352L243.092 180.586C243.674 180.727 244.107 180.943 244.393 181.236C244.682 181.529 244.826 181.902 244.826 182.355C244.826 182.73 244.719 183.066 244.504 183.363C244.289 183.66 243.99 183.895 243.607 184.066C243.225 184.238 242.779 184.324 242.271 184.324C241.604 184.324 241.051 184.178 240.613 183.885C240.18 183.592 239.904 183.168 239.787 182.613L240.736 182.379C240.826 182.73 240.998 182.994 241.252 183.17C241.51 183.346 241.846 183.434 242.26 183.434C242.725 183.434 243.096 183.334 243.373 183.135C243.654 182.932 243.795 182.691 243.795 182.414C243.795 181.953 243.471 181.645 242.822 181.488L241.732 181.23C241.131 181.086 240.689 180.865 240.408 180.568C240.127 180.271 239.986 179.898 239.986 179.449C239.986 179.078 240.09 178.75 240.297 178.465C240.508 178.18 240.795 177.957 241.158 177.797C241.521 177.633 241.932 177.551 242.389 177.551C243.041 177.551 243.551 177.695 243.918 177.984C244.289 178.27 244.553 178.645 244.709 179.109Z" fill="#1A1A1C" fill-opacity="0.6"/>
<rect x="70.8135" y="246" width="48.3985" height="28.5594" rx="2.13985" fill="#864FFE"/>
<g filter="url(#filter0_d_1_1923)">
<path d="M85.5596 265.417C85.1449 265.417 84.7279 265.341 84.3086 265.191C83.8893 265.036 83.5065 264.778 83.1602 264.418C82.8184 264.054 82.5426 263.559 82.333 262.935C82.1234 262.311 82.0186 261.529 82.0186 260.59C82.0186 259.688 82.1029 258.888 82.2715 258.191C82.4447 257.494 82.6908 256.906 83.0098 256.427C83.3333 255.944 83.723 255.58 84.1787 255.333C84.6344 255.083 85.1494 254.958 85.7236 254.958C86.2933 254.958 86.7992 255.071 87.2412 255.299C87.6878 255.527 88.0524 255.844 88.335 256.25C88.6175 256.651 88.7998 257.113 88.8818 257.637H87.6787C87.5648 257.181 87.3438 256.803 87.0156 256.502C86.6921 256.202 86.2614 256.051 85.7236 256.051C84.9352 256.051 84.3132 256.395 83.8574 257.083C83.4062 257.767 83.1807 258.731 83.1807 259.975H83.2627C83.4495 259.693 83.6706 259.451 83.9258 259.25C84.181 259.045 84.4635 258.89 84.7734 258.786C85.0833 258.676 85.4137 258.622 85.7646 258.622C86.348 258.622 86.8812 258.767 87.3643 259.059C87.8473 259.346 88.2347 259.745 88.5264 260.255C88.818 260.761 88.9639 261.342 88.9639 261.999C88.9639 262.627 88.8226 263.202 88.54 263.721C88.262 264.236 87.8678 264.649 87.3574 264.958C86.847 265.264 86.2477 265.417 85.5596 265.417ZM85.5596 264.323C85.9788 264.323 86.3548 264.22 86.6875 264.015C87.0202 263.806 87.2845 263.525 87.4805 263.174C87.6764 262.819 87.7744 262.427 87.7744 261.999C87.7744 261.575 87.6787 261.192 87.4873 260.85C87.3005 260.504 87.043 260.228 86.7148 260.023C86.3913 259.818 86.0199 259.715 85.6006 259.715C85.1813 259.715 84.8008 259.822 84.459 260.037C84.1217 260.251 83.8529 260.533 83.6523 260.884C83.4564 261.231 83.3584 261.607 83.3584 262.012C83.3584 262.418 83.4541 262.798 83.6455 263.154C83.8369 263.505 84.0967 263.787 84.4248 264.001C84.7575 264.216 85.1357 264.323 85.5596 264.323ZM93.3799 265.417C92.7965 265.417 92.2702 265.303 91.8008 265.075C91.3359 264.842 90.9622 264.523 90.6797 264.118C90.3971 263.712 90.2445 263.252 90.2217 262.737H91.4111C91.4567 263.193 91.6641 263.571 92.0332 263.872C92.4069 264.172 92.8558 264.323 93.3799 264.323C93.7992 264.323 94.1706 264.225 94.4941 264.029C94.8177 263.833 95.0729 263.564 95.2598 263.222C95.4466 262.88 95.54 262.491 95.54 262.053C95.54 261.611 95.4421 261.215 95.2461 260.864C95.0547 260.513 94.7904 260.237 94.4531 260.037C94.1159 259.832 93.7308 259.729 93.2979 259.729C92.9834 259.729 92.6621 259.779 92.334 259.879C92.0104 259.975 91.7438 260.098 91.5342 260.249L90.3721 260.112L90.9873 255.094H96.2783V256.188H92.0264L91.6709 259.196H91.7256C91.9352 259.027 92.1973 258.89 92.5117 258.786C92.8262 258.676 93.1566 258.622 93.5029 258.622C94.1273 258.622 94.6833 258.77 95.1709 259.066C95.6585 259.362 96.0413 259.768 96.3193 260.283C96.6019 260.793 96.7432 261.379 96.7432 262.04C96.7432 262.687 96.5973 263.265 96.3057 263.776C96.014 264.286 95.6152 264.687 95.1094 264.979C94.6035 265.271 94.027 265.417 93.3799 265.417ZM103.169 263.366V262.833C103.169 262.459 103.244 262.117 103.395 261.807C103.549 261.497 103.775 261.249 104.071 261.062C104.368 260.875 104.728 260.782 105.151 260.782C105.584 260.782 105.947 260.875 106.238 261.062C106.53 261.249 106.749 261.497 106.895 261.807C107.045 262.117 107.12 262.459 107.12 262.833V263.366C107.12 263.739 107.045 264.081 106.895 264.391C106.744 264.701 106.523 264.949 106.231 265.136C105.94 265.323 105.58 265.417 105.151 265.417C104.723 265.417 104.361 265.323 104.064 265.136C103.768 264.949 103.545 264.701 103.395 264.391C103.244 264.081 103.169 263.739 103.169 263.366ZM104.181 262.833V263.366C104.181 263.676 104.254 263.954 104.399 264.2C104.545 264.441 104.796 264.564 105.151 264.569C105.502 264.564 105.748 264.441 105.89 264.2C106.035 263.954 106.108 263.676 106.108 263.366V262.833C106.108 262.523 106.038 262.247 105.896 262.005C105.76 261.764 105.511 261.643 105.151 261.643C104.805 261.643 104.557 261.764 104.406 262.005C104.256 262.247 104.181 262.523 104.181 262.833ZM98.0967 257.542V257.008C98.0967 256.635 98.1742 256.293 98.3291 255.983C98.484 255.673 98.7074 255.425 98.999 255.238C99.2952 255.051 99.6553 254.958 100.079 254.958C100.512 254.958 100.874 255.051 101.166 255.238C101.462 255.425 101.683 255.673 101.829 255.983C101.979 256.293 102.052 256.635 102.048 257.008V257.542C102.052 257.911 101.977 258.252 101.822 258.567C101.672 258.877 101.451 259.125 101.159 259.312C100.868 259.499 100.507 259.592 100.079 259.592C99.6507 259.592 99.2884 259.499 98.9922 259.312C98.696 259.125 98.4727 258.877 98.3223 258.567C98.1719 258.252 98.0967 257.911 98.0967 257.542ZM99.1084 257.008V257.542C99.1084 257.851 99.1813 258.129 99.3271 258.375C99.473 258.617 99.7236 258.736 100.079 258.731C100.43 258.736 100.676 258.617 100.817 258.375C100.963 258.129 101.036 257.851 101.036 257.542V257.008C101.036 256.698 100.965 256.423 100.824 256.181C100.688 255.935 100.439 255.814 100.079 255.819C99.7327 255.814 99.4844 255.935 99.334 256.181C99.1836 256.423 99.1084 256.698 99.1084 257.008ZM98.4795 265.28L105.479 255.094H106.614L99.6143 265.28H98.4795Z" fill="white"/>
</g>
<circle cx="387.345" cy="103.869" r="5.3913" fill="#864FFE"/>
<path d="M403.989 108.985H400.982V99.8902H403.939C406.656 99.8902 408.493 101.727 408.493 104.444C408.493 107.149 406.681 108.985 403.989 108.985ZM403.851 101.022H402.215V107.841H403.901C405.926 107.841 407.209 106.532 407.209 104.444C407.209 102.331 405.926 101.022 403.851 101.022ZM412.514 109.136C410.703 109.136 409.457 107.828 409.457 105.916C409.457 103.991 410.677 102.658 412.464 102.658C414.212 102.658 415.357 103.865 415.357 105.689V106.13L410.602 106.142C410.69 107.438 411.369 108.155 412.539 108.155C413.458 108.155 414.061 107.778 414.263 107.073H415.37C415.068 108.394 414.036 109.136 412.514 109.136ZM412.464 103.652C411.432 103.652 410.778 104.268 410.627 105.35H414.175C414.175 104.331 413.508 103.652 412.464 103.652ZM416.175 107.199H417.307C417.307 107.828 417.785 108.205 418.565 108.205C419.395 108.205 419.873 107.866 419.873 107.3C419.873 106.885 419.672 106.633 419.03 106.469L417.948 106.218C416.854 105.954 416.338 105.413 416.338 104.507C416.338 103.375 417.294 102.658 418.653 102.658C419.999 102.658 420.879 103.413 420.905 104.582H419.772C419.747 103.966 419.332 103.576 418.615 103.576C417.873 103.576 417.458 103.903 417.458 104.469C417.458 104.884 417.76 105.161 418.364 105.312L419.445 105.576C420.489 105.828 421.005 106.306 421.005 107.224C421.005 108.394 419.999 109.136 418.54 109.136C417.093 109.136 416.175 108.369 416.175 107.199ZM423.524 108.985H422.342V99.7267H423.524V105.727L426.254 102.834H427.738L425.386 105.287L427.726 108.985H426.367L424.568 106.142L423.524 107.237V108.985ZM430.441 108.985H429.258V103.828H428.051V102.834H429.258V100.909H430.441V102.834H431.648V103.828H430.441V108.985ZM432.246 105.903C432.246 104.004 433.604 102.67 435.453 102.67C437.29 102.67 438.649 104.004 438.649 105.903C438.649 107.803 437.29 109.136 435.453 109.136C433.604 109.136 432.246 107.803 432.246 105.903ZM433.441 105.903C433.441 107.186 434.258 108.08 435.453 108.08C436.636 108.08 437.466 107.186 437.466 105.903C437.466 104.62 436.636 103.727 435.453 103.727C434.258 103.727 433.441 104.62 433.441 105.903ZM439.958 111.74V102.834H441.027L441.115 103.941C441.53 103.098 442.36 102.658 443.342 102.658C445.103 102.658 446.197 103.979 446.197 105.866C446.197 107.74 445.166 109.149 443.342 109.149C442.36 109.149 441.543 108.734 441.14 107.979V111.74H439.958ZM441.153 105.916C441.153 107.174 441.882 108.08 443.09 108.08C444.298 108.08 445.015 107.174 445.015 105.916C445.015 104.645 444.298 103.74 443.09 103.74C441.882 103.74 441.153 104.633 441.153 105.916Z" fill="#1A1A1C" fill-opacity="0.6"/>
<path d="M487.96 102.771L490.086 99.8902H491.52L489.243 102.909C489.558 102.784 489.885 102.721 490.199 102.721C492.086 102.721 493.357 104.079 493.357 105.878C493.357 107.778 491.923 109.136 490.048 109.136C488.162 109.136 486.702 107.715 486.702 105.878C486.702 104.796 487.029 104.042 487.96 102.771ZM487.96 105.891C487.96 107.136 488.816 108.029 490.048 108.029C491.256 108.029 492.112 107.136 492.112 105.891C492.112 104.645 491.256 103.765 490.048 103.765C488.816 103.765 487.96 104.645 487.96 105.891ZM497.526 109.136C495.664 109.136 494.456 107.954 494.456 106.142H495.676C495.676 107.312 496.393 108.029 497.551 108.029C498.784 108.029 499.576 107.212 499.576 105.979C499.576 104.809 498.834 103.941 497.563 103.941C496.796 103.941 496.091 104.306 495.676 104.821L494.632 104.557L495.739 99.8902H500.293V101.022H496.632L496.029 103.438C496.507 103.073 497.11 102.884 497.79 102.884C499.639 102.884 500.834 104.18 500.834 105.928C500.834 107.815 499.488 109.136 497.526 109.136ZM506.405 102.041C506.405 103.387 505.449 104.356 504.102 104.356C502.769 104.356 501.813 103.387 501.813 102.041C501.813 100.683 502.769 99.7141 504.102 99.7141C505.449 99.7141 506.405 100.683 506.405 102.041ZM511.197 99.9028L504.291 108.985H503.084L509.99 99.9028H511.197ZM505.436 102.041C505.436 101.224 504.895 100.658 504.102 100.658C503.323 100.658 502.782 101.224 502.782 102.041C502.782 102.846 503.323 103.413 504.102 103.413C504.882 103.413 505.436 102.846 505.436 102.041ZM512.493 106.834C512.493 108.18 511.525 109.149 510.191 109.149C508.858 109.149 507.889 108.18 507.889 106.834C507.889 105.476 508.858 104.52 510.191 104.52C511.525 104.52 512.493 105.476 512.493 106.834ZM511.512 106.834C511.512 106.017 510.984 105.45 510.191 105.45C509.411 105.45 508.87 106.017 508.87 106.834C508.87 107.639 509.411 108.205 510.191 108.205C510.971 108.205 511.512 107.639 511.512 106.834Z" fill="#1A1A1C" fill-opacity="0.6"/>
<circle cx="387.345" cy="147.869" r="5.3913" fill="#C3B1FF"/>
<path d="M400.102 145.022V143.89H406.807V145.022H404.077V152.985H402.844V145.022H400.102ZM408.649 153.136C407.328 153.136 406.548 152.394 406.548 151.275C406.548 150.142 407.391 149.438 408.838 149.325L410.775 149.174V148.998C410.775 147.966 410.158 147.601 409.328 147.601C408.334 147.601 407.768 148.042 407.768 148.784H406.737C406.737 147.501 407.793 146.658 409.378 146.658C410.901 146.658 411.932 147.463 411.932 149.123V152.985H410.926L410.8 151.992C410.485 152.696 409.643 153.136 408.649 153.136ZM408.988 152.218C410.108 152.218 410.787 151.488 410.787 150.331V150.004L409.215 150.13C408.171 150.23 407.743 150.633 407.743 151.237C407.743 151.891 408.221 152.218 408.988 152.218ZM414.639 152.985H413.57V143.727H414.752V147.891C415.155 147.085 415.985 146.658 416.991 146.658C418.753 146.658 419.809 148.042 419.809 149.941C419.809 151.803 418.702 153.136 416.916 153.136C415.947 153.136 415.13 152.709 414.727 151.866L414.639 152.985ZM414.765 149.891C414.765 151.174 415.494 152.067 416.702 152.067C417.91 152.067 418.627 151.161 418.627 149.891C418.627 148.633 417.91 147.727 416.702 147.727C415.494 147.727 414.765 148.633 414.765 149.891ZM422.32 152.985H421.138V143.727H422.32V152.985ZM426.715 153.136C424.904 153.136 423.658 151.828 423.658 149.916C423.658 147.991 424.879 146.658 426.665 146.658C428.414 146.658 429.558 147.865 429.558 149.689V150.13L424.803 150.142C424.891 151.438 425.571 152.155 426.741 152.155C427.659 152.155 428.263 151.778 428.464 151.073H429.571C429.269 152.394 428.238 153.136 426.715 153.136ZM426.665 147.652C425.634 147.652 424.979 148.268 424.828 149.35H428.376C428.376 148.331 427.709 147.652 426.665 147.652ZM432.554 152.985H431.371V147.828H430.164V146.834H431.371V144.909H432.554V146.834H433.761V147.828H432.554V152.985Z" fill="#1A1A1C" fill-opacity="0.6"/>
<path d="M487.61 148.281H486.704V147.463L489.283 144.985H485.195V143.89H490.843V144.884L488.352 147.262C489.9 147.45 491.069 148.494 491.069 150.13C491.069 151.966 489.686 153.136 487.836 153.136C486.05 153.136 484.767 152.042 484.767 150.155H485.987C485.987 151.337 486.717 152.029 487.862 152.029C489.044 152.029 489.812 151.275 489.812 150.105C489.812 149.01 489.057 148.281 487.61 148.281ZM498.924 151.149H497.842V152.985H496.66V151.149H491.955V150.054L496.245 143.89H497.842V150.054H498.924V151.149ZM493.288 150.054H496.66V145.199L493.288 150.054ZM504.645 146.041C504.645 147.387 503.688 148.356 502.342 148.356C501.009 148.356 500.053 147.387 500.053 146.041C500.053 144.683 501.009 143.714 502.342 143.714C503.688 143.714 504.645 144.683 504.645 146.041ZM509.437 143.903L502.531 152.985H501.324L508.23 143.903H509.437ZM503.676 146.041C503.676 145.224 503.135 144.658 502.342 144.658C501.563 144.658 501.022 145.224 501.022 146.041C501.022 146.846 501.563 147.413 502.342 147.413C503.122 147.413 503.676 146.846 503.676 146.041ZM510.733 150.834C510.733 152.18 509.764 153.149 508.431 153.149C507.098 153.149 506.129 152.18 506.129 150.834C506.129 149.476 507.098 148.52 508.431 148.52C509.764 148.52 510.733 149.476 510.733 150.834ZM509.752 150.834C509.752 150.017 509.224 149.45 508.431 149.45C507.651 149.45 507.11 150.017 507.11 150.834C507.11 151.639 507.651 152.205 508.431 152.205C509.211 152.205 509.752 151.639 509.752 150.834Z" fill="#1A1A1C" fill-opacity="0.6"/>
<circle cx="387.345" cy="191.869" r="5.3913" fill="#DCD4FF"/>
<path d="M402.19 196.985H400.982V187.89H402.19L405.322 195.539L408.455 187.89H409.688V196.985H408.48V193.388C408.48 191.689 408.493 191.073 408.555 190.431L405.901 196.985H404.744L402.102 190.456C402.165 190.897 402.19 191.828 402.19 193.098V196.985ZM411.202 193.903C411.202 192.004 412.56 190.67 414.409 190.67C416.246 190.67 417.605 192.004 417.605 193.903C417.605 195.803 416.246 197.136 414.409 197.136C412.56 197.136 411.202 195.803 411.202 193.903ZM412.397 193.903C412.397 195.186 413.214 196.08 414.409 196.08C415.592 196.08 416.422 195.186 416.422 193.903C416.422 192.62 415.592 191.727 414.409 191.727C413.214 191.727 412.397 192.62 412.397 193.903ZM419.983 196.985H418.914V187.727H420.096V191.891C420.499 191.085 421.329 190.658 422.335 190.658C424.097 190.658 425.153 192.042 425.153 193.941C425.153 195.803 424.046 197.136 422.26 197.136C421.291 197.136 420.474 196.709 420.071 195.866L419.983 196.985ZM420.109 193.891C420.109 195.174 420.838 196.067 422.046 196.067C423.254 196.067 423.971 195.161 423.971 193.891C423.971 192.633 423.254 191.727 422.046 191.727C420.838 191.727 420.109 192.633 420.109 193.891ZM427.035 189.375C426.608 189.375 426.255 189.022 426.255 188.595C426.255 188.154 426.608 187.815 427.035 187.815C427.463 187.815 427.815 188.154 427.815 188.595C427.815 189.022 427.463 189.375 427.035 189.375ZM426.457 196.985V190.834H427.639V196.985H426.457ZM430.563 196.985H429.381V187.727H430.563V196.985ZM434.959 197.136C433.147 197.136 431.902 195.828 431.902 193.916C431.902 191.991 433.122 190.658 434.908 190.658C436.657 190.658 437.802 191.865 437.802 193.689V194.13L433.046 194.142C433.134 195.438 433.814 196.155 434.984 196.155C435.902 196.155 436.506 195.778 436.707 195.073H437.814C437.512 196.394 436.481 197.136 434.959 197.136ZM434.908 191.652C433.877 191.652 433.223 192.268 433.072 193.35H436.619C436.619 192.331 435.952 191.652 434.908 191.652Z" fill="#1A1A1C" fill-opacity="0.6"/>
<path d="M493.583 195.149H492.502V196.985H491.319V195.149H486.614V194.054L490.904 187.89H492.502V194.054H493.583V195.149ZM487.948 194.054H491.319V189.199L487.948 194.054ZM497.722 197.136C495.86 197.136 494.653 195.954 494.653 194.142H495.873C495.873 195.312 496.59 196.029 497.747 196.029C498.98 196.029 499.773 195.212 499.773 193.979C499.773 192.809 499.03 191.941 497.76 191.941C496.992 191.941 496.288 192.306 495.873 192.821L494.829 192.557L495.936 187.89H500.49V189.022H496.829L496.225 191.438C496.703 191.073 497.307 190.884 497.986 190.884C499.836 190.884 501.031 192.18 501.031 193.928C501.031 195.815 499.685 197.136 497.722 197.136ZM506.601 190.041C506.601 191.387 505.645 192.356 504.299 192.356C502.966 192.356 502.01 191.387 502.01 190.041C502.01 188.683 502.966 187.714 504.299 187.714C505.645 187.714 506.601 188.683 506.601 190.041ZM511.394 187.903L504.488 196.985H503.28L510.186 187.903H511.394ZM505.632 190.041C505.632 189.224 505.092 188.658 504.299 188.658C503.519 188.658 502.978 189.224 502.978 190.041C502.978 190.846 503.519 191.413 504.299 191.413C505.079 191.413 505.632 190.846 505.632 190.041ZM512.69 194.834C512.69 196.18 511.721 197.149 510.388 197.149C509.054 197.149 508.086 196.18 508.086 194.834C508.086 193.476 509.054 192.52 510.388 192.52C511.721 192.52 512.69 193.476 512.69 194.834ZM511.708 194.834C511.708 194.017 511.18 193.45 510.388 193.45C509.608 193.45 509.067 194.017 509.067 194.834C509.067 195.639 509.608 196.205 510.388 196.205C511.168 196.205 511.708 195.639 511.708 194.834Z" fill="#1A1A1C" fill-opacity="0.6"/>
<circle cx="387.345" cy="235.869" r="5.3913" fill="#ECE8FF"/>
<path d="M400.92 237.752V231.89H402.152V237.677C402.152 239.136 402.957 239.941 404.404 239.941C405.838 239.941 406.631 239.124 406.631 237.677V231.89H407.876V237.752C407.876 239.841 406.543 241.136 404.404 241.136C402.253 241.136 400.92 239.853 400.92 237.752ZM410.907 240.985H409.725V234.834H410.794L410.92 235.777C411.31 235.073 412.09 234.658 412.958 234.658C414.58 234.658 415.323 235.652 415.323 237.224V240.985H414.14V237.488C414.14 236.243 413.561 235.74 412.656 235.74C411.549 235.74 410.907 236.532 410.907 237.727V240.985ZM418.168 240.985H416.986V231.727H418.168V237.727L420.898 234.834H422.382L420.03 237.287L422.37 240.985H421.011L419.212 238.142L418.168 239.237V240.985ZM424.531 240.985H423.349V234.834H424.418L424.544 235.777C424.934 235.073 425.713 234.658 426.581 234.658C428.204 234.658 428.946 235.652 428.946 237.224V240.985H427.764V237.488C427.764 236.243 427.185 235.74 426.28 235.74C425.173 235.74 424.531 236.532 424.531 237.727V240.985ZM430.182 237.903C430.182 236.004 431.54 234.67 433.39 234.67C435.226 234.67 436.585 236.004 436.585 237.903C436.585 239.803 435.226 241.136 433.39 241.136C431.54 241.136 430.182 239.803 430.182 237.903ZM431.377 237.903C431.377 239.186 432.195 240.08 433.39 240.08C434.572 240.08 435.402 239.186 435.402 237.903C435.402 236.62 434.572 235.727 433.39 235.727C432.195 235.727 431.377 236.62 431.377 237.903ZM438.932 240.985L436.919 234.834H438.14L439.159 238.029C439.297 238.482 439.423 238.947 439.536 239.488C439.637 238.947 439.8 238.432 439.938 238.029L440.97 234.834H442.178L443.197 238.029C443.297 238.331 443.499 239.048 443.599 239.488C443.7 238.998 443.813 238.57 443.989 238.029L445.021 234.834H446.254L444.153 240.985H443.033L441.964 237.689C441.763 237.073 441.637 236.595 441.574 236.255C441.511 236.557 441.398 236.96 441.171 237.702L440.102 240.985H438.932Z" fill="#1A1A1C" fill-opacity="0.6"/>
<path d="M486.742 232.997H484.83V231.89H487.925V240.985H486.742V232.997ZM495.689 240.973L489.551 240.985V240.042L492.482 237.513C493.953 236.243 494.369 235.626 494.369 234.658C494.369 233.513 493.714 232.834 492.62 232.834C491.5 232.834 490.771 233.651 490.746 234.947H489.513C489.551 232.997 490.783 231.727 492.633 231.727C494.457 231.727 495.627 232.834 495.627 234.582C495.627 235.878 494.985 236.796 493.375 238.193L491.488 239.828H495.689V240.973ZM501.328 234.041C501.328 235.387 500.372 236.356 499.026 236.356C497.692 236.356 496.736 235.387 496.736 234.041C496.736 232.683 497.692 231.714 499.026 231.714C500.372 231.714 501.328 232.683 501.328 234.041ZM506.121 231.903L499.214 240.985H498.007L504.913 231.903H506.121ZM500.359 234.041C500.359 233.224 499.818 232.658 499.026 232.658C498.246 232.658 497.705 233.224 497.705 234.041C497.705 234.846 498.246 235.413 499.026 235.413C499.805 235.413 500.359 234.846 500.359 234.041ZM507.416 238.834C507.416 240.18 506.448 241.149 505.114 241.149C503.781 241.149 502.812 240.18 502.812 238.834C502.812 237.476 503.781 236.52 505.114 236.52C506.448 236.52 507.416 237.476 507.416 238.834ZM506.435 238.834C506.435 238.017 505.907 237.45 505.114 237.45C504.334 237.45 503.793 238.017 503.793 238.834C503.793 239.639 504.334 240.205 505.114 240.205C505.894 240.205 506.435 239.639 506.435 238.834Z" fill="#1A1A1C" fill-opacity="0.6"/>
<defs>
<filter id="filter0_d_1_1923" x="81.3053" y="254.958" width="26.5281" height="11.8856" filterUnits="userSpaceOnUse" color-interpolation-filters="sRGB">
<feFlood flood-opacity="0" result="BackgroundImageFix"/>
<feColorMatrix in="SourceAlpha" type="matrix" values="0 0 0 0 0 0 0 0 0 0 0 0 0 0 0 0 0 0 127 0" result="hardAlpha"/>
<feOffset dy="0.713283"/>
<feGaussianBlur stdDeviation="0.356642"/>
<feComposite in2="hardAlpha" operator="out"/>
<feColorMatrix type="matrix" values="0 0 0 0 0 0 0 0 0 0 0 0 0 0 0 0 0 0 0.1 0"/>
<feBlend mode="normal" in2="BackgroundImageFix" result="effect1_dropShadow_1_1923"/>
<feBlend mode="normal" in="SourceGraphic" in2="effect1_dropShadow_1_1923" result="shape"/>
</filter>
</defs>
</svg>
