<svg width="680" height="354" viewBox="0 0 680 354" fill="none" xmlns="http://www.w3.org/2000/svg">
<path d="M340.5 70.5V110.5C340.5 123.755 329.755 134.5 316.5 134.5H198.5C185.245 134.5 174.5 145.245 174.5 158.5V270.5" stroke="#ECEFF4"/>
<path d="M340.5 71V111C340.5 124.255 351.245 135 364.5 135H482.5C495.755 135 506.5 145.745 506.5 159V281" stroke="#ECEFF4"/>
<path d="M315.5 134.5H305.5C294.454 134.5 285.5 143.454 285.5 154.5V284.5" stroke="#ECEFF4"/>
<path d="M367.5 135H377.5C388.546 135 397.5 143.954 397.5 155V285" stroke="#ECEFF4"/>
<rect x="340" y="85.001" width="1" height="28" fill="url(#paint0_linear_40_3312)"/>
<rect x="285" y="160.001" width="1" height="44" fill="url(#paint1_linear_40_3312)"/>
<rect x="397" y="180.001" width="1" height="44" fill="url(#paint2_linear_40_3312)"/>
<rect x="174" y="204.001" width="1" height="44" fill="url(#paint3_linear_40_3312)"/>
<rect x="506" y="219.001" width="1" height="24" fill="url(#paint4_linear_40_3312)"/>
<path d="M489.5 257.5H529.5C535.851 257.5 541 262.649 541 269V309C541 315.351 535.851 320.5 529.5 320.5H489.5C483.149 320.5 478 315.351 478 309V269C478 262.649 483.149 257.5 489.5 257.5Z" fill="white"/>
<path d="M489.5 257.5H529.5C535.851 257.5 541 262.649 541 269V309C541 315.351 535.851 320.5 529.5 320.5H489.5C483.149 320.5 478 315.351 478 309V269C478 262.649 483.149 257.5 489.5 257.5Z" stroke="#ECEFF4"/>
<path d="M522.178 287.792C523.845 287.792 525.196 286.441 525.196 284.774C525.196 283.107 523.845 281.756 522.178 281.756C520.511 281.756 519.16 283.108 519.16 284.775V287.792H522.178ZM513.726 287.792C515.393 287.792 516.745 286.441 516.745 284.774V276.323C516.745 274.656 515.393 273.305 513.726 273.305C512.059 273.305 510.708 274.656 510.708 276.323V284.774C510.708 286.441 512.059 287.792 513.726 287.792Z" fill="#2EB67D"/>
<path d="M496.823 290.209C495.156 290.209 493.805 291.56 493.805 293.227C493.805 294.894 495.156 296.245 496.823 296.245C498.49 296.245 499.841 294.893 499.841 293.226V290.209H496.823ZM505.275 290.209C503.608 290.209 502.256 291.56 502.256 293.227V301.678C502.256 303.345 503.608 304.696 505.275 304.696C506.942 304.696 508.293 303.345 508.293 301.678V293.227C508.293 291.56 506.942 290.209 505.275 290.209Z" fill="#E01E5A"/>
<path d="M510.709 301.678C510.709 303.345 512.06 304.696 513.727 304.696C515.394 304.696 516.745 303.345 516.745 301.678C516.745 300.011 515.393 298.66 513.726 298.66L510.709 298.66L510.709 301.678ZM510.709 293.226C510.709 294.893 512.06 296.245 513.727 296.245L522.178 296.245C523.845 296.245 525.196 294.893 525.196 293.226C525.196 291.559 523.845 290.208 522.178 290.208L513.727 290.208C512.06 290.208 510.709 291.559 510.709 293.226Z" fill="#ECB22E"/>
<path d="M508.292 276.323C508.292 274.656 506.941 273.305 505.274 273.305C503.607 273.305 502.256 274.656 502.256 276.323C502.256 277.99 503.608 279.341 505.275 279.341L508.292 279.341L508.292 276.323ZM508.292 284.775C508.292 283.108 506.941 281.756 505.274 281.756L496.823 281.756C495.156 281.756 493.805 283.108 493.805 284.775C493.805 286.442 495.156 287.793 496.823 287.793L505.274 287.793C506.941 287.793 508.292 286.442 508.292 284.775Z" fill="#36C5F0"/>
<path d="M377.5 257.5H417.5C423.851 257.5 429 262.649 429 269V309C429 315.351 423.851 320.5 417.5 320.5H377.5C371.149 320.5 366 315.351 366 309V269C366 262.649 371.149 257.5 377.5 257.5Z" fill="white"/>
<path d="M377.5 257.5H417.5C423.851 257.5 429 262.649 429 269V309C429 315.351 423.851 320.5 417.5 320.5H377.5C371.149 320.5 366 315.351 366 309V269C366 262.649 371.149 257.5 377.5 257.5Z" stroke="#ECEFF4"/>
<path d="M402.371 288.828C402.371 285.201 398.601 278.94 390.109 278.94C381.618 278.94 378.498 286.021 378.498 289.044C378.498 278.249 387.293 270.002 397.735 270.002C408.176 270.002 416.495 277.817 416.495 285.762C416.495 292.843 411.166 295.305 406.833 295.305C403.974 295.305 400.724 294.355 400.724 292.843C400.724 291.678 402.371 291.678 402.371 288.828Z" fill="url(#paint5_linear_40_3312)"/>
<path d="M390.109 278.942C398.601 278.942 402.371 285.203 402.371 288.83C402.371 288.858 402.371 288.886 402.37 288.914C402.327 286.499 400.697 284.21 397.475 284.21C393.402 284.21 387.9 289.737 388.636 296.602C389.226 302.098 393.879 309.47 403.974 306.879C403.974 306.879 402.067 308.001 396.738 308.001C387.293 308.001 378.498 299.366 378.498 289.478C378.498 289.216 378.502 288.959 378.51 288.707C378.728 285.527 381.921 278.942 390.109 278.942Z" fill="url(#paint6_linear_40_3312)"/>
<path d="M390.109 278.942C398.601 278.942 402.371 285.203 402.371 288.83C402.371 288.858 402.371 288.886 402.37 288.914C402.327 286.499 400.697 284.21 397.475 284.21C393.402 284.21 387.9 289.737 388.636 296.602C389.226 302.098 393.879 309.47 403.974 306.879C403.974 306.879 402.067 308.001 396.738 308.001C387.293 308.001 378.498 299.366 378.498 289.478C378.498 289.216 378.502 288.959 378.51 288.707C378.728 285.527 381.921 278.942 390.109 278.942Z" fill="url(#paint7_radial_40_3312)"/>
<path d="M402.798 307.32C408.206 305.845 412.07 301.242 412.769 300.314C413.549 299.277 413.765 298.63 413.549 298.414C413.332 298.198 413.029 298.241 412.249 298.63C411.469 299.018 406.877 300.918 401.634 299.32C396.392 297.723 392.796 293.578 392.796 289.001C392.796 285.46 395.828 284.208 397.475 284.208C393.402 284.208 387.9 289.735 388.636 296.6C389.226 302.096 393.879 309.467 403.974 306.877C403.974 306.877 403.622 307.084 402.798 307.32Z" fill="#0E458A"/>
<path d="M402.798 307.32C408.206 305.845 412.07 301.242 412.769 300.314C413.549 299.277 413.765 298.63 413.549 298.414C413.332 298.198 413.029 298.241 412.249 298.63C411.469 299.018 406.877 300.918 401.634 299.32C396.392 297.723 392.796 293.578 392.796 289.001C392.796 285.46 395.828 284.208 397.475 284.208C393.402 284.208 387.9 289.735 388.636 296.6C389.226 302.096 393.879 309.467 403.974 306.877C403.974 306.877 403.622 307.084 402.798 307.32Z" fill="url(#paint8_radial_40_3312)"/>
<path d="M265.5 257.5H305.5C311.851 257.5 317 262.649 317 269V309C317 315.351 311.851 320.5 305.5 320.5H265.5C259.149 320.5 254 315.351 254 309V269C254 262.649 259.149 257.5 265.5 257.5Z" fill="white"/>
<path d="M265.5 257.5H305.5C311.851 257.5 317 262.649 317 269V309C317 315.351 311.851 320.5 305.5 320.5H265.5C259.149 320.5 254 315.351 254 309V269C254 262.649 259.149 257.5 265.5 257.5Z" stroke="#ECEFF4"/>
<path d="M304.5 289.44C304.5 288.148 304.394 286.85 304.166 285.579H285.884V292.895H296.353C295.919 295.255 294.523 297.342 292.479 298.669V303.416H298.725C302.392 300.107 304.5 295.22 304.5 289.44Z" fill="#4285F4"/>
<path d="M285.885 308C291.112 308 295.521 306.318 298.733 303.413L292.487 298.666C290.749 299.825 288.506 300.481 285.892 300.481C280.835 300.481 276.548 297.137 275.01 292.642H268.564V297.535C271.855 303.951 278.556 308 285.885 308V308Z" fill="#34A853"/>
<path d="M275 292.638C274.188 290.278 274.188 287.723 275 285.363V280.47H268.562C265.813 285.838 265.813 292.163 268.562 297.531L275 292.638V292.638Z" fill="#FBBC04"/>
<path d="M285.885 277.521C288.648 277.479 291.319 278.498 293.32 280.369L298.854 274.945C295.35 271.72 290.699 269.946 285.885 270.002C278.556 270.002 271.855 274.051 268.564 280.474L275.003 285.368C276.534 280.865 280.828 277.521 285.885 277.521V277.521Z" fill="#EA4335"/>
<path d="M153.5 257.5H193.5C199.851 257.5 205 262.649 205 269V309C205 315.351 199.851 320.5 193.5 320.5H153.5C147.149 320.5 142 315.351 142 309V269C142 262.649 147.149 257.5 153.5 257.5Z" fill="white"/>
<path d="M153.5 257.5H193.5C199.851 257.5 205 262.649 205 269V309C205 315.351 199.851 320.5 193.5 320.5H153.5C147.149 320.5 142 315.351 142 309V269C142 262.649 147.149 257.5 153.5 257.5Z" stroke="#ECEFF4"/>
<path fill-rule="evenodd" clip-rule="evenodd" d="M173.239 289.002C173.239 285.565 176.025 282.779 179.461 282.779C182.898 282.779 185.684 285.565 185.684 289.002C185.684 292.438 182.898 295.224 179.461 295.224C176.025 295.224 173.239 292.438 173.239 289.002Z" fill="#1ABCFE"/>
<path fill-rule="evenodd" clip-rule="evenodd" d="M160.795 301.446C160.795 298.009 163.581 295.224 167.017 295.224H173.239V301.446C173.239 304.882 170.454 307.668 167.017 307.668C163.581 307.668 160.795 304.882 160.795 301.446Z" fill="#0ACF83"/>
<path fill-rule="evenodd" clip-rule="evenodd" d="M173.239 270.335V282.779H179.461C182.898 282.779 185.684 279.994 185.684 276.557C185.684 273.121 182.898 270.335 179.461 270.335H173.239Z" fill="#FF7262"/>
<path fill-rule="evenodd" clip-rule="evenodd" d="M160.795 276.557C160.795 279.994 163.581 282.779 167.017 282.779H173.239V270.335H167.017C163.581 270.335 160.795 273.121 160.795 276.557Z" fill="#F24E1E"/>
<path fill-rule="evenodd" clip-rule="evenodd" d="M160.795 289.002C160.795 292.438 163.581 295.224 167.017 295.224H173.239V282.779H167.017C163.581 282.779 160.795 285.565 160.795 289.002Z" fill="#A259FF"/>
<rect x="303.5" y="0.5" width="75" height="75" rx="37.5" fill="white"/>
<rect x="303.5" y="0.5" width="75" height="75" rx="37.5" stroke="#ECEFF4"/>
<rect x="319" y="16" width="44" height="44" rx="22" fill="#864FFE"/>
<path d="M346.5 36L348.621 38.1213L346.5 40.2426L344.378 38.1213L346.5 36Z" fill="#F5F5F7"/>
<path d="M339.624 47.1204L337.502 49.2418L335.381 47.1204L337.502 44.9991L339.624 47.1204Z" fill="#F5F5F7"/>
<path d="M343.5 33L345.621 35.1213L343.5 37.2426L341.378 35.1213L343.5 33Z" fill="#F5F5F7"/>
<path d="M342.624 44.1204L340.502 46.2418L338.381 44.1204L340.502 41.9991L342.624 44.1204Z" fill="#F5F5F7"/>
<path d="M340.5 30L342.621 32.1213L340.5 34.2426L338.378 32.1213L340.5 30Z" fill="#F5F5F7"/>
<path d="M345.624 41.1204L343.502 43.2418L341.381 41.1204L343.502 38.9991L345.624 41.1204Z" fill="#F5F5F7"/>
<path d="M337.5 27L339.621 29.1213L337.5 31.2426L335.378 29.1213L337.5 27Z" fill="#F5F5F7"/>
<path d="M342.624 38.1204L340.502 40.2418L338.381 38.1204L340.502 35.9991L342.624 38.1204Z" fill="#F5F5F7"/>
<path d="M337.243 38.1204L335.121 40.2418L333 38.1204L335.121 35.9991L337.243 38.1204Z" fill="#F5F5F7"/>
<rect y="242.354" width="680" height="111" fill="url(#paint9_linear_40_3312)"/>
<defs>
<linearGradient id="paint0_linear_40_3312" x1="340.5" y1="85.001" x2="340.5" y2="113.001" gradientUnits="userSpaceOnUse">
<stop stop-color="#D7DDE5" stop-opacity="0"/>
<stop offset="1" stop-color="#864FFE"/>
</linearGradient>
<linearGradient id="paint1_linear_40_3312" x1="285.5" y1="160.001" x2="285.5" y2="204.001" gradientUnits="userSpaceOnUse">
<stop stop-color="#D7DDE5" stop-opacity="0"/>
<stop offset="1" stop-color="#864FFE"/>
</linearGradient>
<linearGradient id="paint2_linear_40_3312" x1="397.5" y1="180.001" x2="397.5" y2="224.001" gradientUnits="userSpaceOnUse">
<stop stop-color="#D7DDE5" stop-opacity="0"/>
<stop offset="1" stop-color="#864FFE"/>
</linearGradient>
<linearGradient id="paint3_linear_40_3312" x1="174.5" y1="204.001" x2="174.5" y2="248.001" gradientUnits="userSpaceOnUse">
<stop stop-color="#D7DDE5" stop-opacity="0"/>
<stop offset="1" stop-color="#864FFE"/>
</linearGradient>
<linearGradient id="paint4_linear_40_3312" x1="506.5" y1="219.001" x2="506.5" y2="243.001" gradientUnits="userSpaceOnUse">
<stop stop-color="#D7DDE5" stop-opacity="0"/>
<stop offset="1" stop-color="#864FFE"/>
</linearGradient>
<linearGradient id="paint5_linear_40_3312" x1="414.285" y1="292.455" x2="377.125" y2="283.676" gradientUnits="userSpaceOnUse">
<stop stop-color="#3BCC50"/>
<stop offset="0.489583" stop-color="#2ABAD6"/>
<stop offset="1" stop-color="#7DCFE7"/>
</linearGradient>
<linearGradient id="paint6_linear_40_3312" x1="391.236" y1="278.942" x2="391.236" y2="308.001" gradientUnits="userSpaceOnUse">
<stop stop-color="#035989"/>
<stop offset="0.265625" stop-color="#1175B6"/>
<stop offset="1" stop-color="#0470CF"/>
</linearGradient>
<radialGradient id="paint7_radial_40_3312" cx="0" cy="0" r="1" gradientTransform="matrix(6.58558 11.0537 -11.0915 6.56312 390.629 293.062)" gradientUnits="userSpaceOnUse">
<stop stop-color="#1284D8"/>
<stop offset="0.813899" stop-color="#1170B2" stop-opacity="0.767762"/>
<stop offset="1" stop-color="#0E649B" stop-opacity="0.65"/>
</radialGradient>
<radialGradient id="paint8_radial_40_3312" cx="0" cy="0" r="1" gradientTransform="matrix(2.16631 10.1901 -11.0048 2.32358 401.114 296.6)" gradientUnits="userSpaceOnUse">
<stop stop-color="#104890"/>
<stop offset="0.69943" stop-color="#12529E" stop-opacity="0.70624"/>
<stop offset="1" stop-color="#0E4584" stop-opacity="0.58"/>
</radialGradient>
<linearGradient id="paint9_linear_40_3312" x1="340" y1="217.335" x2="340" y2="342.714" gradientUnits="userSpaceOnUse">
<stop offset="0.183802" stop-color="white" stop-opacity="0"/>
<stop offset="0.522192" stop-color="white" stop-opacity="0"/>
<stop offset="0.770082" stop-color="white"/>
<stop offset="1" stop-color="white"/>
</linearGradient>
</defs>
</svg>
