<svg width="106" height="52" viewBox="0 0 106 52" fill="none" xmlns="http://www.w3.org/2000/svg">
<rect x="10" y="11" width="96" height="41" rx="20.5" fill="#C6F56F"/>
<path d="M44.1328 26.8145V37H42.9023V26.8145H44.1328ZM46.9492 32.4062V37H45.7871V29.3574H46.9082V30.5605H47.0176C47.1953 30.1686 47.4665 29.8542 47.8311 29.6172C48.1956 29.3802 48.6673 29.2617 49.2461 29.2617C49.7611 29.2617 50.2122 29.3665 50.5996 29.5762C50.987 29.7858 51.2878 30.1048 51.502 30.5332C51.7207 30.957 51.8301 31.4948 51.8301 32.1465V37H50.668V32.2285C50.668 31.6315 50.5107 31.1644 50.1963 30.8271C49.8818 30.4854 49.4535 30.3145 48.9111 30.3145C48.5374 30.3145 48.2025 30.3965 47.9062 30.5605C47.61 30.7246 47.3753 30.9616 47.2021 31.2715C47.0335 31.5814 46.9492 31.9596 46.9492 32.4062ZM59.2949 29.3574L56.4785 37H55.2754L52.459 29.3574H53.7305L55.8359 35.4551H55.918L58.0234 29.3574H59.2949ZM60.1973 37V29.3574H61.3594V37H60.1973ZM60.7852 28.0859C60.5573 28.0859 60.3613 28.0085 60.1973 27.8535C60.0332 27.6986 59.9512 27.5117 59.9512 27.293C59.9512 27.0742 60.0332 26.8874 60.1973 26.7324C60.3613 26.5775 60.5573 26.5 60.7852 26.5C61.013 26.5 61.209 26.5775 61.373 26.7324C61.5371 26.8874 61.6191 27.0742 61.6191 27.293C61.6191 27.5117 61.5371 27.6986 61.373 27.8535C61.209 28.0085 61.013 28.0859 60.7852 28.0859ZM66.1719 29.3574V30.3555H62.2207V29.3574H66.1719ZM63.3691 27.5391H64.5312V34.8125C64.5312 35.209 64.6133 35.5007 64.7773 35.6875C64.9414 35.8698 65.2012 35.9609 65.5566 35.9609C65.6341 35.9609 65.7139 35.9564 65.7959 35.9473C65.8825 35.9382 65.9759 35.9245 66.0762 35.9062L66.3223 36.959C66.2129 37 66.0785 37.0319 65.9189 37.0547C65.764 37.082 65.6068 37.0957 65.4473 37.0957C64.832 37.0957 64.3307 36.9134 63.9434 36.5488C63.5605 36.1842 63.3691 35.7103 63.3691 35.127V27.5391ZM70.4102 37.1641C69.6764 37.1641 69.0407 37 68.5029 36.6719C67.9697 36.3438 67.5596 35.8857 67.2725 35.2979C66.9854 34.7054 66.8418 34.0195 66.8418 33.2402C66.8418 32.4564 66.9831 31.766 67.2656 31.1689C67.5482 30.5719 67.9447 30.1048 68.4551 29.7676C68.9701 29.4303 69.5716 29.2617 70.2598 29.2617C70.6562 29.2617 71.0505 29.3278 71.4424 29.46C71.8343 29.5921 72.1898 29.8063 72.5088 30.1025C72.8324 30.3988 73.0898 30.7907 73.2812 31.2783C73.4727 31.766 73.5684 32.3652 73.5684 33.0762V33.582H67.6758V32.5703H72.9326L72.3926 32.9531C72.3926 32.4427 72.3128 31.9893 72.1533 31.5928C71.9938 31.1963 71.7546 30.8841 71.4355 30.6562C71.1211 30.4284 70.7292 30.3145 70.2598 30.3145C69.7904 30.3145 69.387 30.4307 69.0498 30.6631C68.7171 30.891 68.4619 31.1895 68.2842 31.5586C68.1064 31.9277 68.0176 32.3242 68.0176 32.748V33.418C68.0176 33.9967 68.1178 34.4867 68.3184 34.8877C68.5189 35.2887 68.7992 35.5941 69.1592 35.8037C69.5192 36.0088 69.9362 36.1113 70.4102 36.1113C70.7155 36.1113 70.9935 36.068 71.2441 35.9814C71.4948 35.8903 71.7113 35.7559 71.8936 35.5781C72.0758 35.3958 72.2148 35.1725 72.3105 34.9082L73.4453 35.2363C73.3268 35.6191 73.1263 35.9564 72.8438 36.248C72.5658 36.5352 72.2194 36.7607 71.8047 36.9248C71.39 37.0843 70.9251 37.1641 70.4102 37.1641Z" fill="#1A1A1C"/>
<g clip-path="url(#clip0_1_1731)">
<path d="M0.712345 0.0492001L19.5946 6.34935C20.1288 6.52765 20.1288 6.82483 19.6243 7.03286L10.6431 10.6287L6.13272 19.653C5.89533 20.1284 5.56892 20.1086 5.42056 19.5836L0.0397434 0.683177C-0.108624 0.168071 0.198004 -0.1192 0.712345 0.0492001Z" fill="#1A1A1C"/>
</g>
<defs>
<clipPath id="clip0_1_1731">
<rect width="20" height="20" fill="white" transform="matrix(-1 0 0 1 20 0)"/>
</clipPath>
</defs>
</svg>
