<svg width="113" height="51" viewBox="0 0 113 51" fill="none" xmlns="http://www.w3.org/2000/svg">
<rect y="10" width="99" height="41" rx="20.5" fill="#F9EB57"/>
<path d="M18.3418 26.9082V25.8145H25.9844V26.9082H22.7852V36H21.5547V26.9082H18.3418ZM28.2812 36.1777C27.7982 36.1777 27.3584 36.0866 26.9619 35.9043C26.5654 35.7174 26.251 35.4486 26.0186 35.0977C25.7861 34.7467 25.6699 34.3229 25.6699 33.8262C25.6699 33.3887 25.7565 33.0355 25.9297 32.7666C26.1029 32.4932 26.333 32.279 26.6201 32.124C26.9118 31.9645 27.2308 31.846 27.5771 31.7686C27.9281 31.6911 28.2812 31.6296 28.6367 31.584C29.1016 31.5247 29.4775 31.4792 29.7646 31.4473C30.0563 31.4154 30.2682 31.3607 30.4004 31.2832C30.5371 31.2057 30.6055 31.0736 30.6055 30.8867V30.8457C30.6055 30.3581 30.471 29.9798 30.2021 29.7109C29.9378 29.4375 29.5345 29.3008 28.9922 29.3008C28.4362 29.3008 27.9987 29.4238 27.6797 29.6699C27.3607 29.9115 27.1374 30.1712 27.0098 30.4492L25.8887 30.0527C26.0892 29.5879 26.3558 29.2256 26.6885 28.9658C27.0257 28.7061 27.3903 28.5238 27.7822 28.4189C28.1787 28.3141 28.5684 28.2617 28.9512 28.2617C29.1973 28.2617 29.4798 28.2913 29.7988 28.3506C30.1178 28.4053 30.4277 28.5238 30.7285 28.7061C31.0339 28.8838 31.2845 29.1549 31.4805 29.5195C31.681 29.8796 31.7812 30.3626 31.7812 30.9688V36H30.6055V34.9609H30.5508C30.4733 35.125 30.3411 35.3027 30.1543 35.4941C29.9674 35.681 29.7191 35.8428 29.4092 35.9795C29.1038 36.1117 28.7279 36.1777 28.2812 36.1777ZM28.459 35.125C28.9238 35.125 29.3158 35.0339 29.6348 34.8516C29.9538 34.6693 30.1953 34.4346 30.3594 34.1475C30.5234 33.8558 30.6055 33.5527 30.6055 33.2383V32.1582C30.5553 32.2174 30.446 32.2721 30.2773 32.3223C30.1133 32.3678 29.9219 32.4089 29.7031 32.4453C29.4889 32.4818 29.2793 32.5137 29.0742 32.541C28.8691 32.5638 28.7051 32.582 28.582 32.5957C28.2767 32.6367 27.9919 32.7028 27.7275 32.7939C27.4632 32.8805 27.249 33.0104 27.085 33.1836C26.9255 33.3568 26.8457 33.5938 26.8457 33.8945C26.8457 34.3001 26.9961 34.6077 27.2969 34.8174C27.6022 35.0225 27.9896 35.125 28.459 35.125ZM34.1602 28.3574L35.9785 31.4883L37.8105 28.3574H39.1641L36.7031 32.1855L39.1641 36H37.8105L35.9785 33.0332L34.1602 36H32.8066L35.2266 32.1855L32.8066 28.3574H34.1602ZM43.6211 36V25.8145H49.7324V26.9082H44.8516V30.4629H49.2676V31.5566H44.8516V36H43.6211ZM53.5605 36.1641C52.8724 36.1641 52.2686 36 51.749 35.6719C51.2295 35.3438 50.8239 34.8835 50.5322 34.291C50.2451 33.6986 50.1016 33.0104 50.1016 32.2266C50.1016 31.429 50.2451 30.734 50.5322 30.1416C50.8239 29.5446 51.2295 29.082 51.749 28.7539C52.2686 28.4258 52.8724 28.2617 53.5605 28.2617C54.2533 28.2617 54.8594 28.4258 55.3789 28.7539C55.8984 29.082 56.304 29.5446 56.5957 30.1416C56.8874 30.734 57.0332 31.429 57.0332 32.2266C57.0332 33.0104 56.8874 33.6986 56.5957 34.291C56.304 34.8835 55.8984 35.3438 55.3789 35.6719C54.8594 36 54.2533 36.1641 53.5605 36.1641ZM53.5605 35.1113C54.0892 35.1113 54.5221 34.9769 54.8594 34.708C55.1966 34.4391 55.4473 34.0859 55.6113 33.6484C55.7754 33.2064 55.8574 32.7324 55.8574 32.2266C55.8574 31.7116 55.7754 31.2331 55.6113 30.791C55.4473 30.349 55.1966 29.9935 54.8594 29.7246C54.5221 29.4512 54.0892 29.3145 53.5605 29.3145C53.041 29.3145 52.6126 29.4512 52.2754 29.7246C51.9382 29.9935 51.6875 30.349 51.5234 30.791C51.3594 31.2331 51.2773 31.7116 51.2773 32.2266C51.2773 32.7324 51.3594 33.2064 51.5234 33.6484C51.6875 34.0859 51.9382 34.4391 52.2754 34.708C52.6126 34.9769 53.041 35.1113 53.5605 35.1113ZM58.168 36V28.3574H59.2891V29.5195H59.3711C59.5124 29.1413 59.7653 28.8359 60.1299 28.6035C60.499 28.3665 60.9115 28.248 61.3672 28.248C61.4538 28.248 61.5609 28.2503 61.6885 28.2549C61.8161 28.2549 61.9141 28.2572 61.9824 28.2617V29.4512C61.9414 29.4421 61.8503 29.4284 61.709 29.4102C61.5677 29.3919 61.4173 29.3828 61.2578 29.3828C60.8887 29.3828 60.5583 29.4603 60.2666 29.6152C59.9749 29.7702 59.7448 29.9821 59.5762 30.251C59.4121 30.5199 59.3301 30.8275 59.3301 31.1738V36H58.168ZM62.7207 36V28.3574H63.8418V29.5605H63.9512C64.1107 29.1504 64.3682 28.8314 64.7236 28.6035C65.0791 28.3757 65.5052 28.2617 66.002 28.2617C66.5033 28.2617 66.9202 28.3757 67.2529 28.6035C67.5902 28.8314 67.8522 29.1504 68.0391 29.5605H68.1211C68.3216 29.1641 68.6156 28.8496 69.0029 28.6172C69.3949 28.3802 69.862 28.2617 70.4043 28.2617C71.0879 28.2617 71.6484 28.4759 72.0859 28.9043C72.5234 29.3281 72.7422 29.9889 72.7422 30.8867V36H71.5664V30.8867C71.5664 30.3216 71.4115 29.9183 71.1016 29.6768C70.7917 29.4352 70.4271 29.3145 70.0078 29.3145C69.4746 29.3145 69.0599 29.4785 68.7637 29.8066C68.472 30.1302 68.3262 30.5358 68.3262 31.0234V36H67.123V30.7637C67.123 30.3307 66.984 29.9821 66.7061 29.7178C66.4281 29.4489 66.0658 29.3145 65.6191 29.3145C65.3138 29.3145 65.029 29.3965 64.7646 29.5605C64.5003 29.7246 64.2861 29.9502 64.1221 30.2373C63.9626 30.5244 63.8828 30.8548 63.8828 31.2285V36H62.7207ZM79.6465 30.0801L78.5938 30.3672C78.4935 30.1074 78.3203 29.8613 78.0742 29.6289C77.8327 29.3919 77.4544 29.2734 76.9395 29.2734C76.4746 29.2734 76.0872 29.3828 75.7773 29.6016C75.4674 29.8158 75.3125 30.0846 75.3125 30.4082C75.3125 30.6999 75.4173 30.9323 75.627 31.1055C75.8411 31.2786 76.1738 31.4199 76.625 31.5293L77.7598 31.8027C78.4388 31.9668 78.9447 32.2197 79.2773 32.5615C79.6146 32.9033 79.7832 33.3385 79.7832 33.8672C79.7832 34.3047 79.6579 34.6966 79.4072 35.043C79.1566 35.3893 78.8079 35.6628 78.3613 35.8633C77.9147 36.0638 77.3952 36.1641 76.8027 36.1641C76.0234 36.1641 75.3786 35.9932 74.8682 35.6514C74.3623 35.3096 74.041 34.8151 73.9043 34.168L75.0117 33.8945C75.1165 34.3047 75.3171 34.6123 75.6133 34.8174C75.9141 35.0225 76.306 35.125 76.7891 35.125C77.3314 35.125 77.7643 35.0088 78.0879 34.7764C78.416 34.5394 78.5801 34.2591 78.5801 33.9355C78.5801 33.3978 78.2018 33.0378 77.4453 32.8555L76.1738 32.5547C75.472 32.3861 74.957 32.1286 74.6289 31.7822C74.3008 31.4359 74.1367 31.0007 74.1367 30.4766C74.1367 30.0436 74.2575 29.6608 74.499 29.3281C74.7451 28.9954 75.0801 28.7357 75.5039 28.5488C75.9277 28.3574 76.4062 28.2617 76.9395 28.2617C77.7005 28.2617 78.2952 28.4303 78.7236 28.7676C79.1566 29.1003 79.4642 29.5378 79.6465 30.0801Z" fill="#1A1A1C"/>
<g clip-path="url(#clip0_1_1736)">
<path d="M112.288 0.0492001L93.4054 6.34935C92.8712 6.52765 92.8712 6.82483 93.3757 7.03286L102.357 10.6287L106.867 19.653C107.105 20.1284 107.431 20.1086 107.579 19.5836L112.96 0.683177C113.109 0.168071 112.802 -0.1192 112.288 0.0492001Z" fill="white"/>
</g>
<defs>
<clipPath id="clip0_1_1736">
<rect width="20" height="20" fill="white" transform="translate(93)"/>
</clipPath>
</defs>
</svg>
