<svg width="585" height="368" viewBox="0 0 585 368" fill="none" xmlns="http://www.w3.org/2000/svg">
<rect width="585" height="368" rx="16" fill="#F4F5F8"/>
<path d="M80 64.5C80 57.8726 85.3726 52.5 92 52.5H356C362.627 52.5 368 57.8726 368 64.5V140.5C368 147.127 362.627 152.5 356 152.5H92C85.3726 152.5 80 147.127 80 140.5V64.5Z" fill="white"/>
<path d="M105.719 95.6562C104.729 95.6562 103.846 95.4141 103.07 94.9297C102.294 94.4453 101.685 93.7578 101.242 92.8672C100.799 91.9714 100.578 90.9115 100.578 89.6875C100.578 88.4583 100.799 87.3958 101.242 86.5C101.685 85.6042 102.294 84.9141 103.07 84.4297C103.846 83.9453 104.729 83.7031 105.719 83.7031C106.302 83.7031 106.852 83.7891 107.367 83.9609C107.888 84.1328 108.357 84.3828 108.773 84.7109C109.19 85.0339 109.536 85.4323 109.812 85.9062C110.094 86.375 110.286 86.9062 110.391 87.5H108.984C108.901 87.0938 108.755 86.737 108.547 86.4297C108.344 86.1224 108.094 85.8646 107.797 85.6562C107.505 85.4427 107.182 85.2839 106.828 85.1797C106.474 85.0703 106.104 85.0156 105.719 85.0156C105.016 85.0156 104.378 85.1953 103.805 85.5547C103.232 85.9089 102.776 86.4349 102.438 87.1328C102.104 87.8255 101.938 88.6771 101.938 89.6875C101.938 90.6927 102.104 91.5417 102.438 92.2344C102.776 92.9271 103.232 93.4531 103.805 93.8125C104.378 94.1667 105.016 94.3438 105.719 94.3438C106.104 94.3438 106.474 94.2917 106.828 94.1875C107.182 94.0781 107.505 93.9193 107.797 93.7109C108.094 93.4974 108.344 93.237 108.547 92.9297C108.755 92.6224 108.901 92.2656 108.984 91.8594H110.391C110.286 92.4583 110.094 92.9922 109.812 93.4609C109.536 93.9297 109.19 94.3281 108.773 94.6562C108.357 94.9792 107.888 95.2266 107.367 95.3984C106.852 95.5703 106.302 95.6562 105.719 95.6562ZM111.75 95.5V86.7656H113.031V88.0938H113.125C113.286 87.6615 113.576 87.3125 113.992 87.0469C114.414 86.776 114.885 86.6406 115.406 86.6406C115.505 86.6406 115.628 86.6432 115.773 86.6484C115.919 86.6484 116.031 86.651 116.109 86.6562V88.0156C116.062 88.0052 115.958 87.9896 115.797 87.9688C115.635 87.9479 115.464 87.9375 115.281 87.9375C114.859 87.9375 114.482 88.026 114.148 88.2031C113.815 88.3802 113.552 88.6224 113.359 88.9297C113.172 89.237 113.078 89.5885 113.078 89.9844V95.5H111.75ZM120.344 95.6875C119.505 95.6875 118.779 95.5 118.164 95.125C117.555 94.75 117.086 94.2266 116.758 93.5547C116.43 92.8776 116.266 92.0938 116.266 91.2031C116.266 90.3073 116.427 89.5182 116.75 88.8359C117.073 88.1536 117.526 87.6198 118.109 87.2344C118.698 86.849 119.385 86.6562 120.172 86.6562C120.625 86.6562 121.076 86.7318 121.523 86.8828C121.971 87.0339 122.378 87.2786 122.742 87.6172C123.112 87.9557 123.406 88.4036 123.625 88.9609C123.844 89.5182 123.953 90.2031 123.953 91.0156V91.5938H117.219V90.4375H123.227L122.609 90.875C122.609 90.2917 122.518 89.7734 122.336 89.3203C122.154 88.8672 121.88 88.5104 121.516 88.25C121.156 87.9896 120.708 87.8594 120.172 87.8594C119.635 87.8594 119.174 87.9922 118.789 88.2578C118.409 88.5182 118.117 88.8594 117.914 89.2812C117.711 89.7031 117.609 90.1562 117.609 90.6406V91.4062C117.609 92.0677 117.724 92.6276 117.953 93.0859C118.182 93.5443 118.503 93.8932 118.914 94.1328C119.326 94.3672 119.802 94.4844 120.344 94.4844C120.693 94.4844 121.01 94.4349 121.297 94.3359C121.583 94.2318 121.831 94.0781 122.039 93.875C122.247 93.6667 122.406 93.4115 122.516 93.1094L123.812 93.4844C123.677 93.9219 123.448 94.3073 123.125 94.6406C122.807 94.9688 122.411 95.2266 121.938 95.4141C121.464 95.5964 120.932 95.6875 120.344 95.6875ZM128.5 95.6875C127.771 95.6875 127.128 95.5026 126.57 95.1328C126.013 94.763 125.578 94.2396 125.266 93.5625C124.953 92.8802 124.797 92.0781 124.797 91.1562C124.797 90.2396 124.953 89.4453 125.266 88.7734C125.583 88.0964 126.021 87.5755 126.578 87.2109C127.135 86.8411 127.781 86.6562 128.516 86.6562C129.089 86.6562 129.539 86.75 129.867 86.9375C130.201 87.125 130.456 87.3385 130.633 87.5781C130.81 87.8125 130.948 88.0052 131.047 88.1562H131.156V83.8594H132.484V95.5H131.203V94.1562H131.047C130.948 94.3125 130.807 94.513 130.625 94.7578C130.443 94.9974 130.182 95.2135 129.844 95.4062C129.51 95.5938 129.062 95.6875 128.5 95.6875ZM128.672 94.4844C129.214 94.4844 129.669 94.3438 130.039 94.0625C130.409 93.776 130.69 93.3828 130.883 92.8828C131.076 92.3776 131.172 91.7969 131.172 91.1406C131.172 90.4844 131.078 89.9115 130.891 89.4219C130.703 88.9271 130.422 88.5443 130.047 88.2734C129.677 87.9974 129.219 87.8594 128.672 87.8594C128.109 87.8594 127.641 88.0052 127.266 88.2969C126.891 88.5885 126.609 88.9818 126.422 89.4766C126.234 89.9714 126.141 90.526 126.141 91.1406C126.141 91.7604 126.234 92.3229 126.422 92.8281C126.615 93.3333 126.898 93.737 127.273 94.0391C127.648 94.3359 128.115 94.4844 128.672 94.4844ZM134.203 95.5V86.7656H135.531V95.5H134.203ZM134.875 85.3125C134.615 85.3125 134.391 85.224 134.203 85.0469C134.016 84.8698 133.922 84.6562 133.922 84.4062C133.922 84.1562 134.016 83.9427 134.203 83.7656C134.391 83.5885 134.615 83.5 134.875 83.5C135.135 83.5 135.359 83.5885 135.547 83.7656C135.734 83.9427 135.828 84.1562 135.828 84.4062C135.828 84.6562 135.734 84.8698 135.547 85.0469C135.359 85.224 135.135 85.3125 134.875 85.3125ZM141.031 86.7656V87.9062H136.516V86.7656H141.031ZM137.828 84.6875H139.156V93C139.156 93.4531 139.25 93.7865 139.438 94C139.625 94.2083 139.922 94.3125 140.328 94.3125C140.417 94.3125 140.508 94.3073 140.602 94.2969C140.701 94.2865 140.807 94.2708 140.922 94.25L141.203 95.4531C141.078 95.5 140.924 95.5365 140.742 95.5625C140.565 95.5938 140.385 95.6094 140.203 95.6094C139.5 95.6094 138.927 95.401 138.484 94.9844C138.047 94.5677 137.828 94.026 137.828 93.3594V84.6875ZM147.391 83.8594V95.5H146.062V83.8594H147.391ZM149.109 95.5V86.7656H150.438V95.5H149.109ZM149.781 85.3125C149.521 85.3125 149.297 85.224 149.109 85.0469C148.922 84.8698 148.828 84.6562 148.828 84.4062C148.828 84.1562 148.922 83.9427 149.109 83.7656C149.297 83.5885 149.521 83.5 149.781 83.5C150.042 83.5 150.266 83.5885 150.453 83.7656C150.641 83.9427 150.734 84.1562 150.734 84.4062C150.734 84.6562 150.641 84.8698 150.453 85.0469C150.266 85.224 150.042 85.3125 149.781 85.3125ZM152.156 95.5V86.7656H153.438V88.1406H153.562C153.745 87.6719 154.039 87.3073 154.445 87.0469C154.852 86.7865 155.339 86.6562 155.906 86.6562C156.479 86.6562 156.956 86.7865 157.336 87.0469C157.721 87.3073 158.021 87.6719 158.234 88.1406H158.328C158.557 87.6875 158.893 87.3281 159.336 87.0625C159.784 86.7917 160.318 86.6562 160.938 86.6562C161.719 86.6562 162.359 86.901 162.859 87.3906C163.359 87.875 163.609 88.6302 163.609 89.6562V95.5H162.266V89.6562C162.266 89.0104 162.089 88.5495 161.734 88.2734C161.38 87.9974 160.964 87.8594 160.484 87.8594C159.875 87.8594 159.401 88.0469 159.062 88.4219C158.729 88.7917 158.562 89.2552 158.562 89.8125V95.5H157.188V89.5156C157.188 89.0208 157.029 88.6224 156.711 88.3203C156.393 88.013 155.979 87.8594 155.469 87.8594C155.12 87.8594 154.794 87.9531 154.492 88.1406C154.19 88.3281 153.945 88.5859 153.758 88.9141C153.576 89.2422 153.484 89.6198 153.484 90.0469V95.5H152.156ZM165.328 95.5V86.7656H166.656V95.5H165.328ZM166 85.3125C165.74 85.3125 165.516 85.224 165.328 85.0469C165.141 84.8698 165.047 84.6562 165.047 84.4062C165.047 84.1562 165.141 83.9427 165.328 83.7656C165.516 83.5885 165.74 83.5 166 83.5C166.26 83.5 166.484 83.5885 166.672 83.7656C166.859 83.9427 166.953 84.1562 166.953 84.4062C166.953 84.6562 166.859 84.8698 166.672 85.0469C166.484 85.224 166.26 85.3125 166 85.3125ZM172.156 86.7656V87.9062H167.641V86.7656H172.156ZM168.953 84.6875H170.281V93C170.281 93.4531 170.375 93.7865 170.562 94C170.75 94.2083 171.047 94.3125 171.453 94.3125C171.542 94.3125 171.633 94.3073 171.727 94.2969C171.826 94.2865 171.932 94.2708 172.047 94.25L172.328 95.4531C172.203 95.5 172.049 95.5365 171.867 95.5625C171.69 95.5938 171.51 95.6094 171.328 95.6094C170.625 95.6094 170.052 95.401 169.609 94.9844C169.172 94.5677 168.953 94.026 168.953 93.3594V84.6875Z" fill="#1A1A1C"/>
<path d="M280.887 97.6348V81.2695H281.924V97.6348H280.887ZM281.405 96.2109C280.427 96.2109 279.577 96.0586 278.856 95.7539C278.142 95.4434 277.582 95.001 277.178 94.4268C276.773 93.8525 276.548 93.1699 276.501 92.3789H278.487C278.528 92.8535 278.681 93.249 278.944 93.5654C279.214 93.876 279.562 94.1074 279.99 94.2598C280.418 94.4121 280.887 94.4883 281.396 94.4883C281.953 94.4883 282.451 94.4004 282.891 94.2246C283.33 94.0488 283.673 93.8027 283.919 93.4863C284.171 93.1641 284.297 92.7891 284.297 92.3613C284.297 91.9746 284.186 91.6582 283.963 91.4121C283.746 91.166 283.45 90.9639 283.075 90.8057C282.7 90.6416 282.278 90.498 281.81 90.375L280.271 89.9531C279.217 89.6719 278.385 89.2529 277.775 88.6963C277.166 88.1338 276.861 87.3984 276.861 86.4902C276.861 85.7344 277.063 85.0752 277.468 84.5127C277.878 83.9502 278.432 83.5137 279.129 83.2031C279.832 82.8867 280.62 82.7285 281.493 82.7285C282.384 82.7285 283.166 82.8867 283.84 83.2031C284.52 83.5137 285.056 83.9414 285.448 84.4863C285.847 85.0254 286.055 85.6436 286.072 86.3408H284.156C284.086 85.7373 283.805 85.2686 283.312 84.9346C282.826 84.6006 282.205 84.4336 281.449 84.4336C280.922 84.4336 280.459 84.5186 280.061 84.6885C279.668 84.8525 279.363 85.0811 279.146 85.374C278.936 85.667 278.83 86.0039 278.83 86.3848C278.83 86.7949 278.956 87.1289 279.208 87.3867C279.466 87.6445 279.776 87.8496 280.14 88.002C280.509 88.1484 280.863 88.2686 281.203 88.3623L282.478 88.7051C282.894 88.8105 283.321 88.9512 283.761 89.127C284.2 89.3027 284.607 89.5342 284.982 89.8213C285.363 90.1025 285.668 90.4541 285.896 90.876C286.131 91.292 286.248 91.7959 286.248 92.3877C286.248 93.1201 286.058 93.7764 285.677 94.3564C285.296 94.9307 284.745 95.3848 284.024 95.7188C283.304 96.0469 282.431 96.2109 281.405 96.2109ZM296.092 96.1758C295.178 96.1758 294.369 96.0176 293.666 95.7012C292.969 95.3848 292.421 94.9512 292.022 94.4004C291.63 93.8438 291.434 93.2109 291.434 92.502C291.434 91.957 291.548 91.4502 291.776 90.9814C292.011 90.5127 292.327 90.123 292.726 89.8125C293.124 89.502 293.572 89.3027 294.07 89.2148V89.1357C293.42 88.9775 292.896 88.6289 292.497 88.0898C292.104 87.5449 291.908 86.9238 291.908 86.2266C291.908 85.5527 292.087 84.9521 292.444 84.4248C292.808 83.8975 293.303 83.4844 293.93 83.1855C294.562 82.8809 295.283 82.7285 296.092 82.7285C296.889 82.7285 297.601 82.8809 298.228 83.1855C298.86 83.4844 299.355 83.8975 299.713 84.4248C300.076 84.9521 300.258 85.5527 300.258 86.2266C300.258 86.9238 300.059 87.5449 299.66 88.0898C299.268 88.6289 298.752 88.9775 298.113 89.1357V89.2148C298.605 89.3027 299.051 89.502 299.449 89.8125C299.848 90.123 300.164 90.5127 300.398 90.9814C300.633 91.4502 300.75 91.957 300.75 92.502C300.75 93.2109 300.551 93.8438 300.152 94.4004C299.754 94.9512 299.203 95.3848 298.5 95.7012C297.803 96.0176 297 96.1758 296.092 96.1758ZM296.092 94.5586C296.631 94.5586 297.1 94.4707 297.498 94.2949C297.896 94.1133 298.204 93.8584 298.421 93.5303C298.638 93.2021 298.746 92.8213 298.746 92.3877C298.746 91.9307 298.629 91.5293 298.395 91.1836C298.166 90.832 297.853 90.5566 297.454 90.3574C297.056 90.1523 296.602 90.0498 296.092 90.0498C295.576 90.0498 295.116 90.1494 294.712 90.3486C294.313 90.5479 294 90.8232 293.771 91.1748C293.543 91.5264 293.429 91.9307 293.429 92.3877C293.429 92.8213 293.537 93.2021 293.754 93.5303C293.971 93.8584 294.278 94.1133 294.677 94.2949C295.075 94.4707 295.547 94.5586 296.092 94.5586ZM296.092 88.4766C296.525 88.4766 296.909 88.3887 297.243 88.2129C297.583 88.0371 297.85 87.7939 298.043 87.4834C298.242 87.1729 298.342 86.8096 298.342 86.3936C298.342 85.9834 298.245 85.626 298.052 85.3213C297.864 85.0166 297.601 84.7793 297.261 84.6094C296.927 84.4395 296.537 84.3545 296.092 84.3545C295.641 84.3545 295.245 84.4395 294.905 84.6094C294.565 84.7793 294.302 85.0166 294.114 85.3213C293.927 85.626 293.833 85.9834 293.833 86.3936C293.833 86.8096 293.93 87.1729 294.123 87.4834C294.316 87.7939 294.58 88.0371 294.914 88.2129C295.254 88.3887 295.646 88.4766 296.092 88.4766ZM306.814 96.1758C305.807 96.1758 304.942 95.9121 304.222 95.3848C303.507 94.8574 302.959 94.0957 302.578 93.0996C302.203 92.0977 302.016 90.8848 302.016 89.4609C302.016 88.043 302.206 86.833 302.587 85.8311C302.968 84.8232 303.516 84.0557 304.23 83.5283C304.951 82.9951 305.812 82.7285 306.814 82.7285C307.822 82.7285 308.684 82.9951 309.398 83.5283C310.119 84.0557 310.667 84.8232 311.042 85.8311C311.423 86.833 311.613 88.043 311.613 89.4609C311.613 90.8848 311.426 92.0977 311.051 93.0996C310.676 94.0957 310.131 94.8574 309.416 95.3848C308.701 95.9121 307.834 96.1758 306.814 96.1758ZM306.814 94.4883C307.43 94.4883 307.948 94.292 308.37 93.8994C308.792 93.5068 309.114 92.9355 309.337 92.1855C309.56 91.4297 309.671 90.5215 309.671 89.4609C309.671 88.3945 309.56 87.4863 309.337 86.7363C309.114 85.9805 308.792 85.4062 308.37 85.0137C307.948 84.6152 307.43 84.416 306.814 84.416C305.906 84.416 305.203 84.8584 304.705 85.7432C304.213 86.6221 303.967 87.8613 303.967 89.4609C303.967 90.5215 304.078 91.4297 304.301 92.1855C304.523 92.9355 304.846 93.5068 305.268 93.8994C305.695 94.292 306.211 94.4883 306.814 94.4883ZM312.492 99.2432L313.266 94.1191H315.322L313.872 99.2432H312.492ZM317.59 96V94.5762L322.02 89.9707C322.488 89.4785 322.875 89.0449 323.18 88.6699C323.49 88.2891 323.722 87.9287 323.874 87.5889C324.032 87.249 324.111 86.8887 324.111 86.5078C324.111 86.0684 324.009 85.6904 323.804 85.374C323.599 85.0576 323.32 84.8145 322.969 84.6445C322.617 84.4746 322.219 84.3896 321.773 84.3896C321.305 84.3896 320.897 84.4863 320.552 84.6797C320.206 84.8672 319.937 85.1367 319.743 85.4883C319.556 85.834 319.462 86.2412 319.462 86.71H317.581C317.581 85.9131 317.763 85.2158 318.126 84.6182C318.495 84.0205 318.999 83.5576 319.638 83.2295C320.282 82.8955 321.009 82.7285 321.817 82.7285C322.644 82.7285 323.37 82.8926 323.997 83.2207C324.624 83.5488 325.113 83.9941 325.465 84.5566C325.816 85.1133 325.992 85.7432 325.992 86.4463C325.992 86.9326 325.901 87.4072 325.72 87.8701C325.544 88.333 325.23 88.8516 324.779 89.4258C324.334 89.9941 323.713 90.6797 322.916 91.4824L320.314 94.207V94.3125H326.203V96H317.59ZM327.873 96V94.5762L332.303 89.9707C332.771 89.4785 333.158 89.0449 333.463 88.6699C333.773 88.2891 334.005 87.9287 334.157 87.5889C334.315 87.249 334.395 86.8887 334.395 86.5078C334.395 86.0684 334.292 85.6904 334.087 85.374C333.882 85.0576 333.604 84.8145 333.252 84.6445C332.9 84.4746 332.502 84.3896 332.057 84.3896C331.588 84.3896 331.181 84.4863 330.835 84.6797C330.489 84.8672 330.22 85.1367 330.026 85.4883C329.839 85.834 329.745 86.2412 329.745 86.71H327.864C327.864 85.9131 328.046 85.2158 328.409 84.6182C328.778 84.0205 329.282 83.5576 329.921 83.2295C330.565 82.8955 331.292 82.7285 332.101 82.7285C332.927 82.7285 333.653 82.8926 334.28 83.2207C334.907 83.5488 335.396 83.9941 335.748 84.5566C336.1 85.1133 336.275 85.7432 336.275 86.4463C336.275 86.9326 336.185 87.4072 336.003 87.8701C335.827 88.333 335.514 88.8516 335.062 89.4258C334.617 89.9941 333.996 90.6797 333.199 91.4824L330.598 94.207V94.3125H336.486V96H327.873ZM337.611 93.4424V91.8516L343.263 82.9043H344.52V85.2598H343.711L339.668 91.6582V91.7637H347.429V93.4424H337.611ZM343.799 96V92.959L343.816 92.2295V82.9043H345.697V96H343.799Z" fill="#1A1A1C"/>
<path d="M100 120H313" stroke="#1A1A1C" stroke-width="6" stroke-linecap="round"/>
<path d="M100 120H233" stroke="#C6F56F" stroke-width="6" stroke-linecap="round"/>
<path d="M325.301 122.207V121.34L329.133 115.27H329.766V116.617H329.332L326.438 121.199V121.27H331.605V122.207H325.301ZM329.402 124V121.949V121.539V115.27H330.41V124H329.402ZM335.414 124.117C334.828 124.117 334.312 124.014 333.867 123.807C333.422 123.596 333.074 123.307 332.824 122.939C332.574 122.572 332.449 122.152 332.449 121.68C332.449 121.312 332.521 120.973 332.666 120.66C332.814 120.344 333.016 120.08 333.27 119.869C333.527 119.658 333.816 119.523 334.137 119.465V119.418C333.719 119.309 333.385 119.072 333.135 118.709C332.889 118.346 332.766 117.934 332.766 117.473C332.766 117.027 332.879 116.631 333.105 116.283C333.332 115.932 333.645 115.656 334.043 115.457C334.445 115.254 334.902 115.152 335.414 115.152C335.918 115.152 336.369 115.254 336.768 115.457C337.166 115.656 337.479 115.932 337.705 116.283C337.936 116.631 338.051 117.027 338.051 117.473C338.051 117.934 337.926 118.346 337.676 118.709C337.426 119.072 337.098 119.309 336.691 119.418V119.465C337.004 119.523 337.287 119.658 337.541 119.869C337.799 120.08 338.002 120.344 338.15 120.66C338.303 120.973 338.379 121.312 338.379 121.68C338.379 122.152 338.252 122.572 337.998 122.939C337.748 123.307 337.4 123.596 336.955 123.807C336.51 124.014 335.996 124.117 335.414 124.117ZM335.414 123.18C335.809 123.18 336.148 123.117 336.434 122.992C336.723 122.863 336.945 122.684 337.102 122.453C337.258 122.219 337.336 121.945 337.336 121.633C337.336 121.305 337.252 121.014 337.084 120.76C336.916 120.506 336.688 120.307 336.398 120.162C336.109 120.018 335.781 119.945 335.414 119.945C335.039 119.945 334.705 120.018 334.412 120.162C334.123 120.307 333.895 120.506 333.727 120.76C333.562 121.014 333.48 121.305 333.48 121.633C333.48 121.945 333.559 122.219 333.715 122.453C333.871 122.684 334.094 122.863 334.383 122.992C334.672 123.117 335.016 123.18 335.414 123.18ZM335.414 119.043C335.727 119.043 336.004 118.98 336.246 118.855C336.488 118.73 336.68 118.557 336.82 118.334C336.961 118.107 337.031 117.844 337.031 117.543C337.031 117.246 336.963 116.988 336.826 116.77C336.689 116.551 336.5 116.381 336.258 116.26C336.016 116.139 335.734 116.078 335.414 116.078C335.086 116.078 334.799 116.139 334.553 116.26C334.311 116.381 334.121 116.551 333.984 116.77C333.852 116.988 333.785 117.246 333.785 117.543C333.785 117.844 333.854 118.107 333.99 118.334C334.131 118.557 334.322 118.73 334.564 118.855C334.811 118.98 335.094 119.043 335.414 119.043ZM343.887 122.359V121.902C343.887 121.582 343.951 121.289 344.08 121.023C344.213 120.758 344.406 120.545 344.66 120.385C344.914 120.225 345.223 120.145 345.586 120.145C345.957 120.145 346.268 120.225 346.518 120.385C346.768 120.545 346.955 120.758 347.08 121.023C347.209 121.289 347.273 121.582 347.273 121.902V122.359C347.273 122.68 347.209 122.973 347.08 123.238C346.951 123.504 346.762 123.717 346.512 123.877C346.262 124.037 345.953 124.117 345.586 124.117C345.219 124.117 344.908 124.037 344.654 123.877C344.4 123.717 344.209 123.504 344.08 123.238C343.951 122.973 343.887 122.68 343.887 122.359ZM344.754 121.902V122.359C344.754 122.625 344.816 122.863 344.941 123.074C345.066 123.281 345.281 123.387 345.586 123.391C345.887 123.387 346.098 123.281 346.219 123.074C346.344 122.863 346.406 122.625 346.406 122.359V121.902C346.406 121.637 346.346 121.4 346.225 121.193C346.107 120.986 345.895 120.883 345.586 120.883C345.289 120.883 345.076 120.986 344.947 121.193C344.818 121.4 344.754 121.637 344.754 121.902ZM339.539 117.367V116.91C339.539 116.59 339.605 116.297 339.738 116.031C339.871 115.766 340.062 115.553 340.312 115.393C340.566 115.232 340.875 115.152 341.238 115.152C341.609 115.152 341.92 115.232 342.17 115.393C342.424 115.553 342.613 115.766 342.738 116.031C342.867 116.297 342.93 116.59 342.926 116.91V117.367C342.93 117.684 342.865 117.977 342.732 118.246C342.604 118.512 342.414 118.725 342.164 118.885C341.914 119.045 341.605 119.125 341.238 119.125C340.871 119.125 340.561 119.045 340.307 118.885C340.053 118.725 339.861 118.512 339.732 118.246C339.604 117.977 339.539 117.684 339.539 117.367ZM340.406 116.91V117.367C340.406 117.633 340.469 117.871 340.594 118.082C340.719 118.289 340.934 118.391 341.238 118.387C341.539 118.391 341.75 118.289 341.871 118.082C341.996 117.871 342.059 117.633 342.059 117.367V116.91C342.059 116.645 341.998 116.408 341.877 116.201C341.76 115.99 341.547 115.887 341.238 115.891C340.941 115.887 340.729 115.99 340.6 116.201C340.471 116.408 340.406 116.645 340.406 116.91ZM339.867 124L345.867 115.27H346.84L340.84 124H339.867Z" fill="#1A1A1C"/>
<rect x="390" y="111.5" width="121" height="41" rx="20.5" fill="#864FFE"/>
<path d="M422.561 137.5V136.611L428.057 128.408H422.506V127.314H429.533V128.217L424.037 136.406H429.588V137.5H422.561ZM434.045 137.664C433.311 137.664 432.675 137.5 432.138 137.172C431.604 136.844 431.194 136.386 430.907 135.798C430.62 135.205 430.477 134.52 430.477 133.74C430.477 132.956 430.618 132.266 430.9 131.669C431.183 131.072 431.579 130.605 432.09 130.268C432.605 129.93 433.206 129.762 433.895 129.762C434.291 129.762 434.685 129.828 435.077 129.96C435.469 130.092 435.825 130.306 436.144 130.603C436.467 130.899 436.725 131.291 436.916 131.778C437.107 132.266 437.203 132.865 437.203 133.576V134.082H431.311V133.07H436.567L436.027 133.453C436.027 132.943 435.948 132.489 435.788 132.093C435.629 131.696 435.389 131.384 435.07 131.156C434.756 130.928 434.364 130.814 433.895 130.814C433.425 130.814 433.022 130.931 432.685 131.163C432.352 131.391 432.097 131.689 431.919 132.059C431.741 132.428 431.652 132.824 431.652 133.248V133.918C431.652 134.497 431.753 134.987 431.953 135.388C432.154 135.789 432.434 136.094 432.794 136.304C433.154 136.509 433.571 136.611 434.045 136.611C434.35 136.611 434.628 136.568 434.879 136.481C435.13 136.39 435.346 136.256 435.528 136.078C435.711 135.896 435.85 135.673 435.945 135.408L437.08 135.736C436.962 136.119 436.761 136.456 436.479 136.748C436.201 137.035 435.854 137.261 435.439 137.425C435.025 137.584 434.56 137.664 434.045 137.664ZM438.311 137.5V129.857H439.432V131.02H439.514C439.655 130.641 439.908 130.336 440.272 130.104C440.642 129.867 441.054 129.748 441.51 129.748C441.596 129.748 441.703 129.75 441.831 129.755C441.959 129.755 442.057 129.757 442.125 129.762V130.951C442.084 130.942 441.993 130.928 441.852 130.91C441.71 130.892 441.56 130.883 441.4 130.883C441.031 130.883 440.701 130.96 440.409 131.115C440.118 131.27 439.887 131.482 439.719 131.751C439.555 132.02 439.473 132.327 439.473 132.674V137.5H438.311ZM445.721 137.664C445.033 137.664 444.429 137.5 443.909 137.172C443.39 136.844 442.984 136.383 442.692 135.791C442.405 135.199 442.262 134.51 442.262 133.727C442.262 132.929 442.405 132.234 442.692 131.642C442.984 131.045 443.39 130.582 443.909 130.254C444.429 129.926 445.033 129.762 445.721 129.762C446.413 129.762 447.02 129.926 447.539 130.254C448.059 130.582 448.464 131.045 448.756 131.642C449.048 132.234 449.193 132.929 449.193 133.727C449.193 134.51 449.048 135.199 448.756 135.791C448.464 136.383 448.059 136.844 447.539 137.172C447.02 137.5 446.413 137.664 445.721 137.664ZM445.721 136.611C446.249 136.611 446.682 136.477 447.02 136.208C447.357 135.939 447.607 135.586 447.771 135.148C447.936 134.706 448.018 134.232 448.018 133.727C448.018 133.212 447.936 132.733 447.771 132.291C447.607 131.849 447.357 131.493 447.02 131.225C446.682 130.951 446.249 130.814 445.721 130.814C445.201 130.814 444.773 130.951 444.436 131.225C444.098 131.493 443.848 131.849 443.684 132.291C443.52 132.733 443.438 133.212 443.438 133.727C443.438 134.232 443.52 134.706 443.684 135.148C443.848 135.586 444.098 135.939 444.436 136.208C444.773 136.477 445.201 136.611 445.721 136.611ZM457 129.857V130.855H452.885V129.857H457ZM454.115 137.5V128.805C454.115 128.367 454.218 128.003 454.423 127.711C454.632 127.419 454.901 127.201 455.229 127.055C455.558 126.909 455.902 126.836 456.262 126.836C456.553 126.836 456.79 126.861 456.973 126.911C457.16 126.957 457.296 127 457.383 127.041L457.041 128.053C456.982 128.03 456.9 128.005 456.795 127.978C456.695 127.946 456.558 127.93 456.385 127.93C455.997 127.93 455.715 128.03 455.537 128.23C455.364 128.426 455.277 128.714 455.277 129.092V137.5H454.115ZM460.883 137.664C460.149 137.664 459.513 137.5 458.976 137.172C458.442 136.844 458.032 136.386 457.745 135.798C457.458 135.205 457.314 134.52 457.314 133.74C457.314 132.956 457.456 132.266 457.738 131.669C458.021 131.072 458.417 130.605 458.928 130.268C459.443 129.93 460.044 129.762 460.732 129.762C461.129 129.762 461.523 129.828 461.915 129.96C462.307 130.092 462.662 130.306 462.981 130.603C463.305 130.899 463.562 131.291 463.754 131.778C463.945 132.266 464.041 132.865 464.041 133.576V134.082H458.148V133.07H463.405L462.865 133.453C462.865 132.943 462.785 132.489 462.626 132.093C462.466 131.696 462.227 131.384 461.908 131.156C461.594 130.928 461.202 130.814 460.732 130.814C460.263 130.814 459.86 130.931 459.522 131.163C459.19 131.391 458.935 131.689 458.757 132.059C458.579 132.428 458.49 132.824 458.49 133.248V133.918C458.49 134.497 458.59 134.987 458.791 135.388C458.992 135.789 459.272 136.094 459.632 136.304C459.992 136.509 460.409 136.611 460.883 136.611C461.188 136.611 461.466 136.568 461.717 136.481C461.967 136.39 462.184 136.256 462.366 136.078C462.549 135.896 462.688 135.673 462.783 135.408L463.918 135.736C463.799 136.119 463.599 136.456 463.316 136.748C463.038 137.035 462.692 137.261 462.277 137.425C461.863 137.584 461.398 137.664 460.883 137.664ZM468.348 137.664C467.614 137.664 466.978 137.5 466.44 137.172C465.907 136.844 465.497 136.386 465.21 135.798C464.923 135.205 464.779 134.52 464.779 133.74C464.779 132.956 464.921 132.266 465.203 131.669C465.486 131.072 465.882 130.605 466.393 130.268C466.908 129.93 467.509 129.762 468.197 129.762C468.594 129.762 468.988 129.828 469.38 129.96C469.772 130.092 470.127 130.306 470.446 130.603C470.77 130.899 471.027 131.291 471.219 131.778C471.41 132.266 471.506 132.865 471.506 133.576V134.082H465.613V133.07H470.87L470.33 133.453C470.33 132.943 470.25 132.489 470.091 132.093C469.931 131.696 469.692 131.384 469.373 131.156C469.059 130.928 468.667 130.814 468.197 130.814C467.728 130.814 467.325 130.931 466.987 131.163C466.655 131.391 466.399 131.689 466.222 132.059C466.044 132.428 465.955 132.824 465.955 133.248V133.918C465.955 134.497 466.055 134.987 466.256 135.388C466.456 135.789 466.737 136.094 467.097 136.304C467.457 136.509 467.874 136.611 468.348 136.611C468.653 136.611 468.931 136.568 469.182 136.481C469.432 136.39 469.649 136.256 469.831 136.078C470.013 135.896 470.152 135.673 470.248 135.408L471.383 135.736C471.264 136.119 471.064 136.456 470.781 136.748C470.503 137.035 470.157 137.261 469.742 137.425C469.327 137.584 468.863 137.664 468.348 137.664ZM478.014 131.58L476.961 131.867C476.861 131.607 476.688 131.361 476.441 131.129C476.2 130.892 475.822 130.773 475.307 130.773C474.842 130.773 474.454 130.883 474.145 131.102C473.835 131.316 473.68 131.585 473.68 131.908C473.68 132.2 473.785 132.432 473.994 132.605C474.208 132.779 474.541 132.92 474.992 133.029L476.127 133.303C476.806 133.467 477.312 133.72 477.645 134.062C477.982 134.403 478.15 134.839 478.15 135.367C478.15 135.805 478.025 136.197 477.774 136.543C477.524 136.889 477.175 137.163 476.729 137.363C476.282 137.564 475.762 137.664 475.17 137.664C474.391 137.664 473.746 137.493 473.235 137.151C472.729 136.81 472.408 136.315 472.271 135.668L473.379 135.395C473.484 135.805 473.684 136.112 473.98 136.317C474.281 136.522 474.673 136.625 475.156 136.625C475.699 136.625 476.132 136.509 476.455 136.276C476.783 136.039 476.947 135.759 476.947 135.436C476.947 134.898 476.569 134.538 475.812 134.355L474.541 134.055C473.839 133.886 473.324 133.629 472.996 133.282C472.668 132.936 472.504 132.501 472.504 131.977C472.504 131.544 472.625 131.161 472.866 130.828C473.112 130.495 473.447 130.236 473.871 130.049C474.295 129.857 474.773 129.762 475.307 129.762C476.068 129.762 476.662 129.93 477.091 130.268C477.524 130.6 477.831 131.038 478.014 131.58Z" fill="#FCFCFC"/>
<g clip-path="url(#clip0_1_1970)">
<path d="M380.712 100.55L399.595 106.85C400.129 107.028 400.129 107.325 399.624 107.533L390.643 111.129L386.133 120.153C385.895 120.629 385.569 120.609 385.421 120.084L380.04 101.184C379.891 100.669 380.198 100.381 380.712 100.55Z" fill="#1A1A1C"/>
</g>
<rect x="126.5" y="255" width="162" height="41" rx="20.5" fill="#F9EB57"/>
<path d="M160.633 270.814V281H159.402V270.814H160.633ZM163.449 276.406V281H162.287V273.357H163.408V274.561H163.518C163.695 274.169 163.966 273.854 164.331 273.617C164.696 273.38 165.167 273.262 165.746 273.262C166.261 273.262 166.712 273.367 167.1 273.576C167.487 273.786 167.788 274.105 168.002 274.533C168.221 274.957 168.33 275.495 168.33 276.146V281H167.168V276.229C167.168 275.632 167.011 275.164 166.696 274.827C166.382 274.485 165.953 274.314 165.411 274.314C165.037 274.314 164.702 274.396 164.406 274.561C164.11 274.725 163.875 274.962 163.702 275.271C163.534 275.581 163.449 275.96 163.449 276.406ZM175.234 275.08L174.182 275.367C174.081 275.107 173.908 274.861 173.662 274.629C173.421 274.392 173.042 274.273 172.527 274.273C172.062 274.273 171.675 274.383 171.365 274.602C171.055 274.816 170.9 275.085 170.9 275.408C170.9 275.7 171.005 275.932 171.215 276.105C171.429 276.279 171.762 276.42 172.213 276.529L173.348 276.803C174.027 276.967 174.533 277.22 174.865 277.562C175.202 277.903 175.371 278.339 175.371 278.867C175.371 279.305 175.246 279.697 174.995 280.043C174.744 280.389 174.396 280.663 173.949 280.863C173.503 281.064 172.983 281.164 172.391 281.164C171.611 281.164 170.966 280.993 170.456 280.651C169.95 280.31 169.629 279.815 169.492 279.168L170.6 278.895C170.704 279.305 170.905 279.612 171.201 279.817C171.502 280.022 171.894 280.125 172.377 280.125C172.919 280.125 173.352 280.009 173.676 279.776C174.004 279.539 174.168 279.259 174.168 278.936C174.168 278.398 173.79 278.038 173.033 277.855L171.762 277.555C171.06 277.386 170.545 277.129 170.217 276.782C169.889 276.436 169.725 276.001 169.725 275.477C169.725 275.044 169.845 274.661 170.087 274.328C170.333 273.995 170.668 273.736 171.092 273.549C171.516 273.357 171.994 273.262 172.527 273.262C173.288 273.262 173.883 273.43 174.312 273.768C174.744 274.1 175.052 274.538 175.234 275.08ZM179.801 273.357V274.355H175.85V273.357H179.801ZM176.998 271.539H178.16V278.812C178.16 279.209 178.242 279.501 178.406 279.688C178.57 279.87 178.83 279.961 179.186 279.961C179.263 279.961 179.343 279.956 179.425 279.947C179.511 279.938 179.605 279.924 179.705 279.906L179.951 280.959C179.842 281 179.707 281.032 179.548 281.055C179.393 281.082 179.236 281.096 179.076 281.096C178.461 281.096 177.96 280.913 177.572 280.549C177.189 280.184 176.998 279.71 176.998 279.127V271.539ZM183.164 281.178C182.681 281.178 182.241 281.087 181.845 280.904C181.448 280.717 181.134 280.449 180.901 280.098C180.669 279.747 180.553 279.323 180.553 278.826C180.553 278.389 180.639 278.035 180.812 277.767C180.986 277.493 181.216 277.279 181.503 277.124C181.795 276.965 182.114 276.846 182.46 276.769C182.811 276.691 183.164 276.63 183.52 276.584C183.984 276.525 184.36 276.479 184.647 276.447C184.939 276.415 185.151 276.361 185.283 276.283C185.42 276.206 185.488 276.074 185.488 275.887V275.846C185.488 275.358 185.354 274.98 185.085 274.711C184.821 274.438 184.417 274.301 183.875 274.301C183.319 274.301 182.882 274.424 182.562 274.67C182.243 274.911 182.02 275.171 181.893 275.449L180.771 275.053C180.972 274.588 181.239 274.226 181.571 273.966C181.909 273.706 182.273 273.524 182.665 273.419C183.062 273.314 183.451 273.262 183.834 273.262C184.08 273.262 184.363 273.291 184.682 273.351C185.001 273.405 185.311 273.524 185.611 273.706C185.917 273.884 186.167 274.155 186.363 274.52C186.564 274.88 186.664 275.363 186.664 275.969V281H185.488V279.961H185.434C185.356 280.125 185.224 280.303 185.037 280.494C184.85 280.681 184.602 280.843 184.292 280.979C183.987 281.112 183.611 281.178 183.164 281.178ZM183.342 280.125C183.807 280.125 184.199 280.034 184.518 279.852C184.837 279.669 185.078 279.435 185.242 279.147C185.406 278.856 185.488 278.553 185.488 278.238V277.158C185.438 277.217 185.329 277.272 185.16 277.322C184.996 277.368 184.805 277.409 184.586 277.445C184.372 277.482 184.162 277.514 183.957 277.541C183.752 277.564 183.588 277.582 183.465 277.596C183.16 277.637 182.875 277.703 182.61 277.794C182.346 277.881 182.132 278.01 181.968 278.184C181.808 278.357 181.729 278.594 181.729 278.895C181.729 279.3 181.879 279.608 182.18 279.817C182.485 280.022 182.872 280.125 183.342 280.125ZM189.33 276.406V281H188.168V273.357H189.289V274.561H189.398C189.576 274.169 189.847 273.854 190.212 273.617C190.576 273.38 191.048 273.262 191.627 273.262C192.142 273.262 192.593 273.367 192.98 273.576C193.368 273.786 193.669 274.105 193.883 274.533C194.102 274.957 194.211 275.495 194.211 276.146V281H193.049V276.229C193.049 275.632 192.892 275.164 192.577 274.827C192.263 274.485 191.834 274.314 191.292 274.314C190.918 274.314 190.583 274.396 190.287 274.561C189.991 274.725 189.756 274.962 189.583 275.271C189.414 275.581 189.33 275.96 189.33 276.406ZM199.023 273.357V274.355H195.072V273.357H199.023ZM196.221 271.539H197.383V278.812C197.383 279.209 197.465 279.501 197.629 279.688C197.793 279.87 198.053 279.961 198.408 279.961C198.486 279.961 198.565 279.956 198.647 279.947C198.734 279.938 198.827 279.924 198.928 279.906L199.174 280.959C199.064 281 198.93 281.032 198.771 281.055C198.616 281.082 198.458 281.096 198.299 281.096C197.684 281.096 197.182 280.913 196.795 280.549C196.412 280.184 196.221 279.71 196.221 279.127V271.539ZM206.734 273.357V274.355H202.783V273.357H206.734ZM203.932 271.539H205.094V278.812C205.094 279.209 205.176 279.501 205.34 279.688C205.504 279.87 205.764 279.961 206.119 279.961C206.197 279.961 206.276 279.956 206.358 279.947C206.445 279.938 206.538 279.924 206.639 279.906L206.885 280.959C206.775 281 206.641 281.032 206.481 281.055C206.326 281.082 206.169 281.096 206.01 281.096C205.395 281.096 204.893 280.913 204.506 280.549C204.123 280.184 203.932 279.71 203.932 279.127V271.539ZM207.855 281V273.357H208.977V274.52H209.059C209.2 274.141 209.453 273.836 209.817 273.604C210.187 273.367 210.599 273.248 211.055 273.248C211.141 273.248 211.248 273.25 211.376 273.255C211.504 273.255 211.602 273.257 211.67 273.262V274.451C211.629 274.442 211.538 274.428 211.396 274.41C211.255 274.392 211.105 274.383 210.945 274.383C210.576 274.383 210.246 274.46 209.954 274.615C209.662 274.77 209.432 274.982 209.264 275.251C209.1 275.52 209.018 275.827 209.018 276.174V281H207.855ZM214.65 281.178C214.167 281.178 213.728 281.087 213.331 280.904C212.935 280.717 212.62 280.449 212.388 280.098C212.155 279.747 212.039 279.323 212.039 278.826C212.039 278.389 212.126 278.035 212.299 277.767C212.472 277.493 212.702 277.279 212.989 277.124C213.281 276.965 213.6 276.846 213.946 276.769C214.297 276.691 214.65 276.63 215.006 276.584C215.471 276.525 215.847 276.479 216.134 276.447C216.425 276.415 216.637 276.361 216.77 276.283C216.906 276.206 216.975 276.074 216.975 275.887V275.846C216.975 275.358 216.84 274.98 216.571 274.711C216.307 274.438 215.904 274.301 215.361 274.301C214.805 274.301 214.368 274.424 214.049 274.67C213.73 274.911 213.507 275.171 213.379 275.449L212.258 275.053C212.458 274.588 212.725 274.226 213.058 273.966C213.395 273.706 213.759 273.524 214.151 273.419C214.548 273.314 214.938 273.262 215.32 273.262C215.566 273.262 215.849 273.291 216.168 273.351C216.487 273.405 216.797 273.524 217.098 273.706C217.403 273.884 217.654 274.155 217.85 274.52C218.05 274.88 218.15 275.363 218.15 275.969V281H216.975V279.961H216.92C216.842 280.125 216.71 280.303 216.523 280.494C216.337 280.681 216.088 280.843 215.778 280.979C215.473 281.112 215.097 281.178 214.65 281.178ZM214.828 280.125C215.293 280.125 215.685 280.034 216.004 279.852C216.323 279.669 216.564 279.435 216.729 279.147C216.893 278.856 216.975 278.553 216.975 278.238V277.158C216.924 277.217 216.815 277.272 216.646 277.322C216.482 277.368 216.291 277.409 216.072 277.445C215.858 277.482 215.648 277.514 215.443 277.541C215.238 277.564 215.074 277.582 214.951 277.596C214.646 277.637 214.361 277.703 214.097 277.794C213.832 277.881 213.618 278.01 213.454 278.184C213.295 278.357 213.215 278.594 213.215 278.895C213.215 279.3 213.365 279.608 213.666 279.817C213.971 280.022 214.359 280.125 214.828 280.125ZM220.816 276.406V281H219.654V273.357H220.775V274.561H220.885C221.062 274.169 221.334 273.854 221.698 273.617C222.063 273.38 222.535 273.262 223.113 273.262C223.628 273.262 224.079 273.367 224.467 273.576C224.854 273.786 225.155 274.105 225.369 274.533C225.588 274.957 225.697 275.495 225.697 276.146V281H224.535V276.229C224.535 275.632 224.378 275.164 224.063 274.827C223.749 274.485 223.321 274.314 222.778 274.314C222.405 274.314 222.07 274.396 221.773 274.561C221.477 274.725 221.243 274.962 221.069 275.271C220.901 275.581 220.816 275.96 220.816 276.406ZM232.602 275.08L231.549 275.367C231.449 275.107 231.275 274.861 231.029 274.629C230.788 274.392 230.41 274.273 229.895 274.273C229.43 274.273 229.042 274.383 228.732 274.602C228.423 274.816 228.268 275.085 228.268 275.408C228.268 275.7 228.372 275.932 228.582 276.105C228.796 276.279 229.129 276.42 229.58 276.529L230.715 276.803C231.394 276.967 231.9 277.22 232.232 277.562C232.57 277.903 232.738 278.339 232.738 278.867C232.738 279.305 232.613 279.697 232.362 280.043C232.112 280.389 231.763 280.663 231.316 280.863C230.87 281.064 230.35 281.164 229.758 281.164C228.979 281.164 228.334 280.993 227.823 280.651C227.317 280.31 226.996 279.815 226.859 279.168L227.967 278.895C228.072 279.305 228.272 279.612 228.568 279.817C228.869 280.022 229.261 280.125 229.744 280.125C230.286 280.125 230.719 280.009 231.043 279.776C231.371 279.539 231.535 279.259 231.535 278.936C231.535 278.398 231.157 278.038 230.4 277.855L229.129 277.555C228.427 277.386 227.912 277.129 227.584 276.782C227.256 276.436 227.092 276.001 227.092 275.477C227.092 275.044 227.213 274.661 227.454 274.328C227.7 273.995 228.035 273.736 228.459 273.549C228.883 273.357 229.361 273.262 229.895 273.262C230.656 273.262 231.25 273.43 231.679 273.768C232.112 274.1 232.419 274.538 232.602 275.08ZM237.25 273.357V274.355H233.135V273.357H237.25ZM234.365 281V272.305C234.365 271.867 234.468 271.503 234.673 271.211C234.882 270.919 235.151 270.701 235.479 270.555C235.808 270.409 236.152 270.336 236.512 270.336C236.803 270.336 237.04 270.361 237.223 270.411C237.41 270.457 237.546 270.5 237.633 270.541L237.291 271.553C237.232 271.53 237.15 271.505 237.045 271.478C236.945 271.446 236.808 271.43 236.635 271.43C236.247 271.43 235.965 271.53 235.787 271.73C235.614 271.926 235.527 272.214 235.527 272.592V281H234.365ZM241.133 281.164C240.399 281.164 239.763 281 239.226 280.672C238.692 280.344 238.282 279.886 237.995 279.298C237.708 278.705 237.564 278.02 237.564 277.24C237.564 276.456 237.706 275.766 237.988 275.169C238.271 274.572 238.667 274.105 239.178 273.768C239.693 273.43 240.294 273.262 240.982 273.262C241.379 273.262 241.773 273.328 242.165 273.46C242.557 273.592 242.912 273.806 243.231 274.103C243.555 274.399 243.812 274.791 244.004 275.278C244.195 275.766 244.291 276.365 244.291 277.076V277.582H238.398V276.57H243.655L243.115 276.953C243.115 276.443 243.035 275.989 242.876 275.593C242.716 275.196 242.477 274.884 242.158 274.656C241.844 274.428 241.452 274.314 240.982 274.314C240.513 274.314 240.11 274.431 239.772 274.663C239.44 274.891 239.185 275.189 239.007 275.559C238.829 275.928 238.74 276.324 238.74 276.748V277.418C238.74 277.997 238.84 278.487 239.041 278.888C239.242 279.289 239.522 279.594 239.882 279.804C240.242 280.009 240.659 280.111 241.133 280.111C241.438 280.111 241.716 280.068 241.967 279.981C242.217 279.89 242.434 279.756 242.616 279.578C242.799 279.396 242.938 279.173 243.033 278.908L244.168 279.236C244.049 279.619 243.849 279.956 243.566 280.248C243.288 280.535 242.942 280.761 242.527 280.925C242.113 281.084 241.648 281.164 241.133 281.164ZM245.398 281V273.357H246.52V274.52H246.602C246.743 274.141 246.996 273.836 247.36 273.604C247.729 273.367 248.142 273.248 248.598 273.248C248.684 273.248 248.791 273.25 248.919 273.255C249.047 273.255 249.145 273.257 249.213 273.262V274.451C249.172 274.442 249.081 274.428 248.939 274.41C248.798 274.392 248.648 274.383 248.488 274.383C248.119 274.383 247.789 274.46 247.497 274.615C247.205 274.77 246.975 274.982 246.807 275.251C246.643 275.52 246.561 275.827 246.561 276.174V281H245.398ZM255.352 275.08L254.299 275.367C254.199 275.107 254.025 274.861 253.779 274.629C253.538 274.392 253.16 274.273 252.645 274.273C252.18 274.273 251.792 274.383 251.482 274.602C251.173 274.816 251.018 275.085 251.018 275.408C251.018 275.7 251.122 275.932 251.332 276.105C251.546 276.279 251.879 276.42 252.33 276.529L253.465 276.803C254.144 276.967 254.65 277.22 254.982 277.562C255.32 277.903 255.488 278.339 255.488 278.867C255.488 279.305 255.363 279.697 255.112 280.043C254.862 280.389 254.513 280.663 254.066 280.863C253.62 281.064 253.1 281.164 252.508 281.164C251.729 281.164 251.084 280.993 250.573 280.651C250.067 280.31 249.746 279.815 249.609 279.168L250.717 278.895C250.822 279.305 251.022 279.612 251.318 279.817C251.619 280.022 252.011 280.125 252.494 280.125C253.036 280.125 253.469 280.009 253.793 279.776C254.121 279.539 254.285 279.259 254.285 278.936C254.285 278.398 253.907 278.038 253.15 277.855L251.879 277.555C251.177 277.386 250.662 277.129 250.334 276.782C250.006 276.436 249.842 276.001 249.842 275.477C249.842 275.044 249.963 274.661 250.204 274.328C250.45 273.995 250.785 273.736 251.209 273.549C251.633 273.357 252.111 273.262 252.645 273.262C253.406 273.262 254 273.43 254.429 273.768C254.862 274.1 255.169 274.538 255.352 275.08Z" fill="#1A1A1C"/>
<g clip-path="url(#clip1_1_1970)">
<path d="M297.788 244.05L278.905 250.35C278.371 250.528 278.371 250.825 278.876 251.033L287.857 254.629L292.367 263.653C292.605 264.129 292.931 264.109 293.079 263.584L298.46 244.684C298.609 244.169 298.302 243.881 297.788 244.05Z" fill="#1A1A1C"/>
</g>
<path d="M310.5 236.5C310.5 229.873 315.873 224.5 322.5 224.5H446.5C453.127 224.5 458.5 229.873 458.5 236.5V303.5C458.5 310.127 453.127 315.5 446.5 315.5H322.5C315.873 315.5 310.5 310.127 310.5 303.5V236.5Z" fill="white"/>
<path d="M332.633 246.314V256.5H331.402V246.314H332.633ZM335.449 251.906V256.5H334.287V248.857H335.408V250.061H335.518C335.695 249.669 335.966 249.354 336.331 249.117C336.696 248.88 337.167 248.762 337.746 248.762C338.261 248.762 338.712 248.867 339.1 249.076C339.487 249.286 339.788 249.605 340.002 250.033C340.221 250.457 340.33 250.995 340.33 251.646V256.5H339.168V251.729C339.168 251.132 339.011 250.664 338.696 250.327C338.382 249.985 337.953 249.814 337.411 249.814C337.037 249.814 336.702 249.896 336.406 250.061C336.11 250.225 335.875 250.462 335.702 250.771C335.534 251.081 335.449 251.46 335.449 251.906ZM347.795 248.857L344.979 256.5H343.775L340.959 248.857H342.23L344.336 254.955H344.418L346.523 248.857H347.795ZM351.623 256.664C350.889 256.664 350.254 256.5 349.716 256.172C349.183 255.844 348.772 255.386 348.485 254.798C348.198 254.205 348.055 253.52 348.055 252.74C348.055 251.956 348.196 251.266 348.479 250.669C348.761 250.072 349.158 249.605 349.668 249.268C350.183 248.93 350.785 248.762 351.473 248.762C351.869 248.762 352.263 248.828 352.655 248.96C353.047 249.092 353.403 249.306 353.722 249.603C354.045 249.899 354.303 250.291 354.494 250.778C354.686 251.266 354.781 251.865 354.781 252.576V253.082H348.889V252.07H354.146L353.605 252.453C353.605 251.943 353.526 251.489 353.366 251.093C353.207 250.696 352.967 250.384 352.648 250.156C352.334 249.928 351.942 249.814 351.473 249.814C351.003 249.814 350.6 249.931 350.263 250.163C349.93 250.391 349.675 250.689 349.497 251.059C349.319 251.428 349.23 251.824 349.23 252.248V252.918C349.23 253.497 349.331 253.987 349.531 254.388C349.732 254.789 350.012 255.094 350.372 255.304C350.732 255.509 351.149 255.611 351.623 255.611C351.928 255.611 352.206 255.568 352.457 255.481C352.708 255.39 352.924 255.256 353.106 255.078C353.289 254.896 353.428 254.673 353.523 254.408L354.658 254.736C354.54 255.119 354.339 255.456 354.057 255.748C353.779 256.035 353.432 256.261 353.018 256.425C352.603 256.584 352.138 256.664 351.623 256.664ZM361.289 250.58L360.236 250.867C360.136 250.607 359.963 250.361 359.717 250.129C359.475 249.892 359.097 249.773 358.582 249.773C358.117 249.773 357.73 249.883 357.42 250.102C357.11 250.316 356.955 250.585 356.955 250.908C356.955 251.2 357.06 251.432 357.27 251.605C357.484 251.779 357.816 251.92 358.268 252.029L359.402 252.303C360.081 252.467 360.587 252.72 360.92 253.062C361.257 253.403 361.426 253.839 361.426 254.367C361.426 254.805 361.3 255.197 361.05 255.543C360.799 255.889 360.451 256.163 360.004 256.363C359.557 256.564 359.038 256.664 358.445 256.664C357.666 256.664 357.021 256.493 356.511 256.151C356.005 255.81 355.684 255.315 355.547 254.668L356.654 254.395C356.759 254.805 356.96 255.112 357.256 255.317C357.557 255.522 357.949 255.625 358.432 255.625C358.974 255.625 359.407 255.509 359.73 255.276C360.059 255.039 360.223 254.759 360.223 254.436C360.223 253.898 359.844 253.538 359.088 253.355L357.816 253.055C357.115 252.886 356.6 252.629 356.271 252.282C355.943 251.936 355.779 251.501 355.779 250.977C355.779 250.544 355.9 250.161 356.142 249.828C356.388 249.495 356.723 249.236 357.146 249.049C357.57 248.857 358.049 248.762 358.582 248.762C359.343 248.762 359.938 248.93 360.366 249.268C360.799 249.6 361.107 250.038 361.289 250.58ZM365.855 248.857V249.855H361.904V248.857H365.855ZM363.053 247.039H364.215V254.312C364.215 254.709 364.297 255.001 364.461 255.188C364.625 255.37 364.885 255.461 365.24 255.461C365.318 255.461 365.397 255.456 365.479 255.447C365.566 255.438 365.66 255.424 365.76 255.406L366.006 256.459C365.896 256.5 365.762 256.532 365.603 256.555C365.448 256.582 365.29 256.596 365.131 256.596C364.516 256.596 364.014 256.413 363.627 256.049C363.244 255.684 363.053 255.21 363.053 254.627V247.039ZM366.977 256.5V248.857H368.098V250.061H368.207C368.367 249.65 368.624 249.331 368.979 249.104C369.335 248.876 369.761 248.762 370.258 248.762C370.759 248.762 371.176 248.876 371.509 249.104C371.846 249.331 372.108 249.65 372.295 250.061H372.377C372.577 249.664 372.871 249.35 373.259 249.117C373.651 248.88 374.118 248.762 374.66 248.762C375.344 248.762 375.904 248.976 376.342 249.404C376.779 249.828 376.998 250.489 376.998 251.387V256.5H375.822V251.387C375.822 250.822 375.667 250.418 375.357 250.177C375.048 249.935 374.683 249.814 374.264 249.814C373.73 249.814 373.316 249.979 373.02 250.307C372.728 250.63 372.582 251.036 372.582 251.523V256.5H371.379V251.264C371.379 250.831 371.24 250.482 370.962 250.218C370.684 249.949 370.322 249.814 369.875 249.814C369.57 249.814 369.285 249.896 369.021 250.061C368.756 250.225 368.542 250.45 368.378 250.737C368.218 251.024 368.139 251.355 368.139 251.729V256.5H366.977ZM381.701 256.664C380.967 256.664 380.332 256.5 379.794 256.172C379.261 255.844 378.851 255.386 378.563 254.798C378.276 254.205 378.133 253.52 378.133 252.74C378.133 251.956 378.274 251.266 378.557 250.669C378.839 250.072 379.236 249.605 379.746 249.268C380.261 248.93 380.863 248.762 381.551 248.762C381.947 248.762 382.341 248.828 382.733 248.96C383.125 249.092 383.481 249.306 383.8 249.603C384.123 249.899 384.381 250.291 384.572 250.778C384.764 251.266 384.859 251.865 384.859 252.576V253.082H378.967V252.07H384.224L383.684 252.453C383.684 251.943 383.604 251.489 383.444 251.093C383.285 250.696 383.046 250.384 382.727 250.156C382.412 249.928 382.02 249.814 381.551 249.814C381.081 249.814 380.678 249.931 380.341 250.163C380.008 250.391 379.753 250.689 379.575 251.059C379.397 251.428 379.309 251.824 379.309 252.248V252.918C379.309 253.497 379.409 253.987 379.609 254.388C379.81 254.789 380.09 255.094 380.45 255.304C380.81 255.509 381.227 255.611 381.701 255.611C382.007 255.611 382.285 255.568 382.535 255.481C382.786 255.39 383.002 255.256 383.185 255.078C383.367 254.896 383.506 254.673 383.602 254.408L384.736 254.736C384.618 255.119 384.417 255.456 384.135 255.748C383.857 256.035 383.51 256.261 383.096 256.425C382.681 256.584 382.216 256.664 381.701 256.664ZM387.129 251.906V256.5H385.967V248.857H387.088V250.061H387.197C387.375 249.669 387.646 249.354 388.011 249.117C388.375 248.88 388.847 248.762 389.426 248.762C389.941 248.762 390.392 248.867 390.779 249.076C391.167 249.286 391.467 249.605 391.682 250.033C391.9 250.457 392.01 250.995 392.01 251.646V256.5H390.848V251.729C390.848 251.132 390.69 250.664 390.376 250.327C390.062 249.985 389.633 249.814 389.091 249.814C388.717 249.814 388.382 249.896 388.086 250.061C387.79 250.225 387.555 250.462 387.382 250.771C387.213 251.081 387.129 251.46 387.129 251.906ZM396.822 248.857V249.855H392.871V248.857H396.822ZM394.02 247.039H395.182V254.312C395.182 254.709 395.264 255.001 395.428 255.188C395.592 255.37 395.852 255.461 396.207 255.461C396.285 255.461 396.364 255.456 396.446 255.447C396.533 255.438 396.626 255.424 396.727 255.406L396.973 256.459C396.863 256.5 396.729 256.532 396.569 256.555C396.414 256.582 396.257 256.596 396.098 256.596C395.482 256.596 394.981 256.413 394.594 256.049C394.211 255.684 394.02 255.21 394.02 254.627V247.039ZM404.533 248.857V249.855H400.582V248.857H404.533ZM401.73 247.039H402.893V254.312C402.893 254.709 402.975 255.001 403.139 255.188C403.303 255.37 403.562 255.461 403.918 255.461C403.995 255.461 404.075 255.456 404.157 255.447C404.244 255.438 404.337 255.424 404.438 255.406L404.684 256.459C404.574 256.5 404.44 256.532 404.28 256.555C404.125 256.582 403.968 256.596 403.809 256.596C403.193 256.596 402.692 256.413 402.305 256.049C401.922 255.684 401.73 255.21 401.73 254.627V247.039ZM407.896 256.678C407.413 256.678 406.974 256.587 406.577 256.404C406.181 256.217 405.866 255.949 405.634 255.598C405.401 255.247 405.285 254.823 405.285 254.326C405.285 253.889 405.372 253.535 405.545 253.267C405.718 252.993 405.948 252.779 406.235 252.624C406.527 252.465 406.846 252.346 407.192 252.269C407.543 252.191 407.896 252.13 408.252 252.084C408.717 252.025 409.093 251.979 409.38 251.947C409.672 251.915 409.883 251.861 410.016 251.783C410.152 251.706 410.221 251.574 410.221 251.387V251.346C410.221 250.858 410.086 250.48 409.817 250.211C409.553 249.938 409.15 249.801 408.607 249.801C408.051 249.801 407.614 249.924 407.295 250.17C406.976 250.411 406.753 250.671 406.625 250.949L405.504 250.553C405.704 250.088 405.971 249.726 406.304 249.466C406.641 249.206 407.006 249.024 407.397 248.919C407.794 248.814 408.184 248.762 408.566 248.762C408.812 248.762 409.095 248.791 409.414 248.851C409.733 248.905 410.043 249.024 410.344 249.206C410.649 249.384 410.9 249.655 411.096 250.02C411.296 250.38 411.396 250.863 411.396 251.469V256.5H410.221V255.461H410.166C410.089 255.625 409.956 255.803 409.77 255.994C409.583 256.181 409.334 256.343 409.024 256.479C408.719 256.612 408.343 256.678 407.896 256.678ZM408.074 255.625C408.539 255.625 408.931 255.534 409.25 255.352C409.569 255.169 409.811 254.935 409.975 254.647C410.139 254.356 410.221 254.053 410.221 253.738V252.658C410.171 252.717 410.061 252.772 409.893 252.822C409.729 252.868 409.537 252.909 409.318 252.945C409.104 252.982 408.895 253.014 408.689 253.041C408.484 253.064 408.32 253.082 408.197 253.096C407.892 253.137 407.607 253.203 407.343 253.294C407.078 253.381 406.864 253.51 406.7 253.684C406.541 253.857 406.461 254.094 406.461 254.395C406.461 254.8 406.611 255.108 406.912 255.317C407.217 255.522 407.605 255.625 408.074 255.625ZM412.9 256.5V248.857H414.021V250.02H414.104C414.245 249.641 414.498 249.336 414.862 249.104C415.231 248.867 415.644 248.748 416.1 248.748C416.186 248.748 416.293 248.75 416.421 248.755C416.549 248.755 416.646 248.757 416.715 248.762V249.951C416.674 249.942 416.583 249.928 416.441 249.91C416.3 249.892 416.15 249.883 415.99 249.883C415.621 249.883 415.291 249.96 414.999 250.115C414.707 250.27 414.477 250.482 414.309 250.751C414.145 251.02 414.062 251.327 414.062 251.674V256.5H412.9ZM420.297 259.521C419.445 259.521 418.77 259.367 418.273 259.057C417.781 258.747 417.417 258.391 417.18 257.99L418.109 257.334C418.214 257.475 418.349 257.635 418.513 257.812C418.677 257.995 418.9 258.152 419.183 258.284C419.465 258.416 419.837 258.482 420.297 258.482C420.912 258.482 421.42 258.334 421.821 258.038C422.227 257.742 422.43 257.275 422.43 256.637V255.092H422.32C422.238 255.229 422.118 255.399 421.958 255.604C421.803 255.805 421.577 255.985 421.281 256.145C420.99 256.299 420.593 256.377 420.092 256.377C419.477 256.377 418.925 256.231 418.438 255.939C417.95 255.648 417.562 255.224 417.275 254.668C416.993 254.112 416.852 253.438 416.852 252.645C416.852 251.861 416.988 251.179 417.262 250.601C417.54 250.017 417.925 249.566 418.417 249.247C418.909 248.924 419.477 248.762 420.119 248.762C420.616 248.762 421.01 248.844 421.302 249.008C421.598 249.172 421.824 249.359 421.979 249.568C422.138 249.773 422.261 249.942 422.348 250.074H422.471V248.857H423.592V256.719C423.592 257.375 423.444 257.908 423.147 258.318C422.856 258.733 422.459 259.036 421.958 259.228C421.461 259.424 420.908 259.521 420.297 259.521ZM420.256 255.324C420.962 255.324 421.502 255.085 421.876 254.606C422.254 254.128 422.443 253.465 422.443 252.617C422.443 252.066 422.361 251.58 422.197 251.161C422.033 250.742 421.787 250.414 421.459 250.177C421.135 249.935 420.734 249.814 420.256 249.814C419.759 249.814 419.344 249.942 419.012 250.197C418.684 250.448 418.438 250.785 418.273 251.209C418.109 251.633 418.027 252.102 418.027 252.617C418.027 253.146 418.109 253.615 418.273 254.025C418.442 254.431 418.693 254.75 419.025 254.982C419.358 255.21 419.768 255.324 420.256 255.324ZM428.295 256.664C427.561 256.664 426.925 256.5 426.388 256.172C425.854 255.844 425.444 255.386 425.157 254.798C424.87 254.205 424.727 253.52 424.727 252.74C424.727 251.956 424.868 251.266 425.15 250.669C425.433 250.072 425.829 249.605 426.34 249.268C426.855 248.93 427.456 248.762 428.145 248.762C428.541 248.762 428.935 248.828 429.327 248.96C429.719 249.092 430.075 249.306 430.394 249.603C430.717 249.899 430.975 250.291 431.166 250.778C431.357 251.266 431.453 251.865 431.453 252.576V253.082H425.561V252.07H430.817L430.277 252.453C430.277 251.943 430.198 251.489 430.038 251.093C429.879 250.696 429.639 250.384 429.32 250.156C429.006 249.928 428.614 249.814 428.145 249.814C427.675 249.814 427.272 249.931 426.935 250.163C426.602 250.391 426.347 250.689 426.169 251.059C425.991 251.428 425.902 251.824 425.902 252.248V252.918C425.902 253.497 426.003 253.987 426.203 254.388C426.404 254.789 426.684 255.094 427.044 255.304C427.404 255.509 427.821 255.611 428.295 255.611C428.6 255.611 428.878 255.568 429.129 255.481C429.38 255.39 429.596 255.256 429.778 255.078C429.961 254.896 430.1 254.673 430.195 254.408L431.33 254.736C431.212 255.119 431.011 255.456 430.729 255.748C430.451 256.035 430.104 256.261 429.689 256.425C429.275 256.584 428.81 256.664 428.295 256.664ZM435.869 248.857V249.855H431.918V248.857H435.869ZM433.066 247.039H434.229V254.312C434.229 254.709 434.311 255.001 434.475 255.188C434.639 255.37 434.898 255.461 435.254 255.461C435.331 255.461 435.411 255.456 435.493 255.447C435.58 255.438 435.673 255.424 435.773 255.406L436.02 256.459C435.91 256.5 435.776 256.532 435.616 256.555C435.461 256.582 435.304 256.596 435.145 256.596C434.529 256.596 434.028 256.413 433.641 256.049C433.258 255.684 433.066 255.21 433.066 254.627V247.039Z" fill="#1A1A1C"/>
<path d="M331.818 292.5L337.531 281.197V281.101H330.922V279.404H339.588V281.171L333.884 292.5H331.818ZM345.125 292.676C344.545 292.676 343.971 292.573 343.402 292.368C342.834 292.163 342.321 291.823 341.864 291.349C341.407 290.868 341.038 290.224 340.757 289.415C340.481 288.606 340.344 287.602 340.344 286.4C340.344 285.258 340.458 284.244 340.687 283.359C340.921 282.469 341.252 281.719 341.68 281.109C342.113 280.494 342.635 280.028 343.244 279.712C343.854 279.39 344.539 279.229 345.301 279.229C346.08 279.229 346.771 279.384 347.375 279.694C347.979 279.999 348.468 280.421 348.843 280.96C349.224 281.499 349.461 282.114 349.555 282.806H347.621C347.486 282.261 347.223 281.818 346.83 281.479C346.438 281.133 345.928 280.96 345.301 280.96C344.34 280.96 343.59 281.379 343.051 282.217C342.518 283.049 342.251 284.209 342.251 285.697H342.348C342.576 285.328 342.854 285.012 343.183 284.748C343.511 284.479 343.877 284.273 344.281 284.133C344.691 283.992 345.128 283.922 345.591 283.922C346.347 283.922 347.032 284.106 347.647 284.476C348.269 284.845 348.761 285.354 349.124 286.005C349.493 286.649 349.678 287.391 349.678 288.229C349.678 289.061 349.487 289.813 349.106 290.487C348.731 291.161 348.201 291.694 347.516 292.087C346.836 292.479 346.039 292.676 345.125 292.676ZM345.116 291.015C345.62 291.015 346.068 290.892 346.461 290.646C346.859 290.399 347.176 290.068 347.41 289.652C347.645 289.23 347.762 288.762 347.762 288.246C347.762 287.742 347.647 287.285 347.419 286.875C347.196 286.465 346.889 286.14 346.496 285.899C346.109 285.653 345.664 285.53 345.16 285.53C344.662 285.53 344.211 285.656 343.807 285.908C343.402 286.16 343.08 286.494 342.84 286.91C342.605 287.326 342.488 287.777 342.488 288.264C342.488 288.75 342.603 289.204 342.831 289.626C343.06 290.048 343.37 290.385 343.763 290.637C344.161 290.889 344.612 291.015 345.116 291.015ZM358.027 290.039V289.354C358.027 288.855 358.13 288.401 358.335 287.991C358.54 287.581 358.842 287.253 359.24 287.007C359.639 286.755 360.122 286.629 360.69 286.629C361.271 286.629 361.757 286.752 362.149 286.998C362.542 287.244 362.838 287.575 363.037 287.991C363.236 288.401 363.336 288.855 363.336 289.354V290.039C363.336 290.537 363.233 290.994 363.028 291.41C362.829 291.82 362.533 292.148 362.141 292.395C361.748 292.641 361.265 292.764 360.69 292.764C360.116 292.764 359.63 292.641 359.231 292.395C358.833 292.148 358.531 291.82 358.326 291.41C358.127 290.994 358.027 290.537 358.027 290.039ZM359.513 289.354V290.039C359.513 290.408 359.601 290.742 359.776 291.041C359.952 291.34 360.257 291.489 360.69 291.489C361.118 291.489 361.417 291.34 361.587 291.041C361.757 290.742 361.842 290.408 361.842 290.039V289.354C361.842 288.984 361.76 288.653 361.596 288.36C361.432 288.062 361.13 287.912 360.69 287.912C360.263 287.912 359.958 288.062 359.776 288.36C359.601 288.653 359.513 288.984 359.513 289.354ZM351.444 282.551V281.865C351.444 281.367 351.547 280.913 351.752 280.503C351.963 280.087 352.265 279.756 352.657 279.51C353.056 279.264 353.536 279.141 354.099 279.141C354.679 279.141 355.165 279.264 355.558 279.51C355.956 279.756 356.255 280.087 356.454 280.503C356.653 280.913 356.75 281.367 356.744 281.865V282.551C356.75 283.043 356.65 283.497 356.445 283.913C356.24 284.323 355.941 284.654 355.549 284.906C355.156 285.152 354.673 285.275 354.099 285.275C353.524 285.275 353.038 285.152 352.64 284.906C352.247 284.654 351.948 284.323 351.743 283.913C351.544 283.497 351.444 283.043 351.444 282.551ZM352.93 281.865V282.551C352.93 282.92 353.018 283.254 353.193 283.553C353.369 283.852 353.671 283.998 354.099 283.992C354.532 283.998 354.834 283.852 355.004 283.553C355.174 283.254 355.259 282.92 355.259 282.551V281.865C355.259 281.496 355.177 281.162 355.013 280.863C354.849 280.564 354.544 280.418 354.099 280.424C353.677 280.418 353.375 280.564 353.193 280.863C353.018 281.162 352.93 281.496 352.93 281.865ZM352.051 292.5L361.051 279.404H362.58L353.58 292.5H352.051Z" fill="#1A1A1C"/>
<defs>
<clipPath id="clip0_1_1970">
<rect width="20" height="20" fill="white" transform="matrix(-1 0 0 1 400 100.5)"/>
</clipPath>
<clipPath id="clip1_1_1970">
<rect width="20" height="20" fill="white" transform="translate(278.5 244)"/>
</clipPath>
</defs>
</svg>
