<svg width="585" height="246" viewBox="0 0 585 246" fill="none" xmlns="http://www.w3.org/2000/svg">
<path d="M11.5308 15.1367C10.9475 15.1367 10.4211 15.0228 9.95174 14.7949C9.48689 14.5625 9.11319 14.2435 8.83064 13.8379C8.54809 13.4323 8.39542 12.972 8.37263 12.457H9.56209C9.60766 12.9128 9.81502 13.291 10.1842 13.5918C10.5579 13.8926 11.0067 14.043 11.5308 14.043C11.9501 14.043 12.3215 13.945 12.6451 13.749C12.9687 13.5531 13.2239 13.2842 13.4107 12.9424C13.5976 12.6006 13.691 12.2109 13.691 11.7734C13.691 11.3314 13.593 10.9349 13.397 10.584C13.2056 10.2331 12.9413 9.95736 12.6041 9.75684C12.2668 9.55176 11.8817 9.44922 11.4488 9.44922C11.1344 9.44922 10.8131 9.49935 10.4849 9.59961C10.1614 9.69531 9.89477 9.81836 9.68513 9.96875L8.52303 9.83203L9.13826 4.81445H14.4293V5.9082H10.1773L9.82185 8.91602H9.87654C10.0862 8.7474 10.3482 8.61068 10.6627 8.50586C10.9771 8.39648 11.3075 8.3418 11.6539 8.3418C12.2782 8.3418 12.8342 8.48991 13.3219 8.78613C13.8095 9.08236 14.1923 9.48796 14.4703 10.0029C14.7528 10.5133 14.8941 11.099 14.8941 11.7598C14.8941 12.4069 14.7483 12.9857 14.4566 13.4961C14.165 14.0065 13.7662 14.4076 13.2603 14.6992C12.7545 14.9909 12.178 15.1367 11.5308 15.1367ZM19.4469 15.1367C18.6995 15.1367 18.0614 14.9316 17.5328 14.5215C17.0041 14.1113 16.6008 13.5189 16.3228 12.7441C16.0448 11.9648 15.9058 11.0215 15.9058 9.91406C15.9058 8.8112 16.0448 7.87012 16.3228 7.09082C16.6054 6.30697 17.011 5.70996 17.5396 5.2998C18.0683 4.88509 18.704 4.67773 19.4469 4.67773C20.1897 4.67773 20.8254 4.88509 21.3541 5.2998C21.8827 5.70996 22.286 6.30697 22.564 7.09082C22.8466 7.87012 22.9879 8.8112 22.9879 9.91406C22.9879 11.0215 22.8489 11.9648 22.5709 12.7441C22.2929 13.5189 21.8896 14.1113 21.3609 14.5215C20.8368 14.9316 20.1988 15.1367 19.4469 15.1367ZM19.4469 14.0566C19.9527 14.0566 20.3811 13.8949 20.732 13.5713C21.0829 13.2432 21.3495 12.7692 21.5318 12.1494C21.7187 11.5296 21.8121 10.7845 21.8121 9.91406C21.8121 9.03906 21.7187 8.29167 21.5318 7.67188C21.3495 7.05208 21.0829 6.57812 20.732 6.25C20.3811 5.92188 19.9527 5.75781 19.4469 5.75781C18.6903 5.75781 18.107 6.1224 17.6969 6.85156C17.2867 7.58073 17.0816 8.60156 17.0816 9.91406C17.0816 10.7845 17.1728 11.5296 17.3551 12.1494C17.5419 12.7692 17.8108 13.2432 18.1617 13.5713C18.5172 13.8949 18.9456 14.0566 19.4469 14.0566ZM27.5406 15.1367C26.7932 15.1367 26.1552 14.9316 25.6265 14.5215C25.0979 14.1113 24.6946 13.5189 24.4166 12.7441C24.1386 11.9648 23.9996 11.0215 23.9996 9.91406C23.9996 8.8112 24.1386 7.87012 24.4166 7.09082C24.6991 6.30697 25.1047 5.70996 25.6334 5.2998C26.162 4.88509 26.7978 4.67773 27.5406 4.67773C28.2834 4.67773 28.9192 4.88509 29.4478 5.2998C29.9765 5.70996 30.3798 6.30697 30.6578 7.09082C30.9403 7.87012 31.0816 8.8112 31.0816 9.91406C31.0816 11.0215 30.9426 11.9648 30.6646 12.7441C30.3866 13.5189 29.9833 14.1113 29.4547 14.5215C28.9306 14.9316 28.2926 15.1367 27.5406 15.1367ZM27.5406 14.0566C28.0465 14.0566 28.4748 13.8949 28.8258 13.5713C29.1767 13.2432 29.4433 12.7692 29.6256 12.1494C29.8124 11.5296 29.9058 10.7845 29.9058 9.91406C29.9058 9.03906 29.8124 8.29167 29.6256 7.67188C29.4433 7.05208 29.1767 6.57812 28.8258 6.25C28.4748 5.92188 28.0465 5.75781 27.5406 5.75781C26.7841 5.75781 26.2008 6.1224 25.7906 6.85156C25.3804 7.58073 25.1754 8.60156 25.1754 9.91406C25.1754 10.7845 25.2665 11.5296 25.4488 12.1494C25.6357 12.7692 25.9045 13.2432 26.2554 13.5713C26.6109 13.8949 27.0393 14.0566 27.5406 14.0566Z" fill="#1A1A1C" fill-opacity="0.6"/>
<line x1="51" y1="8.5" x2="585" y2="8.50004" stroke="#ECEFF4"/>
<path d="M7.56599 65.9082V64.8965L12.0367 57.8145H12.775V59.3867H12.2691L8.89217 64.7324V64.8145H14.9215V65.9082H7.56599ZM12.3512 68V65.6074V65.1289V57.8145H13.5269V68H12.3512ZM19.4469 68.1367C18.6995 68.1367 18.0614 67.9316 17.5328 67.5215C17.0041 67.1113 16.6008 66.5189 16.3228 65.7441C16.0448 64.9648 15.9058 64.0215 15.9058 62.9141C15.9058 61.8112 16.0448 60.8701 16.3228 60.0908C16.6054 59.307 17.011 58.71 17.5396 58.2998C18.0683 57.8851 18.704 57.6777 19.4469 57.6777C20.1897 57.6777 20.8254 57.8851 21.3541 58.2998C21.8827 58.71 22.286 59.307 22.564 60.0908C22.8466 60.8701 22.9879 61.8112 22.9879 62.9141C22.9879 64.0215 22.8489 64.9648 22.5709 65.7441C22.2929 66.5189 21.8896 67.1113 21.3609 67.5215C20.8368 67.9316 20.1988 68.1367 19.4469 68.1367ZM19.4469 67.0566C19.9527 67.0566 20.3811 66.8949 20.732 66.5713C21.0829 66.2432 21.3495 65.7692 21.5318 65.1494C21.7187 64.5296 21.8121 63.7845 21.8121 62.9141C21.8121 62.0391 21.7187 61.2917 21.5318 60.6719C21.3495 60.0521 21.0829 59.5781 20.732 59.25C20.3811 58.9219 19.9527 58.7578 19.4469 58.7578C18.6903 58.7578 18.107 59.1224 17.6969 59.8516C17.2867 60.5807 17.0816 61.6016 17.0816 62.9141C17.0816 63.7845 17.1728 64.5296 17.3551 65.1494C17.5419 65.7692 17.8108 66.2432 18.1617 66.5713C18.5172 66.8949 18.9456 67.0566 19.4469 67.0566ZM27.5406 68.1367C26.7932 68.1367 26.1552 67.9316 25.6265 67.5215C25.0979 67.1113 24.6946 66.5189 24.4166 65.7441C24.1386 64.9648 23.9996 64.0215 23.9996 62.9141C23.9996 61.8112 24.1386 60.8701 24.4166 60.0908C24.6991 59.307 25.1047 58.71 25.6334 58.2998C26.162 57.8851 26.7978 57.6777 27.5406 57.6777C28.2834 57.6777 28.9192 57.8851 29.4478 58.2998C29.9765 58.71 30.3798 59.307 30.6578 60.0908C30.9403 60.8701 31.0816 61.8112 31.0816 62.9141C31.0816 64.0215 30.9426 64.9648 30.6646 65.7441C30.3866 66.5189 29.9833 67.1113 29.4547 67.5215C28.9306 67.9316 28.2926 68.1367 27.5406 68.1367ZM27.5406 67.0566C28.0465 67.0566 28.4748 66.8949 28.8258 66.5713C29.1767 66.2432 29.4433 65.7692 29.6256 65.1494C29.8124 64.5296 29.9058 63.7845 29.9058 62.9141C29.9058 62.0391 29.8124 61.2917 29.6256 60.6719C29.4433 60.0521 29.1767 59.5781 28.8258 59.25C28.4748 58.9219 28.0465 58.7578 27.5406 58.7578C26.7841 58.7578 26.2008 59.1224 25.7906 59.8516C25.3804 60.5807 25.1754 61.6016 25.1754 62.9141C25.1754 63.7845 25.2665 64.5296 25.4488 65.1494C25.6357 65.7692 25.9045 66.2432 26.2554 66.5713C26.6109 66.8949 27.0393 67.0566 27.5406 67.0566Z" fill="#1A1A1C" fill-opacity="0.6"/>
<line x1="51" y1="61.5" x2="585" y2="61.5" stroke="#ECEFF4"/>
<path d="M11.3121 121.137C10.6513 121.137 10.0657 121.025 9.55525 120.802C9.04483 120.578 8.63923 120.266 8.33845 119.865C8.03767 119.46 7.87589 118.99 7.8531 118.457H9.09724C9.12458 118.785 9.23624 119.068 9.4322 119.305C9.63272 119.542 9.89249 119.724 10.2115 119.852C10.5351 119.979 10.8928 120.043 11.2847 120.043C11.7222 120.043 12.1096 119.968 12.4468 119.817C12.7886 119.662 13.0552 119.451 13.2467 119.182C13.4426 118.908 13.5406 118.594 13.5406 118.238C13.5406 117.86 13.4472 117.527 13.2603 117.24C13.0735 116.953 12.8 116.73 12.44 116.57C12.0845 116.406 11.6493 116.324 11.1343 116.324H10.314V115.23H11.1343C11.5354 115.23 11.8886 115.158 12.1939 115.012C12.4993 114.866 12.7385 114.661 12.9117 114.396C13.0849 114.132 13.1715 113.822 13.1715 113.467C13.1715 113.12 13.0963 112.82 12.9459 112.564C12.7955 112.309 12.5813 112.111 12.3033 111.97C12.0299 111.828 11.704 111.758 11.3258 111.758C10.9748 111.758 10.6444 111.822 10.3345 111.949C10.0246 112.077 9.77172 112.259 9.57576 112.496C9.37979 112.733 9.27497 113.02 9.2613 113.357H8.07185C8.09008 112.824 8.24958 112.357 8.55037 111.956C8.85115 111.555 9.24535 111.243 9.73298 111.02C10.2252 110.792 10.7652 110.678 11.3531 110.678C11.982 110.678 12.522 110.805 12.9732 111.061C13.4244 111.311 13.7707 111.644 14.0123 112.059C14.2538 112.473 14.3746 112.92 14.3746 113.398C14.3746 113.977 14.2242 114.467 13.9234 114.868C13.6272 115.269 13.2216 115.549 12.7066 115.709V115.791C13.3446 115.896 13.8437 116.169 14.2037 116.611C14.5637 117.049 14.7437 117.591 14.7437 118.238C14.7437 118.79 14.5933 119.284 14.2926 119.722C13.9963 120.159 13.5885 120.506 13.0689 120.761C12.5539 121.011 11.9683 121.137 11.3121 121.137ZM19.4468 121.137C18.6995 121.137 18.0614 120.932 17.5328 120.521C17.0041 120.111 16.6008 119.519 16.3228 118.744C16.0448 117.965 15.9058 117.021 15.9058 115.914C15.9058 114.811 16.0448 113.87 16.3228 113.091C16.6054 112.307 17.011 111.71 17.5396 111.3C18.0683 110.885 18.704 110.678 19.4468 110.678C20.1897 110.678 20.8254 110.885 21.3541 111.3C21.8827 111.71 22.286 112.307 22.564 113.091C22.8466 113.87 22.9879 114.811 22.9879 115.914C22.9879 117.021 22.8489 117.965 22.5709 118.744C22.2929 119.519 21.8896 120.111 21.3609 120.521C20.8368 120.932 20.1988 121.137 19.4468 121.137ZM19.4468 120.057C19.9527 120.057 20.3811 119.895 20.732 119.571C21.0829 119.243 21.3495 118.769 21.5318 118.149C21.7187 117.53 21.8121 116.785 21.8121 115.914C21.8121 115.039 21.7187 114.292 21.5318 113.672C21.3495 113.052 21.0829 112.578 20.732 112.25C20.3811 111.922 19.9527 111.758 19.4468 111.758C18.6903 111.758 18.107 112.122 17.6968 112.852C17.2867 113.581 17.0816 114.602 17.0816 115.914C17.0816 116.785 17.1728 117.53 17.3551 118.149C17.5419 118.769 17.8108 119.243 18.1617 119.571C18.5172 119.895 18.9455 120.057 19.4468 120.057ZM27.5406 121.137C26.7932 121.137 26.1552 120.932 25.6265 120.521C25.0979 120.111 24.6946 119.519 24.4166 118.744C24.1386 117.965 23.9996 117.021 23.9996 115.914C23.9996 114.811 24.1386 113.87 24.4166 113.091C24.6991 112.307 25.1047 111.71 25.6334 111.3C26.162 110.885 26.7978 110.678 27.5406 110.678C28.2834 110.678 28.9192 110.885 29.4478 111.3C29.9765 111.71 30.3798 112.307 30.6578 113.091C30.9403 113.87 31.0816 114.811 31.0816 115.914C31.0816 117.021 30.9426 117.965 30.6646 118.744C30.3866 119.519 29.9833 120.111 29.4547 120.521C28.9306 120.932 28.2926 121.137 27.5406 121.137ZM27.5406 120.057C28.0465 120.057 28.4748 119.895 28.8258 119.571C29.1767 119.243 29.4433 118.769 29.6256 118.149C29.8124 117.53 29.9058 116.785 29.9058 115.914C29.9058 115.039 29.8124 114.292 29.6256 113.672C29.4433 113.052 29.1767 112.578 28.8258 112.25C28.4748 111.922 28.0465 111.758 27.5406 111.758C26.7841 111.758 26.2008 112.122 25.7906 112.852C25.3804 113.581 25.1754 114.602 25.1754 115.914C25.1754 116.785 25.2665 117.53 25.4488 118.149C25.6357 118.769 25.9045 119.243 26.2554 119.571C26.6109 119.895 27.0393 120.057 27.5406 120.057Z" fill="#1A1A1C" fill-opacity="0.6"/>
<line x1="51" y1="115.5" x2="585" y2="115.5" stroke="#ECEFF4"/>
<path d="M8.30427 174V173.111L11.6676 169.42C12.0595 168.992 12.3808 168.618 12.6314 168.299C12.8866 167.98 13.0758 167.679 13.1988 167.396C13.3264 167.114 13.3902 166.818 13.3902 166.508C13.3902 166.148 13.3036 165.838 13.1304 165.578C12.9618 165.314 12.7317 165.111 12.44 164.97C12.1483 164.828 11.8179 164.758 11.4488 164.758C11.0569 164.758 10.7151 164.838 10.4234 164.997C10.1363 165.157 9.913 165.382 9.75349 165.674C9.59854 165.961 9.52107 166.298 9.52107 166.686H8.34529C8.34529 166.089 8.48201 165.564 8.75544 165.113C9.03344 164.662 9.40941 164.311 9.88337 164.061C10.3619 163.805 10.8974 163.678 11.4898 163.678C12.0868 163.678 12.6155 163.805 13.0758 164.061C13.536 164.311 13.8961 164.651 14.1558 165.079C14.4202 165.503 14.5523 165.979 14.5523 166.508C14.5523 166.882 14.484 167.246 14.3472 167.602C14.2151 167.952 13.9827 168.347 13.65 168.784C13.3218 169.222 12.8661 169.753 12.2828 170.377L9.99958 172.824V172.906H14.7301V174H8.30427ZM19.4468 174.137C18.6995 174.137 18.0614 173.932 17.5328 173.521C17.0041 173.111 16.6008 172.519 16.3228 171.744C16.0448 170.965 15.9058 170.021 15.9058 168.914C15.9058 167.811 16.0448 166.87 16.3228 166.091C16.6054 165.307 17.011 164.71 17.5396 164.3C18.0683 163.885 18.704 163.678 19.4468 163.678C20.1897 163.678 20.8254 163.885 21.3541 164.3C21.8827 164.71 22.286 165.307 22.564 166.091C22.8466 166.87 22.9879 167.811 22.9879 168.914C22.9879 170.021 22.8489 170.965 22.5709 171.744C22.2929 172.519 21.8896 173.111 21.3609 173.521C20.8368 173.932 20.1988 174.137 19.4468 174.137ZM19.4468 173.057C19.9527 173.057 20.3811 172.895 20.732 172.571C21.0829 172.243 21.3495 171.769 21.5318 171.149C21.7187 170.53 21.8121 169.785 21.8121 168.914C21.8121 168.039 21.7187 167.292 21.5318 166.672C21.3495 166.052 21.0829 165.578 20.732 165.25C20.3811 164.922 19.9527 164.758 19.4468 164.758C18.6903 164.758 18.107 165.122 17.6968 165.852C17.2867 166.581 17.0816 167.602 17.0816 168.914C17.0816 169.785 17.1728 170.53 17.3551 171.149C17.5419 171.769 17.8108 172.243 18.1617 172.571C18.5172 172.895 18.9455 173.057 19.4468 173.057ZM27.5406 174.137C26.7932 174.137 26.1552 173.932 25.6265 173.521C25.0979 173.111 24.6946 172.519 24.4166 171.744C24.1386 170.965 23.9996 170.021 23.9996 168.914C23.9996 167.811 24.1386 166.87 24.4166 166.091C24.6991 165.307 25.1047 164.71 25.6334 164.3C26.162 163.885 26.7978 163.678 27.5406 163.678C28.2834 163.678 28.9192 163.885 29.4478 164.3C29.9765 164.71 30.3798 165.307 30.6578 166.091C30.9403 166.87 31.0816 167.811 31.0816 168.914C31.0816 170.021 30.9426 170.965 30.6646 171.744C30.3866 172.519 29.9833 173.111 29.4547 173.521C28.9306 173.932 28.2926 174.137 27.5406 174.137ZM27.5406 173.057C28.0465 173.057 28.4748 172.895 28.8258 172.571C29.1767 172.243 29.4433 171.769 29.6256 171.149C29.8124 170.53 29.9058 169.785 29.9058 168.914C29.9058 168.039 29.8124 167.292 29.6256 166.672C29.4433 166.052 29.1767 165.578 28.8258 165.25C28.4748 164.922 28.0465 164.758 27.5406 164.758C26.7841 164.758 26.2008 165.122 25.7906 165.852C25.3804 166.581 25.1754 167.602 25.1754 168.914C25.1754 169.785 25.2665 170.53 25.4488 171.149C25.6357 171.769 25.9045 172.243 26.2554 172.571C26.6109 172.895 27.0393 173.057 27.5406 173.057Z" fill="#1A1A1C" fill-opacity="0.6"/>
<line x1="51" y1="168.5" x2="585" y2="168.5" stroke="#ECEFF4"/>
<path d="M10.8277 216.814V227H9.62459V218.113H9.55623L7.08162 219.768V218.51L9.62459 216.814H10.8277ZM15.7769 227.137C15.0295 227.137 14.3915 226.932 13.8629 226.521C13.3342 226.111 12.9309 225.519 12.6529 224.744C12.3749 223.965 12.2359 223.021 12.2359 221.914C12.2359 220.811 12.3749 219.87 12.6529 219.091C12.9355 218.307 13.3411 217.71 13.8697 217.3C14.3984 216.885 15.0341 216.678 15.7769 216.678C16.5198 216.678 17.1555 216.885 17.6842 217.3C18.2128 217.71 18.6161 218.307 18.8941 219.091C19.1767 219.87 19.318 220.811 19.318 221.914C19.318 223.021 19.179 223.965 18.901 224.744C18.623 225.519 18.2196 226.111 17.691 226.521C17.1669 226.932 16.5289 227.137 15.7769 227.137ZM15.7769 226.057C16.2828 226.057 16.7112 225.895 17.0621 225.571C17.413 225.243 17.6796 224.769 17.8619 224.149C18.0487 223.53 18.1422 222.785 18.1422 221.914C18.1422 221.039 18.0487 220.292 17.8619 219.672C17.6796 219.052 17.413 218.578 17.0621 218.25C16.7112 217.922 16.2828 217.758 15.7769 217.758C15.0204 217.758 14.4371 218.122 14.0269 218.852C13.6168 219.581 13.4117 220.602 13.4117 221.914C13.4117 222.785 13.5028 223.53 13.6851 224.149C13.872 224.769 14.1409 225.243 14.4918 225.571C14.8472 225.895 15.2756 226.057 15.7769 226.057ZM23.8707 227.137C23.1233 227.137 22.4853 226.932 21.9566 226.521C21.428 226.111 21.0247 225.519 20.7467 224.744C20.4687 223.965 20.3297 223.021 20.3297 221.914C20.3297 220.811 20.4687 219.87 20.7467 219.091C21.0292 218.307 21.4348 217.71 21.9635 217.3C22.4921 216.885 23.1278 216.678 23.8707 216.678C24.6135 216.678 25.2493 216.885 25.7779 217.3C26.3066 217.71 26.7099 218.307 26.9879 219.091C27.2704 219.87 27.4117 220.811 27.4117 221.914C27.4117 223.021 27.2727 223.965 26.9947 224.744C26.7167 225.519 26.3134 226.111 25.7847 226.521C25.2607 226.932 24.6226 227.137 23.8707 227.137ZM23.8707 226.057C24.3765 226.057 24.8049 225.895 25.1558 225.571C25.5068 225.243 25.7734 224.769 25.9556 224.149C26.1425 223.53 26.2359 222.785 26.2359 221.914C26.2359 221.039 26.1425 220.292 25.9556 219.672C25.7734 219.052 25.5068 218.578 25.1558 218.25C24.8049 217.922 24.3765 217.758 23.8707 217.758C23.1142 217.758 22.5308 218.122 22.1207 218.852C21.7105 219.581 21.5055 220.602 21.5055 221.914C21.5055 222.785 21.5966 223.53 21.7789 224.149C21.9657 224.769 22.2346 225.243 22.5855 225.571C22.941 225.895 23.3694 226.057 23.8707 226.057Z" fill="#1A1A1C" fill-opacity="0.6"/>
<line x1="51" y1="221.5" x2="585" y2="221.5" stroke="#ECEFF4"/>
<rect x="51" y="156.5" width="4.00001" height="67" fill="url(#paint0_linear_1_1834)"/>
<rect x="67" y="109.5" width="4.00002" height="114" fill="url(#paint1_linear_1_1834)"/>
<rect x="83" y="62.5" width="4.00002" height="161" fill="url(#paint2_linear_1_1834)"/>
<rect x="99" y="84.5" width="4.00001" height="139" fill="url(#paint3_linear_1_1834)"/>
<rect x="115" y="127.5" width="4.00001" height="96" fill="url(#paint4_linear_1_1834)"/>
<path d="M77.3066 240.617C76.8301 240.617 76.4043 240.531 76.0293 240.359C75.6582 240.184 75.3652 239.934 75.1504 239.609C74.9395 239.285 74.834 238.898 74.834 238.449V238.25H75.877V238.449C75.877 238.695 75.9375 238.912 76.0586 239.1C76.1836 239.283 76.3535 239.426 76.5684 239.527C76.7832 239.629 77.0293 239.68 77.3066 239.68C77.6113 239.68 77.8691 239.617 78.0801 239.492C78.2949 239.363 78.457 239.176 78.5664 238.93C78.6797 238.68 78.7363 238.375 78.7363 238.016V231.77H79.791V238.016C79.791 238.57 79.6895 239.043 79.4863 239.434C79.2832 239.82 78.9961 240.115 78.625 240.318C78.2539 240.518 77.8145 240.617 77.3066 240.617ZM85.334 237.828V233.949H86.3301V240.5H85.334V239.387H85.2637C85.1074 239.719 84.8672 240.002 84.543 240.236C84.2227 240.471 83.8145 240.586 83.3184 240.582C82.9082 240.582 82.5449 240.494 82.2285 240.318C81.9121 240.139 81.6621 239.865 81.4785 239.498C81.2988 239.131 81.209 238.668 81.209 238.109V233.949H82.2051V238.051C82.2051 238.523 82.3398 238.902 82.6094 239.188C82.8828 239.473 83.2285 239.613 83.6465 239.609C83.8965 239.609 84.1504 239.547 84.4082 239.422C84.6699 239.293 84.8887 239.098 85.0645 238.836C85.2441 238.57 85.334 238.234 85.334 237.828ZM88.6152 231.77V240.5H87.6191V231.77H88.6152ZM90.5488 242.949C90.377 242.953 90.2246 242.941 90.0918 242.914C89.959 242.887 89.8652 242.859 89.8105 242.832L90.0684 241.953L90.168 241.977C90.5039 242.055 90.7852 242.037 91.0117 241.924C91.2422 241.814 91.4434 241.523 91.6152 241.051L91.8027 240.535L89.3887 233.949H90.4785L92.2832 239.176H92.3535L94.1582 233.949H95.248L92.4707 241.449C92.3457 241.789 92.1914 242.07 92.0078 242.293C91.8242 242.516 91.6113 242.68 91.3691 242.785C91.127 242.895 90.8535 242.949 90.5488 242.949Z" fill="#1A1A1C" fill-opacity="0.6"/>
<rect x="167.5" y="137" width="4.00001" height="87" fill="url(#paint5_linear_1_1834)"/>
<rect x="183.5" y="40" width="4.00002" height="184" fill="url(#paint6_linear_1_1834)"/>
<rect x="199.5" y="96" width="4.00002" height="128" fill="url(#paint7_linear_1_1834)"/>
<rect x="215.5" y="70" width="4.00001" height="154" fill="url(#paint8_linear_1_1834)"/>
<rect x="231.5" y="118" width="4.00001" height="106" fill="url(#paint9_linear_1_1834)"/>
<path d="M184.326 241H183.213L186.424 232.27H187.514L190.713 241H189.611L186.998 233.652H186.928L184.326 241ZM184.736 237.59H189.201V238.527H184.736V237.59ZM195.506 238.328V234.449H196.502V241H195.506V239.887H195.436C195.279 240.219 195.039 240.502 194.715 240.736C194.395 240.971 193.986 241.086 193.49 241.082C193.08 241.082 192.717 240.994 192.4 240.818C192.084 240.639 191.834 240.365 191.65 239.998C191.471 239.631 191.381 239.168 191.381 238.609V234.449H192.377V238.551C192.377 239.023 192.512 239.402 192.781 239.688C193.055 239.973 193.4 240.113 193.818 240.109C194.068 240.109 194.322 240.047 194.58 239.922C194.842 239.793 195.061 239.598 195.236 239.336C195.416 239.07 195.506 238.734 195.506 238.328ZM200.428 243.59C199.697 243.59 199.119 243.457 198.693 243.191C198.271 242.926 197.959 242.621 197.756 242.277L198.553 241.715C198.643 241.836 198.758 241.973 198.898 242.125C199.039 242.281 199.23 242.416 199.473 242.529C199.715 242.643 200.033 242.699 200.428 242.699C200.955 242.699 201.391 242.572 201.734 242.318C202.082 242.064 202.256 241.664 202.256 241.117V239.793H202.162C202.092 239.91 201.988 240.057 201.852 240.232C201.719 240.404 201.525 240.559 201.271 240.695C201.021 240.828 200.682 240.895 200.252 240.895C199.725 240.895 199.252 240.77 198.834 240.52C198.416 240.27 198.084 239.906 197.838 239.43C197.596 238.953 197.475 238.375 197.475 237.695C197.475 237.023 197.592 236.439 197.826 235.943C198.064 235.443 198.395 235.057 198.816 234.783C199.238 234.506 199.725 234.367 200.275 234.367C200.701 234.367 201.039 234.438 201.289 234.578C201.543 234.719 201.736 234.879 201.869 235.059C202.006 235.234 202.111 235.379 202.186 235.492H202.291V234.449H203.252V241.188C203.252 241.75 203.125 242.207 202.871 242.559C202.621 242.914 202.281 243.174 201.852 243.338C201.426 243.506 200.951 243.59 200.428 243.59ZM200.393 239.992C200.998 239.992 201.461 239.787 201.781 239.377C202.105 238.967 202.268 238.398 202.268 237.672C202.268 237.199 202.197 236.783 202.057 236.424C201.916 236.064 201.705 235.783 201.424 235.58C201.146 235.373 200.803 235.27 200.393 235.27C199.967 235.27 199.611 235.379 199.326 235.598C199.045 235.812 198.834 236.102 198.693 236.465C198.553 236.828 198.482 237.23 198.482 237.672C198.482 238.125 198.553 238.527 198.693 238.879C198.838 239.227 199.053 239.5 199.338 239.699C199.623 239.895 199.975 239.992 200.393 239.992ZM208.666 238.328V234.449H209.662V241H208.666V239.887H208.596C208.439 240.219 208.199 240.502 207.875 240.736C207.555 240.971 207.146 241.086 206.65 241.082C206.24 241.082 205.877 240.994 205.561 240.818C205.244 240.639 204.994 240.365 204.811 239.998C204.631 239.631 204.541 239.168 204.541 238.609V234.449H205.537V238.551C205.537 239.023 205.672 239.402 205.941 239.688C206.215 239.973 206.561 240.113 206.979 240.109C207.229 240.109 207.482 240.047 207.74 239.922C208.002 239.793 208.221 239.598 208.396 239.336C208.576 239.07 208.666 238.734 208.666 238.328ZM215.58 235.926L214.678 236.172C214.592 235.949 214.443 235.738 214.232 235.539C214.025 235.336 213.701 235.234 213.26 235.234C212.861 235.234 212.529 235.328 212.264 235.516C211.998 235.699 211.865 235.93 211.865 236.207C211.865 236.457 211.955 236.656 212.135 236.805C212.318 236.953 212.604 237.074 212.99 237.168L213.963 237.402C214.545 237.543 214.979 237.76 215.264 238.053C215.553 238.346 215.697 238.719 215.697 239.172C215.697 239.547 215.59 239.883 215.375 240.18C215.16 240.477 214.861 240.711 214.479 240.883C214.096 241.055 213.65 241.141 213.143 241.141C212.475 241.141 211.922 240.994 211.484 240.701C211.051 240.408 210.775 239.984 210.658 239.43L211.607 239.195C211.697 239.547 211.869 239.811 212.123 239.986C212.381 240.162 212.717 240.25 213.131 240.25C213.596 240.25 213.967 240.15 214.244 239.951C214.525 239.748 214.666 239.508 214.666 239.23C214.666 238.77 214.342 238.461 213.693 238.305L212.604 238.047C212.002 237.902 211.561 237.682 211.279 237.385C210.998 237.088 210.857 236.715 210.857 236.266C210.857 235.895 210.961 235.566 211.168 235.281C211.379 234.996 211.666 234.773 212.029 234.613C212.393 234.449 212.803 234.367 213.26 234.367C213.912 234.367 214.422 234.512 214.789 234.801C215.16 235.086 215.424 235.461 215.58 235.926ZM219.494 234.449V235.305H216.107V234.449H219.494ZM217.092 232.891H218.088V239.125C218.088 239.465 218.158 239.715 218.299 239.875C218.439 240.031 218.662 240.109 218.967 240.109C219.033 240.109 219.102 240.105 219.172 240.098C219.246 240.09 219.326 240.078 219.412 240.062L219.623 240.965C219.529 241 219.414 241.027 219.277 241.047C219.145 241.07 219.01 241.082 218.873 241.082C218.346 241.082 217.916 240.926 217.584 240.613C217.256 240.301 217.092 239.895 217.092 239.395V232.891Z" fill="#1A1A1C" fill-opacity="0.6"/>
<rect x="284" y="176" width="4.00001" height="49" fill="url(#paint10_linear_1_1834)"/>
<rect x="300" y="111" width="4.00002" height="114" fill="url(#paint11_linear_1_1834)"/>
<rect x="316" y="77" width="4.00002" height="148" fill="url(#paint12_linear_1_1834)"/>
<rect x="332" y="101" width="4.00001" height="124" fill="url(#paint13_linear_1_1834)"/>
<rect x="348" y="146" width="4.00001" height="79" fill="url(#paint14_linear_1_1834)"/>
<path d="M292.904 242.152C292.279 242.152 291.738 242.053 291.281 241.854C290.824 241.65 290.465 241.369 290.203 241.01C289.945 240.646 289.799 240.227 289.764 239.75H290.854C290.885 240.078 290.996 240.35 291.188 240.564C291.383 240.779 291.631 240.939 291.932 241.045C292.232 241.15 292.557 241.203 292.904 241.203C293.307 241.203 293.668 241.137 293.988 241.004C294.312 240.871 294.568 240.686 294.756 240.447C294.943 240.209 295.037 239.93 295.037 239.609C295.037 239.32 294.955 239.086 294.791 238.906C294.627 238.727 294.412 238.58 294.146 238.467C293.885 238.354 293.6 238.254 293.291 238.168L292.225 237.863C291.541 237.668 291 237.389 290.602 237.025C290.207 236.658 290.01 236.18 290.01 235.59C290.01 235.102 290.141 234.676 290.402 234.312C290.668 233.945 291.025 233.66 291.475 233.457C291.928 233.254 292.432 233.152 292.986 233.152C293.549 233.152 294.049 233.254 294.486 233.457C294.924 233.656 295.271 233.93 295.529 234.277C295.787 234.621 295.924 235.012 295.939 235.449H294.908C294.857 235.02 294.65 234.686 294.287 234.447C293.928 234.209 293.482 234.09 292.951 234.09C292.568 234.09 292.232 234.152 291.943 234.277C291.654 234.402 291.43 234.574 291.27 234.793C291.109 235.012 291.029 235.262 291.029 235.543C291.029 235.852 291.125 236.102 291.316 236.293C291.508 236.48 291.734 236.627 291.996 236.732C292.262 236.838 292.502 236.922 292.717 236.984L293.596 237.23C293.822 237.293 294.074 237.377 294.352 237.482C294.633 237.588 294.902 237.73 295.16 237.91C295.422 238.09 295.637 238.32 295.805 238.602C295.973 238.879 296.057 239.223 296.057 239.633C296.057 240.102 295.934 240.527 295.688 240.91C295.441 241.289 295.084 241.592 294.615 241.818C294.146 242.041 293.576 242.152 292.904 242.152ZM299.842 242.141C299.213 242.141 298.668 242 298.207 241.719C297.75 241.438 297.398 241.045 297.152 240.541C296.906 240.033 296.783 239.445 296.783 238.777C296.783 238.105 296.904 237.514 297.146 237.002C297.389 236.49 297.729 236.09 298.166 235.801C298.607 235.512 299.123 235.367 299.713 235.367C300.053 235.367 300.391 235.424 300.727 235.537C301.062 235.65 301.367 235.834 301.641 236.088C301.918 236.342 302.139 236.678 302.303 237.096C302.467 237.514 302.549 238.027 302.549 238.637V239.07H297.498V238.203H302.004L301.541 238.531C301.541 238.094 301.473 237.705 301.336 237.365C301.199 237.025 300.994 236.758 300.721 236.562C300.451 236.367 300.115 236.27 299.713 236.27C299.311 236.27 298.965 236.369 298.676 236.568C298.391 236.764 298.172 237.02 298.02 237.336C297.867 237.652 297.791 237.992 297.791 238.355V238.93C297.791 239.426 297.877 239.846 298.049 240.189C298.221 240.533 298.461 240.795 298.77 240.975C299.078 241.15 299.436 241.238 299.842 241.238C300.104 241.238 300.342 241.201 300.557 241.127C300.771 241.049 300.957 240.934 301.113 240.781C301.27 240.625 301.389 240.434 301.471 240.207L302.443 240.488C302.342 240.816 302.17 241.105 301.928 241.355C301.689 241.602 301.393 241.795 301.037 241.936C300.682 242.072 300.283 242.141 299.842 242.141ZM303.498 244.449V235.449H304.459V236.492H304.576C304.65 236.379 304.754 236.234 304.887 236.059C305.02 235.879 305.211 235.719 305.461 235.578C305.711 235.438 306.049 235.367 306.475 235.367C307.025 235.367 307.51 235.506 307.928 235.783C308.346 236.057 308.672 236.447 308.906 236.955C309.145 237.459 309.264 238.055 309.264 238.742C309.264 239.434 309.146 240.035 308.912 240.547C308.678 241.055 308.352 241.447 307.934 241.725C307.516 242.002 307.033 242.141 306.486 242.141C306.068 242.141 305.732 242.07 305.479 241.93C305.225 241.785 305.029 241.623 304.893 241.443C304.756 241.26 304.65 241.109 304.576 240.992H304.494V244.449H303.498ZM306.357 241.238C306.775 241.238 307.125 241.127 307.406 240.904C307.688 240.678 307.898 240.375 308.039 239.996C308.184 239.617 308.256 239.195 308.256 238.73C308.256 238.27 308.186 237.854 308.045 237.482C307.904 237.111 307.693 236.816 307.412 236.598C307.135 236.379 306.783 236.27 306.357 236.27C305.947 236.27 305.604 236.373 305.326 236.58C305.049 236.783 304.838 237.07 304.693 237.441C304.553 237.809 304.482 238.238 304.482 238.73C304.482 239.223 304.555 239.658 304.699 240.037C304.844 240.412 305.055 240.707 305.332 240.922C305.613 241.133 305.955 241.238 306.357 241.238ZM313.072 235.449V236.305H309.686V235.449H313.072ZM310.67 233.891H311.666V240.125C311.666 240.465 311.736 240.715 311.877 240.875C312.018 241.031 312.24 241.109 312.545 241.109C312.611 241.109 312.68 241.105 312.75 241.098C312.824 241.09 312.904 241.078 312.99 241.062L313.201 241.965C313.107 242 312.992 242.027 312.855 242.047C312.723 242.07 312.588 242.082 312.451 242.082C311.924 242.082 311.494 241.926 311.162 241.613C310.834 241.301 310.67 240.895 310.67 240.395V233.891ZM316.705 242.141C316.076 242.141 315.531 242 315.07 241.719C314.613 241.438 314.262 241.045 314.016 240.541C313.77 240.033 313.646 239.445 313.646 238.777C313.646 238.105 313.768 237.514 314.01 237.002C314.252 236.49 314.592 236.09 315.029 235.801C315.471 235.512 315.986 235.367 316.576 235.367C316.916 235.367 317.254 235.424 317.59 235.537C317.926 235.65 318.23 235.834 318.504 236.088C318.781 236.342 319.002 236.678 319.166 237.096C319.33 237.514 319.412 238.027 319.412 238.637V239.07H314.361V238.203H318.867L318.404 238.531C318.404 238.094 318.336 237.705 318.199 237.365C318.062 237.025 317.857 236.758 317.584 236.562C317.314 236.367 316.979 236.27 316.576 236.27C316.174 236.27 315.828 236.369 315.539 236.568C315.254 236.764 315.035 237.02 314.883 237.336C314.73 237.652 314.654 237.992 314.654 238.355V238.93C314.654 239.426 314.74 239.846 314.912 240.189C315.084 240.533 315.324 240.795 315.633 240.975C315.941 241.15 316.299 241.238 316.705 241.238C316.967 241.238 317.205 241.201 317.42 241.127C317.635 241.049 317.82 240.934 317.977 240.781C318.133 240.625 318.252 240.434 318.334 240.207L319.307 240.488C319.205 240.816 319.033 241.105 318.791 241.355C318.553 241.602 318.256 241.795 317.9 241.936C317.545 242.072 317.146 242.141 316.705 242.141ZM320.361 242V235.449H321.322V236.48H321.416C321.553 236.129 321.773 235.855 322.078 235.66C322.383 235.465 322.748 235.367 323.174 235.367C323.604 235.367 323.961 235.465 324.246 235.66C324.535 235.855 324.76 236.129 324.92 236.48H324.99C325.162 236.141 325.414 235.871 325.746 235.672C326.082 235.469 326.482 235.367 326.947 235.367C327.533 235.367 328.014 235.551 328.389 235.918C328.764 236.281 328.951 236.848 328.951 237.617V242H327.943V237.617C327.943 237.133 327.811 236.787 327.545 236.58C327.279 236.373 326.967 236.27 326.607 236.27C326.15 236.27 325.795 236.41 325.541 236.691C325.291 236.969 325.166 237.316 325.166 237.734V242H324.135V237.512C324.135 237.141 324.016 236.842 323.777 236.615C323.539 236.385 323.229 236.27 322.846 236.27C322.584 236.27 322.34 236.34 322.113 236.48C321.887 236.621 321.703 236.814 321.562 237.061C321.426 237.307 321.357 237.59 321.357 237.91V242H320.361ZM333.229 242.141C332.811 242.141 332.475 242.07 332.221 241.93C331.967 241.785 331.771 241.623 331.635 241.443C331.498 241.26 331.393 241.109 331.318 240.992H331.201V242H330.24V233.27H331.236V236.492H331.318C331.393 236.379 331.496 236.234 331.629 236.059C331.762 235.879 331.953 235.719 332.203 235.578C332.453 235.438 332.791 235.367 333.217 235.367C333.768 235.367 334.252 235.506 334.67 235.783C335.088 236.057 335.414 236.447 335.648 236.955C335.887 237.459 336.006 238.055 336.006 238.742C336.006 239.434 335.889 240.035 335.654 240.547C335.42 241.055 335.094 241.447 334.676 241.725C334.258 242.002 333.775 242.141 333.229 242.141ZM333.1 241.238C333.518 241.238 333.867 241.127 334.148 240.904C334.43 240.678 334.641 240.375 334.781 239.996C334.926 239.617 334.998 239.195 334.998 238.73C334.998 238.27 334.928 237.854 334.787 237.482C334.646 237.111 334.436 236.816 334.154 236.598C333.877 236.379 333.525 236.27 333.1 236.27C332.689 236.27 332.346 236.373 332.068 236.58C331.791 236.783 331.58 237.07 331.436 237.441C331.295 237.809 331.225 238.238 331.225 238.73C331.225 239.223 331.297 239.658 331.441 240.037C331.586 240.412 331.797 240.707 332.074 240.922C332.355 241.133 332.697 241.238 333.1 241.238ZM339.721 242.141C339.092 242.141 338.547 242 338.086 241.719C337.629 241.438 337.277 241.045 337.031 240.541C336.785 240.033 336.662 239.445 336.662 238.777C336.662 238.105 336.783 237.514 337.025 237.002C337.268 236.49 337.607 236.09 338.045 235.801C338.486 235.512 339.002 235.367 339.592 235.367C339.932 235.367 340.27 235.424 340.605 235.537C340.941 235.65 341.246 235.834 341.52 236.088C341.797 236.342 342.018 236.678 342.182 237.096C342.346 237.514 342.428 238.027 342.428 238.637V239.07H337.377V238.203H341.883L341.42 238.531C341.42 238.094 341.352 237.705 341.215 237.365C341.078 237.025 340.873 236.758 340.6 236.562C340.33 236.367 339.994 236.27 339.592 236.27C339.189 236.27 338.844 236.369 338.555 236.568C338.27 236.764 338.051 237.02 337.898 237.336C337.746 237.652 337.67 237.992 337.67 238.355V238.93C337.67 239.426 337.756 239.846 337.928 240.189C338.1 240.533 338.34 240.795 338.648 240.975C338.957 241.15 339.314 241.238 339.721 241.238C339.982 241.238 340.221 241.201 340.436 241.127C340.65 241.049 340.836 240.934 340.992 240.781C341.148 240.625 341.268 240.434 341.35 240.207L342.322 240.488C342.221 240.816 342.049 241.105 341.807 241.355C341.568 241.602 341.271 241.795 340.916 241.936C340.561 242.072 340.162 242.141 339.721 242.141ZM343.377 242V235.449H344.338V236.445H344.408C344.529 236.121 344.746 235.859 345.059 235.66C345.375 235.457 345.729 235.355 346.119 235.355C346.193 235.355 346.285 235.357 346.395 235.361C346.504 235.361 346.588 235.363 346.646 235.367V236.387C346.611 236.379 346.533 236.367 346.412 236.352C346.291 236.336 346.162 236.328 346.025 236.328C345.709 236.328 345.426 236.395 345.176 236.527C344.926 236.66 344.729 236.842 344.584 237.072C344.443 237.303 344.373 237.566 344.373 237.863V242H343.377Z" fill="#1A1A1C" fill-opacity="0.6"/>
<rect x="400.5" y="149" width="4.00001" height="75" fill="url(#paint15_linear_1_1834)"/>
<rect x="416.5" y="128" width="4.00002" height="96" fill="url(#paint16_linear_1_1834)"/>
<rect x="432.5" y="81" width="4.00002" height="143" fill="url(#paint17_linear_1_1834)"/>
<rect x="448.5" y="23" width="4.00001" height="201" fill="url(#paint18_linear_1_1834)"/>
<rect x="464.5" y="123" width="4.00001" height="101" fill="url(#paint19_linear_1_1834)"/>
<path d="M417.736 241.117C416.994 241.117 416.332 240.936 415.75 240.572C415.168 240.209 414.709 239.693 414.373 239.025C414.041 238.354 413.875 237.559 413.875 236.641C413.875 235.719 414.041 234.922 414.373 234.25C414.709 233.578 415.168 233.061 415.75 232.697C416.332 232.334 416.994 232.152 417.736 232.152C418.482 232.152 419.145 232.334 419.723 232.697C420.301 233.061 420.756 233.578 421.088 234.25C421.42 234.922 421.586 235.719 421.586 236.641C421.586 237.559 421.42 238.354 421.088 239.025C420.756 239.693 420.301 240.209 419.723 240.572C419.145 240.936 418.482 241.117 417.736 241.117ZM417.736 240.133C418.264 240.133 418.74 240 419.166 239.734C419.596 239.465 419.936 239.07 420.186 238.551C420.439 238.031 420.566 237.395 420.566 236.641C420.566 235.883 420.439 235.244 420.186 234.725C419.936 234.201 419.596 233.807 419.166 233.541C418.74 233.271 418.264 233.137 417.736 233.137C417.209 233.137 416.73 233.271 416.301 233.541C415.871 233.807 415.529 234.201 415.275 234.725C415.021 235.244 414.895 235.883 414.895 236.641C414.895 237.395 415.021 238.031 415.275 238.551C415.529 239.07 415.871 239.465 416.301 239.734C416.73 240 417.209 240.133 417.736 240.133ZM425.312 241.141C424.703 241.141 424.176 240.996 423.73 240.707C423.289 240.414 422.947 240.014 422.705 239.506C422.467 238.998 422.348 238.418 422.348 237.766C422.348 237.098 422.471 236.51 422.717 236.002C422.963 235.49 423.307 235.09 423.748 234.801C424.193 234.512 424.711 234.367 425.301 234.367C425.762 234.367 426.176 234.453 426.543 234.625C426.914 234.793 427.217 235.031 427.451 235.34C427.689 235.648 427.836 236.008 427.891 236.418H426.883C426.832 236.219 426.74 236.031 426.607 235.855C426.475 235.68 426.299 235.539 426.08 235.434C425.865 235.324 425.609 235.27 425.312 235.27C424.922 235.27 424.58 235.371 424.287 235.574C423.994 235.777 423.766 236.064 423.602 236.436C423.438 236.803 423.355 237.234 423.355 237.73C423.355 238.234 423.436 238.676 423.596 239.055C423.756 239.43 423.982 239.721 424.275 239.928C424.572 240.135 424.918 240.238 425.312 240.238C425.707 240.238 426.045 240.137 426.326 239.934C426.607 239.727 426.793 239.445 426.883 239.09H427.891C427.836 239.477 427.695 239.824 427.469 240.133C427.246 240.441 426.951 240.688 426.584 240.871C426.221 241.051 425.797 241.141 425.312 241.141ZM431.676 234.449V235.305H428.289V234.449H431.676ZM429.273 232.891H430.27V239.125C430.27 239.465 430.34 239.715 430.48 239.875C430.621 240.031 430.844 240.109 431.148 240.109C431.215 240.109 431.283 240.105 431.354 240.098C431.428 240.09 431.508 240.078 431.594 240.062L431.805 240.965C431.711 241 431.596 241.027 431.459 241.047C431.326 241.07 431.191 241.082 431.055 241.082C430.527 241.082 430.098 240.926 429.766 240.613C429.438 240.301 429.273 239.895 429.273 239.395V232.891ZM435.215 241.141C434.625 241.141 434.107 241 433.662 240.719C433.217 240.438 432.869 240.043 432.619 239.535C432.373 239.027 432.25 238.438 432.25 237.766C432.25 237.082 432.373 236.486 432.619 235.979C432.869 235.467 433.217 235.07 433.662 234.789C434.107 234.508 434.625 234.367 435.215 234.367C435.809 234.367 436.328 234.508 436.773 234.789C437.219 235.07 437.566 235.467 437.816 235.979C438.066 236.486 438.191 237.082 438.191 237.766C438.191 238.438 438.066 239.027 437.816 239.535C437.566 240.043 437.219 240.438 436.773 240.719C436.328 241 435.809 241.141 435.215 241.141ZM435.215 240.238C435.668 240.238 436.039 240.123 436.328 239.893C436.617 239.662 436.832 239.359 436.973 238.984C437.113 238.605 437.184 238.199 437.184 237.766C437.184 237.324 437.113 236.914 436.973 236.535C436.832 236.156 436.617 235.852 436.328 235.621C436.039 235.387 435.668 235.27 435.215 235.27C434.77 235.27 434.402 235.387 434.113 235.621C433.824 235.852 433.609 236.156 433.469 236.535C433.328 236.914 433.258 237.324 433.258 237.766C433.258 238.199 433.328 238.605 433.469 238.984C433.609 239.359 433.824 239.662 434.113 239.893C434.402 240.123 434.77 240.238 435.215 240.238ZM442.152 241.141C441.734 241.141 441.398 241.07 441.145 240.93C440.891 240.785 440.695 240.623 440.559 240.443C440.422 240.26 440.316 240.109 440.242 239.992H440.125V241H439.164V232.27H440.16V235.492H440.242C440.316 235.379 440.42 235.234 440.553 235.059C440.686 234.879 440.877 234.719 441.127 234.578C441.377 234.438 441.715 234.367 442.141 234.367C442.691 234.367 443.176 234.506 443.594 234.783C444.012 235.057 444.338 235.447 444.572 235.955C444.811 236.459 444.93 237.055 444.93 237.742C444.93 238.434 444.812 239.035 444.578 239.547C444.344 240.055 444.018 240.447 443.6 240.725C443.182 241.002 442.699 241.141 442.152 241.141ZM442.023 240.238C442.441 240.238 442.791 240.127 443.072 239.904C443.354 239.678 443.564 239.375 443.705 238.996C443.85 238.617 443.922 238.195 443.922 237.73C443.922 237.27 443.852 236.854 443.711 236.482C443.57 236.111 443.359 235.816 443.078 235.598C442.801 235.379 442.449 235.27 442.023 235.27C441.613 235.27 441.27 235.373 440.992 235.58C440.715 235.783 440.504 236.07 440.359 236.441C440.219 236.809 440.148 237.238 440.148 237.73C440.148 238.223 440.221 238.658 440.365 239.037C440.51 239.412 440.721 239.707 440.998 239.922C441.279 240.133 441.621 240.238 442.023 240.238ZM448.645 241.141C448.016 241.141 447.471 241 447.01 240.719C446.553 240.438 446.201 240.045 445.955 239.541C445.709 239.033 445.586 238.445 445.586 237.777C445.586 237.105 445.707 236.514 445.949 236.002C446.191 235.49 446.531 235.09 446.969 234.801C447.41 234.512 447.926 234.367 448.516 234.367C448.855 234.367 449.193 234.424 449.529 234.537C449.865 234.65 450.17 234.834 450.443 235.088C450.721 235.342 450.941 235.678 451.105 236.096C451.27 236.514 451.352 237.027 451.352 237.637V238.07H446.301V237.203H450.807L450.344 237.531C450.344 237.094 450.275 236.705 450.139 236.365C450.002 236.025 449.797 235.758 449.523 235.562C449.254 235.367 448.918 235.27 448.516 235.27C448.113 235.27 447.768 235.369 447.479 235.568C447.193 235.764 446.975 236.02 446.822 236.336C446.67 236.652 446.594 236.992 446.594 237.355V237.93C446.594 238.426 446.68 238.846 446.852 239.189C447.023 239.533 447.264 239.795 447.572 239.975C447.881 240.15 448.238 240.238 448.645 240.238C448.906 240.238 449.145 240.201 449.359 240.127C449.574 240.049 449.76 239.934 449.916 239.781C450.072 239.625 450.191 239.434 450.273 239.207L451.246 239.488C451.145 239.816 450.973 240.105 450.73 240.355C450.492 240.602 450.195 240.795 449.84 240.936C449.484 241.072 449.086 241.141 448.645 241.141ZM452.301 241V234.449H453.262V235.445H453.332C453.453 235.121 453.67 234.859 453.982 234.66C454.299 234.457 454.652 234.355 455.043 234.355C455.117 234.355 455.209 234.357 455.318 234.361C455.428 234.361 455.512 234.363 455.57 234.367V235.387C455.535 235.379 455.457 235.367 455.336 235.352C455.215 235.336 455.086 235.328 454.949 235.328C454.633 235.328 454.35 235.395 454.1 235.527C453.85 235.66 453.652 235.842 453.508 236.072C453.367 236.303 453.297 236.566 453.297 236.863V241H452.301Z" fill="#1A1A1C" fill-opacity="0.6"/>
<rect x="517" y="146.5" width="4.00001" height="77" fill="url(#paint20_linear_1_1834)"/>
<rect x="533" y="116.5" width="4.00002" height="107" fill="url(#paint21_linear_1_1834)"/>
<rect x="549" y="51.5" width="4.00002" height="172" fill="url(#paint22_linear_1_1834)"/>
<rect x="565" y="76.5" width="4.00001" height="147" fill="url(#paint23_linear_1_1834)"/>
<rect x="581" y="119.5" width="4.00001" height="104" fill="url(#paint24_linear_1_1834)"/>
<path d="M531.688 231.77V240.5H530.645L525.898 233.645H525.805V240.5H524.75V231.77H525.77L530.551 238.637H530.633V231.77H531.688ZM535.754 240.641C535.164 240.641 534.646 240.5 534.201 240.219C533.756 239.938 533.408 239.543 533.158 239.035C532.912 238.527 532.789 237.938 532.789 237.266C532.789 236.582 532.912 235.986 533.158 235.479C533.408 234.967 533.756 234.57 534.201 234.289C534.646 234.008 535.164 233.867 535.754 233.867C536.348 233.867 536.867 234.008 537.312 234.289C537.758 234.57 538.105 234.967 538.355 235.479C538.605 235.986 538.73 236.582 538.73 237.266C538.73 237.938 538.605 238.527 538.355 239.035C538.105 239.543 537.758 239.938 537.312 240.219C536.867 240.5 536.348 240.641 535.754 240.641ZM535.754 239.738C536.207 239.738 536.578 239.623 536.867 239.393C537.156 239.162 537.371 238.859 537.512 238.484C537.652 238.105 537.723 237.699 537.723 237.266C537.723 236.824 537.652 236.414 537.512 236.035C537.371 235.656 537.156 235.352 536.867 235.121C536.578 234.887 536.207 234.77 535.754 234.77C535.309 234.77 534.941 234.887 534.652 235.121C534.363 235.352 534.148 235.656 534.008 236.035C533.867 236.414 533.797 236.824 533.797 237.266C533.797 237.699 533.867 238.105 534.008 238.484C534.148 238.859 534.363 239.162 534.652 239.393C534.941 239.623 535.309 239.738 535.754 239.738ZM544.812 233.949L542.398 240.5H541.367L538.953 233.949H540.043L541.848 239.176H541.918L543.723 233.949H544.812ZM548.094 240.641C547.465 240.641 546.92 240.5 546.459 240.219C546.002 239.938 545.65 239.545 545.404 239.041C545.158 238.533 545.035 237.945 545.035 237.277C545.035 236.605 545.156 236.014 545.398 235.502C545.641 234.99 545.98 234.59 546.418 234.301C546.859 234.012 547.375 233.867 547.965 233.867C548.305 233.867 548.643 233.924 548.979 234.037C549.314 234.15 549.619 234.334 549.893 234.588C550.17 234.842 550.391 235.178 550.555 235.596C550.719 236.014 550.801 236.527 550.801 237.137V237.57H545.75V236.703H550.256L549.793 237.031C549.793 236.594 549.725 236.205 549.588 235.865C549.451 235.525 549.246 235.258 548.973 235.062C548.703 234.867 548.367 234.77 547.965 234.77C547.562 234.77 547.217 234.869 546.928 235.068C546.643 235.264 546.424 235.52 546.271 235.836C546.119 236.152 546.043 236.492 546.043 236.855V237.43C546.043 237.926 546.129 238.346 546.301 238.689C546.473 239.033 546.713 239.295 547.021 239.475C547.33 239.65 547.688 239.738 548.094 239.738C548.355 239.738 548.594 239.701 548.809 239.627C549.023 239.549 549.209 239.434 549.365 239.281C549.521 239.125 549.641 238.934 549.723 238.707L550.695 238.988C550.594 239.316 550.422 239.605 550.18 239.855C549.941 240.102 549.645 240.295 549.289 240.436C548.934 240.572 548.535 240.641 548.094 240.641ZM551.75 240.5V233.949H552.711V234.98H552.805C552.941 234.629 553.162 234.355 553.467 234.16C553.771 233.965 554.137 233.867 554.562 233.867C554.992 233.867 555.35 233.965 555.635 234.16C555.924 234.355 556.148 234.629 556.309 234.98H556.379C556.551 234.641 556.803 234.371 557.135 234.172C557.471 233.969 557.871 233.867 558.336 233.867C558.922 233.867 559.402 234.051 559.777 234.418C560.152 234.781 560.34 235.348 560.34 236.117V240.5H559.332V236.117C559.332 235.633 559.199 235.287 558.934 235.08C558.668 234.873 558.355 234.77 557.996 234.77C557.539 234.77 557.184 234.91 556.93 235.191C556.68 235.469 556.555 235.816 556.555 236.234V240.5H555.523V236.012C555.523 235.641 555.404 235.342 555.166 235.115C554.928 234.885 554.617 234.77 554.234 234.77C553.973 234.77 553.729 234.84 553.502 234.98C553.275 235.121 553.092 235.314 552.951 235.561C552.814 235.807 552.746 236.09 552.746 236.41V240.5H551.75ZM564.617 240.641C564.199 240.641 563.863 240.57 563.609 240.43C563.355 240.285 563.16 240.123 563.023 239.943C562.887 239.76 562.781 239.609 562.707 239.492H562.59V240.5H561.629V231.77H562.625V234.992H562.707C562.781 234.879 562.885 234.734 563.018 234.559C563.15 234.379 563.342 234.219 563.592 234.078C563.842 233.938 564.18 233.867 564.605 233.867C565.156 233.867 565.641 234.006 566.059 234.283C566.477 234.557 566.803 234.947 567.037 235.455C567.275 235.959 567.395 236.555 567.395 237.242C567.395 237.934 567.277 238.535 567.043 239.047C566.809 239.555 566.482 239.947 566.064 240.225C565.646 240.502 565.164 240.641 564.617 240.641ZM564.488 239.738C564.906 239.738 565.256 239.627 565.537 239.404C565.818 239.178 566.029 238.875 566.17 238.496C566.314 238.117 566.387 237.695 566.387 237.23C566.387 236.77 566.316 236.354 566.176 235.982C566.035 235.611 565.824 235.316 565.543 235.098C565.266 234.879 564.914 234.77 564.488 234.77C564.078 234.77 563.734 234.873 563.457 235.08C563.18 235.283 562.969 235.57 562.824 235.941C562.684 236.309 562.613 236.738 562.613 237.23C562.613 237.723 562.686 238.158 562.83 238.537C562.975 238.912 563.186 239.207 563.463 239.422C563.744 239.633 564.086 239.738 564.488 239.738ZM571.109 240.641C570.48 240.641 569.936 240.5 569.475 240.219C569.018 239.938 568.666 239.545 568.42 239.041C568.174 238.533 568.051 237.945 568.051 237.277C568.051 236.605 568.172 236.014 568.414 235.502C568.656 234.99 568.996 234.59 569.434 234.301C569.875 234.012 570.391 233.867 570.98 233.867C571.32 233.867 571.658 233.924 571.994 234.037C572.33 234.15 572.635 234.334 572.908 234.588C573.186 234.842 573.406 235.178 573.57 235.596C573.734 236.014 573.816 236.527 573.816 237.137V237.57H568.766V236.703H573.271L572.809 237.031C572.809 236.594 572.74 236.205 572.604 235.865C572.467 235.525 572.262 235.258 571.988 235.062C571.719 234.867 571.383 234.77 570.98 234.77C570.578 234.77 570.232 234.869 569.943 235.068C569.658 235.264 569.439 235.52 569.287 235.836C569.135 236.152 569.059 236.492 569.059 236.855V237.43C569.059 237.926 569.145 238.346 569.316 238.689C569.488 239.033 569.729 239.295 570.037 239.475C570.346 239.65 570.703 239.738 571.109 239.738C571.371 239.738 571.609 239.701 571.824 239.627C572.039 239.549 572.225 239.434 572.381 239.281C572.537 239.125 572.656 238.934 572.738 238.707L573.711 238.988C573.609 239.316 573.438 239.605 573.195 239.855C572.957 240.102 572.66 240.295 572.305 240.436C571.949 240.572 571.551 240.641 571.109 240.641ZM574.766 240.5V233.949H575.727V234.945H575.797C575.918 234.621 576.135 234.359 576.447 234.16C576.764 233.957 577.117 233.855 577.508 233.855C577.582 233.855 577.674 233.857 577.783 233.861C577.893 233.861 577.977 233.863 578.035 233.867V234.887C578 234.879 577.922 234.867 577.801 234.852C577.68 234.836 577.551 234.828 577.414 234.828C577.098 234.828 576.814 234.895 576.564 235.027C576.314 235.16 576.117 235.342 575.973 235.572C575.832 235.803 575.762 236.066 575.762 236.363V240.5H574.766Z" fill="#1A1A1C" fill-opacity="0.6"/>
<defs>
<linearGradient id="paint0_linear_1_1834" x1="53" y1="156.5" x2="53" y2="223.5" gradientUnits="userSpaceOnUse">
<stop stop-color="#864FFE"/>
<stop offset="1" stop-color="white" stop-opacity="0"/>
</linearGradient>
<linearGradient id="paint1_linear_1_1834" x1="69" y1="109.5" x2="69" y2="223.5" gradientUnits="userSpaceOnUse">
<stop stop-color="#864FFE"/>
<stop offset="1" stop-color="white" stop-opacity="0"/>
</linearGradient>
<linearGradient id="paint2_linear_1_1834" x1="85" y1="62.5" x2="85" y2="223.5" gradientUnits="userSpaceOnUse">
<stop stop-color="#864FFE"/>
<stop offset="1" stop-color="white" stop-opacity="0"/>
</linearGradient>
<linearGradient id="paint3_linear_1_1834" x1="101" y1="84.5" x2="101" y2="223.5" gradientUnits="userSpaceOnUse">
<stop stop-color="#864FFE"/>
<stop offset="1" stop-color="white" stop-opacity="0"/>
</linearGradient>
<linearGradient id="paint4_linear_1_1834" x1="117" y1="127.5" x2="117" y2="223.5" gradientUnits="userSpaceOnUse">
<stop stop-color="#864FFE"/>
<stop offset="1" stop-color="white" stop-opacity="0"/>
</linearGradient>
<linearGradient id="paint5_linear_1_1834" x1="169.5" y1="137" x2="169.5" y2="224" gradientUnits="userSpaceOnUse">
<stop stop-color="#864FFE"/>
<stop offset="1" stop-color="white" stop-opacity="0"/>
</linearGradient>
<linearGradient id="paint6_linear_1_1834" x1="185.5" y1="40" x2="185.5" y2="224" gradientUnits="userSpaceOnUse">
<stop stop-color="#864FFE"/>
<stop offset="1" stop-color="white" stop-opacity="0"/>
</linearGradient>
<linearGradient id="paint7_linear_1_1834" x1="201.5" y1="96" x2="201.5" y2="224" gradientUnits="userSpaceOnUse">
<stop stop-color="#864FFE"/>
<stop offset="1" stop-color="white" stop-opacity="0"/>
</linearGradient>
<linearGradient id="paint8_linear_1_1834" x1="217.5" y1="70" x2="217.5" y2="224" gradientUnits="userSpaceOnUse">
<stop stop-color="#864FFE"/>
<stop offset="1" stop-color="white" stop-opacity="0"/>
</linearGradient>
<linearGradient id="paint9_linear_1_1834" x1="233.5" y1="118" x2="233.5" y2="224" gradientUnits="userSpaceOnUse">
<stop stop-color="#864FFE"/>
<stop offset="1" stop-color="white" stop-opacity="0"/>
</linearGradient>
<linearGradient id="paint10_linear_1_1834" x1="286" y1="176" x2="286" y2="225" gradientUnits="userSpaceOnUse">
<stop stop-color="#864FFE"/>
<stop offset="1" stop-color="white" stop-opacity="0"/>
</linearGradient>
<linearGradient id="paint11_linear_1_1834" x1="302" y1="111" x2="302" y2="225" gradientUnits="userSpaceOnUse">
<stop stop-color="#864FFE"/>
<stop offset="1" stop-color="white" stop-opacity="0"/>
</linearGradient>
<linearGradient id="paint12_linear_1_1834" x1="318" y1="77" x2="318" y2="225" gradientUnits="userSpaceOnUse">
<stop stop-color="#864FFE"/>
<stop offset="1" stop-color="white" stop-opacity="0"/>
</linearGradient>
<linearGradient id="paint13_linear_1_1834" x1="334" y1="101" x2="334" y2="225" gradientUnits="userSpaceOnUse">
<stop stop-color="#864FFE"/>
<stop offset="1" stop-color="white" stop-opacity="0"/>
</linearGradient>
<linearGradient id="paint14_linear_1_1834" x1="350" y1="146" x2="350" y2="225" gradientUnits="userSpaceOnUse">
<stop stop-color="#864FFE"/>
<stop offset="1" stop-color="white" stop-opacity="0"/>
</linearGradient>
<linearGradient id="paint15_linear_1_1834" x1="402.5" y1="149" x2="402.5" y2="224" gradientUnits="userSpaceOnUse">
<stop stop-color="#864FFE"/>
<stop offset="1" stop-color="white" stop-opacity="0"/>
</linearGradient>
<linearGradient id="paint16_linear_1_1834" x1="418.5" y1="128" x2="418.5" y2="224" gradientUnits="userSpaceOnUse">
<stop stop-color="#864FFE"/>
<stop offset="1" stop-color="white" stop-opacity="0"/>
</linearGradient>
<linearGradient id="paint17_linear_1_1834" x1="434.5" y1="81" x2="434.5" y2="224" gradientUnits="userSpaceOnUse">
<stop stop-color="#864FFE"/>
<stop offset="1" stop-color="white" stop-opacity="0"/>
</linearGradient>
<linearGradient id="paint18_linear_1_1834" x1="450.5" y1="23" x2="450.5" y2="224" gradientUnits="userSpaceOnUse">
<stop stop-color="#864FFE"/>
<stop offset="1" stop-color="white" stop-opacity="0"/>
</linearGradient>
<linearGradient id="paint19_linear_1_1834" x1="466.5" y1="123" x2="466.5" y2="224" gradientUnits="userSpaceOnUse">
<stop stop-color="#864FFE"/>
<stop offset="1" stop-color="white" stop-opacity="0"/>
</linearGradient>
<linearGradient id="paint20_linear_1_1834" x1="519" y1="146.5" x2="519" y2="223.5" gradientUnits="userSpaceOnUse">
<stop stop-color="#864FFE"/>
<stop offset="1" stop-color="white" stop-opacity="0"/>
</linearGradient>
<linearGradient id="paint21_linear_1_1834" x1="535" y1="116.5" x2="535" y2="223.5" gradientUnits="userSpaceOnUse">
<stop stop-color="#864FFE"/>
<stop offset="1" stop-color="white" stop-opacity="0"/>
</linearGradient>
<linearGradient id="paint22_linear_1_1834" x1="551" y1="51.5" x2="551" y2="223.5" gradientUnits="userSpaceOnUse">
<stop stop-color="#864FFE"/>
<stop offset="1" stop-color="white" stop-opacity="0"/>
</linearGradient>
<linearGradient id="paint23_linear_1_1834" x1="567" y1="76.5" x2="567" y2="223.5" gradientUnits="userSpaceOnUse">
<stop stop-color="#864FFE"/>
<stop offset="1" stop-color="white" stop-opacity="0"/>
</linearGradient>
<linearGradient id="paint24_linear_1_1834" x1="583" y1="119.5" x2="583" y2="223.5" gradientUnits="userSpaceOnUse">
<stop stop-color="#864FFE"/>
<stop offset="1" stop-color="white" stop-opacity="0"/>
</linearGradient>
</defs>
</svg>
