<svg width="545" height="168" viewBox="0 0 545 168" fill="none" xmlns="http://www.w3.org/2000/svg">
<path d="M24.3623 32V31.5557L26.0439 29.71C26.2399 29.4958 26.4006 29.3089 26.5259 29.1494C26.6535 28.9899 26.748 28.8395 26.8096 28.6982C26.8734 28.557 26.9053 28.4089 26.9053 28.2539C26.9053 28.0739 26.862 27.9189 26.7754 27.7891C26.6911 27.6569 26.576 27.5555 26.4302 27.4849C26.2843 27.4142 26.1191 27.3789 25.9346 27.3789C25.7386 27.3789 25.5677 27.4188 25.4219 27.4985C25.2783 27.5783 25.1667 27.6911 25.0869 27.8369C25.0094 27.9805 24.9707 28.1491 24.9707 28.3428H24.3828C24.3828 28.0443 24.4512 27.7822 24.5879 27.5566C24.7269 27.3311 24.9149 27.1556 25.1519 27.0303C25.3911 26.9027 25.6589 26.8389 25.9551 26.8389C26.2536 26.8389 26.5179 26.9027 26.748 27.0303C26.9782 27.1556 27.1582 27.3254 27.2881 27.5396C27.4202 27.7515 27.4863 27.9896 27.4863 28.2539C27.4863 28.4408 27.4521 28.623 27.3838 28.8008C27.3177 28.9762 27.2015 29.1733 27.0352 29.3921C26.8711 29.6108 26.6432 29.8763 26.3516 30.1885L25.21 31.4121V31.4531H27.5752V32H24.3623ZM29.8652 32.0684C29.5736 32.0684 29.3104 32.0114 29.0757 31.8975C28.8433 31.7812 28.6564 31.6217 28.5151 31.4189C28.3739 31.2161 28.2975 30.986 28.2861 30.7285H28.8809C28.9036 30.9564 29.0073 31.1455 29.1919 31.2959C29.3787 31.4463 29.6032 31.5215 29.8652 31.5215C30.0749 31.5215 30.2606 31.4725 30.4224 31.3745C30.5841 31.2765 30.7118 31.1421 30.8052 30.9712C30.8986 30.8003 30.9453 30.6055 30.9453 30.3867C30.9453 30.1657 30.8963 29.9674 30.7983 29.792C30.7026 29.6165 30.5705 29.4787 30.4019 29.3784C30.2332 29.2759 30.0407 29.2246 29.8242 29.2246C29.667 29.2246 29.5063 29.2497 29.3423 29.2998C29.1805 29.3477 29.0472 29.4092 28.9424 29.4844L28.3613 29.416L28.6689 26.9072H31.3145V27.4541H29.1885L29.0107 28.958H29.0381C29.1429 28.8737 29.2739 28.8053 29.4312 28.7529C29.5884 28.6982 29.7536 28.6709 29.9268 28.6709C30.2389 28.6709 30.5169 28.745 30.7607 28.8931C31.0046 29.0412 31.196 29.244 31.335 29.5015C31.4762 29.7567 31.5469 30.0495 31.5469 30.3799C31.5469 30.7035 31.474 30.9928 31.3281 31.248C31.1823 31.5033 30.9829 31.7038 30.73 31.8496C30.4771 31.9954 30.1888 32.0684 29.8652 32.0684ZM33.8916 26.9072H34.6299L36.3594 31.1318H36.4209L38.1504 26.9072H38.9126V32H38.3076V28.1309H38.2598L36.6567 32H36.103L34.5205 28.1309H34.4727V32H33.8916V26.9072ZM40.8643 32.0889C40.6227 32.0889 40.4028 32.0433 40.2046 31.9521C40.0063 31.8587 39.8491 31.7243 39.7329 31.5488C39.6167 31.3734 39.5586 31.1615 39.5586 30.9131C39.5586 30.6943 39.6019 30.5177 39.6885 30.3833C39.7751 30.2466 39.8901 30.1395 40.0337 30.062C40.1795 29.9823 40.339 29.923 40.5122 29.8843C40.6877 29.8455 40.8643 29.8148 41.042 29.792C41.2744 29.7624 41.4624 29.7396 41.606 29.7236C41.7518 29.7077 41.8577 29.6803 41.9238 29.6416C41.9922 29.6029 42.0264 29.5368 42.0264 29.4434V29.4229C42.0264 29.179 41.9591 28.9899 41.8247 28.8555C41.6925 28.7188 41.4909 28.6504 41.2197 28.6504C40.9417 28.6504 40.723 28.7119 40.5635 28.835C40.404 28.9557 40.2923 29.0856 40.2285 29.2246L39.668 29.0264C39.7682 28.7939 39.9015 28.6128 40.0679 28.4829C40.2365 28.353 40.4188 28.2619 40.6147 28.2095C40.813 28.1571 41.0078 28.1309 41.1992 28.1309C41.3223 28.1309 41.4635 28.1457 41.623 28.1753C41.7826 28.2026 41.9375 28.2619 42.0879 28.353C42.2406 28.4419 42.3659 28.5775 42.4639 28.7598C42.5641 28.9398 42.6143 29.1813 42.6143 29.4844V32H42.0264V31.4805H41.999C41.9603 31.5625 41.8942 31.6514 41.8008 31.7471C41.7074 31.8405 41.5832 31.9214 41.4282 31.9897C41.2756 32.0558 41.0876 32.0889 40.8643 32.0889ZM40.9531 31.5625C41.1855 31.5625 41.3815 31.5169 41.541 31.4258C41.7005 31.3346 41.8213 31.2173 41.9033 31.0737C41.9854 30.9279 42.0264 30.7764 42.0264 30.6191V30.0791C42.0013 30.1087 41.9466 30.1361 41.8623 30.1611C41.7803 30.1839 41.6846 30.2044 41.5752 30.2227C41.4681 30.2409 41.3633 30.2568 41.2607 30.2705C41.1582 30.2819 41.0762 30.291 41.0146 30.2979C40.862 30.3184 40.7196 30.3514 40.5874 30.397C40.4552 30.4403 40.3481 30.5052 40.2661 30.5918C40.1864 30.6784 40.1465 30.7969 40.1465 30.9473C40.1465 31.1501 40.2217 31.3039 40.3721 31.4087C40.5247 31.5112 40.7184 31.5625 40.9531 31.5625ZM43.3662 32V28.1787H43.9268V28.7598H43.9678C44.0384 28.5706 44.1649 28.418 44.3472 28.3018C44.5317 28.1833 44.738 28.124 44.9658 28.124C45.0091 28.124 45.0627 28.1252 45.1265 28.1274C45.1903 28.1274 45.2393 28.1286 45.2734 28.1309V28.7256C45.2529 28.721 45.2074 28.7142 45.1367 28.7051C45.0661 28.696 44.9909 28.6914 44.9111 28.6914C44.7266 28.6914 44.5614 28.7301 44.4155 28.8076C44.2697 28.8851 44.1546 28.991 44.0703 29.1255C43.9883 29.2599 43.9473 29.4137 43.9473 29.5869V32H43.3662ZM47.0713 32.082C46.7158 32.082 46.4082 31.9977 46.1484 31.8291C45.891 31.6582 45.6916 31.4246 45.5503 31.1284C45.4113 30.8322 45.3418 30.4938 45.3418 30.1133C45.3418 29.7236 45.4136 29.3807 45.5571 29.0845C45.7007 28.786 45.9012 28.5524 46.1587 28.3838C46.4185 28.2152 46.7204 28.1309 47.0645 28.1309C47.3333 28.1309 47.5749 28.181 47.7891 28.2812C48.0055 28.3792 48.1821 28.5182 48.3188 28.6982C48.4578 28.8783 48.5433 29.0879 48.5752 29.3271H47.9873C47.9577 29.2109 47.9041 29.1016 47.8267 28.999C47.7492 28.8965 47.6466 28.8145 47.519 28.7529C47.3937 28.6891 47.2445 28.6572 47.0713 28.6572C46.8434 28.6572 46.644 28.7165 46.4731 28.835C46.3022 28.9535 46.1689 29.1209 46.0732 29.3374C45.9775 29.5516 45.9297 29.8034 45.9297 30.0928C45.9297 30.3867 45.9764 30.6442 46.0698 30.8652C46.1632 31.084 46.2954 31.2537 46.4663 31.3745C46.6395 31.4953 46.8411 31.5557 47.0713 31.5557C47.3014 31.5557 47.4985 31.4964 47.6626 31.3779C47.8267 31.2572 47.9349 31.0931 47.9873 30.8857H48.5752C48.5433 31.1113 48.4613 31.3141 48.3291 31.4941C48.1992 31.6742 48.0272 31.8177 47.813 31.9248C47.6011 32.0296 47.3538 32.082 47.0713 32.082ZM49.71 29.7031V32H49.1289V26.9072H49.71V28.7803H49.7646C49.8535 28.582 49.9868 28.4248 50.1646 28.3086C50.3446 28.1901 50.585 28.1309 50.8857 28.1309C51.1455 28.1309 51.3734 28.1833 51.5693 28.2881C51.7653 28.3906 51.918 28.549 52.0273 28.7632C52.1367 28.9751 52.1914 29.2451 52.1914 29.5732V32H51.6035V29.6143C51.6035 29.3089 51.5249 29.0731 51.3677 28.9067C51.2104 28.7404 50.9928 28.6572 50.7148 28.6572C50.5212 28.6572 50.3491 28.6982 50.1987 28.7803C50.0483 28.8623 49.9287 28.9808 49.8398 29.1357C49.7533 29.2907 49.71 29.4798 49.71 29.7031ZM52.8408 33.21L53.1416 31.2891H53.8184L53.292 33.21H52.8408ZM56.3271 32V31.5557L58.0088 29.71C58.2048 29.4958 58.3654 29.3089 58.4907 29.1494C58.6183 28.9899 58.7129 28.8395 58.7744 28.6982C58.8382 28.557 58.8701 28.4089 58.8701 28.2539C58.8701 28.0739 58.8268 27.9189 58.7402 27.7891C58.6559 27.6569 58.5409 27.5555 58.395 27.4849C58.2492 27.4142 58.084 27.3789 57.8994 27.3789C57.7035 27.3789 57.5326 27.4188 57.3867 27.4985C57.2432 27.5783 57.1315 27.6911 57.0518 27.8369C56.9743 27.9805 56.9355 28.1491 56.9355 28.3428H56.3477C56.3477 28.0443 56.416 27.7822 56.5527 27.5566C56.6917 27.3311 56.8797 27.1556 57.1167 27.0303C57.356 26.9027 57.6237 26.8389 57.9199 26.8389C58.2184 26.8389 58.4827 26.9027 58.7129 27.0303C58.943 27.1556 59.123 27.3254 59.2529 27.5396C59.3851 27.7515 59.4512 27.9896 59.4512 28.2539C59.4512 28.4408 59.417 28.623 59.3486 28.8008C59.2826 28.9762 59.1663 29.1733 59 29.3921C58.8359 29.6108 58.6081 29.8763 58.3164 30.1885L57.1748 31.4121V31.4531H59.54V32H56.3271ZM61.8984 32.0684C61.5247 32.0684 61.2057 31.9658 60.9414 31.7607C60.6771 31.5557 60.4754 31.2594 60.3364 30.8721C60.1974 30.4824 60.1279 30.0107 60.1279 29.457C60.1279 28.9056 60.1974 28.4351 60.3364 28.0454C60.4777 27.6535 60.6805 27.355 60.9448 27.1499C61.2091 26.9425 61.527 26.8389 61.8984 26.8389C62.2699 26.8389 62.5877 26.9425 62.8521 27.1499C63.1164 27.355 63.318 27.6535 63.457 28.0454C63.5983 28.4351 63.6689 28.9056 63.6689 29.457C63.6689 30.0107 63.5994 30.4824 63.4604 30.8721C63.3215 31.2594 63.1198 31.5557 62.8555 31.7607C62.5934 31.9658 62.2744 32.0684 61.8984 32.0684ZM61.8984 31.5283C62.1514 31.5283 62.3656 31.4474 62.541 31.2856C62.7165 31.1216 62.8498 30.8846 62.9409 30.5747C63.0343 30.2648 63.0811 29.8923 63.0811 29.457C63.0811 29.0195 63.0343 28.6458 62.9409 28.3359C62.8498 28.026 62.7165 27.7891 62.541 27.625C62.3656 27.4609 62.1514 27.3789 61.8984 27.3789C61.5202 27.3789 61.2285 27.5612 61.0234 27.9258C60.8184 28.2904 60.7158 28.8008 60.7158 29.457C60.7158 29.8923 60.7614 30.2648 60.8525 30.5747C60.946 30.8846 61.0804 31.1216 61.2559 31.2856C61.4336 31.4474 61.6478 31.5283 61.8984 31.5283ZM64.2842 32V31.5557L65.9658 29.71C66.1618 29.4958 66.3224 29.3089 66.4478 29.1494C66.5754 28.9899 66.6699 28.8395 66.7314 28.6982C66.7952 28.557 66.8271 28.4089 66.8271 28.2539C66.8271 28.0739 66.7839 27.9189 66.6973 27.7891C66.613 27.6569 66.4979 27.5555 66.3521 27.4849C66.2062 27.4142 66.041 27.3789 65.8564 27.3789C65.6605 27.3789 65.4896 27.4188 65.3438 27.4985C65.2002 27.5783 65.0885 27.6911 65.0088 27.8369C64.9313 27.9805 64.8926 28.1491 64.8926 28.3428H64.3047C64.3047 28.0443 64.373 27.7822 64.5098 27.5566C64.6488 27.3311 64.8368 27.1556 65.0737 27.0303C65.313 26.9027 65.5807 26.8389 65.877 26.8389C66.1755 26.8389 66.4398 26.9027 66.6699 27.0303C66.9001 27.1556 67.0801 27.3254 67.21 27.5396C67.3421 27.7515 67.4082 27.9896 67.4082 28.2539C67.4082 28.4408 67.374 28.623 67.3057 28.8008C67.2396 28.9762 67.1234 29.1733 66.957 29.3921C66.793 29.6108 66.5651 29.8763 66.2734 30.1885L65.1318 31.4121V31.4531H67.4971V32H64.2842ZM69.8555 32.0684C69.6481 32.0684 69.4396 32.0308 69.23 31.9556C69.0203 31.8781 68.8289 31.7493 68.6558 31.5693C68.4849 31.387 68.347 31.1398 68.2422 30.8276C68.1374 30.5155 68.085 30.1247 68.085 29.6553C68.085 29.2041 68.1271 28.8042 68.2114 28.4556C68.298 28.1069 68.4211 27.813 68.5806 27.5737C68.7424 27.3322 68.9372 27.1499 69.165 27.0269C69.3929 26.9015 69.6504 26.8389 69.9375 26.8389C70.2223 26.8389 70.4753 26.8958 70.6963 27.0098C70.9196 27.1237 71.1019 27.2821 71.2432 27.4849C71.3844 27.6854 71.4756 27.9167 71.5166 28.1787H70.915C70.8581 27.9508 70.7476 27.7617 70.5835 27.6113C70.4217 27.4609 70.2064 27.3857 69.9375 27.3857C69.5433 27.3857 69.2323 27.5578 69.0044 27.9019C68.7788 28.2437 68.666 28.7256 68.666 29.3477H68.707C68.8005 29.2064 68.911 29.0856 69.0386 28.9854C69.1662 28.8828 69.3075 28.8053 69.4624 28.7529C69.6174 28.6982 69.7826 28.6709 69.958 28.6709C70.2497 28.6709 70.5163 28.7438 70.7578 28.8896C70.9993 29.0332 71.193 29.2326 71.3389 29.4878C71.4847 29.7407 71.5576 30.0312 71.5576 30.3594C71.5576 30.6738 71.487 30.9609 71.3457 31.2207C71.2067 31.4782 71.0096 31.6844 70.7544 31.8394C70.4992 31.992 70.1995 32.0684 69.8555 32.0684ZM69.8555 31.5215C70.0651 31.5215 70.2531 31.4702 70.4194 31.3677C70.5858 31.2629 70.7179 31.1227 70.8159 30.9473C70.9139 30.7695 70.9629 30.5736 70.9629 30.3594C70.9629 30.1475 70.915 29.9561 70.8193 29.7852C70.7259 29.612 70.5972 29.4741 70.4331 29.3716C70.2713 29.269 70.0856 29.2178 69.876 29.2178C69.6663 29.2178 69.4761 29.2713 69.3052 29.3784C69.1366 29.4855 69.0021 29.6268 68.9019 29.8022C68.8039 29.9754 68.7549 30.1634 68.7549 30.3662C68.7549 30.569 68.8027 30.7593 68.8984 30.937C68.9941 31.1125 69.124 31.2537 69.2881 31.3608C69.4544 31.4679 69.6436 31.5215 69.8555 31.5215Z" fill="#FCFCFC"/>
<path d="M25.8945 49.4492L30.2109 61.6953H30.3867L34.7031 49.4492H36.5391L31.207 64H29.3906L24.0391 49.4492H25.8945ZM37.6523 64V53.082H39.3125V64H37.6523ZM38.4922 51.2656C38.1667 51.2656 37.8867 51.1549 37.6523 50.9336C37.418 50.7122 37.3008 50.4453 37.3008 50.1328C37.3008 49.8203 37.418 49.5534 37.6523 49.332C37.8867 49.1107 38.1667 49 38.4922 49C38.8177 49 39.0977 49.1107 39.332 49.332C39.5664 49.5534 39.6836 49.8203 39.6836 50.1328C39.6836 50.4453 39.5664 50.7122 39.332 50.9336C39.0977 51.1549 38.8177 51.2656 38.4922 51.2656ZM49.1758 55.543L47.6719 55.9531C47.5286 55.582 47.2812 55.2305 46.9297 54.8984C46.5846 54.5599 46.0443 54.3906 45.3086 54.3906C44.6445 54.3906 44.0911 54.5469 43.6484 54.8594C43.2057 55.1654 42.9844 55.5495 42.9844 56.0117C42.9844 56.4284 43.1341 56.7604 43.4336 57.0078C43.7396 57.2552 44.2148 57.457 44.8594 57.6133L46.4805 58.0039C47.4505 58.2383 48.1732 58.5996 48.6484 59.0879C49.1302 59.5762 49.3711 60.1979 49.3711 60.9531C49.3711 61.5781 49.1921 62.138 48.834 62.6328C48.4759 63.1276 47.9779 63.5182 47.3398 63.8047C46.7018 64.0911 45.9596 64.2344 45.1133 64.2344C44 64.2344 43.0788 63.9902 42.3496 63.502C41.627 63.0137 41.168 62.3073 40.9727 61.3828L42.5547 60.9922C42.7044 61.5781 42.9909 62.0176 43.4141 62.3105C43.8438 62.6035 44.4036 62.75 45.0938 62.75C45.8685 62.75 46.487 62.584 46.9492 62.252C47.418 61.9134 47.6523 61.513 47.6523 61.0508C47.6523 60.2826 47.112 59.7682 46.0312 59.5078L44.2148 59.0781C43.2122 58.8372 42.4766 58.4694 42.0078 57.9746C41.5391 57.4798 41.3047 56.8581 41.3047 56.1094C41.3047 55.4909 41.4772 54.944 41.8223 54.4688C42.1738 53.9935 42.6523 53.6224 43.2578 53.3555C43.8633 53.082 44.5469 52.9453 45.3086 52.9453C46.3958 52.9453 47.2454 53.1862 47.8574 53.668C48.4759 54.1432 48.9154 54.7682 49.1758 55.543ZM50.9727 64V53.082H52.6328V64H50.9727ZM51.8125 51.2656C51.487 51.2656 51.207 51.1549 50.9727 50.9336C50.7383 50.7122 50.6211 50.4453 50.6211 50.1328C50.6211 49.8203 50.7383 49.5534 50.9727 49.332C51.207 49.1107 51.487 49 51.8125 49C52.138 49 52.418 49.1107 52.6523 49.332C52.8867 49.5534 53.0039 49.8203 53.0039 50.1328C53.0039 50.4453 52.8867 50.7122 52.6523 50.9336C52.418 51.1549 52.138 51.2656 51.8125 51.2656ZM59.5078 53.082V54.5078H53.8633V53.082H59.5078ZM55.5039 50.4844H57.1641V60.875C57.1641 61.4414 57.2812 61.8581 57.5156 62.125C57.75 62.3854 58.1211 62.5156 58.6289 62.5156C58.7396 62.5156 58.8535 62.5091 58.9707 62.4961C59.0944 62.4831 59.2279 62.4635 59.3711 62.4375L59.7227 63.9414C59.5664 64 59.3743 64.0456 59.1465 64.0781C58.9251 64.1172 58.7005 64.1367 58.4727 64.1367C57.5938 64.1367 56.8776 63.8763 56.3242 63.3555C55.7773 62.8346 55.5039 62.1576 55.5039 61.3242V50.4844ZM65.4062 64.2344C64.4232 64.2344 63.5605 64 62.8184 63.5312C62.0762 63.0625 61.4967 62.4049 61.0801 61.5586C60.6699 60.7122 60.4648 59.7292 60.4648 58.6094C60.4648 57.4701 60.6699 56.4772 61.0801 55.6309C61.4967 54.778 62.0762 54.1172 62.8184 53.6484C63.5605 53.1797 64.4232 52.9453 65.4062 52.9453C66.3958 52.9453 67.2617 53.1797 68.0039 53.6484C68.7461 54.1172 69.3255 54.778 69.7422 55.6309C70.1589 56.4772 70.3672 57.4701 70.3672 58.6094C70.3672 59.7292 70.1589 60.7122 69.7422 61.5586C69.3255 62.4049 68.7461 63.0625 68.0039 63.5312C67.2617 64 66.3958 64.2344 65.4062 64.2344ZM65.4062 62.7305C66.1615 62.7305 66.7799 62.5384 67.2617 62.1543C67.7435 61.7702 68.1016 61.2656 68.3359 60.6406C68.5703 60.0091 68.6875 59.332 68.6875 58.6094C68.6875 57.8737 68.5703 57.1901 68.3359 56.5586C68.1016 55.9271 67.7435 55.4193 67.2617 55.0352C66.7799 54.6445 66.1615 54.4492 65.4062 54.4492C64.6641 54.4492 64.0521 54.6445 63.5703 55.0352C63.0885 55.4193 62.7305 55.9271 62.4961 56.5586C62.2617 57.1901 62.1445 57.8737 62.1445 58.6094C62.1445 59.332 62.2617 60.0091 62.4961 60.6406C62.7305 61.2656 63.0885 61.7702 63.5703 62.1543C64.0521 62.5384 64.6641 62.7305 65.4062 62.7305ZM71.9883 64V53.082H73.5898V54.7422H73.707C73.9089 54.2018 74.2702 53.7656 74.791 53.4336C75.3184 53.0951 75.9076 52.9258 76.5586 52.9258C76.6823 52.9258 76.8353 52.929 77.0176 52.9355C77.1999 52.9355 77.3398 52.9388 77.4375 52.9453V54.6445C77.3789 54.6315 77.2487 54.612 77.0469 54.5859C76.8451 54.5599 76.6302 54.5469 76.4023 54.5469C75.875 54.5469 75.403 54.6576 74.9863 54.8789C74.5697 55.1003 74.2409 55.403 74 55.7871C73.7656 56.1712 73.6484 56.6107 73.6484 57.1055V64H71.9883ZM86.207 55.543L84.7031 55.9531C84.5599 55.582 84.3125 55.2305 83.9609 54.8984C83.6159 54.5599 83.0755 54.3906 82.3398 54.3906C81.6758 54.3906 81.1224 54.5469 80.6797 54.8594C80.237 55.1654 80.0156 55.5495 80.0156 56.0117C80.0156 56.4284 80.1654 56.7604 80.4648 57.0078C80.7708 57.2552 81.2461 57.457 81.8906 57.6133L83.5117 58.0039C84.4818 58.2383 85.2044 58.5996 85.6797 59.0879C86.1615 59.5762 86.4023 60.1979 86.4023 60.9531C86.4023 61.5781 86.2233 62.138 85.8652 62.6328C85.5072 63.1276 85.0091 63.5182 84.3711 63.8047C83.7331 64.0911 82.9909 64.2344 82.1445 64.2344C81.0312 64.2344 80.11 63.9902 79.3809 63.502C78.6582 63.0137 78.1992 62.3073 78.0039 61.3828L79.5859 60.9922C79.7357 61.5781 80.0221 62.0176 80.4453 62.3105C80.875 62.6035 81.4349 62.75 82.125 62.75C82.8997 62.75 83.5182 62.584 83.9805 62.252C84.4492 61.9134 84.6836 61.513 84.6836 61.0508C84.6836 60.2826 84.1432 59.7682 83.0625 59.5078L81.2461 59.0781C80.2435 58.8372 79.5078 58.4694 79.0391 57.9746C78.5703 57.4798 78.3359 56.8581 78.3359 56.1094C78.3359 55.4909 78.5085 54.944 78.8535 54.4688C79.2051 53.9935 79.6836 53.6224 80.2891 53.3555C80.8945 53.082 81.5781 52.9453 82.3398 52.9453C83.4271 52.9453 84.2767 53.1862 84.8887 53.668C85.5072 54.1432 85.9466 54.7682 86.207 55.543ZM95.8945 64.2539C95.2044 64.2539 94.5762 64.1237 94.0098 63.8633C93.4434 63.5964 92.9941 63.2122 92.6621 62.7109C92.3301 62.2096 92.1641 61.6042 92.1641 60.8945C92.1641 60.2695 92.2878 59.765 92.5352 59.3809C92.7826 58.9902 93.1113 58.6842 93.5215 58.4629C93.9382 58.235 94.3939 58.0658 94.8887 57.9551C95.39 57.8444 95.8945 57.7565 96.4023 57.6914C97.0664 57.6068 97.6035 57.5417 98.0137 57.4961C98.4303 57.4505 98.7331 57.3724 98.9219 57.2617C99.1172 57.151 99.2148 56.9622 99.2148 56.6953V56.6367C99.2148 55.9401 99.0228 55.3997 98.6387 55.0156C98.2611 54.625 97.6849 54.4297 96.9102 54.4297C96.1159 54.4297 95.4909 54.6055 95.0352 54.957C94.5794 55.3021 94.2604 55.6732 94.0781 56.0703L92.4766 55.5039C92.763 54.8398 93.1439 54.3223 93.6191 53.9512C94.1009 53.5801 94.6217 53.3197 95.1816 53.1699C95.748 53.0202 96.3047 52.9453 96.8516 52.9453C97.2031 52.9453 97.6068 52.9876 98.0625 53.0723C98.5182 53.1504 98.9609 53.3197 99.3906 53.5801C99.8268 53.834 100.185 54.2214 100.465 54.7422C100.751 55.2565 100.895 55.9466 100.895 56.8125V64H99.2148V62.5156H99.1367C99.026 62.75 98.8372 63.0039 98.5703 63.2773C98.3034 63.5443 97.9486 63.7754 97.5059 63.9707C97.0697 64.1595 96.5326 64.2539 95.8945 64.2539ZM96.1484 62.75C96.8125 62.75 97.3724 62.6198 97.8281 62.3594C98.2839 62.099 98.6289 61.7637 98.8633 61.3535C99.0977 60.9368 99.2148 60.5039 99.2148 60.0547V58.5117C99.1432 58.5964 98.987 58.6745 98.7461 58.7461C98.5117 58.8112 98.2383 58.8698 97.9258 58.9219C97.6198 58.974 97.3203 59.0195 97.0273 59.0586C96.7344 59.0911 96.5 59.1172 96.3242 59.1367C95.888 59.1953 95.4811 59.2897 95.1035 59.4199C94.7259 59.5436 94.4199 59.7292 94.1855 59.9766C93.9577 60.224 93.8438 60.5625 93.8438 60.9922C93.8438 61.5716 94.0586 62.0111 94.4883 62.3105C94.9245 62.6035 95.4779 62.75 96.1484 62.75ZM104.703 57.4375V64H103.043V53.082H104.645V54.8008H104.801C105.055 54.2409 105.442 53.7917 105.963 53.4531C106.484 53.1146 107.158 52.9453 107.984 52.9453C108.72 52.9453 109.365 53.0951 109.918 53.3945C110.471 53.694 110.901 54.1497 111.207 54.7617C111.52 55.3672 111.676 56.1354 111.676 57.0664V64H110.016V57.1836C110.016 56.3307 109.791 55.6634 109.342 55.1816C108.893 54.6934 108.281 54.4492 107.506 54.4492C106.972 54.4492 106.493 54.5664 106.07 54.8008C105.647 55.0352 105.312 55.3737 105.064 55.8164C104.824 56.2591 104.703 56.7995 104.703 57.4375ZM117.027 64.2539C116.337 64.2539 115.709 64.1237 115.143 63.8633C114.576 63.5964 114.127 63.2122 113.795 62.7109C113.463 62.2096 113.297 61.6042 113.297 60.8945C113.297 60.2695 113.421 59.765 113.668 59.3809C113.915 58.9902 114.244 58.6842 114.654 58.4629C115.071 58.235 115.527 58.0658 116.021 57.9551C116.523 57.8444 117.027 57.7565 117.535 57.6914C118.199 57.6068 118.736 57.5417 119.146 57.4961C119.563 57.4505 119.866 57.3724 120.055 57.2617C120.25 57.151 120.348 56.9622 120.348 56.6953V56.6367C120.348 55.9401 120.156 55.3997 119.771 55.0156C119.394 54.625 118.818 54.4297 118.043 54.4297C117.249 54.4297 116.624 54.6055 116.168 54.957C115.712 55.3021 115.393 55.6732 115.211 56.0703L113.609 55.5039C113.896 54.8398 114.277 54.3223 114.752 53.9512C115.234 53.5801 115.755 53.3197 116.314 53.1699C116.881 53.0202 117.438 52.9453 117.984 52.9453C118.336 52.9453 118.74 52.9876 119.195 53.0723C119.651 53.1504 120.094 53.3197 120.523 53.5801C120.96 53.834 121.318 54.2214 121.598 54.7422C121.884 55.2565 122.027 55.9466 122.027 56.8125V64H120.348V62.5156H120.27C120.159 62.75 119.97 63.0039 119.703 63.2773C119.436 63.5443 119.081 63.7754 118.639 63.9707C118.202 64.1595 117.665 64.2539 117.027 64.2539ZM117.281 62.75C117.945 62.75 118.505 62.6198 118.961 62.3594C119.417 62.099 119.762 61.7637 119.996 61.3535C120.23 60.9368 120.348 60.5039 120.348 60.0547V58.5117C120.276 58.5964 120.12 58.6745 119.879 58.7461C119.645 58.8112 119.371 58.8698 119.059 58.9219C118.753 58.974 118.453 59.0195 118.16 59.0586C117.867 59.0911 117.633 59.1172 117.457 59.1367C117.021 59.1953 116.614 59.2897 116.236 59.4199C115.859 59.5436 115.553 59.7292 115.318 59.9766C115.09 60.224 114.977 60.5625 114.977 60.9922C114.977 61.5716 115.191 62.0111 115.621 62.3105C116.057 62.6035 116.611 62.75 117.281 62.75ZM125.836 49.4492V64H124.176V49.4492H125.836ZM129.059 68.082C128.772 68.0885 128.518 68.069 128.297 68.0234C128.076 67.9779 127.919 67.9323 127.828 67.8867L128.258 66.4219L128.424 66.4609C128.984 66.5911 129.452 66.5618 129.83 66.373C130.214 66.1908 130.549 65.7057 130.836 64.918L131.148 64.0586L127.125 53.082H128.941L131.949 61.793H132.066L135.074 53.082H136.891L132.262 65.582C132.053 66.1484 131.796 66.6172 131.49 66.9883C131.184 67.3594 130.829 67.6328 130.426 67.8086C130.022 67.9909 129.566 68.082 129.059 68.082ZM142.906 53.082V54.5078H137.262V53.082H142.906ZM138.902 50.4844H140.562V60.875C140.562 61.4414 140.68 61.8581 140.914 62.125C141.148 62.3854 141.52 62.5156 142.027 62.5156C142.138 62.5156 142.252 62.5091 142.369 62.4961C142.493 62.4831 142.626 62.4635 142.77 62.4375L143.121 63.9414C142.965 64 142.773 64.0456 142.545 64.0781C142.324 64.1172 142.099 64.1367 141.871 64.1367C140.992 64.1367 140.276 63.8763 139.723 63.3555C139.176 62.8346 138.902 62.1576 138.902 61.3242V50.4844ZM144.508 64V53.082H146.168V64H144.508ZM145.348 51.2656C145.022 51.2656 144.742 51.1549 144.508 50.9336C144.273 50.7122 144.156 50.4453 144.156 50.1328C144.156 49.8203 144.273 49.5534 144.508 49.332C144.742 49.1107 145.022 49 145.348 49C145.673 49 145.953 49.1107 146.188 49.332C146.422 49.5534 146.539 49.8203 146.539 50.1328C146.539 50.4453 146.422 50.7122 146.188 50.9336C145.953 51.1549 145.673 51.2656 145.348 51.2656ZM152.73 64.2344C151.715 64.2344 150.836 63.9935 150.094 63.5117C149.358 63.0234 148.788 62.3561 148.385 61.5098C147.988 60.6634 147.789 59.6966 147.789 58.6094C147.789 57.4961 147.994 56.5163 148.404 55.6699C148.814 54.8171 149.387 54.1497 150.123 53.668C150.865 53.1862 151.728 52.9453 152.711 52.9453C153.479 52.9453 154.169 53.0885 154.781 53.375C155.4 53.6549 155.904 54.0521 156.295 54.5664C156.692 55.0807 156.936 55.6797 157.027 56.3633H155.348C155.263 56.0312 155.11 55.7188 154.889 55.4258C154.667 55.1328 154.374 54.8984 154.01 54.7227C153.652 54.5404 153.225 54.4492 152.73 54.4492C152.079 54.4492 151.51 54.6185 151.021 54.957C150.533 55.2956 150.152 55.7741 149.879 56.3926C149.605 57.0046 149.469 57.724 149.469 58.5508C149.469 59.3906 149.602 60.1263 149.869 60.7578C150.136 61.3828 150.514 61.8678 151.002 62.2129C151.497 62.5579 152.073 62.7305 152.73 62.7305C153.388 62.7305 153.951 62.5612 154.42 62.2227C154.889 61.8776 155.198 61.4089 155.348 60.8164H157.027C156.936 61.4609 156.702 62.0404 156.324 62.5547C155.953 63.069 155.462 63.4792 154.85 63.7852C154.244 64.0846 153.538 64.2344 152.73 64.2344ZM166.324 55.543L164.82 55.9531C164.677 55.582 164.43 55.2305 164.078 54.8984C163.733 54.5599 163.193 54.3906 162.457 54.3906C161.793 54.3906 161.24 54.5469 160.797 54.8594C160.354 55.1654 160.133 55.5495 160.133 56.0117C160.133 56.4284 160.283 56.7604 160.582 57.0078C160.888 57.2552 161.363 57.457 162.008 57.6133L163.629 58.0039C164.599 58.2383 165.322 58.5996 165.797 59.0879C166.279 59.5762 166.52 60.1979 166.52 60.9531C166.52 61.5781 166.34 62.138 165.982 62.6328C165.624 63.1276 165.126 63.5182 164.488 63.8047C163.85 64.0911 163.108 64.2344 162.262 64.2344C161.148 64.2344 160.227 63.9902 159.498 63.502C158.775 63.0137 158.316 62.3073 158.121 61.3828L159.703 60.9922C159.853 61.5781 160.139 62.0176 160.562 62.3105C160.992 62.6035 161.552 62.75 162.242 62.75C163.017 62.75 163.635 62.584 164.098 62.252C164.566 61.9134 164.801 61.513 164.801 61.0508C164.801 60.2826 164.26 59.7682 163.18 59.5078L161.363 59.0781C160.361 58.8372 159.625 58.4694 159.156 57.9746C158.688 57.4798 158.453 56.8581 158.453 56.1094C158.453 55.4909 158.626 54.944 158.971 54.4688C159.322 53.9935 159.801 53.6224 160.406 53.3555C161.012 53.082 161.695 52.9453 162.457 52.9453C163.544 52.9453 164.394 53.1862 165.006 53.668C165.624 54.1432 166.064 54.7682 166.324 55.543Z" fill="#FCFCFC"/>
<path fill-rule="evenodd" clip-rule="evenodd" d="M24 109.677H28V143.677H24V109.677Z" fill="url(#paint0_linear_1_6266)"/>
<path fill-rule="evenodd" clip-rule="evenodd" d="M42.9082 105H47.0072V143.677H42.9082V105Z" fill="url(#paint1_linear_1_6266)"/>
<path fill-rule="evenodd" clip-rule="evenodd" d="M61.915 122H66.014V143.677H61.915V122Z" fill="url(#paint2_linear_1_6266)"/>
<path fill-rule="evenodd" clip-rule="evenodd" d="M80.9229 93.6772H84.9229V143.677H80.9229V93.6772Z" fill="url(#paint3_linear_1_6266)"/>
<path fill-rule="evenodd" clip-rule="evenodd" d="M99.8311 112H103.93V143.677H99.8311V112Z" fill="url(#paint4_linear_1_6266)"/>
<path fill-rule="evenodd" clip-rule="evenodd" d="M118.838 98H122.937V143.677H118.838V98Z" fill="url(#paint5_linear_1_6266)"/>
<path fill-rule="evenodd" clip-rule="evenodd" d="M137.846 102H141.945V143.677H137.846V102Z" fill="url(#paint6_linear_1_6266)"/>
<path fill-rule="evenodd" clip-rule="evenodd" d="M156.853 112H160.952V143.677H156.853V112Z" fill="url(#paint7_linear_1_6266)"/>
<path fill-rule="evenodd" clip-rule="evenodd" d="M175.86 97.6772H179.86V143.677H175.86V97.6772Z" fill="url(#paint8_linear_1_6266)"/>
<path fill-rule="evenodd" clip-rule="evenodd" d="M194.769 102H198.868V143.677H194.769V102Z" fill="url(#paint9_linear_1_6266)"/>
<path fill-rule="evenodd" clip-rule="evenodd" d="M213.775 112H217.874V143.677H213.775V112Z" fill="url(#paint10_linear_1_6266)"/>
<path fill-rule="evenodd" clip-rule="evenodd" d="M232.782 121.677H236.782V143.677H232.782V121.677Z" fill="url(#paint11_linear_1_6266)"/>
<path fill-rule="evenodd" clip-rule="evenodd" d="M251.69 109.677H255.69V143.677H251.69V109.677Z" fill="url(#paint12_linear_1_6266)"/>
<path fill-rule="evenodd" clip-rule="evenodd" d="M270.6 99.6772H274.6V143.677H270.6V99.6772Z" fill="url(#paint13_linear_1_6266)"/>
<path fill-rule="evenodd" clip-rule="evenodd" d="M289.508 116.677H293.508V143.677H289.508V116.677Z" fill="url(#paint14_linear_1_6266)"/>
<path fill-rule="evenodd" clip-rule="evenodd" d="M308.416 104.677H312.416V143.677H308.416V104.677Z" fill="url(#paint15_linear_1_6266)"/>
<path fill-rule="evenodd" clip-rule="evenodd" d="M327.324 102H331.423V143.677H327.324V102Z" fill="url(#paint16_linear_1_6266)"/>
<path fill-rule="evenodd" clip-rule="evenodd" d="M346.331 112H350.43V143.677H346.331V112Z" fill="url(#paint17_linear_1_6266)"/>
<path fill-rule="evenodd" clip-rule="evenodd" d="M365.339 102H369.438V143.677H365.339V102Z" fill="url(#paint18_linear_1_6266)"/>
<path fill-rule="evenodd" clip-rule="evenodd" d="M384.346 109H388.445V143.677H384.346V109Z" fill="url(#paint19_linear_1_6266)"/>
<path fill-rule="evenodd" clip-rule="evenodd" d="M403.353 98.6772H407.353V143.677H403.353V98.6772Z" fill="url(#paint20_linear_1_6266)"/>
<path fill-rule="evenodd" clip-rule="evenodd" d="M422.261 127.677H426.261V143.677H422.261V127.677Z" fill="url(#paint21_linear_1_6266)"/>
<path fill-rule="evenodd" clip-rule="evenodd" d="M441.169 104.677H445.169V143.677H441.169V104.677Z" fill="url(#paint22_linear_1_6266)"/>
<path fill-rule="evenodd" clip-rule="evenodd" d="M460.078 116.677H464.078V143.677H460.078V116.677Z" fill="url(#paint23_linear_1_6266)"/>
<path fill-rule="evenodd" clip-rule="evenodd" d="M478.986 101.677H482.986V143.677H478.986V101.677Z" fill="url(#paint24_linear_1_6266)"/>
<path fill-rule="evenodd" clip-rule="evenodd" d="M497.895 103H501.994V143.677H497.895V103Z" fill="url(#paint25_linear_1_6266)"/>
<path fill-rule="evenodd" clip-rule="evenodd" d="M516.901 94H521V143.677H516.901V94Z" fill="url(#paint26_linear_1_6266)"/>
<defs>
<linearGradient id="paint0_linear_1_6266" x1="26" y1="109.677" x2="26" y2="143.677" gradientUnits="userSpaceOnUse">
<stop stop-color="white"/>
<stop offset="1" stop-color="white" stop-opacity="0"/>
</linearGradient>
<linearGradient id="paint1_linear_1_6266" x1="44.9577" y1="105" x2="44.9577" y2="143.677" gradientUnits="userSpaceOnUse">
<stop stop-color="#864FFE"/>
<stop offset="1" stop-color="white" stop-opacity="0"/>
</linearGradient>
<linearGradient id="paint2_linear_1_6266" x1="63.9645" y1="122" x2="63.9645" y2="143.677" gradientUnits="userSpaceOnUse">
<stop stop-color="white"/>
<stop offset="1" stop-color="white" stop-opacity="0"/>
</linearGradient>
<linearGradient id="paint3_linear_1_6266" x1="82.9228" y1="93.6772" x2="82.9228" y2="143.677" gradientUnits="userSpaceOnUse">
<stop stop-color="white"/>
<stop offset="1" stop-color="white" stop-opacity="0"/>
</linearGradient>
<linearGradient id="paint4_linear_1_6266" x1="101.881" y1="112" x2="101.881" y2="143.677" gradientUnits="userSpaceOnUse">
<stop stop-color="white"/>
<stop offset="1" stop-color="white" stop-opacity="0"/>
</linearGradient>
<linearGradient id="paint5_linear_1_6266" x1="120.887" y1="98" x2="120.887" y2="143.677" gradientUnits="userSpaceOnUse">
<stop stop-color="white"/>
<stop offset="1" stop-color="white" stop-opacity="0"/>
</linearGradient>
<linearGradient id="paint6_linear_1_6266" x1="139.895" y1="102" x2="139.895" y2="143.677" gradientUnits="userSpaceOnUse">
<stop stop-color="#864FFE"/>
<stop offset="1" stop-color="white" stop-opacity="0"/>
</linearGradient>
<linearGradient id="paint7_linear_1_6266" x1="158.902" y1="112" x2="158.902" y2="143.677" gradientUnits="userSpaceOnUse">
<stop stop-color="white"/>
<stop offset="1" stop-color="white" stop-opacity="0"/>
</linearGradient>
<linearGradient id="paint8_linear_1_6266" x1="177.86" y1="97.6772" x2="177.86" y2="143.677" gradientUnits="userSpaceOnUse">
<stop stop-color="white"/>
<stop offset="1" stop-color="white" stop-opacity="0"/>
</linearGradient>
<linearGradient id="paint9_linear_1_6266" x1="196.818" y1="102" x2="196.818" y2="143.677" gradientUnits="userSpaceOnUse">
<stop stop-color="#864FFE"/>
<stop offset="1" stop-color="white" stop-opacity="0"/>
</linearGradient>
<linearGradient id="paint10_linear_1_6266" x1="215.825" y1="112" x2="215.825" y2="143.677" gradientUnits="userSpaceOnUse">
<stop stop-color="white"/>
<stop offset="1" stop-color="white" stop-opacity="0"/>
</linearGradient>
<linearGradient id="paint11_linear_1_6266" x1="234.782" y1="121.677" x2="234.782" y2="143.677" gradientUnits="userSpaceOnUse">
<stop stop-color="white"/>
<stop offset="1" stop-color="white" stop-opacity="0"/>
</linearGradient>
<linearGradient id="paint12_linear_1_6266" x1="253.69" y1="109.677" x2="253.69" y2="143.677" gradientUnits="userSpaceOnUse">
<stop stop-color="#864FFE"/>
<stop offset="1" stop-color="white" stop-opacity="0"/>
</linearGradient>
<linearGradient id="paint13_linear_1_6266" x1="272.6" y1="99.6772" x2="272.6" y2="143.677" gradientUnits="userSpaceOnUse">
<stop stop-color="white"/>
<stop offset="1" stop-color="white" stop-opacity="0"/>
</linearGradient>
<linearGradient id="paint14_linear_1_6266" x1="291.508" y1="116.677" x2="291.508" y2="143.677" gradientUnits="userSpaceOnUse">
<stop stop-color="#864FFE"/>
<stop offset="1" stop-color="white" stop-opacity="0"/>
</linearGradient>
<linearGradient id="paint15_linear_1_6266" x1="310.416" y1="104.677" x2="310.416" y2="143.677" gradientUnits="userSpaceOnUse">
<stop stop-color="white"/>
<stop offset="1" stop-color="white" stop-opacity="0"/>
</linearGradient>
<linearGradient id="paint16_linear_1_6266" x1="329.374" y1="102" x2="329.374" y2="143.677" gradientUnits="userSpaceOnUse">
<stop stop-color="#864FFE"/>
<stop offset="1" stop-color="white" stop-opacity="0"/>
</linearGradient>
<linearGradient id="paint17_linear_1_6266" x1="348.381" y1="112" x2="348.381" y2="143.677" gradientUnits="userSpaceOnUse">
<stop stop-color="white"/>
<stop offset="1" stop-color="white" stop-opacity="0"/>
</linearGradient>
<linearGradient id="paint18_linear_1_6266" x1="367.388" y1="102" x2="367.388" y2="143.677" gradientUnits="userSpaceOnUse">
<stop stop-color="white"/>
<stop offset="1" stop-color="white" stop-opacity="0"/>
</linearGradient>
<linearGradient id="paint19_linear_1_6266" x1="386.395" y1="109" x2="386.395" y2="143.677" gradientUnits="userSpaceOnUse">
<stop stop-color="#864FFE"/>
<stop offset="1" stop-color="white" stop-opacity="0"/>
</linearGradient>
<linearGradient id="paint20_linear_1_6266" x1="405.353" y1="98.6772" x2="405.353" y2="143.677" gradientUnits="userSpaceOnUse">
<stop stop-color="white"/>
<stop offset="1" stop-color="white" stop-opacity="0"/>
</linearGradient>
<linearGradient id="paint21_linear_1_6266" x1="424.261" y1="127.677" x2="424.261" y2="143.677" gradientUnits="userSpaceOnUse">
<stop stop-color="white"/>
<stop offset="1" stop-color="white" stop-opacity="0"/>
</linearGradient>
<linearGradient id="paint22_linear_1_6266" x1="443.169" y1="104.677" x2="443.169" y2="143.677" gradientUnits="userSpaceOnUse">
<stop stop-color="#864FFE"/>
<stop offset="1" stop-color="white" stop-opacity="0"/>
</linearGradient>
<linearGradient id="paint23_linear_1_6266" x1="462.078" y1="116.677" x2="462.078" y2="143.677" gradientUnits="userSpaceOnUse">
<stop stop-color="white"/>
<stop offset="1" stop-color="white" stop-opacity="0"/>
</linearGradient>
<linearGradient id="paint24_linear_1_6266" x1="480.986" y1="101.677" x2="480.986" y2="143.677" gradientUnits="userSpaceOnUse">
<stop stop-color="white"/>
<stop offset="1" stop-color="white" stop-opacity="0"/>
</linearGradient>
<linearGradient id="paint25_linear_1_6266" x1="499.944" y1="103" x2="499.944" y2="143.677" gradientUnits="userSpaceOnUse">
<stop stop-color="#864FFE"/>
<stop offset="1" stop-color="white" stop-opacity="0"/>
</linearGradient>
<linearGradient id="paint26_linear_1_6266" x1="518.951" y1="94" x2="518.951" y2="143.677" gradientUnits="userSpaceOnUse">
<stop stop-color="white"/>
<stop offset="1" stop-color="white" stop-opacity="0"/>
</linearGradient>
</defs>
</svg>
