<?xml version="1.0" encoding="UTF-8"?>
<svg id="Layer_2" data-name="Layer 2" xmlns="http://www.w3.org/2000/svg" viewBox="0 0 27.05 27.05">
  <defs>
    <style>
      .cls-1 {
        fill: url(#logo-icon-gradient);
        stroke-width: 0px;
      }

      .cls-2 {
        fill: #fff;
        stroke-width: 0px;
      }
    </style>
    <linearGradient id="logo-icon-gradient" x1="26.89" y1="14.06" x2="-.46" y2="17.06" gradientTransform="translate(0 29.05) scale(1 -1)" gradientUnits="userSpaceOnUse">
      <stop offset=".23" stop-color="#217bfe"/>
      <stop offset=".38" stop-color="#078efb"/>
      <stop offset=".7" stop-color="#ac87eb"/>
      <stop offset="1" stop-color="#ee4d5d"/>
    </linearGradient>
  </defs>
  <g id="Layer_1-2" data-name="Layer 1">
    <path class="cls-1" d="M13.53,0h0C6.06,0,0,6.06,0,13.52h0c0,7.47,6.06,13.53,13.52,13.53h0c7.47,0,13.52-6.06,13.52-13.52h0C27.05,6.06,20.99,0,13.53,0Z"/>
    <path class="cls-2" d="M11.09,18.26l.34-.07c.09-.02.18-.07.24-.14s.09-.17.09-.27-.03-.19-.09-.26-.15-.13-.24-.14l-.34-.07c-.42-.08-.8-.29-1.1-.59s-.51-.68-.59-1.1l-.07-.34c-.02-.09-.07-.18-.14-.24-.07-.06-.17-.09-.27-.09s-.19.03-.26.09c-.07.06-.13.15-.14.24l-.07.34c-.08.42-.29.8-.59,1.1-.3.3-.68.51-1.1.59l-.34.07c-.09.02-.18.07-.24.14-.06.07-.09.17-.09.26s.03.19.09.27c.06.07.15.13.24.14l.34.07c.42.08.8.29,1.1.59.3.3.51.68.59,1.1l.07.34c.02.09.07.18.14.24s.17.09.26.09.19-.03.27-.09.13-.15.14-.24l.07-.34c.08-.42.29-.8.59-1.1s.68-.51,1.1-.59Z"/>
    <path class="cls-2" d="M19.29,12.13l1.24-.25c.12-.03.24-.09.32-.19.08-.1.12-.22.12-.35s-.04-.25-.12-.35c-.08-.1-.19-.17-.32-.19l-1.24-.25c-.6-.12-1.15-.42-1.58-.85s-.73-.98-.85-1.58l-.25-1.24c-.02-.12-.09-.24-.19-.32-.1-.08-.22-.12-.35-.12s-.25.04-.35.12c-.1.08-.17.19-.19.32l-.25,1.24c-.12.6-.42,1.15-.85,1.58s-.98.73-1.58.85l-1.24.25c-.12.03-.24.09-.32.19-.08.1-.12.22-.12.35s.04.25.12.35c.08.1.19.17.32.19l1.24.25c.6.12,1.15.42,1.58.85.43.43.73.98.85,1.58l.25,1.24c.02.12.09.24.19.32.1.08.22.12.35.12s.25-.04.35-.12c.1-.08.17-.19.19-.32l.25-1.24c.12-.6.42-1.15.85-1.58.43-.43.98-.73,1.58-.85Z"/>
  </g>
</svg>
