<?xml version="1.0" encoding="UTF-8"?>
<svg id="Layer_2" data-name="Layer 2" xmlns="http://www.w3.org/2000/svg" viewBox="0 0 141.23 28.05">
  <defs>
    <style>
      .cls-1 {
        fill: none;
        stroke: #000;
        stroke-miterlimit: 10;
      }

      .cls-2 {
        stroke-width: 0px;
      }
    </style>
  </defs>
  <g id="Layer_1-2" data-name="Layer 1">
    <g>
      <g>
        <g>
          <path class="cls-2" d="M47.7,6.33v15.33l-2.74-2.11-9.85-7.59v9.7h-2.74V6.39l2.74,2.11,9.85,7.59V6.33h2.74Z"/>
          <path class="cls-2" d="M52.62,10.47v1.42h9.86v2.73h-9.86v2.89c0,.77.63,1.41,1.4,1.41h11.19v2.73h-11.19c-2.29,0-4.13-1.86-4.13-4.14v-7.05c0-2.29,1.85-4.14,4.13-4.14h11.19v2.73h-11.19c-.77,0-1.4.64-1.4,1.41Z"/>
          <path class="cls-2" d="M82.18,6.34l-5.94,7.68,5.91,7.65h-3.45l-4.18-5.42-4.18,5.42h-3.45l5.9-7.65-5.94-7.69h3.45l4.22,5.46,4.21-5.46h3.44ZM66.85,21.67h.04l-.04.05v-.05ZM82.18,21.71l-.03-.04h.03v.04Z"/>
          <path class="cls-2" d="M99.16,6.33v7.67c0,4.23-3.43,7.67-7.67,7.67s-7.67-3.43-7.67-7.67v-7.67h2.73v7.67c0,2.72,2.21,4.93,4.93,4.93s4.93-2.21,4.93-4.93v-7.67h2.73Z"/>
          <path class="cls-2" d="M113.11,10.56v-.08c0-.77-.64-1.4-1.41-1.4h-6.22c-.77,0-1.4.63-1.4,1.4v.08c0,.77.63,1.4,1.4,1.4h5.51c1.42,0,2.7.61,3.58,1.58.07.06.13.14.18.21.68.84,1.09,1.9,1.09,3.06,0,2.68-2.18,4.84-4.85,4.84h-4.8c-2.68,0-4.84-2.17-4.84-4.84h2.73c0,1.17.95,2.11,2.11,2.11h4.8c1.17,0,2.12-.95,2.12-2.11s-.96-2.11-2.12-2.11h-5.51c-1.12,0-2.12-.44-2.86-1.16-.2-.19-.38-.4-.54-.64-.46-.66-.74-1.47-.74-2.35v-.08c0-2.29,1.85-4.14,4.13-4.14h6.22c2.29,0,4.14,1.86,4.14,4.14v.08h-2.73Z"/>
        </g>
        <g>
          <path class="cls-2" d="M137.17,21.69h-3.07l-1.4-2.74-3.34-6.56-3.34,6.56-1.4,2.74h-3.07l1.39-2.74,6.42-12.59,6.42,12.59,1.39,2.74Z"/>
          <path class="cls-2" d="M138.49,21.69V6.36h2.73v15.32h-2.73Z"/>
        </g>
      </g>
      <g>
        <path class="cls-1" d="M14.03.5h0C6.56.5.5,6.56.5,14.02h0c0,7.47,6.06,13.53,13.52,13.53h0c7.47,0,13.52-6.06,13.52-13.52h0C27.55,6.56,21.49.5,14.03.5h0Z"/>
        <g>
          <path class="cls-1" d="M11.59,18.76l.34-.07c.09-.02.18-.07.24-.14.06-.07.09-.17.09-.27s-.03-.19-.09-.27c-.06-.07-.15-.13-.24-.14l-.34-.07c-.42-.08-.8-.29-1.1-.59-.3-.3-.51-.68-.59-1.1l-.07-.34c-.02-.09-.07-.18-.14-.24s-.17-.09-.27-.09-.19.03-.27.09c-.07.06-.13.15-.14.24l-.07.34c-.08.42-.29.8-.59,1.1-.3.3-.68.51-1.1.59l-.34.07c-.09.02-.18.07-.24.14-.06.07-.09.17-.09.27s.03.19.09.27c.06.07.15.13.24.14l.34.07c.42.08.8.29,1.1.59.3.3.51.68.59,1.1l.07.34c.02.09.07.18.14.24s.17.09.27.09.19-.03.27-.09.13-.15.14-.24l.07-.34c.08-.42.29-.8.59-1.1s.68-.51,1.1-.59Z"/>
          <path class="cls-1" d="M19.79,12.63l1.24-.25c.12-.03.24-.09.32-.19.08-.1.12-.22.12-.35s-.04-.25-.12-.35c-.08-.1-.19-.17-.32-.19l-1.24-.25c-.6-.12-1.15-.42-1.58-.85s-.73-.98-.85-1.58l-.25-1.24c-.02-.12-.09-.24-.19-.32-.1-.08-.22-.12-.35-.12s-.25.04-.35.12c-.1.08-.17.19-.19.32l-.25,1.24c-.12.6-.42,1.15-.85,1.58s-.98.73-1.58.85l-1.24.25c-.12.03-.24.09-.32.19-.08.1-.12.22-.12.35s.04.25.12.35c.08.1.19.17.32.19l1.24.25c.6.12,1.15.42,1.58.85.43.43.73.98.85,1.58l.25,1.24c.02.12.09.24.19.32.1.08.22.12.35.12s.25-.04.35-.12c.1-.08.17-.19.19-.32l.25-1.24c.12-.6.42-1.15.85-1.58.43-.43.98-.73,1.58-.85h0Z"/>
        </g>
      </g>
    </g>
  </g>
</svg>