<?xml version="1.0" encoding="UTF-8"?>
<svg id="Layer_2" data-name="Layer 2" xmlns="http://www.w3.org/2000/svg" viewBox="0 0 185.72 23.25">
  <defs>
    <style>
      .cls-1 {
        stroke-width: 0px;
      }
    </style>
  </defs>
  <g id="Layer_1-2" data-name="Layer 1">
    <g>
      <path class="cls-1" d="M22.39.36l-9.72,22.65h-2.93L0,.36h3.94l7.22,16.97L18.47.36h3.92Z"/>
      <path class="cls-1" d="M43.01,19.38v3.51h-15.81V.36h15.37v3.51h-11.77v5.53h7.45v3.51h-7.45v6.46h12.21Z"/>
      <path class="cls-1" d="M48.66.36h9.8c2.46,0,4.26.52,5.41,1.56,1.15,1.04,1.73,2.67,1.73,4.9,0,1.42-.42,2.68-1.25,3.77-.83,1.09-1.96,1.87-3.39,2.33l7.6,9.97h-4.38l-7.16-9.46h-4.76v9.46h-3.6V.36ZM58.35,9.91c2.44,0,3.65-1,3.65-3,0-.88-.08-1.5-.23-1.86-.16-.36-.45-.64-.9-.84h.03c-.6-.22-1.45-.33-2.55-.33h-6.09v6.04h6.09Z"/>
      <path class="cls-1" d="M72.91,0h9.51c1.99,0,3.58.53,4.77,1.59,1.19,1.06,1.78,2.48,1.78,4.27,0,.82-.14,1.57-.42,2.25-.28.68-.67,1.25-1.17,1.71,1.06.5,1.88,1.26,2.46,2.27.58,1.01.87,2.2.87,3.56s-.33,2.51-.99,3.64c-.66,1.12-1.56,2-2.7,2.64s-2.38.96-3.71.96h-10.41V0ZM82.07,8.92c1.24,0,2.15-.22,2.74-.66.59-.44.88-1.11.88-2.01,0-1-.31-1.76-.93-2.27-.62-.51-1.52-.77-2.7-.77h-5.86v5.71h5.86ZM82.94,19.38c.73,0,1.41-.17,2.02-.51.61-.34,1.11-.83,1.49-1.47v.03c.35-.66.52-1.34.52-2.04,0-1.08-.34-1.9-1.03-2.46-.69-.56-1.69-.84-3-.84h-6.44v7.3h6.44Z"/>
      <path class="cls-1" d="M112.72,1.43c1.66.95,2.94,2.31,3.83,4.07.89,1.76,1.33,3.81,1.33,6.13s-.45,4.37-1.33,6.14c-.89,1.77-2.16,3.13-3.8,4.07-1.66.94-3.6,1.41-5.8,1.41s-4.13-.47-5.79-1.41c-1.65-.94-2.92-2.29-3.81-4.06-.89-1.76-1.33-3.81-1.33-6.16s.45-4.4,1.33-6.16c.89-1.76,2.17-3.11,3.83-4.06,1.66-.94,3.59-1.41,5.77-1.41s4.11.48,5.77,1.43ZM112.33,17.56c1.29-1.41,1.93-3.39,1.93-5.93s-.64-4.52-1.93-5.93-3.08-2.12-5.38-2.12-4.09.71-5.38,2.12c-1.29,1.41-1.93,3.39-1.93,5.93s.64,4.52,1.93,5.93c1.29,1.41,3.08,2.12,5.38,2.12s4.09-.71,5.38-2.12Z"/>
      <path class="cls-1" d="M127.08,6.52c0,4.48,12.42,2.16,12.42,9.79,0,3.7-3.28,6.13-7.98,6.13-5.13,0-8.53-2.25-8.53-7.24h3.97c0,2.43,1.65,3.94,4.47,3.94,2.44,0,4.15-1.11,4.15-2.82,0-4.96-12.3-2.19-12.3-9.85l3.8.06ZM131.08.81c5.19,0,8.41,2.49,8.41,7.21h-3.92c0-2.4-1.83-3.94-4.47-3.94l-.03-3.27Z"/>
      <path class="cls-1" d="M145,5.05V1.11h15.03v3.94h-15.03ZM145,13.49v-3.72h15.03v3.72h-15.03ZM145,18.17h15.03v3.97h-15.03v-3.97Z"/>
      <path class="cls-1" d="M165.71,11.62c0-5.98,3.83-10.82,10.01-10.82,5.51,0,9.43,2.91,10.01,8.08h-3.92c-.58-2.49-2.38-4.51-5.83-4.51-3.63,0-6.44,2.79-6.44,6.94s2.52,7.57,6.5,7.57c2.99,0,5.05-1.71,5.71-4.33h3.97c-.67,4.36-3.8,7.87-9.57,7.87-6.93,0-10.44-4.87-10.44-10.82Z"/>
    </g>
  </g>
</svg>