<svg width="81" height="28" viewBox="0 0 81 28" fill="none" xmlns="http://www.w3.org/2000/svg">
<g clip-path="url(#clip0_879_26954)">
<path d="M27.2845 9.39221H18.2467V0.176571H9.20966V9.39221H0.171875V18.6078H9.20966V27.8242H18.2467V18.6078H27.2845V9.39221Z" fill="#565656"/>
<path d="M39.5282 14.9828H38.6348V13.4152H39.5191C39.8297 13.4152 40.5565 13.4198 40.5565 14.1971C40.5565 14.9903 39.8097 14.9828 39.5282 14.9828ZM41.1011 15.9469L41.2104 15.9023C41.49 15.788 41.7304 15.6915 41.9608 15.4398C42.2695 15.1203 42.4253 14.6736 42.4253 14.1656C42.4253 13.5155 42.1493 12.6629 41.3734 12.3267C40.9654 12.1512 40.3415 12.1298 39.8415 12.1298H36.7578V18.5742H38.6348V16.2422H39.3233L40.5865 18.5742H42.6557C42.55 18.3959 41.1384 16.01 41.1384 16.01L41.1011 15.9469Z" fill="#565656"/>
<path d="M50.6556 14.9953C50.8969 14.9953 51.2275 15.1504 51.3577 15.5859C51.4197 15.7754 51.4324 15.9667 51.4324 16.198C51.4324 16.4441 51.4324 16.8992 51.1729 17.1731C51.0299 17.318 50.8441 17.4016 50.6638 17.4016C50.468 17.4016 50.2813 17.3208 50.1538 17.1806C49.968 16.9772 49.8778 16.6586 49.8778 16.2073C49.8778 15.9927 49.8951 15.8107 49.9325 15.637V15.6342C50.0946 15.0417 50.5272 14.9953 50.6556 14.9953ZM48.1875 16.107C48.1875 17.6421 48.9798 18.6953 50.2075 18.6953C50.4634 18.6953 50.6847 18.6582 50.8833 18.5811C51.1337 18.4836 51.2184 18.386 51.3332 18.2523L51.4424 18.1251V18.5774H53.1054V12.1413H51.3887V14.1204V14.2625L51.2658 14.1511C51.08 13.9783 50.7986 13.7183 50.1456 13.7183C49.1711 13.7183 48.1875 14.5003 48.1875 16.107Z" fill="#565656"/>
<path d="M44.4919 15.5097C44.5357 15.3054 44.6495 14.7965 45.2497 14.7965C45.5229 14.7965 45.838 14.9599 45.9272 15.3277L45.9473 15.4493L45.9609 15.5924H44.4746L44.4919 15.5097ZM46.2068 16.8526C46.0092 17.2901 45.7014 17.5028 45.3116 17.5028C45.1449 17.5028 44.9063 17.4619 44.7132 17.265C44.4919 17.0393 44.481 16.8034 44.4728 16.5917L44.4692 16.5192H47.7059C47.6895 15.8134 47.6622 15.0584 47.021 14.412C46.4482 13.8464 45.7169 13.6643 45.205 13.6643C43.7178 13.6643 42.7188 14.7212 42.7188 16.1988C42.7188 16.8694 42.9382 17.4842 43.3371 17.9346C43.7861 18.4389 44.4336 18.7695 45.2132 18.7695C46.2569 18.7695 47.0657 18.2578 47.6112 17.4498C47.4855 17.3959 46.2979 16.8926 46.2068 16.8526Z" fill="#565656"/>
<path d="M39.4216 7.68305L40.1757 5.19593L40.9107 7.68305H39.4216ZM41.5974 10.0234H43.6083C43.5463 9.85812 41.2814 3.66168 41.2522 3.58088H39.1156C39.0865 3.66075 36.766 9.85627 36.7031 10.0234H38.7122L39.0118 9.05942H41.3023L41.5974 10.0234Z" fill="#565656"/>
<path d="M47.1849 7.18805C47.2031 7.2837 47.2122 7.38029 47.2122 7.47316V10.0234H48.9289V7.50102C48.9289 7.40072 48.9289 7.19362 49.0255 7.00973C49.1421 6.78591 49.326 6.67167 49.6384 6.67167C50.3442 6.67167 50.3196 7.26234 50.3196 7.54653V10.0234H52.0354C52.0354 9.90177 52.0363 6.97351 52.0363 6.97351L52.0354 6.9698C52.0272 6.53422 52.0172 6.04107 51.6156 5.63986C51.3333 5.35103 50.8797 5.18572 50.3724 5.18572C49.2714 5.18572 48.9645 5.78103 48.8779 5.97978L48.826 6.10237L48.7668 5.98349C48.6466 5.74852 48.4845 5.47827 47.8998 5.29252C47.6257 5.20429 47.3762 5.18572 47.2131 5.18572C46.2587 5.18572 46.0164 5.64822 45.8707 5.88969L45.746 6.09587V5.30367H44.1094V10.0234H45.827V7.45273L45.8288 7.42208C45.837 7.26141 45.848 7.06174 46.0237 6.88157C46.154 6.74783 46.3161 6.67167 46.5319 6.67167C46.8042 6.67167 47.1002 6.80634 47.1849 7.18805Z" fill="#565656"/>
<path d="M54.4997 6.94721C54.5426 6.74289 54.6573 6.2321 55.2575 6.2321C55.5307 6.2321 55.8458 6.39648 55.9332 6.76425L55.9551 6.88777L55.9688 7.02987H54.4815L54.4997 6.94721ZM56.2137 8.29107C56.0161 8.7285 55.7083 8.93932 55.3185 8.93932C55.1518 8.93932 54.9132 8.89939 54.7211 8.7025C54.4997 8.47775 54.4879 8.24 54.4788 8.02825L54.4761 7.95673H57.7137C57.6955 7.24998 57.6682 6.49492 57.0279 5.84946C56.4551 5.28387 55.7247 5.10184 55.2119 5.10184C53.7247 5.10184 52.7266 6.15873 52.7266 7.63632C52.7266 8.30593 52.9451 8.92168 53.3449 9.37211C53.793 9.87641 54.4424 10.207 55.2201 10.207C56.2638 10.207 57.0716 9.6953 57.619 8.88639C57.4942 8.83438 56.3048 8.33008 56.2137 8.29107Z" fill="#565656"/>
<path d="M60.0207 5.26744H58.375V10.0234H60.0826V7.79172V7.78893C60.0917 7.48988 60.1136 6.69954 61.2538 6.69954C61.3585 6.69954 61.527 6.70511 61.6299 6.71161V5.195C60.9888 5.19686 60.6026 5.31667 60.1245 5.75224L60.0207 5.84604V5.26744Z" fill="#565656"/>
<path d="M62.25 5.29235H64.097V10.0279H62.25V5.29235ZM62.25 3.57422H64.097V4.82614H62.25V3.57422Z" fill="#565656"/>
<path d="M69.0476 9.41166C69.2525 9.2027 69.3855 8.97145 69.4938 8.73927C69.4028 8.68819 68.2798 8.06037 68.1669 7.99722C68.0722 8.30741 67.8472 8.82285 67.2917 8.82285C66.901 8.82285 66.4347 8.6241 66.4347 7.67402C66.4347 6.84838 66.7799 6.3348 67.3363 6.3348C67.7352 6.3348 68.0185 6.57998 68.1642 7.08707C68.2807 7.0202 69.3937 6.37938 69.4911 6.3218C69.4019 6.1732 69.2844 6.00882 69.1259 5.84815C68.431 5.12839 67.5358 5.07731 67.2471 5.07731C66.4566 5.07731 65.8099 5.36057 65.3783 5.82029C64.9693 6.2475 64.7344 6.91711 64.7344 7.62015C64.7344 9.14883 65.6788 10.1992 67.1396 10.1992C68.1715 10.1992 68.7853 9.68749 69.0476 9.41166Z" fill="#565656"/>
<path d="M71.9903 8.13475H71.9921L71.9931 8.13382C72.1388 8.08274 72.2827 8.0493 72.422 8.01587L72.4703 8.00472C72.6497 7.95272 72.8236 7.89049 72.9921 7.83105L73.095 7.7939V7.88306C73.095 8.04837 73.095 8.21462 73.0003 8.42636C72.8245 8.82293 72.3637 8.97617 72.0941 8.97617C71.7153 8.97617 71.575 8.76442 71.575 8.59911C71.575 8.52667 71.6051 8.2917 71.9903 8.13475ZM71.6024 10.125C72.4393 10.125 72.8601 9.82781 73.0859 9.66807L73.1934 9.59284V10.0228H74.8309C74.7435 9.87517 74.7225 9.75723 74.7225 9.49625V6.86147C74.7225 6.58656 74.7225 6.1705 74.4602 5.82687C74.1442 5.41266 73.5131 5.14054 72.585 5.14054C71.8847 5.14054 71.3501 5.28078 70.9521 5.4916C70.3492 5.81479 70.2171 6.30052 70.1507 6.71101C70.2873 6.7073 71.6625 6.67015 71.7508 6.66829C71.8246 6.29216 72.0022 6.16864 72.4156 6.16864C72.973 6.16864 73.0932 6.40825 73.1032 6.76859L73.1051 6.81874L73.0586 6.83175C72.7772 6.9144 72.5777 6.96084 72.0659 7.03328C71.2918 7.13823 70.7809 7.20602 70.3674 7.63509C70.1188 7.88956 69.9922 8.21462 69.9922 8.60189C69.9922 9.30772 70.4166 10.125 71.6024 10.125Z" fill="#565656"/>
<path d="M78.7474 7.43601V10.0234H80.465V7.03481C80.465 6.78126 80.465 6.04014 80.0188 5.59528C79.7328 5.32038 79.3403 5.17457 78.8357 5.17457C77.8658 5.17457 77.5707 5.65472 77.4114 5.88505L77.2902 6.05965V5.29438H75.6719V10.0234H77.3886V7.50102C77.3886 7.29299 77.3977 6.66146 78.0835 6.66146C78.7729 6.66146 78.7474 7.22519 78.7474 7.43601Z" fill="#565656"/>
<path d="M57.7425 16.5986C57.5421 16.2689 57.4356 15.8119 57.4356 15.277C57.4356 15.0272 57.4356 14.2656 57.9283 13.7817C58.0622 13.6461 58.3554 13.4168 58.8208 13.4168C59.6732 13.4168 60.0239 14.143 60.1823 14.5201C60.2889 14.4653 61.6577 13.7697 61.7615 13.7167C61.6395 13.4892 61.4692 13.192 61.2251 12.9366C60.5985 12.2781 59.7151 11.9029 58.7407 11.9029C57.7671 11.9029 56.9411 12.2874 56.3518 12.9895C55.8309 13.6109 55.5312 14.5201 55.5312 15.3949C55.5312 16.2614 55.8072 17.1186 56.3072 17.714C56.8837 18.4021 57.7261 18.7773 58.7407 18.7773C59.6951 18.7773 60.5503 18.4346 61.1468 17.8347C61.4264 17.5505 61.624 17.1827 61.7716 16.8995C61.6677 16.8484 60.278 16.1621 60.1678 16.1082C59.8636 16.9589 59.2652 17.2004 58.8308 17.2004C58.3518 17.2004 57.9847 16.9979 57.7425 16.5986Z" fill="#565656"/>
<path d="M68.4496 17.5096C67.6491 17.5096 67.5279 16.6868 67.5279 16.1964C67.5279 15.7255 67.6472 14.9324 68.4377 14.912C68.6864 14.9036 68.8886 14.9761 69.0416 15.1265C69.2528 15.3355 69.3603 15.6893 69.3603 16.1778C69.3603 17.2784 68.8649 17.5096 68.4496 17.5096ZM70.3903 14.3315C70.1873 14.1356 69.5953 13.6638 68.4933 13.6535C67.6618 13.6489 66.9706 13.9136 66.4961 14.3956C66.0535 14.8432 65.8203 15.5175 65.8203 16.2512C65.8203 16.9115 66.0343 17.5616 66.4223 17.987C66.8722 18.4829 67.5543 18.7578 68.3958 18.7578C69.2237 18.7578 69.914 18.5061 70.3903 18.0538C70.8512 17.6155 71.0943 16.9496 71.0943 16.2233C71.0943 15.5138 70.8257 14.7569 70.3903 14.3315Z" fill="#565656"/>
<path d="M75.2785 15.81C75.0599 15.6949 74.866 15.6494 74.0509 15.4599L74.0144 15.4506C73.4052 15.2974 73.2603 15.2649 73.2603 15.0689C73.2603 14.9519 73.3195 14.7587 73.7175 14.7587C74.2057 14.7587 74.6419 15.029 74.9516 15.2259C75.0135 15.1692 75.7794 14.456 75.8741 14.3696C75.6519 14.1978 75.304 13.9285 74.7202 13.7864C74.3605 13.7018 74.0226 13.66 73.6893 13.66C72.9944 13.66 72.4589 13.8542 72.0964 14.2052C71.8132 14.4857 71.6502 14.912 71.6502 15.2853C71.6502 16.2447 72.4525 16.5084 72.8851 16.6366C73.2995 16.762 73.6793 16.8261 73.8414 16.853C74.0217 16.8799 74.3596 16.9245 74.3596 17.2013C74.3596 17.4455 74.0855 17.556 73.815 17.556C73.5664 17.556 73.3186 17.504 73.0573 17.3963C72.7194 17.2496 72.4999 17.0629 72.3387 16.9013C72.2631 16.9728 71.4817 17.7056 71.3906 17.7901C71.7722 18.1068 72.5409 18.7578 73.8323 18.7578C75.3086 18.7578 75.9698 17.9052 75.9698 17.01C75.9698 16.4973 75.7239 16.0543 75.2785 15.81Z" fill="#565656"/>
<path d="M80.1379 15.81C79.9202 15.6949 79.7262 15.6494 78.9093 15.4599L78.8738 15.4506C78.2654 15.2974 78.1197 15.2649 78.1197 15.0689C78.1197 14.9519 78.1798 14.7587 78.5769 14.7587C79.0651 14.7587 79.5013 15.029 79.8119 15.2259C79.8729 15.1692 80.6388 14.456 80.7344 14.3696C80.5113 14.1978 80.1634 13.9285 79.5805 13.7864C79.2199 13.7018 78.8829 13.66 78.5487 13.66C77.8538 13.66 77.3183 13.8542 76.9558 14.2052C76.6726 14.4857 76.5105 14.912 76.5105 15.2853C76.5105 16.2447 77.3137 16.5084 77.7436 16.6366C78.1589 16.762 78.5387 16.8261 78.7008 16.853C78.882 16.8799 79.2181 16.9245 79.2181 17.2013C79.2181 17.4455 78.9448 17.556 78.6744 17.556C78.4257 17.556 78.178 17.504 77.9157 17.3963C77.5788 17.2496 77.3602 17.0629 77.1981 16.9013C77.1225 16.9728 76.3411 17.7056 76.25 17.7901C76.6316 18.1068 77.3993 18.7578 78.6917 18.7578C80.1689 18.7578 80.8282 17.9052 80.8282 17.01C80.8282 16.4973 80.5832 16.0543 80.1379 15.81Z" fill="#565656"/>
<path d="M63.8801 13.8299H62.2344V18.5859H63.9429V16.3542V16.3505C63.9511 16.0524 63.9739 15.2602 65.1132 15.2602C65.2179 15.2602 65.3873 15.2676 65.4902 15.275V13.7566C64.8491 13.7603 64.4629 13.8792 63.9839 14.3157L63.8801 14.4085V13.8299Z" fill="#565656"/>
</g>
<defs>
<clipPath id="clip0_879_26954">
<rect width="81" height="28" fill="white"/>
</clipPath>
</defs>
</svg>
