<svg width="128" height="45" viewBox="0 0 128 45" fill="none" xmlns="http://www.w3.org/2000/svg">
<g clip-path="url(#clip0_6808_26343)">
<g clip-path="url(#clip1_6808_26343)">
<path fill-rule="evenodd" clip-rule="evenodd" d="M21.0895 23.1881C17.8525 23.1881 15.2282 25.8123 15.2282 29.0497C15.2282 32.2868 17.8525 34.911 21.0895 34.911C24.3267 34.911 26.9509 32.2868 26.9509 29.0497C26.9509 25.8123 24.3267 23.1881 21.0895 23.1881ZM5.86134 23.1886C2.62424 23.1886 0 25.8123 0 29.0497C0 32.2868 2.62424 34.911 5.86134 34.911C9.09858 34.911 11.723 32.2868 11.723 29.0497C11.723 25.8123 9.09858 23.1886 5.86134 23.1886ZM19.3367 15.8612C19.3367 19.0986 16.7126 21.7231 13.4755 21.7231C10.2382 21.7231 7.61414 19.0986 7.61414 15.8612C7.61414 12.6245 10.2382 10 13.4755 10C16.7126 10 19.3367 12.6245 19.3367 15.8612Z" fill="#F06A6A"/>
<path fill-rule="evenodd" clip-rule="evenodd" d="M124.609 28.8363C124.686 29.7058 125.381 30.8126 126.587 30.8126H127.291C127.565 30.8126 127.789 30.5887 127.789 30.3151V14.8094H127.786C127.772 14.5482 127.556 14.339 127.291 14.339H125.107C124.842 14.339 124.627 14.5482 124.613 14.8094H124.609V16.0693C123.271 14.4194 121.161 13.7346 119.045 13.7346C114.234 13.7346 110.335 17.6371 110.335 22.4513C110.335 27.2658 114.234 31.1683 119.045 31.1683C121.161 31.1683 123.467 30.3471 124.609 28.8343V28.8363ZM119.053 28.1176C115.994 28.1176 113.514 25.5809 113.514 22.4513C113.514 19.3222 115.994 16.7854 119.053 16.7854C122.113 16.7854 124.592 19.3222 124.592 22.4513C124.592 25.5809 122.113 28.1176 119.053 28.1176Z" fill="#0D0E10"/>
<path fill-rule="evenodd" clip-rule="evenodd" d="M107.572 21.346C107.572 16.8231 104.721 13.772 100.175 13.772C98.0045 13.772 96.2254 15.0279 95.597 16.1068C95.4612 15.2632 95.0137 14.3765 93.6258 14.3765H92.9184C92.6448 14.3765 92.4214 14.6006 92.4214 14.8742V30.3812H92.4241C92.4384 30.642 92.6545 30.8514 92.9187 30.8514H95.1033C95.1367 30.8514 95.1696 30.8474 95.2013 30.8413C95.2157 30.8385 95.2291 30.8328 95.2432 30.8288C95.2595 30.8238 95.2764 30.82 95.2918 30.8136C95.3113 30.8055 95.3289 30.7947 95.347 30.7846C95.3558 30.7792 95.3651 30.7754 95.3737 30.7697C95.3955 30.7556 95.4155 30.7387 95.4348 30.7214C95.438 30.7182 95.4417 30.7161 95.4449 30.7131C95.4666 30.6921 95.4865 30.6689 95.504 30.6448C95.5587 30.5697 95.5921 30.4788 95.5975 30.3812H95.6004V21.2215C95.6004 18.7925 97.5682 16.8231 99.9956 16.8231C102.423 16.8231 104.391 18.7925 104.391 21.2215L104.393 28.8778L104.393 28.8751C104.393 28.8819 104.394 28.8888 104.394 28.8961V30.3812H104.397C104.412 30.642 104.628 30.8514 104.892 30.8514H107.076C107.11 30.8514 107.143 30.8474 107.174 30.8413C107.187 30.8389 107.199 30.8337 107.212 30.8302C107.23 30.8249 107.248 30.8205 107.265 30.8136C107.283 30.8062 107.299 30.7959 107.316 30.7863C107.327 30.7805 107.337 30.7763 107.347 30.7697C107.367 30.7564 107.386 30.7404 107.404 30.7246C107.409 30.7203 107.414 30.7171 107.418 30.7128C107.439 30.6928 107.457 30.6712 107.474 30.6486C107.475 30.6469 107.477 30.6455 107.478 30.6438C107.532 30.5694 107.565 30.4795 107.571 30.3825L107.571 30.3812H107.574L107.572 21.346Z" fill="#0D0E10"/>
<path fill-rule="evenodd" clip-rule="evenodd" d="M84.8207 28.8362C84.897 29.7058 85.5926 30.8126 86.7976 30.8126H87.5026C87.7759 30.8126 87.9996 30.5886 87.9996 30.3151V14.8094H87.9968C87.9826 14.5482 87.7665 14.339 87.5026 14.339H85.3179C85.0537 14.339 84.8379 14.5482 84.8232 14.8094H84.8207V16.0693C83.482 14.4194 81.3717 13.7346 79.2554 13.7346C74.4452 13.7346 70.5459 17.6371 70.5459 22.4513C70.5459 27.2658 74.4452 31.1684 79.2554 31.1684C81.3717 31.1684 83.6781 30.3471 84.8204 28.8343L84.8207 28.8362ZM79.264 28.1176C76.2049 28.1176 73.7247 25.581 73.7247 22.4513C73.7247 19.3222 76.2049 16.7854 79.264 16.7854C82.3234 16.7854 84.8032 19.3222 84.8032 22.4513C84.8032 25.581 82.3234 28.1176 79.264 28.1176Z" fill="#0D0E10"/>
<path fill-rule="evenodd" clip-rule="evenodd" d="M57.6267 26.6155C59.0851 27.6266 60.6771 28.1178 62.2068 28.1178C63.6642 28.1178 65.1709 27.3616 65.1709 26.0455C65.1709 24.2885 61.8878 24.0151 59.8251 23.3135C57.7619 22.6119 55.985 21.1615 55.985 18.8127C55.985 15.2187 59.1849 13.7344 62.1715 13.7344C64.0638 13.7344 66.0161 14.3589 67.2819 15.2534C67.7178 15.584 67.4524 15.9635 67.4524 15.9635L66.2441 17.6906C66.1083 17.8851 65.8708 18.0531 65.53 17.8426C65.1891 17.6322 63.9935 16.7853 62.1715 16.7853C60.3492 16.7853 59.2516 17.6274 59.2516 18.6713C59.2516 19.923 60.6782 20.3167 62.3491 20.7433C65.261 21.5288 68.4375 22.473 68.4375 26.0455C68.4375 29.2121 65.4778 31.169 62.2068 31.169C59.7281 31.169 57.6176 30.4619 55.8476 29.162C55.4789 28.7927 55.7364 28.4497 55.7364 28.4497L56.9388 26.7314C57.1834 26.4102 57.4918 26.5222 57.6267 26.6155Z" fill="#0D0E10"/>
<path fill-rule="evenodd" clip-rule="evenodd" d="M49.228 28.8362C49.3044 29.7058 49.9999 30.8126 51.2048 30.8126H51.9099C52.1832 30.8126 52.4072 30.5886 52.4072 30.3151V14.8094H52.4042C52.3898 14.5482 52.174 14.339 51.9099 14.339H49.7253C49.4611 14.339 49.2453 14.5482 49.2306 14.8094H49.228V16.0693C47.8895 14.4194 45.7792 13.7346 43.6629 13.7346C38.8527 13.7346 34.9531 17.6371 34.9531 22.4513C34.9531 27.2658 38.8527 31.1684 43.6629 31.1684C45.7792 31.1684 48.0854 30.3471 49.2277 28.8343L49.228 28.8362ZM43.6714 28.1176C40.6121 28.1176 38.132 25.581 38.132 22.4513C38.132 19.3222 40.6121 16.7854 43.6714 16.7854C46.7306 16.7854 49.2105 19.3222 49.2105 22.4513C49.2105 25.581 46.7306 28.1176 43.6714 28.1176Z" fill="#0D0E10"/>
</g>
</g>
<defs>
<clipPath id="clip0_6808_26343">
<rect width="127.787" height="44.911" fill="white"/>
</clipPath>
<clipPath id="clip1_6808_26343">
<rect width="127.787" height="44.911" fill="white"/>
</clipPath>
</defs>
</svg>
