<svg width="160" height="45" viewBox="0 0 160 45" fill="none" xmlns="http://www.w3.org/2000/svg">
<path d="M32.1686 9.93996C29.7466 8.78891 27.1494 7.94087 24.4338 7.45516C24.3844 7.44579 24.335 7.46921 24.3095 7.51607C23.9755 8.1314 23.6055 8.93415 23.3464 9.56511C20.4256 9.11221 17.5199 9.11221 14.659 9.56511C14.3999 8.92013 14.0164 8.1314 13.6809 7.51607C13.6554 7.47078 13.606 7.44735 13.5566 7.45516C10.8425 7.93932 8.2453 8.78736 5.82181 9.93996C5.80083 9.94933 5.78285 9.96496 5.77092 9.98525C0.844537 17.6083 -0.505005 25.044 0.157035 32.3875C0.160031 32.4234 0.179502 32.4578 0.206464 32.4796C3.45675 34.9519 6.6052 36.4528 9.69519 37.4477C9.74465 37.4633 9.79704 37.4446 9.82851 37.4024C10.5595 36.3685 11.211 35.2784 11.7697 34.132C11.8026 34.0649 11.7712 33.9852 11.7038 33.9586C10.6703 33.5526 9.6862 33.0575 8.73957 32.4953C8.6647 32.45 8.6587 32.3391 8.72758 32.286C8.92679 32.1313 9.12605 31.9705 9.31626 31.8081C9.35068 31.7784 9.39863 31.7721 9.43909 31.7909C15.658 34.7317 22.3908 34.7317 28.5363 31.7909C28.5768 31.7706 28.6248 31.7768 28.6607 31.8065C28.8509 31.9689 29.0501 32.1313 29.2508 32.286C29.3197 32.3391 29.3152 32.45 29.2404 32.4953C28.2937 33.0684 27.3096 33.5526 26.2746 33.9571C26.2073 33.9836 26.1773 34.0649 26.2103 34.132C26.7809 35.2768 27.4325 36.3669 28.1499 37.4008C28.1799 37.4446 28.2338 37.4633 28.2832 37.4477C31.3882 36.4528 34.5366 34.9519 37.7869 32.4796C37.8154 32.4578 37.8334 32.425 37.8364 32.3891C38.6287 23.8992 36.5093 16.5245 32.218 9.9868C32.2075 9.96496 32.1896 9.94933 32.1686 9.93996ZM12.6984 27.9161C10.826 27.9161 9.28329 26.1357 9.28329 23.9492C9.28329 21.7627 10.7961 19.9823 12.6984 19.9823C14.6155 19.9823 16.1434 21.7783 16.1134 23.9492C16.1134 26.1357 14.6006 27.9161 12.6984 27.9161ZM25.325 27.9161C23.4527 27.9161 21.91 26.1357 21.91 23.9492C21.91 21.7627 23.4228 19.9823 25.325 19.9823C27.2423 19.9823 28.77 21.7783 28.7401 23.9492C28.7401 26.1357 27.2423 27.9161 25.325 27.9161Z" fill="#5865F2"/>
<path d="M46 14.3308H55.1535C57.3601 14.3308 59.2242 14.6835 60.7535 15.3856C62.2788 16.0876 63.4224 17.0671 64.1803 18.3205C64.9377 19.5739 65.3198 21.0089 65.3198 22.6253C65.3198 24.2075 64.9242 25.6424 64.133 26.9266C63.3417 28.2143 62.1379 29.2315 60.5186 29.9815C58.8993 30.7314 56.8937 31.1081 54.4966 31.1081H46V14.3308ZM54.4025 26.8445C55.888 26.8445 57.0317 26.4643 57.8293 25.7075C58.6276 24.9472 59.0267 23.913 59.0267 22.6013C59.0267 21.3855 58.6708 20.4164 57.9602 19.6903C57.2496 18.9643 56.1732 18.5979 54.7345 18.5979H51.871V26.8445H54.4025Z" fill="#23272A"/>
<path d="M79.0238 31.0877C77.7563 30.7521 76.6127 30.2658 75.5971 29.6254V25.6459C76.3649 26.2521 77.394 26.7521 78.6849 27.1459C79.9758 27.5363 81.2234 27.7315 82.4302 27.7315C82.9935 27.7315 83.4195 27.6562 83.7076 27.5055C83.9963 27.3548 84.1406 27.1733 84.1406 26.9644C84.1406 26.7247 84.0635 26.5261 83.9057 26.3651C83.7479 26.2041 83.4429 26.0705 82.9906 25.9575L80.1739 25.3103C78.561 24.9267 77.4174 24.3959 76.7372 23.7144C76.0564 23.0363 75.7175 22.1459 75.7175 21.0432C75.7175 20.1151 76.0126 19.3103 76.6098 18.6219C77.2029 17.9336 78.0479 17.4027 79.1442 17.0294C80.2411 16.6528 81.5215 16.4644 82.9935 16.4644C84.3078 16.4644 85.5116 16.6082 86.6085 16.8959C87.7047 17.1836 88.6099 17.55 89.3311 17.9986V21.7624C88.593 21.3137 87.748 20.961 86.7826 20.6938C85.8201 20.4302 84.8314 20.3 83.8116 20.3C82.3396 20.3 81.6056 20.5569 81.6056 21.0671C81.6056 21.3069 81.7196 21.485 81.9475 21.6048C82.1754 21.7247 82.5944 21.848 83.2016 21.9781L85.5484 22.4096C87.0812 22.6802 88.2243 23.1562 88.9752 23.8343C89.7267 24.5124 90.1019 25.5158 90.1019 26.8445C90.1019 28.3 89.4818 29.4541 88.2377 30.3103C86.9936 31.1665 85.2299 31.5945 82.9433 31.5945C81.5986 31.5911 80.2914 31.4233 79.0238 31.0877Z" fill="#23272A"/>
<path d="M95.6421 30.5841C94.298 29.9128 93.2818 29.0019 92.6045 27.8512C91.9272 26.7005 91.5854 25.406 91.5854 23.9676C91.5854 22.5293 91.9372 21.2416 92.6413 20.1081C93.3455 18.9745 94.3781 18.0841 95.7397 17.4368C97.1007 16.7896 98.727 16.4677 100.622 16.4677C102.968 16.4677 104.917 16.9711 106.466 17.9779V22.3649C105.919 21.9813 105.282 21.6697 104.554 21.43C103.827 21.1903 103.049 21.0704 102.217 21.0704C100.762 21.0704 99.6258 21.3409 98.8041 21.8854C97.9825 22.43 97.5705 23.1389 97.5705 24.019C97.5705 24.882 97.9691 25.5875 98.7673 26.1423C99.5656 26.6937 100.722 26.9711 102.241 26.9711C103.022 26.9711 103.794 26.8546 104.554 26.6252C105.312 26.3923 105.966 26.1081 106.513 25.7724V30.0156C104.793 31.0704 102.798 31.5978 100.527 31.5978C98.6166 31.5909 96.9867 31.2553 95.6421 30.5841Z" fill="#23272A"/>
<path d="M112.32 30.5844C110.965 29.9131 109.933 28.9953 109.222 27.8275C108.511 26.6597 108.152 25.3583 108.152 23.92C108.152 22.4816 108.508 21.1974 109.222 20.0707C109.936 18.944 110.962 18.0604 112.31 17.42C113.654 16.7795 115.261 16.4611 117.121 16.4611C118.982 16.4611 120.588 16.7795 121.933 17.42C123.278 18.0604 124.304 18.9371 125.008 20.057C125.712 21.1768 126.064 22.4611 126.064 23.9166C126.064 25.3549 125.712 26.6563 125.008 27.8241C124.304 28.9919 123.274 29.9097 121.92 30.581C120.565 31.2522 118.966 31.5878 117.118 31.5878C115.271 31.5878 113.671 31.2556 112.32 30.5844ZM119.452 26.3309C120.022 25.7488 120.31 24.9782 120.31 24.0193C120.31 23.0604 120.025 22.2967 119.452 21.7316C118.882 21.1631 118.104 20.8789 117.118 20.8789C116.116 20.8789 115.331 21.1631 114.757 21.7316C114.188 22.3001 113.902 23.0604 113.902 24.0193C113.902 24.9782 114.188 25.7488 114.757 26.3309C115.328 26.9131 116.116 27.2077 117.118 27.2077C118.104 27.2042 118.882 26.9131 119.452 26.3309Z" fill="#23272A"/>
<path d="M140.167 17.3514V22.5295C139.57 22.1288 138.799 21.9302 137.843 21.9302C136.592 21.9302 135.627 22.3172 134.956 23.0912C134.282 23.8652 133.946 25.0706 133.946 26.7007V31.1117H128.196V17.0878H133.83V21.5467C134.141 19.9165 134.648 18.7145 135.345 17.937C136.039 17.1631 136.937 16.7761 138.031 16.7761C138.859 16.7761 139.57 16.9679 140.167 17.3514Z" fill="#23272A"/>
<path d="M159.272 13.8513V31.1116H153.522V27.9712C153.035 29.1527 152.298 30.0534 151.306 30.6698C150.313 31.2829 149.086 31.5911 147.63 31.5911C146.33 31.5911 145.197 31.2691 144.227 30.6219C143.258 29.9746 142.511 29.0876 141.984 27.9609C141.461 26.8342 141.196 25.5602 141.196 24.1356C141.18 22.6664 141.458 21.3479 142.031 20.1801C142.601 19.0123 143.409 18.1013 144.449 17.4472C145.488 16.7931 146.675 16.4643 148.006 16.4643C150.746 16.4643 152.583 17.6801 153.522 20.1081V13.8513H159.272ZM152.664 26.2349C153.25 25.6527 153.542 24.8959 153.542 23.9712C153.542 23.0774 153.257 22.3479 152.687 21.7897C152.117 21.2315 151.335 20.9506 150.353 20.9506C149.384 20.9506 148.61 21.2349 148.03 21.8034C147.449 22.3719 147.161 23.1081 147.161 24.0191C147.161 24.9301 147.449 25.6733 148.03 26.2486C148.61 26.8239 149.374 27.1116 150.33 27.1116C151.299 27.1082 152.076 26.8171 152.664 26.2349Z" fill="#23272A"/>
<path d="M70.1657 18.5806C71.7487 18.5806 73.0326 17.403 73.0326 15.9504C73.0326 14.4978 71.7487 13.3203 70.1657 13.3203C68.582 13.3203 67.2987 14.4978 67.2987 15.9504C67.2987 17.403 68.582 18.5806 70.1657 18.5806Z" fill="#23272A"/>
<path d="M67.2962 20.3924C69.0529 21.1664 71.2326 21.2006 73.0295 20.3924V31.1869H67.2962V20.3924Z" fill="#23272A"/>
</svg>
