<svg width="164" height="45" viewBox="0 0 164 45" fill="none" xmlns="http://www.w3.org/2000/svg">
<g clip-path="url(#clip0_6808_26339)">
<path d="M19.11 12.4663L9.68392 18.4795L19.11 24.4927L9.68392 30.5059L0.257812 24.4602L9.68392 18.447L0.257812 12.4663L9.68392 6.45312L19.11 12.4663ZM9.63516 32.4399L19.0613 26.4267L28.4874 32.4399L19.0613 38.4531L9.63516 32.4399ZM19.11 24.4602L28.5361 18.447L19.11 12.4663L28.4874 6.45312L37.9135 12.4663L28.4874 18.4795L37.9135 24.4927L28.4874 30.5059L19.11 24.4602Z" fill="#0061FF"/>
<path d="M45.9141 10.4521H53.5362C58.3955 10.4521 62.4097 13.2636 62.4097 19.6831V21.032C62.4097 27.5003 58.6556 30.4094 53.6825 30.4094H45.9141V10.4521ZM50.1721 14.0762V26.769H53.4387C56.2015 26.769 58.0542 24.965 58.0542 20.9508V19.8944C58.0542 15.8802 56.104 14.0762 53.2924 14.0762H50.1721ZM64.6688 14.2713H68.0817L68.6342 18.0254C69.2843 15.4739 70.942 14.1087 73.9486 14.1087H75.005V18.4155H73.2498C69.7881 18.4155 68.943 19.6181 68.943 23.031V30.4582H64.7338V14.2713H64.6688ZM75.8501 22.6897V22.2347C75.8501 16.8228 79.3117 13.865 84.0248 13.865C88.8353 13.865 92.1995 16.8228 92.1995 22.2347V22.6897C92.1995 28.0041 88.9329 30.8645 84.0248 30.8645C78.8079 30.8157 75.8501 28.0204 75.8501 22.6897ZM87.8927 22.641V22.2347C87.8927 19.2281 86.3813 17.4241 83.976 17.4241C81.6195 17.4241 80.0593 19.0818 80.0593 22.2347V22.641C80.0593 25.5501 81.5707 27.2078 83.976 27.2078C86.3813 27.159 87.8927 25.5501 87.8927 22.641ZM94.4097 14.2713H97.9202L98.3265 17.3266C99.1716 15.2789 100.976 13.865 103.641 13.865C107.753 13.865 110.467 16.8228 110.467 22.2997V22.7548C110.467 28.0691 107.46 30.8807 103.641 30.8807C101.089 30.8807 99.3341 29.7268 98.4727 27.8741V36.0488H94.361L94.4097 14.2713ZM106.192 22.641V22.2834C106.192 19.0656 104.535 17.4729 102.324 17.4729C99.9679 17.4729 98.4077 19.2768 98.4077 22.2834V22.5922C98.4077 25.4526 99.9191 27.2565 102.276 27.2565C104.697 27.2078 106.192 25.6638 106.192 22.641ZM116.691 27.4678L116.334 30.4256H112.726V8.85938H116.837V17.1316C117.747 15.0188 119.551 13.865 122.103 13.865C125.971 13.9137 128.831 16.579 128.831 21.9422V22.446C128.831 27.8091 126.117 30.8807 122.005 30.8807C119.291 30.8157 117.536 29.5643 116.691 27.4678ZM124.508 22.446V22.0397C124.508 19.0818 122.899 17.4241 120.64 17.4241C118.333 17.4241 116.724 19.2768 116.724 22.0884V22.446C116.724 25.4526 118.284 27.2078 120.592 27.2078C123.062 27.2078 124.508 25.6638 124.508 22.446ZM130.635 22.6897V22.2347C130.635 16.8228 134.097 13.865 138.81 13.865C143.621 13.865 146.985 16.8228 146.985 22.2347V22.6897C146.985 28.0041 143.669 30.8645 138.81 30.8645C133.593 30.8157 130.635 28.0204 130.635 22.6897ZM142.71 22.641V22.2347C142.71 19.2281 141.199 17.4241 138.794 17.4241C136.437 17.4241 134.877 19.0818 134.877 22.2347V22.641C134.877 25.5501 136.388 27.2078 138.794 27.2078C141.215 27.159 142.71 25.5501 142.71 22.641ZM152.494 22.0397L146.822 14.2713H151.681L154.948 19.1306L158.263 14.2713H163.074L157.321 21.9909L163.383 30.4256H158.621L154.916 25.0625L151.308 30.4256H146.335L152.494 22.0397Z" fill="black"/>
</g>
<defs>
<clipPath id="clip0_6808_26339">
<rect width="163.643" height="44.911" fill="white"/>
</clipPath>
</defs>
</svg>
