<?xml version="1.0" encoding="UTF-8" standalone="no"?>
<!-- Created with Inkscape (http://www.inkscape.org/) -->

<svg
   width="132.29166mm"
   height="27.905277mm"
   viewBox="0 0 132.29166 27.905277"
   version="1.1"
   id="svg1"
   inkscape:version="1.4 (86a8ad7, 2024-10-11)"
   sodipodi:docname="foodpanda wordmark.svg"
   xmlns:inkscape="http://www.inkscape.org/namespaces/inkscape"
   xmlns:sodipodi="http://sodipodi.sourceforge.net/DTD/sodipodi-0.dtd"
   xmlns="http://www.w3.org/2000/svg"
   xmlns:svg="http://www.w3.org/2000/svg">
  <sodipodi:namedview
     id="namedview1"
     pagecolor="#ffffff"
     bordercolor="#000000"
     borderopacity="0.25"
     inkscape:showpageshadow="2"
     inkscape:pageopacity="0.0"
     inkscape:pagecheckerboard="0"
     inkscape:deskcolor="#d1d1d1"
     inkscape:document-units="mm"
     inkscape:zoom="0.98646753"
     inkscape:cx="183.48298"
     inkscape:cy="-77.549436"
     inkscape:window-width="1920"
     inkscape:window-height="1001"
     inkscape:window-x="-9"
     inkscape:window-y="-9"
     inkscape:window-maximized="1"
     inkscape:current-layer="layer1" />
  <defs
     id="defs1" />
  <g
     inkscape:label="Layer 1"
     inkscape:groupmode="layer"
     id="layer1"
     transform="translate(23.759512,-10.648)">
    <path
       d="m 42.386325,17.8827 c 3.919141,0 7.234696,2.986898 7.234696,7.317384 0,4.332551 -3.315555,7.319449 -7.234696,7.319449 -1.477946,0 -3.014803,-0.59738 -3.919141,-1.493449 l -0.150896,-0.149862 -0.179833,0.149862 v 7.527194 h -2.98483 V 18.18139 h 2.713012 l 0.271818,1.194759 0.179833,0.149862 0.150896,-0.149862 C 39.371522,18.48008 40.87944,17.8827 42.386325,17.8827 Z M 95.096282,10.648 V 32.04411 H 92.38327 l -0.301791,-1.233 -0.149861,-0.155028 -0.150895,0.155028 c -0.904338,0.925009 -2.412256,1.540991 -3.919141,1.540991 -3.919141,0 -7.2347,-3.081982 -7.2347,-7.55096 0,-4.470011 3.315559,-7.551994 7.2347,-7.551994 1.477946,0 3.014803,0.617016 3.919141,1.540991 l 0.150895,0.15503 0.149861,-0.15503 V 10.648 Z m 7.848618,7.2347 c 3.72484,0 5.58725,1.83658 5.58725,5.537646 v 8.709547 h -2.44636 l -0.27698,-1.83658 c -0.97359,1.363224 -2.41846,2.058788 -4.33669,2.058788 -2.474267,0 -4.30878,-1.474845 -4.30878,-4.258138 0,-2.864941 2.418458,-4.590934 6.05958,-4.590934 h 2.41846 v -0.611848 c 0,-1.669149 -1.13999,-2.449464 -2.72439,-2.449464 -1.27847,0 -2.1394,0.612883 -2.61276,1.865519 L 97.663568,21.750164 C 98.247511,19.385451 100.27633,17.8827 102.9449,17.8827 Z m -45.475262,0 c 3.724838,0 5.587256,1.83658 5.587256,5.537646 v 8.709547 h -2.446362 l -0.27802,-1.83658 c -0.97255,1.363224 -2.418457,2.058788 -4.335652,2.058788 -2.474268,0 -4.308782,-1.474845 -4.308782,-4.258138 0,-2.864941 2.418458,-4.590934 6.059579,-4.590934 h 2.418458 v -0.611848 c 0,-1.669149 -1.139983,-2.449464 -2.724382,-2.449464 -1.278475,0 -2.139404,0.612883 -2.612761,1.865519 L 52.188307,21.750164 C 52.77225,19.385451 54.801067,17.8827 57.469638,17.8827 Z m 15.342734,0 c 3.629752,0 5.747452,2.411222 5.747452,5.727817 v 8.741584 h -3.025138 v -8.741584 c -0.09096,-1.929598 -1.028362,-3.014804 -3.025139,-3.014804 -1.784904,0 -3.26595,1.44694 -3.327963,3.195671 v 8.560717 H 66.15748 v -14.16761 h 2.722315 l 0.302823,1.205094 0.150896,0.150895 0.150895,-0.150895 C 70.090057,18.485248 71.603143,17.8827 72.812372,17.8827 Z M 32.051038,10.648 v 21.39611 h -2.713013 l -0.30179,-1.233 -0.149862,-0.155028 -0.150895,0.155028 c -0.904338,0.925009 -2.411223,1.540991 -3.919141,1.540991 -3.919142,0 -7.234702,-3.081982 -7.234702,-7.55096 0,-4.470011 3.31556,-7.551994 7.234702,-7.551994 1.477946,0 3.014803,0.617016 3.919141,1.540991 l 0.150895,0.15503 0.149862,-0.15503 V 10.648 Z M 8.2798763,17.8827 c 3.8385257,0 7.2347017,2.952791 7.2347017,7.234701 0,4.281909 -3.396176,7.2347 -7.2347017,7.2347 -3.8385245,0 -7.2347001,-2.952791 -7.2347001,-7.2347 0,-4.28191 3.3961756,-7.234701 7.2347001,-7.234701 z m -25.2480713,-6.201172 1.476913,0.297657 v 2.679939 l -1.623674,-0.297656 c -0.886768,0 -1.329118,0.595313 -1.329118,1.488281 v 2.50734 h 2.952792 v 2.679941 h -2.952792 v 11.315071 h -2.952791 V 21.03703 h -2.362647 v -2.679941 h 2.362647 v -2.20865 c 0,-2.679939 1.475879,-4.466911 4.42867,-4.466911 z m 9.745142,6.201172 c 3.8385254,0 7.23470036,2.952791 7.23470036,7.234701 0,4.281909 -3.39617496,7.2347 -7.23470036,7.2347 -3.838526,0 -7.234701,-2.952791 -7.234701,-7.2347 0,-4.28191 3.396175,-7.234701 7.234701,-7.234701 z m 49.458482,2.688208 c -2.562116,0 -4.370792,2.090829 -4.370792,4.630209 0,2.538347 1.808676,4.630208 4.371826,4.630208 2.862874,0 4.369759,-2.091861 4.369759,-4.630208 0,-2.53938 -1.506885,-4.630209 -4.370793,-4.630209 z m 17.930686,5.353678 H 57.63707 c -1.779736,0 -2.890779,0.834059 -2.890779,2.170411 0,1.001489 0.610814,1.697054 1.750797,1.697054 0.97255,0 1.834513,-0.305924 2.55695,-0.917774 0.750342,-0.640786 1.112077,-1.50275 1.112077,-2.643765 z m 45.475265,0 h -2.52905 c -1.77974,0 -2.89078,0.834059 -2.89078,2.170411 0,1.001489 0.61082,1.697054 1.7508,1.697054 0.97255,0 1.83451,-0.305924 2.55695,-0.917774 0.75034,-0.640786 1.11208,-1.50275 1.11208,-2.643765 z M -7.223053,20.538869 c -2.804997,0 -4.281909,2.067057 -4.281909,4.577499 0,2.510441 1.476912,4.577497 4.281909,4.577497 2.8049968,0 4.2819086,-2.067056 4.2819086,-4.577497 0,-2.510442 -1.4769118,-4.577499 -4.2819086,-4.577499 z m 15.5029293,0 c -2.8049957,0 -4.2819084,2.067057 -4.2819084,4.577499 0,2.510441 1.4769127,4.577497 4.2819084,4.577497 2.8049967,0 4.2819097,-2.067056 4.2819097,-4.577497 0,-2.510442 -1.476913,-4.577499 -4.2819097,-4.577499 z M 24.967232,20.022105 c -2.862875,0 -4.400767,2.158007 -4.400767,4.778002 0,2.618962 1.536858,4.776971 4.400767,4.776971 2.563152,0 4.371826,-2.158009 4.371826,-4.776971 0,-2.619995 -1.808674,-4.778002 -4.371826,-4.778002 z m 63.045245,0 c -2.863907,0 -4.401798,2.158007 -4.401798,4.778002 0,2.618962 1.537891,4.776971 4.401798,4.776971 2.562117,0 4.370793,-2.158009 4.370793,-4.776971 0,-2.619995 -1.808676,-4.778002 -4.371826,-4.778002 z"
       style="fill:#d60e64;stroke-width:1.03353"
       id="path1" />
  </g>
</svg>
