<svg width="124" height="45" viewBox="0 0 124 45" fill="none" xmlns="http://www.w3.org/2000/svg">
<g clip-path="url(#clip0_6808_26337)">
<path d="M10.8237 19.7735C14.2328 17.8795 18.9018 15.2851 18.9018 7.73438H13.2482C13.2482 11.959 11.1915 13.1017 8.07812 14.8313C4.66904 16.726 0 19.3193 0 26.8708H5.65362C5.65362 22.6458 7.71036 21.5032 10.8237 19.7735Z" fill="#FF3C00"/>
<path d="M20.6084 18.0373C20.6084 22.2622 18.5516 23.4048 15.4382 25.1343C12.0301 27.0282 7.36011 29.6223 7.36011 37.1736H13.0135C13.0135 32.9487 15.0702 31.8061 18.1836 30.0765C21.5927 28.1825 26.2615 25.5888 26.2615 18.0373H20.6084Z" fill="#FF3C00"/>
<path d="M34.2578 30.4566V6.98703H37.9199V16.2397C39.0731 14.5294 40.8028 13.6739 43.1087 13.6733C45.0757 13.6733 46.5962 14.253 47.6703 15.4123C48.7444 16.5716 49.2815 18.1869 49.2817 20.2582V30.4566H45.6195V20.7648C45.6195 18.086 44.4211 16.7465 42.0244 16.7462C40.8258 16.7462 39.8423 17.1064 39.074 17.8268C38.3058 18.5472 37.9212 19.5603 37.9205 20.8661V30.4563L34.2578 30.4566Z" fill="#323232"/>
<path d="M66.5893 28.4306C64.9615 30.0516 62.9155 30.862 60.451 30.862C57.9867 30.862 55.9349 30.0516 54.2955 28.4306C52.6562 26.8096 51.8366 24.7494 51.8367 22.2499C51.8369 19.7506 52.6564 17.6964 54.2955 16.0875C55.9346 14.4782 57.9864 13.6734 60.451 13.673C62.9156 13.6727 64.9617 14.4775 66.5893 16.0875C68.2175 17.6974 69.0315 19.7516 69.0313 22.2499C69.0312 24.7484 68.2172 26.8086 66.5893 28.4306ZM56.9749 26.3704C57.8447 27.3835 59.0035 27.8901 60.451 27.8901C61.8987 27.8901 63.0574 27.3835 63.9272 26.3704C64.7972 25.3574 65.2324 23.984 65.2328 22.2499C65.2328 20.5392 64.792 19.1772 63.9103 18.164C63.0286 17.1508 61.8755 16.6442 60.451 16.6443C59.0039 16.6443 57.845 17.1452 56.9749 18.147C56.1046 19.1488 55.6694 20.5162 55.6691 22.2493C55.6691 23.984 56.1043 25.3576 56.9749 26.3704Z" fill="#323232"/>
<path d="M77.5085 30.8619C74.1393 30.8619 72.4548 29.0608 72.4548 25.4587V17.1516H69.9118V14.0787H72.5571L73.4051 9.25068H76.1517V14.0787H82.6971V17.1516H76.152V25.3576C76.152 26.8661 76.7059 27.6203 77.8137 27.6202C78.8534 27.6202 79.7917 26.6745 80.6285 24.7834L83.4775 26.2356C82.0753 29.3201 80.0856 30.8621 77.5085 30.8619Z" fill="#323232"/>
<path d="M84.6545 37.9531C83.0266 37.9531 81.6813 37.5029 80.6187 36.6023L81.9754 33.732C82.6312 34.497 83.3434 34.8799 84.112 34.8806C85.1293 34.8806 85.6379 34.2278 85.6379 32.9221V14.0785H89.3001V32.9887C89.3001 34.7448 88.8649 36.0111 87.9943 36.7877C87.1239 37.5643 86.0106 37.9527 84.6545 37.9531ZM87.4693 11.3092C86.8673 11.3295 86.2817 11.1109 85.8415 10.7015C85.6296 10.5028 85.4628 10.2615 85.3518 9.99372C85.2407 9.72593 85.1881 9.4377 85.1973 9.14812C85.1891 8.85616 85.2423 8.56573 85.3532 8.29536C85.4641 8.02498 85.6304 7.78059 85.8415 7.57779C86.2842 7.17589 86.8617 6.95312 87.4609 6.95312C88.06 6.95312 88.6376 7.17589 89.0804 7.57779C89.2958 7.77807 89.4663 8.0216 89.5803 8.2923C89.6942 8.56298 89.7493 8.85468 89.7417 9.14812C89.747 9.43625 89.6908 9.72221 89.5768 9.98708C89.4628 10.252 89.2936 10.4897 89.0804 10.6845C88.8663 10.8891 88.6139 11.0496 88.3374 11.1568C88.061 11.264 87.766 11.3158 87.4693 11.3092Z" fill="#323232"/>
<path d="M98.3957 30.8614C96.5188 30.8614 94.9982 30.3942 93.8342 29.4601C92.6701 28.5258 92.088 27.2711 92.0878 25.6956C92.0878 24.2549 92.6925 23.0334 93.9022 22.0309C95.1117 21.0286 96.6322 20.5277 98.4635 20.5283C100.34 20.5283 101.923 21.1249 103.212 22.3182V20.3255C103.212 19.1553 102.912 18.2492 102.313 17.6072C101.713 16.9651 100.86 16.6443 99.7524 16.6447C97.514 16.6447 96.1235 17.7815 95.5808 20.0552L92.2232 19.3461C92.6749 17.5903 93.568 16.2058 94.9026 15.1927C96.2372 14.1796 97.8989 13.673 99.8878 13.673C102.059 13.673 103.771 14.2415 105.026 15.3785C106.281 16.5154 106.908 18.1756 106.908 20.3591V30.4562H103.347V28.396C102.148 30.0398 100.498 30.8616 98.3957 30.8614ZM99.0731 28.1599C100.701 28.1599 102.081 27.3495 103.211 25.7287V25.2216C102.08 23.8709 100.701 23.1955 99.0731 23.1956C98.1237 23.1956 97.3547 23.4266 96.766 23.8885C96.4878 24.0925 96.2626 24.3599 96.1093 24.6684C95.9558 24.9767 95.8787 25.3172 95.8842 25.6611C95.8752 26.0089 95.9491 26.3537 96.0993 26.6677C96.2496 26.9816 96.4724 27.2558 96.7492 27.4678C97.327 27.9293 98.1011 28.16 99.0731 28.1599Z" fill="#323232"/>
<path d="M110.473 30.4569V14.0789H114.034V16.9154C114.938 14.8444 116.498 13.8088 118.714 13.8086C120.025 13.8086 121.11 14.2364 121.97 15.0918C122.829 15.9473 123.259 17.0954 123.258 18.5362C123.249 19.3986 123.1 20.2539 122.817 21.0689L119.46 20.7313C119.528 20.2837 119.574 19.8329 119.595 19.3806C119.595 17.6922 118.894 16.8479 117.493 16.8478C116.543 16.8478 115.746 17.3487 115.102 18.3505C114.457 19.3523 114.135 20.675 114.135 22.3186V30.4569H110.473Z" fill="#323232"/>
</g>
<defs>
<clipPath id="clip0_6808_26337">
<rect width="123.262" height="44.911" fill="white"/>
</clipPath>
</defs>
</svg>
