<svg width="80" height="80" viewBox="0 0 80 80" fill="none" xmlns="http://www.w3.org/2000/svg">
<rect x="4" y="4" width="72" height="72" rx="36" fill="#8D59FF"/>
<rect x="4" y="4" width="72" height="72" rx="36" stroke="white" stroke-width="8"/>
<path d="M53.1686 27.4868C50.7466 26.3358 48.1494 25.4877 45.4338 25.002C45.3844 24.9927 45.335 25.0161 45.3095 25.0629C44.9755 25.6783 44.6055 26.481 44.3464 27.112C41.4256 26.6591 38.5199 26.6591 35.659 27.112C35.3999 26.467 35.0164 25.6783 34.6809 25.0629C34.6554 25.0177 34.606 24.9942 34.5566 25.002C31.8425 25.4862 29.2453 26.3342 26.8218 27.4868C26.8008 27.4962 26.7829 27.5118 26.7709 27.5321C21.8445 35.1552 20.495 42.5909 21.157 49.9344C21.16 49.9703 21.1795 50.0047 21.2065 50.0265C24.4567 52.4988 27.6052 53.9997 30.6952 54.9945C30.7446 55.0102 30.797 54.9914 30.8285 54.9492C31.5595 53.9154 32.211 52.8253 32.7697 51.6789C32.8026 51.6117 32.7712 51.5321 32.7038 51.5055C31.6703 51.0995 30.6862 50.6044 29.7396 50.0422C29.6647 49.9969 29.6587 49.8859 29.7276 49.8328C29.9268 49.6782 30.126 49.5173 30.3163 49.3549C30.3507 49.3253 30.3986 49.319 30.4391 49.3377C36.658 52.2786 43.3908 52.2786 49.5363 49.3377C49.5768 49.3175 49.6248 49.3237 49.6607 49.3534C49.8509 49.5158 50.0501 49.6782 50.2508 49.8328C50.3197 49.8859 50.3152 49.9969 50.2404 50.0422C49.2937 50.6153 48.3096 51.0995 47.2746 51.504C47.2073 51.5305 47.1773 51.6117 47.2103 51.6789C47.7809 52.8236 48.4325 53.9138 49.1499 54.9477C49.1799 54.9914 49.2338 55.0102 49.2832 54.9945C52.3882 53.9997 55.5366 52.4988 58.7869 50.0265C58.8154 50.0047 58.8334 49.9719 58.8364 49.9359C59.6287 41.446 57.5093 34.0713 53.218 27.5337C53.2075 27.5118 53.1896 27.4962 53.1686 27.4868ZM33.6984 45.463C31.826 45.463 30.2833 43.6826 30.2833 41.496C30.2833 39.3095 31.7961 37.5291 33.6984 37.5291C35.6155 37.5291 37.1434 39.3252 37.1134 41.496C37.1134 43.6826 35.6006 45.463 33.6984 45.463ZM46.325 45.463C44.4527 45.463 42.91 43.6826 42.91 41.496C42.91 39.3095 44.4228 37.5291 46.325 37.5291C48.2423 37.5291 49.77 39.3252 49.7401 41.496C49.7401 43.6826 48.2423 45.463 46.325 45.463Z" fill="white"/>
</svg>
