<svg width="80" height="80" viewBox="0 0 80 80" fill="none" xmlns="http://www.w3.org/2000/svg">
<rect x="4" y="4" width="72" height="72" rx="36" fill="#FC5A11"/>
<rect x="4" y="4" width="72" height="72" rx="36" stroke="white" stroke-width="8"/>
<g clip-path="url(#clip0_228_3246)">
<path d="M40 59C50.4934 59 59 50.4934 59 40C59 29.5066 50.4934 21 40 21C29.5066 21 21 29.5066 21 40C21 50.4934 29.5066 59 40 59Z" fill="#FC5A11"/>
<path d="M52.6668 40C52.6668 38.4667 51.4224 37.2222 49.889 37.2222C49.1335 37.2222 48.4668 37.5111 47.9779 38C46.089 36.6444 43.4668 35.7556 40.5779 35.6444L41.8446 29.7111L45.9557 30.5778C46.0002 31.6222 46.8668 32.4667 47.9335 32.4667C49.0224 32.4667 49.9113 31.5778 49.9113 30.4889C49.9113 29.4 49.0224 28.5111 47.9335 28.5111C47.1557 28.5111 46.489 28.9556 46.1779 29.6222L41.5779 28.6444C41.4446 28.6222 41.3113 28.6444 41.2002 28.7111C41.089 28.7778 41.0224 28.8889 40.9779 29.0222L39.5779 35.6444C36.6224 35.7333 33.9779 36.6 32.0668 38C31.5779 37.5333 30.889 37.2222 30.1557 37.2222C28.6224 37.2222 27.3779 38.4667 27.3779 40C27.3779 41.1333 28.0446 42.0889 29.0224 42.5333C28.9779 42.8 28.9557 43.0889 28.9557 43.3778C28.9557 47.6444 33.9113 51.0889 40.0446 51.0889C46.1779 51.0889 51.1335 47.6444 51.1335 43.3778C51.1335 43.0889 51.1113 42.8222 51.0668 42.5556C51.9779 42.1111 52.6668 41.1333 52.6668 40ZM33.6668 41.9778C33.6668 40.8889 34.5557 40 35.6446 40C36.7335 40 37.6224 40.8889 37.6224 41.9778C37.6224 43.0667 36.7335 43.9556 35.6446 43.9556C34.5557 43.9556 33.6668 43.0667 33.6668 41.9778ZM44.7113 47.2C43.3557 48.5556 40.7779 48.6444 40.0224 48.6444C39.2668 48.6444 36.6668 48.5333 35.3335 47.2C35.1335 47 35.1335 46.6667 35.3335 46.4667C35.5335 46.2667 35.8668 46.2667 36.0668 46.4667C36.9113 47.3111 38.7335 47.6222 40.0446 47.6222C41.3557 47.6222 43.1557 47.3111 44.0224 46.4667C44.2224 46.2667 44.5557 46.2667 44.7557 46.4667C44.9113 46.6889 44.9113 47 44.7113 47.2ZM44.3557 43.9556C43.2668 43.9556 42.3779 43.0667 42.3779 41.9778C42.3779 40.8889 43.2668 40 44.3557 40C45.4446 40 46.3335 40.8889 46.3335 41.9778C46.3335 43.0667 45.4446 43.9556 44.3557 43.9556Z" fill="#F8F9FA"/>
</g>
<defs>
<clipPath id="clip0_228_3246">
<rect width="38" height="38" fill="white" transform="translate(21 21)"/>
</clipPath>
</defs>
</svg>
