<svg width="80" height="80" viewBox="0 0 80 80" fill="none" xmlns="http://www.w3.org/2000/svg">
<rect x="4" y="4" width="72" height="72" rx="36" fill="#E60019"/>
<rect x="4" y="4" width="72" height="72" rx="36" stroke="white" stroke-width="8"/>
<path d="M40 58.9844C50.4934 58.9844 59 50.4778 59 39.9844C59 29.491 50.4934 20.9844 40 20.9844C29.5066 20.9844 21 29.491 21 39.9844C21 50.4778 29.5066 58.9844 40 58.9844Z" fill="white"/>
<path d="M40 20.9844C29.507 20.9844 21 29.4914 21 39.9844C21 48.0379 26.0041 54.9185 33.0724 57.6864C32.9004 56.1852 32.7597 53.8708 33.135 52.2288C33.479 50.7432 35.3556 42.7836 35.3556 42.7836C35.3556 42.7836 34.7926 41.642 34.7926 39.9687C34.7926 37.3259 36.3251 35.3556 38.2329 35.3556C39.8593 35.3556 40.6412 36.5753 40.6412 38.0296C40.6412 39.656 39.6091 42.0955 39.0617 44.363C38.6082 46.2552 40.0156 47.8033 41.8765 47.8033C45.2543 47.8033 47.8502 44.2379 47.8502 39.1087C47.8502 34.558 44.5819 31.3836 39.9062 31.3836C34.4955 31.3836 31.321 35.4338 31.321 39.6247C31.321 41.251 31.9465 43.0025 32.7284 43.9564C32.8848 44.144 32.9004 44.3161 32.8535 44.5037C32.7128 45.098 32.3844 46.3959 32.3218 46.6617C32.2436 47.0058 32.0403 47.084 31.6807 46.9119C29.3037 45.8017 27.8181 42.3457 27.8181 39.5465C27.8181 33.5572 32.1654 28.0527 40.3753 28.0527C46.9588 28.0527 52.0881 32.744 52.0881 39.0305C52.0881 45.5827 47.9597 50.8527 42.2362 50.8527C40.3128 50.8527 38.4988 49.8519 37.8889 48.6634C37.8889 48.6634 36.935 52.2914 36.7004 53.1827C36.2782 54.8403 35.121 56.9045 34.3391 58.1712C36.1218 58.7185 37.9984 59.0157 39.9687 59.0157C50.4617 59.0157 58.9687 50.5087 58.9687 40.0157C59 29.4914 50.493 20.9844 40 20.9844Z" fill="#E60019"/>
</svg>
