<svg width="80" height="80" viewBox="0 0 80 80" fill="none" xmlns="http://www.w3.org/2000/svg">
<rect x="4" y="4" width="72" height="72" rx="36" fill="#FF4A00"/>
<rect x="4" y="4" width="72" height="72" rx="36" stroke="white" stroke-width="8"/>
<path d="M43.6939 44.0852C41.3194 44.9787 38.6585 44.9804 36.2839 44.0857C35.3892 41.7137 35.389 39.0534 36.2825 36.681C38.6565 35.786 41.32 35.7858 43.694 36.6809C44.5884 39.0525 44.588 41.7135 43.6939 44.0852ZM57.2567 37.4662H47.035L54.2624 30.243C53.1281 28.6506 51.7278 27.2519 50.1345 26.1183L42.9066 33.3415V23.1265C40.9775 22.8022 38.9991 22.8027 37.0701 23.1265V33.3415L29.8421 26.1183C28.2492 27.2511 26.8485 28.6518 25.7141 30.243L32.9426 37.4662H22.721C22.4687 39.4518 22.3868 41.3179 22.721 43.2995H32.9427L25.7142 50.5227C26.8513 52.1174 28.2464 53.5116 29.8421 54.6479L37.0701 47.4241V57.6397C38.9994 57.9628 40.9772 57.963 42.9064 57.6397V47.4241L50.1351 54.6479C51.729 53.5132 53.1269 52.1156 54.2624 50.5227L47.0339 43.2995H57.2567C57.5811 41.3733 57.5811 39.3924 57.2567 37.4662Z" fill="white"/>
</svg>
