<svg width="80" height="80" viewBox="0 0 80 80" fill="none" xmlns="http://www.w3.org/2000/svg">
<rect x="4" y="4" width="72" height="72" rx="36" fill="white"/>
<rect x="4" y="4" width="72" height="72" rx="36" stroke="white" stroke-width="8"/>
<path d="M40 57.8828C49.665 57.8828 57.5 50.0478 57.5 40.3828C57.5 30.7178 49.665 22.8828 40 22.8828C30.335 22.8828 22.5 30.7178 22.5 40.3828C22.5 50.0478 30.335 57.8828 40 57.8828Z" fill="#FF0000"/>
<path d="M40 32.4014C44.4016 32.4014 47.9815 35.9813 47.9815 40.3829C47.9815 44.7846 44.4016 48.3645 40 48.3645C35.5984 48.3645 32.0185 44.7846 32.0185 40.3829C32.0185 35.9813 35.5984 32.4014 40 32.4014ZM40 31.6329C35.1666 31.6329 31.25 35.5495 31.25 40.3829C31.25 45.2164 35.1666 49.1329 40 49.1329C44.8334 49.1329 48.75 45.2164 48.75 40.3829C48.75 35.5495 44.8334 31.6329 40 31.6329Z" fill="white"/>
<path d="M37.5 45.3828L45 40.1654L37.5 35.3828V45.3828Z" fill="white"/>
</svg>
