<svg width="80" height="80" viewBox="0 0 80 80" fill="none" xmlns="http://www.w3.org/2000/svg">
<rect x="4" y="4" width="72" height="72" rx="36" fill="#1A1A1C"/>
<rect x="4" y="4" width="72" height="72" rx="36" stroke="white" stroke-width="8"/>
<path d="M32.2724 24C32.5855 24 32.8802 24.147 33.0693 24.3965L41.9345 36.0986L53.373 24.3037C53.7575 23.9073 54.3906 23.8978 54.787 24.2822C55.1834 24.6667 55.193 25.2998 54.8085 25.6963L43.1562 37.7119L55.7968 54.3965C56.026 54.6991 56.0644 55.1054 55.8954 55.4453C55.7264 55.7852 55.3795 56 54.9999 56H47.7275C47.4144 56 47.1196 55.853 46.9306 55.6035L37.666 43.374L25.7177 55.6963C25.3332 56.0926 24.7001 56.1022 24.3036 55.7178C23.9073 55.3333 23.8977 54.7002 24.2822 54.3037L36.4443 41.7617L24.2031 25.6035C23.9739 25.3009 23.9355 24.8946 24.1044 24.5547C24.2734 24.2148 24.6204 24 24.9999 24H32.2724ZM48.2236 54H52.9882L31.7763 26H27.0117L48.2236 54Z" fill="#FCFCFC"/>
</svg>
