<svg width="80" height="80" viewBox="0 0 80 80" fill="none" xmlns="http://www.w3.org/2000/svg">
<rect x="4" y="4" width="72" height="72" rx="36" fill="white"/>
<rect x="4" y="4" width="72" height="72" rx="36" stroke="white" stroke-width="8"/>
<g clip-path="url(#clip0_228_3244)">
<path d="M30.8238 47.9677V43.7315C30.8238 40.7566 26.768 39.7096 25.2521 42.2951L23.7677 44.8252C23.3524 45.5339 22.4153 45.7716 21.6941 45.3429C20.9983 44.9302 20.8049 44.0246 21.2083 43.3348L28.2343 31.3581C29.7502 28.774 33.8061 29.8196 33.8061 32.796V37.0482C33.8061 40.0216 37.8604 41.0687 39.3777 38.4876L43.5716 31.3493C45.0888 28.7668 49.1432 29.8138 49.1432 32.7886V37.0716C49.1432 40.045 53.1945 41.092 54.7135 38.5123L56.2337 35.9298C56.6505 35.2225 57.5877 34.9848 58.3075 35.415C59.0032 35.8306 59.1951 36.7347 58.7902 37.4245L51.7311 49.4187C50.2123 51.9984 46.1609 50.9513 46.1609 47.9779V43.7096C46.1609 40.7362 42.1066 39.6892 40.5893 42.2703L36.3955 49.4084C34.8781 51.991 30.8238 50.9439 30.8238 47.9692V47.9677Z" fill="black"/>
</g>
<defs>
<clipPath id="clip0_228_3244">
<rect width="38" height="21" fill="white" transform="translate(21 29.8828)"/>
</clipPath>
</defs>
</svg>
