<svg width="80" height="80" viewBox="0 0 80 80" fill="none" xmlns="http://www.w3.org/2000/svg">
<rect x="4" y="4" width="72" height="72" rx="36" fill="#FF0000"/>
<rect x="4" y="4" width="72" height="72" rx="36" stroke="white" stroke-width="8"/>
<path d="M58.2055 31.18C57.9906 30.3716 57.5672 29.6337 56.9776 29.0404C56.388 28.447 55.6529 28.0189 54.8459 27.7989C51.875 27 40 27 40 27C40 27 28.125 27 25.1541 27.7989C24.3471 28.0189 23.612 28.447 23.0224 29.0404C22.4328 29.6337 22.0094 30.3716 21.7945 31.18C21 34.1639 21 40.3864 21 40.3864C21 40.3864 21 46.6089 21.7945 49.5927C22.0094 50.4012 22.4328 51.139 23.0224 51.7324C23.612 52.3257 24.3471 52.7539 25.1541 52.9739C28.125 53.7727 40 53.7727 40 53.7727C40 53.7727 51.875 53.7727 54.8459 52.9739C55.6529 52.7539 56.388 52.3257 56.9776 51.7324C57.5672 51.139 57.9906 50.4012 58.2055 49.5927C59 46.6089 59 40.3864 59 40.3864C59 40.3864 59 34.1639 58.2055 31.18Z" fill="white"/>
<path d="M36.1533 46.106V34.8053L46.0851 40.4556L36.1533 46.106Z" fill="#FF0000"/>
</svg>
