<svg width="80" height="80" viewBox="0 0 80 80" fill="none" xmlns="http://www.w3.org/2000/svg">
<rect x="4" y="4" width="72" height="72" rx="36" fill="white"/>
<rect x="4" y="4" width="72" height="72" rx="36" stroke="white" stroke-width="8"/>
<path d="M55.5426 48.6898C49.9319 45.9408 49.0376 41.6964 48.9978 41.3815C48.9497 41.0002 48.895 40.7004 49.3107 40.3125C49.7115 39.9377 51.4898 38.8236 51.9832 38.4751C52.7988 37.8979 53.158 37.3217 52.8932 36.6134C52.7081 36.1233 52.2572 35.9387 51.7824 35.9387C51.6326 35.9392 51.4833 35.9562 51.3371 35.9893C50.441 36.1861 49.5708 36.6405 49.0672 36.7633C49.0067 36.7791 48.9446 36.7876 48.8821 36.7886C48.6136 36.7886 48.5118 36.6677 48.5377 36.3407C48.6007 35.3494 48.734 33.4146 48.5794 31.6072C48.3674 29.1205 47.575 27.8884 46.6354 26.7987C46.1809 26.2703 44.0702 24 39.9971 24C35.924 24 33.8161 26.2703 33.3644 26.7921C32.422 27.8818 31.6305 29.1139 31.4204 31.6006C31.2658 33.408 31.4046 35.3419 31.462 36.3341C31.4805 36.6452 31.3861 36.782 31.1176 36.782C31.0552 36.7809 30.993 36.7724 30.9325 36.7567C30.4298 36.634 29.5597 36.1795 28.6636 35.9828C28.5174 35.9496 28.3681 35.9327 28.2183 35.9322C27.7416 35.9322 27.2926 36.1196 27.1075 36.6068C26.8427 37.3151 27.2 37.8914 28.0184 38.4685C28.5118 38.8171 30.2901 39.9302 30.6909 40.3059C31.1056 40.6938 31.0519 40.9936 31.0038 41.375C30.964 41.6945 30.0688 45.9389 24.459 48.6833C24.1304 48.8444 23.5712 49.1855 24.5571 49.7364C26.1049 50.6022 27.1352 50.5094 27.936 51.0313C28.6154 51.4745 28.2137 52.4302 28.708 52.775C29.3153 53.1994 31.1102 52.745 33.4292 53.5199C35.3732 54.1682 36.5544 56 40.0017 56C43.4491 56 44.6645 54.1598 46.5743 53.5199C48.8886 52.745 50.6872 53.1994 51.2954 52.775C51.7888 52.4302 51.388 51.4745 52.0675 51.0313C52.8682 50.5094 53.8976 50.6022 55.4463 49.7364C56.4304 49.192 55.8712 48.851 55.5426 48.6898Z" fill="#FFF44F"/>
<path d="M39.9968 22C44.8517 22 47.4321 24.7239 48.0515 25.4436L48.265 25.6964C49.3203 26.9782 50.2044 28.5433 50.4404 31.3114L50.4689 31.6847C50.5317 32.6348 50.5268 33.5923 50.5007 34.4261C50.6457 34.3805 50.7957 34.3347 50.9502 34.2955L51.1712 34.2436C51.439 34.1837 51.7127 34.1532 51.9873 34.1523H51.9923C52.8296 34.1523 54.0319 34.4899 54.618 35.6942L54.7268 35.947L54.7285 35.9528C55.0291 36.7571 54.984 37.5903 54.5929 38.3418C54.2478 39.0047 53.6934 39.4888 53.1876 39.8468L53.1859 39.8477C52.9083 40.0438 52.2705 40.4559 51.7487 40.8019C51.4696 40.987 51.2052 41.1645 50.9904 41.3158C50.9614 41.3363 50.9344 41.3566 50.9083 41.3753C51.1247 42.1239 52.1633 44.9639 56.1105 47.0681L56.5742 47.3058C56.6858 47.3605 56.9036 47.4705 57.1224 47.6364C57.3153 47.7827 57.7072 48.1185 57.8975 48.6886C58.1309 49.3883 57.9437 50.0597 57.5928 50.5419C57.2965 50.949 56.8933 51.2217 56.5516 51.4107L56.5507 51.4099C55.587 51.9476 54.7788 52.1874 54.1677 52.3541C53.8355 52.4447 53.6314 52.5012 53.4947 52.5449C53.4739 52.695 53.4388 52.9189 53.3792 53.1225C53.2732 53.4848 53.0379 54.0174 52.4786 54.4082L52.4778 54.409C51.9328 54.7893 51.3099 54.8663 50.9878 54.8987C50.6291 54.9348 50.1701 54.9452 49.8219 54.9607C49.0469 54.9952 48.1879 55.0682 47.2363 55.3867C46.9281 55.49 46.6125 55.6537 46.2034 55.8998C45.8482 56.1135 45.2877 56.4772 44.7654 56.767C43.5841 57.4223 42.1125 58 40.0018 58C37.8913 58 36.4281 57.4247 35.25 56.7695C34.7343 56.4827 34.1671 56.1147 33.8162 55.904C33.4082 55.6591 33.0878 55.4936 32.7699 55.3876H32.7691C31.8145 55.0686 30.9545 54.9952 30.1802 54.9607C29.8323 54.9452 29.3735 54.9348 29.015 54.8987C28.6933 54.8663 28.0708 54.7886 27.5259 54.4082V54.409C26.9664 54.0187 26.73 53.4864 26.6236 53.1233C26.5639 52.9195 26.529 52.6952 26.5081 52.5449C26.3714 52.5013 26.1677 52.4445 25.836 52.3541C25.2233 52.187 24.4112 51.9472 23.4446 51.4065L23.4454 51.4057C23.1034 51.2145 22.702 50.9418 22.4075 50.5352C22.0596 50.0547 21.8718 49.3857 22.1028 48.6869C22.2919 48.1156 22.6837 47.779 22.8779 47.6314C23.0973 47.4647 23.3154 47.3538 23.427 47.2991L23.4287 47.2983C27.7645 45.1771 28.8703 42.1409 29.0929 41.3686C29.0668 41.3499 29.0398 41.3296 29.0108 41.3092C28.7961 41.1578 28.5324 40.9794 28.2533 40.7944C27.732 40.4487 27.093 40.0371 26.8153 39.841V39.8401C26.3078 39.4819 25.7526 38.9985 25.4074 38.3351C25.0158 37.5823 24.9719 36.7488 25.2718 35.9461L25.2752 35.9369C25.8069 34.5379 27.1051 34.1457 28.0081 34.1456H28.0139C28.288 34.1465 28.561 34.1772 28.8284 34.2369H28.8292C28.8306 34.2372 28.832 34.2374 28.8334 34.2377C28.8359 34.2383 28.8384 34.2388 28.8409 34.2394H28.8401C29.0684 34.2899 29.2902 34.3533 29.5005 34.4194C29.4704 33.4772 29.4676 32.3742 29.5591 31.3047C29.8088 28.3527 30.7972 26.7679 31.9496 25.4353V25.4344C32.5602 24.7291 35.1375 22.0001 39.9968 22ZM39.9968 23.7143C35.8517 23.7144 33.7063 26.0246 33.2462 26.5561C32.2871 27.6652 31.4814 28.9194 31.2675 31.4503C31.1101 33.2899 31.2517 35.2584 31.3101 36.2684L31.311 36.3789C31.3015 36.6178 31.1985 36.7246 30.9594 36.7246L30.864 36.7171C30.8327 36.7128 30.8017 36.7066 30.7711 36.6987C30.3234 36.5893 29.5891 36.2216 28.8016 35.9972L28.4617 35.911C28.313 35.8772 28.1605 35.8604 28.0081 35.8599C27.5229 35.86 27.0657 36.0505 26.8772 36.5463L26.8346 36.6802C26.6558 37.3408 27.024 37.8907 27.8047 38.4414C28.3069 38.7962 30.117 39.929 30.525 40.3114L30.6614 40.4554C30.9334 40.7837 30.886 41.0598 30.8431 41.3996L30.8247 41.5059C30.6704 42.2584 29.5353 46.2195 24.182 48.8384C23.8476 49.0025 23.2786 49.3492 24.2816 49.9099C25.857 50.7911 26.906 50.697 27.721 51.2282C28.4125 51.6793 28.0038 52.6518 28.5069 53.0028C29.125 53.4348 30.9521 52.9725 33.3123 53.7612C35.229 54.4006 36.4172 56.1708 39.6796 56.2807L40.0018 56.2857C43.5106 56.2857 44.7476 54.4125 46.6914 53.7612C49.0469 52.9725 50.8777 53.4348 51.4968 53.0028C51.9988 52.6518 51.5912 51.6793 52.2827 51.2282C53.0977 50.6971 54.1458 50.7911 55.7221 49.9099C56.7227 49.3561 56.1545 49.0092 55.82 48.8451C50.4661 46.2219 49.3316 42.2606 49.1774 41.5117L49.1581 41.4063C49.1152 41.0665 49.0674 40.7904 49.3397 40.4621L49.477 40.3181C49.7832 40.0319 50.8774 39.3229 51.6173 38.8365L52.1965 38.4481C53.0266 37.8607 53.3925 37.2739 53.1231 36.553C52.9347 36.0542 52.4756 35.8666 51.9923 35.8666C51.8399 35.8671 51.6881 35.884 51.5394 35.9177L51.1988 36.0039C50.4115 36.2283 49.6777 36.5959 49.2292 36.7054C49.1677 36.7214 49.1037 36.7303 49.0401 36.7313L48.9455 36.7254C48.7722 36.7013 48.6911 36.6017 48.686 36.3906L48.6902 36.2751C48.7543 35.266 48.8894 33.2965 48.7321 31.457C48.5162 28.9261 47.7096 27.6719 46.7533 26.5628C46.2902 26.0244 44.1418 23.7143 39.9968 23.7143Z" fill="black"/>
</svg>
