<svg width="148" height="45" viewBox="0 0 148 45" fill="none" xmlns="http://www.w3.org/2000/svg">
<path fill-rule="evenodd" clip-rule="evenodd" d="M11.6605 28.9138L4.96996 22.1925C3.83309 21.0504 1.98988 21.0504 0.852648 22.1925C-0.284216 23.3346 -0.284216 25.1862 0.852648 26.3286L9.60185 35.1181C10.7387 36.2601 12.5824 36.2601 13.7192 35.1181L21.9542 26.8449L17.8372 22.7087L11.6605 28.9138Z" fill="#16B8A2"/>
<path fill-rule="evenodd" clip-rule="evenodd" d="M36.882 15.9911L24.0166 28.9155L11.1496 15.9896C10.0124 14.8472 8.16919 14.8472 7.03233 15.9896C5.89547 17.1317 5.89547 18.9834 7.03233 20.1259L21.9578 35.1198C23.0948 36.262 24.938 36.262 26.0752 35.1198L40.9993 20.1273C42.1361 18.9849 42.1361 17.1332 40.9993 15.9911C39.862 14.849 38.0188 14.849 36.882 15.9911Z" fill="#FFB41F"/>
<path fill-rule="evenodd" clip-rule="evenodd" d="M47.1712 26.3335L38.4234 35.1214C37.2866 36.2635 35.4433 36.2635 34.3064 35.1214L13.2042 13.9224C12.0673 12.7803 12.0673 10.9286 13.2042 9.78652C14.3414 8.64408 16.1847 8.64408 17.3215 9.78652L36.3648 28.9171L43.0538 22.1973C44.191 21.0553 46.0343 21.0553 47.1712 22.1973C48.308 23.3398 48.308 25.1915 47.1712 26.3335Z" fill="#F56358"/>
<path fill-rule="evenodd" clip-rule="evenodd" d="M34.8187 9.78625C33.6818 8.64417 31.8386 8.64417 30.7013 9.78625L17.8359 22.7107L21.9533 26.847L34.8187 13.9225C35.9556 12.78 35.9556 10.9283 34.8187 9.78625Z" fill="#16B8A2"/>
<path fill-rule="evenodd" clip-rule="evenodd" d="M59.6035 11.8025H56.0234V32.9292H69.1411V29.7387H59.6035V11.8025ZM76.8894 18.1549C79.0662 18.1549 80.5269 19.0459 81.3289 20.1382L81.5006 18.4423H84.5939V32.9292H81.5006L81.3289 31.2334C80.5269 32.3257 79.0662 33.2167 76.8894 33.2167C72.9655 33.2167 70.302 30.0261 70.302 25.6858C70.302 21.3167 72.9655 18.1549 76.8894 18.1549ZM77.6341 21.2018C75.4001 21.2018 73.7961 22.9552 73.7961 25.6858C73.7961 28.4165 75.4001 30.1699 77.6341 30.1699C79.3526 30.1699 80.3837 29.25 81.157 28.014V23.3575C80.3837 22.1216 79.3526 21.2018 77.6341 21.2018ZM93.2588 13.5846H89.8219V18.4423H87.1009V21.3743H89.8219V27.8129C89.8219 31.3196 91.9126 33.2167 95.2064 33.2167C96.6384 33.2167 97.6982 32.8143 98.4142 32.3544L97.4977 29.6525C97.068 29.9112 96.4379 30.1123 95.5215 30.1123C94.1753 30.1123 93.2588 29.25 93.2588 27.7841V21.3743H97.6122V18.4423H93.2588V13.5846ZM105.103 13.5846H101.666V18.4423H98.9449V21.3743H101.666V27.8129C101.666 31.3196 103.757 33.2167 107.05 33.2167C108.482 33.2167 109.542 32.8143 110.258 32.3544L109.342 29.6525C108.912 29.9112 108.282 30.1123 107.365 30.1123C106.019 30.1123 105.103 29.25 105.103 27.7841V21.3743H109.456V18.4423H105.103V13.5846ZM116.002 18.4423H112.565V32.9292H116.002V18.4423ZM114.283 11.6875C113.08 11.6875 112.164 12.5786 112.164 13.8146C112.164 15.0505 113.08 15.9416 114.283 15.9416C115.515 15.9416 116.431 15.0505 116.431 13.8146C116.431 12.5786 115.515 11.6875 114.283 11.6875ZM126.385 18.1549C121.946 18.1549 118.996 21.3167 118.996 25.6858C118.996 30.0261 121.975 33.2167 126.413 33.2167C129.02 33.2167 130.996 32.0382 132.285 30.0261L129.822 28.1003C129.134 29.25 128.018 30.1986 126.443 30.1986C123.893 30.1986 122.49 28.2153 122.49 25.6858C122.49 23.1275 123.836 21.173 126.413 21.173C128.018 21.173 129.077 22.0928 129.736 23.2426L132.228 21.3455C130.938 19.3334 129.02 18.1549 126.385 18.1549ZM140.692 18.1549C145.132 18.1549 147.309 21.4892 147.309 25.5421V26.7493H137.112C137.198 29.0488 138.573 30.3136 140.978 30.3136C142.668 30.3136 143.9 29.5662 144.559 28.6465L146.936 30.601C145.503 32.3257 143.614 33.2167 140.95 33.2167C136.482 33.2167 133.618 30.0549 133.618 25.7145C133.618 21.3455 136.54 18.1549 140.692 18.1549ZM140.635 20.9143C138.602 20.9143 137.226 22.2653 137.112 24.2774H143.929C143.843 22.294 142.697 20.9143 140.635 20.9143Z" fill="#0E0E29"/>
</svg>
