<svg width="131" height="28" viewBox="0 0 131 28" fill="none" xmlns="http://www.w3.org/2000/svg">
<g clip-path="url(#clip0_879_27104)">
<path d="M54.4805 5.59991V22.3999H51.5703V9.21658H51.5315L46.3318 22.3999H44.3917L39.0756 9.21658H39.0368V22.3999H36.3594V5.59991H40.5501L45.3617 18.0444H45.4394L50.5226 5.59991H54.4805ZM56.8863 6.88325C56.8863 6.41658 57.0415 6.02769 57.3908 5.71658C57.74 5.40547 58.128 5.24991 58.5937 5.24991C59.0981 5.24991 59.525 5.40547 59.8354 5.71658C60.1458 6.02769 60.3398 6.41658 60.3398 6.88325C60.3398 7.34991 60.1846 7.7388 59.8354 8.04991C59.4862 8.36102 59.0981 8.51658 58.5937 8.51658C58.0892 8.51658 57.7012 8.36102 57.3908 8.04991C57.0803 7.69991 56.8863 7.31102 56.8863 6.88325ZM60.0294 10.3444V22.3999H57.1968V10.3444H60.0294ZM68.6049 20.3388C69.0318 20.3388 69.4974 20.261 70.0019 20.0277C70.5063 19.8332 70.9719 19.561 71.3988 19.2499V21.8944C70.9331 22.1666 70.4287 22.361 69.8466 22.4777C69.2646 22.5944 68.6437 22.6721 67.9453 22.6721C66.1603 22.6721 64.7246 22.1277 63.6381 20.9999C62.5128 19.8721 61.9696 18.4332 61.9696 16.7221C61.9696 14.7777 62.5516 13.1832 63.6769 11.9388C64.8022 10.6944 66.3931 10.0721 68.4885 10.0721C69.0318 10.0721 69.575 10.1499 70.0795 10.2666C70.6227 10.3832 71.0495 10.5777 71.36 10.7332V13.4555C70.9331 13.1444 70.4675 12.8721 70.0407 12.7166C69.575 12.561 69.1094 12.4444 68.6437 12.4444C67.5184 12.4444 66.626 12.7944 65.9275 13.5332C65.229 14.2721 64.9186 15.2444 64.9186 16.4888C64.9186 17.6944 65.2678 18.6666 65.9275 19.3277C66.5872 19.9888 67.4796 20.3388 68.6049 20.3388ZM79.4311 10.1499C79.6639 10.1499 79.8579 10.1499 80.0519 10.1888C80.2459 10.2277 80.4011 10.2666 80.5176 10.3055V13.1832C80.3623 13.0666 80.1683 12.9499 79.8579 12.8721C79.5475 12.7944 79.237 12.7166 78.8102 12.7166C78.1117 12.7166 77.5297 13.0277 77.0641 13.611C76.5984 14.1944 76.3268 15.0888 76.3268 16.3332V22.3999H73.4941V10.3444H76.3268V12.2499H76.3656C76.6372 11.5888 77.0253 11.0832 77.5297 10.6944C78.0729 10.3444 78.6938 10.1499 79.4311 10.1499ZM80.6728 16.5666C80.6728 14.5832 81.2548 12.9888 82.3413 11.8221C83.4666 10.6555 85.0187 10.0721 86.9977 10.0721C88.8603 10.0721 90.3348 10.6166 91.3825 11.7444C92.4302 12.8721 92.9734 14.3888 92.9734 16.2944C92.9734 18.2388 92.3914 19.7944 91.3049 20.961C90.1796 22.1277 88.6662 22.711 86.7261 22.711C84.8635 22.711 83.389 22.1666 82.3025 21.0777C81.216 19.9499 80.6728 18.4332 80.6728 16.5666ZM83.6218 16.4499C83.6218 17.6944 83.8934 18.6666 84.4755 19.3277C85.0575 19.9888 85.8724 20.3388 86.9201 20.3388C87.929 20.3388 88.7439 20.0277 89.2871 19.3277C89.8304 18.6666 90.102 17.6944 90.102 16.3721C90.102 15.0888 89.8304 14.1166 89.2871 13.4166C88.7439 12.7555 87.929 12.4055 86.9589 12.4055C85.9112 12.4055 85.1351 12.7555 84.5531 13.4555C83.8934 14.1944 83.6218 15.1666 83.6218 16.4499ZM97.203 13.5332C97.203 13.9221 97.3194 14.2721 97.591 14.5055C97.8626 14.7388 98.4059 15.011 99.2984 15.361C100.424 15.8277 101.239 16.3332 101.665 16.8777C102.131 17.461 102.364 18.1221 102.364 18.9388C102.364 20.0666 101.937 20.961 101.045 21.661C100.191 22.361 98.9879 22.6721 97.5134 22.6721C97.009 22.6721 96.4657 22.5944 95.8449 22.4777C95.224 22.361 94.7196 22.2055 94.2927 22.011V19.211C94.7972 19.561 95.3792 19.8721 95.9613 20.0666C96.5433 20.261 97.0866 20.3777 97.591 20.3777C98.2119 20.3777 98.7163 20.2999 98.9879 20.1055C99.2984 19.911 99.4536 19.6388 99.4536 19.211C99.4536 18.8221 99.2984 18.511 98.9879 18.1999C98.6775 17.9277 98.0567 17.6166 97.203 17.2666C96.1553 16.8388 95.418 16.3332 94.9912 15.7888C94.5644 15.2444 94.3315 14.5444 94.3315 13.6888C94.3315 12.5999 94.7584 11.7055 95.612 11.0055C96.4657 10.3055 97.591 9.95547 98.9491 9.95547C99.376 9.95547 99.8416 9.99436 100.346 10.111C100.85 10.2277 101.316 10.3444 101.665 10.461V13.2221C101.277 12.9888 100.85 12.7555 100.346 12.561C99.8416 12.3666 99.3372 12.2888 98.8715 12.2888C98.3283 12.2888 97.9014 12.4055 97.6298 12.5999C97.3582 12.8721 97.203 13.1444 97.203 13.5332ZM103.567 16.5666C103.567 14.5832 104.149 12.9888 105.235 11.8221C106.361 10.6555 107.913 10.0721 109.892 10.0721C111.754 10.0721 113.229 10.6166 114.276 11.7444C115.324 12.8721 115.867 14.3888 115.867 16.2944C115.867 18.2388 115.285 19.7944 114.199 20.961C113.074 22.1277 111.56 22.711 109.62 22.711C107.757 22.711 106.283 22.1666 105.196 21.0777C104.149 19.9499 103.567 18.4332 103.567 16.5666ZM106.516 16.4499C106.516 17.6944 106.787 18.6666 107.369 19.3277C107.952 19.9888 108.766 20.3388 109.814 20.3388C110.823 20.3388 111.638 20.0277 112.181 19.3277C112.724 18.6666 112.996 17.6944 112.996 16.3721C112.996 15.0888 112.724 14.1166 112.181 13.4166C111.638 12.7555 110.823 12.4055 109.853 12.4055C108.805 12.4055 108.029 12.7555 107.447 13.4555C106.826 14.1944 106.516 15.1666 106.516 16.4499ZM125.297 12.6777H121.067V22.3999H118.196V12.6777H116.178V10.3444H118.196V8.67214C118.196 7.42769 118.622 6.37769 119.437 5.56102C120.252 4.74436 121.3 4.35547 122.58 4.35547C122.93 4.35547 123.24 4.39436 123.512 4.39436C123.783 4.39436 124.016 4.47214 124.21 4.54991V6.99991C124.132 6.96102 123.938 6.88325 123.706 6.80547C123.473 6.72769 123.201 6.6888 122.891 6.6888C122.309 6.6888 121.843 6.88325 121.533 7.23325C121.222 7.58325 121.067 8.16658 121.067 8.86658V10.3055H125.297V7.58325L128.129 6.72769V10.3055H131.001V12.6388H128.129V18.2777C128.129 19.0166 128.284 19.5221 128.517 19.8332C128.789 20.1444 129.216 20.2999 129.798 20.2999C129.953 20.2999 130.147 20.261 130.38 20.1832C130.613 20.1055 130.807 20.0277 130.962 19.911V22.2444C130.768 22.361 130.496 22.4388 130.069 22.5166C129.643 22.5944 129.255 22.6332 128.828 22.6332C127.625 22.6332 126.732 22.3221 126.15 21.6999C125.568 21.0777 125.258 20.1055 125.258 18.8221L125.297 12.6777Z" fill="#565656"/>
<path d="M13.2707 0H0V13.3H13.2707V0Z" fill="#565656"/>
<path d="M27.9348 0H14.6641V13.3H27.9348V0Z" fill="#565656"/>
<path d="M13.2707 14.6992H0V27.9992H13.2707V14.6992Z" fill="#565656"/>
<path d="M27.9348 14.6992H14.6641V27.9992H27.9348V14.6992Z" fill="#565656"/>
</g>
<defs>
<clipPath id="clip0_879_27104">
<rect width="131" height="28" fill="white"/>
</clipPath>
</defs>
</svg>
