<svg width="129" height="45" viewBox="0 0 129 45" fill="none" xmlns="http://www.w3.org/2000/svg">
<path fill-rule="evenodd" clip-rule="evenodd" d="M5.71206 11.2665C6.79023 12.1363 7.18021 12.0676 9.19893 11.9303L28.2162 10.7858C28.6291 10.7858 28.285 10.3738 28.1474 10.328L24.9816 8.06195C24.3852 7.60416 23.5594 7.05482 22.0224 7.19215L3.62452 8.54263C2.95926 8.6113 2.82162 8.95464 3.0969 9.20642L5.71206 11.2665ZM6.85905 15.6841V35.6437C6.85905 36.7195 7.38668 37.1087 8.60249 37.04L29.5008 35.8268C30.7166 35.7582 30.8543 35.0257 30.8543 34.1559V14.3337C30.8543 13.4639 30.5102 12.9832 29.7761 13.0518L7.93723 14.3337C7.13433 14.4023 6.85905 14.8143 6.85905 15.6841ZM27.4821 16.7599C27.6197 17.3551 27.4821 17.9731 26.8857 18.0417L25.8763 18.2478V32.9886C25.0046 33.4464 24.2017 33.721 23.5135 33.721C22.4353 33.721 22.16 33.3777 21.3571 32.3705L14.7733 22.0474V32.0272L16.8609 32.485C16.8609 32.485 16.8609 33.6981 15.1863 33.6981L10.5524 33.9728C10.4148 33.6981 10.5524 33.0343 11.0112 32.897L12.227 32.5537V19.3693L10.5524 19.232C10.4148 18.6369 10.7589 17.7671 11.6994 17.6984L16.6774 17.3551L23.5364 27.7927V18.5682L21.793 18.3622C21.6553 17.6297 22.2059 17.0804 22.8712 17.0117L27.4821 16.7599ZM2.08754 6.71147L21.2424 5.31522C23.5823 5.10921 24.2017 5.24655 25.6698 6.32235L31.7719 10.6027C32.7812 11.3351 33.1253 11.5411 33.1253 12.3423V35.8497C33.1253 37.3147 32.5977 38.1845 30.7166 38.3218L8.48779 39.6723C7.06552 39.7409 6.40026 39.5349 5.66618 38.5965L1.147 32.7597C0.3441 31.6839 0 30.8827 0 29.9443V9.0462C0 7.83305 0.550559 6.84881 2.08754 6.71147Z" fill="black"/>
<path d="M44.8294 33.9502V19.3952H45.0887L55.6834 33.9502H59.0174V12.5759H55.313V27.0943H55.0536L44.459 12.5759H41.125V33.9502H44.8294ZM69.5009 34.2802C74.3908 34.2802 77.3914 31.1272 77.3914 25.8478C77.3914 20.605 74.3908 17.4154 69.5009 17.4154C64.6481 17.4154 61.6105 20.605 61.6105 25.8478C61.6475 31.1272 64.6111 34.2802 69.5009 34.2802ZM69.5009 31.2005C66.9078 31.2005 65.426 29.2574 65.426 25.8478C65.426 22.4748 66.9078 20.4951 69.5009 20.4951C72.094 20.4951 73.5758 22.4748 73.5758 25.8478C73.5758 29.2574 72.094 31.2005 69.5009 31.2005ZM80.7624 13.7858V17.8553H78.1693V20.7884H80.7624V29.624C80.7624 32.777 82.2441 34.0236 86.0227 34.0236C86.7265 34.0236 87.4304 33.9502 87.986 33.8402V30.9806C87.5415 31.0172 87.2451 31.0539 86.7265 31.0539C85.1707 31.0539 84.4668 30.3573 84.4668 28.7441V20.7884H87.986V17.8553H84.4668V13.7858H80.7624ZM90.2087 33.9502H93.9131V17.7454H90.2087V33.9502ZM92.0609 15.069C93.2834 15.069 94.2836 14.0791 94.2836 12.8692C94.2836 11.6227 93.2834 10.6328 92.0609 10.6328C90.8384 10.6328 89.8382 11.6227 89.8382 12.8692C89.8382 14.0791 90.8384 15.069 92.0609 15.069ZM104.063 34.2802C108.953 34.2802 111.954 31.1272 111.954 25.8478C111.954 20.605 108.953 17.4154 104.063 17.4154C99.2104 17.4154 96.1728 20.605 96.1728 25.8478C96.1728 31.1272 99.1363 34.2802 104.063 34.2802ZM104.063 31.2005C101.47 31.2005 99.9884 29.2574 99.9884 25.8478C99.9884 22.4748 101.47 20.4951 104.063 20.4951C106.619 20.4951 108.138 22.4748 108.138 25.8478C108.101 29.2574 106.619 31.2005 104.063 31.2005ZM114.139 33.9502H117.844V24.5279C117.844 22.1449 119.251 20.6417 121.437 20.6417C123.697 20.6417 124.734 21.8882 124.734 24.3446V33.9502H128.438V23.4647C128.438 19.5785 126.438 17.4154 122.808 17.4154C120.363 17.4154 118.733 18.5153 117.955 20.3484H117.696V17.7454H114.102C114.139 17.7454 114.139 33.9502 114.139 33.9502Z" fill="black"/>
</svg>
