<svg width="168" height="45" viewBox="0 0 168 45" fill="none" xmlns="http://www.w3.org/2000/svg">
<g clip-path="url(#clip0_6808_26342)">
<path d="M14.9656 6.45312C20.1219 6.45312 27.9107 8.05409 31.531 11.7254C32.4488 12.6577 33.6534 14.4772 33.6534 17.1519C33.6534 21.897 29.8738 29.1817 25.7053 33.4123C23.551 35.5984 20.1219 38.4531 15.5073 38.4531C10.9947 38.4531 7.5529 35.3541 6.55859 34.3382C2.73434 30.4676 0 24.591 0 19.1194C0 15.6603 0.975184 12.6384 3.45457 10.1244C5.74912 7.80334 9.70722 6.45312 14.9656 6.45312ZM21.3457 25.3882C23.0857 23.6265 23.5574 21.4533 23.5574 20.2574C23.5574 19.3894 23.3343 18.1228 22.2635 17.0362C20.6255 15.3709 18.8026 14.9016 16.8267 14.9016C14.3218 14.9016 12.6391 15.7053 11.5174 16.8369C10.6378 17.737 9.87932 19.1001 9.87932 21.0483C9.87932 22.99 10.9055 24.8674 12.0145 25.999C13.0471 27.0406 14.666 27.8122 16.2913 27.8122C17.923 27.8122 19.6057 27.1499 21.3457 25.3882Z" fill="#5952FF"/>
<path d="M166.066 19.0931C167.053 20.1411 167.551 21.562 167.551 23.3623V32.8331H163.886V24.436C163.886 23.3752 163.586 22.5393 162.987 21.9285C162.388 21.3177 161.578 21.0091 160.552 21.0091C159.341 21.0284 158.379 21.4463 157.671 22.2564C156.964 23.0665 156.607 24.1081 156.607 25.3748V32.8331H152.967V11.7891H156.607V20.5526C157.633 18.5658 159.437 17.5564 162.012 17.5178C163.72 17.5178 165.078 18.0386 166.066 19.0931ZM144.873 20.7776C143.662 20.7776 142.674 21.1955 141.922 22.0249C141.17 22.8608 140.787 23.9345 140.787 25.259C140.787 26.6221 141.17 27.7151 141.922 28.551C142.68 29.3804 143.662 29.7983 144.879 29.7983C146.67 29.7983 148.015 29.2004 148.914 28.0109L151.183 29.914C150.514 30.8978 149.596 31.6822 148.525 32.1837C147.422 32.7109 146.148 32.9745 144.688 32.9745C143.216 32.9745 141.903 32.653 140.755 32.0101C139.627 31.3864 138.697 30.4413 138.085 29.3032C137.447 28.1395 137.129 26.8021 137.129 25.2912C137.129 23.7609 137.454 22.4043 138.097 21.2341C138.716 20.0832 139.653 19.1445 140.787 18.5144C141.934 17.8714 143.254 17.55 144.752 17.55C146.116 17.55 147.333 17.7879 148.404 18.2701C149.475 18.7523 150.348 19.4403 151.023 20.3275L148.812 22.4557C147.786 21.337 146.479 20.7776 144.873 20.7776ZM134.802 17.6593V32.8331H131.163V30.422C130.647 31.2321 129.926 31.8943 129.079 32.338C128.231 32.7816 127.256 33.0067 126.153 33.0067C124.732 33.0067 123.489 32.6788 122.412 32.0294C121.341 31.38 120.5 30.4606 119.907 29.2775C119.314 28.0945 119.014 26.7378 119.014 25.2076C119.014 23.6966 119.314 22.3593 119.913 21.1955C120.506 20.0318 121.347 19.1316 122.418 18.4887C123.489 17.8457 124.725 17.5242 126.128 17.5242C127.23 17.5242 128.212 17.7493 129.066 18.1929C129.92 18.6366 130.647 19.2924 131.163 20.1089V17.6721L134.802 17.6593ZM129.843 28.7889C130.608 28.043 131.048 27.0529 131.163 25.8248V24.7511C131.048 23.5166 130.615 22.5329 129.85 21.7871C129.085 21.0412 128.116 20.6683 126.937 20.6683C125.688 20.6683 124.668 21.0991 123.884 21.9607C123.1 22.8222 122.699 23.9345 122.679 25.2912C122.699 26.6542 123.1 27.7601 123.884 28.6217C124.668 29.4833 125.688 29.914 126.937 29.914C128.11 29.914 129.079 29.5411 129.843 28.7889ZM115.35 19.6139C116.554 20.9962 117.153 22.9315 117.153 25.4262C117.153 25.9148 117.141 26.2878 117.128 26.5321H106.069C106.312 27.6122 106.809 28.4545 107.567 29.0718C108.319 29.689 109.25 29.9912 110.353 29.9912C111.105 29.9912 111.857 29.8433 112.551 29.5476C113.246 29.2646 113.871 28.8339 114.387 28.2874L116.344 30.3577C115.585 31.2 114.655 31.8558 113.61 32.2866C112.539 32.743 111.347 32.9681 110.04 32.9681C108.511 32.9681 107.159 32.6466 105.993 32.0037C104.852 31.3864 103.909 30.4413 103.29 29.2968C102.653 28.133 102.341 26.7957 102.341 25.2847C102.341 23.7738 102.659 22.43 103.31 21.2598C103.934 20.1089 104.871 19.1574 106.012 18.5208C107.172 17.865 108.485 17.5435 109.957 17.5435C112.348 17.5435 114.145 18.2379 115.35 19.6139ZM113.826 24.0696C113.788 22.9508 113.425 22.0635 112.736 21.4013C112.048 20.739 111.13 20.4047 109.989 20.4047C108.925 20.4047 108.033 20.7326 107.312 21.382C106.592 22.0314 106.152 22.9251 105.98 24.0631H113.826V24.0696ZM98.3826 18.3279C99.2495 17.8071 100.263 17.5371 101.423 17.5178V21.0927C99.8741 20.9962 98.6376 21.3627 97.7134 22.1857C96.7892 23.0087 96.3239 24.121 96.3239 25.5162V32.8331H92.6845V17.6593H96.3239V20.5783C96.8338 19.5946 97.5158 18.8423 98.3826 18.3279ZM89.9565 31.8943C88.7647 32.6337 87.509 33.0002 86.2024 33.0002C84.9149 33.0002 83.8569 32.6145 83.041 31.8493C82.2188 31.0842 81.8109 29.9526 81.8109 28.461V14.1101L85.4248 13.6729V18.2765H89.708V20.9705H85.4248V27.8116C85.4248 28.5124 85.5523 29.0075 85.8136 29.2968C86.0749 29.5926 86.4637 29.734 86.9864 29.734C87.5473 29.734 88.2547 29.5283 89.1152 29.1103L89.9565 31.8943ZM75.0675 17.6593H78.6814V26.1656C78.6814 31.1292 75.2587 32.9745 71.785 32.9745C68.3113 32.9745 64.895 31.1292 64.895 26.1656V17.6593H68.5089V26.2942C68.5089 28.1973 69.9111 29.7404 71.7914 29.7404C73.6716 29.7404 75.0738 28.1973 75.0738 26.2942L75.0675 17.6593ZM57.4058 14.0587C58.9674 14.9138 60.2676 16.1805 61.1727 17.7171C62.0905 19.2667 62.543 20.9898 62.543 22.8801C62.543 24.7704 62.0841 26.4935 61.1727 28.0559C60.2676 29.6054 58.9674 30.8849 57.4058 31.7593C55.806 32.6659 54.0405 33.1224 52.0965 33.1224C50.1525 33.1224 48.3869 32.6659 46.7935 31.7593C45.2319 30.8849 43.9317 29.6054 43.0266 28.0559C42.1152 26.4935 41.6562 24.7704 41.6562 22.8801C41.6562 20.9898 42.1152 19.2667 43.0266 17.7171C43.9317 16.174 45.2319 14.9138 46.7935 14.0587C48.3869 13.1714 50.1588 12.7278 52.0965 12.7278C54.0405 12.7214 55.8124 13.165 57.4058 14.0587ZM48.8267 17.0227C47.8133 17.6014 46.972 18.4437 46.3919 19.4595C45.7928 20.4947 45.4932 21.6327 45.4932 22.8801C45.4932 24.1274 45.7992 25.2719 46.4047 26.3135C46.9911 27.3358 47.8324 28.1845 48.8395 28.7824C49.8593 29.3868 50.9619 29.689 52.1602 29.689C53.3138 29.6954 54.4484 29.3804 55.4363 28.7824C56.437 28.1845 57.2592 27.3358 57.8328 26.3135C58.4256 25.2655 58.7252 24.0824 58.7124 22.8801C58.7124 21.6327 58.4192 20.4947 57.8328 19.4595C57.2656 18.4501 56.437 17.6078 55.4363 17.0227C54.442 16.4312 53.3138 16.1226 52.1602 16.129C50.9874 16.1226 49.8401 16.4312 48.8267 17.0227Z" fill="#5952FF"/>
</g>
<defs>
<clipPath id="clip0_6808_26342">
<rect width="167.548" height="44.911" fill="white"/>
</clipPath>
</defs>
</svg>
