<svg width="66" height="27" viewBox="0 0 66 27" fill="none" xmlns="http://www.w3.org/2000/svg">
<g clip-path="url(#clip0_879_27141)">
<path d="M1.28608 10.8025C2.06482 7.95773 5.30823 7.28071 8.29441 7.19707C10.7493 7.12831 13.4864 7.45264 13.4864 7.45264L12.2003 12.1508C12.2003 12.1508 9.46317 11.8264 7.00833 11.8952C4.02217 11.9788 0.778748 12.6559 0 15.5006L1.28608 10.8025Z" fill="#565656"/>
<path d="M42.6091 5.80078C38.6779 5.80081 37.6708 9.60232 37.1072 11.6612L32.9078 26.9989H35.3578L39.081 13.3991H41.6256L39.9316 19.5875H42.3816L44.4132 12.1661H39.4187C39.6746 11.2307 39.9475 10.2342 40.17 9.42169C40.5808 7.92109 41.2517 6.83136 42.2276 6.868C43.3061 6.90851 42.7572 7.61611 42.6095 8.1556C42.4052 8.90198 42.9568 9.6525 43.9233 9.6525C46.0227 9.6525 46.5404 5.80078 42.6091 5.80078ZM28.7112 8.48455V8.48468L25.6719 19.5875H28.226L29.3515 15.476H31.5701C34.0182 15.476 35.6428 14.126 36.0821 12.2495C36.4923 10.4973 35.4681 8.48456 32.7249 8.48456C31.3869 8.48458 30.0492 8.48455 28.7112 8.48455ZM30.9078 9.79108H31.8898C32.9179 9.79108 33.7337 10.6134 33.5367 12.0445C33.3541 13.3712 31.9124 14.1664 30.6553 14.1664H29.71L30.9078 9.79108ZM55.1283 11.9414C52.9807 11.9414 51.4315 13.7874 51.0597 15.6322C50.7025 17.405 51.72 19.7608 54.5212 19.7608C56.5122 19.7608 57.5136 18.8849 57.5136 18.8849L57.0553 17.7547C57.0553 17.7547 56.2183 18.4354 55.052 18.4354C53.8857 18.4354 53.154 17.5155 53.3158 16.0497H58.0785C58.419 15.1864 58.6055 11.9414 55.1283 11.9414ZM64.6217 12.0412C63.0244 12.0412 62.0826 13.6893 62.0826 13.6893L62.4995 12.1663H60.0495L58.018 19.5875H60.468C60.468 19.5875 61.0579 17.4192 61.3582 16.3367C61.8217 14.6446 62.767 13.585 63.2215 13.5417C63.7468 13.4916 63.6965 14.7561 64.7208 14.7561C66.2748 14.7561 66.6099 12.0412 64.622 12.0412H64.6217ZM45.3363 12.1663L44.9987 13.3994H48.1042L43.2221 19.5875H50.1163L50.4537 18.3544H46.9506L51.8325 12.1663H45.3363ZM55.1191 13.1668V13.1669C56.4512 13.1669 56.148 14.9242 56.148 14.9242L53.4796 14.918C53.4796 14.918 53.9221 13.1668 55.1191 13.1668Z" fill="#565656"/>
<path d="M19.9206 19.6068C11.1347 19.0594 0.924662 14.5314 1.28506 10.8047L0.0728715 15.233C-0.294828 19.0351 9.17636 23.5494 18.6345 24.3049L19.9206 19.6068Z" fill="#565656"/>
<path d="M23.1143 13.4989C22.3356 16.3437 19.0922 17.0207 16.106 17.1043C13.6512 17.1731 10.9141 16.8488 10.9141 16.8488L12.2001 12.1506C12.2001 12.1506 14.9372 12.475 17.3921 12.4062C20.3782 12.3226 23.6217 11.6455 24.4004 8.80078L23.1143 13.4989Z" fill="#565656"/>
<path d="M4.47656 4.69812C13.2625 5.24554 23.4725 9.7736 23.1121 13.5003L24.3243 9.072C24.692 5.2698 15.2208 0.755588 5.76264 0L4.47656 4.69812Z" fill="#565656"/>
</g>
<defs>
<clipPath id="clip0_879_27141">
<rect width="66" height="27" fill="white"/>
</clipPath>
</defs>
</svg>
