<svg width="136" height="45" viewBox="0 0 136 45" fill="none" xmlns="http://www.w3.org/2000/svg">
<g clip-path="url(#clip0_8047_23963)">
<path d="M15.0825 30.7447C14.7017 30.7865 14.596 30.2644 14.9556 30.1601C14.9768 30.1601 14.9768 30.1601 14.9979 30.1392C22.5075 28.0507 28.0075 24.2707 27.2883 21.7018C26.5478 19.1331 19.8633 18.7363 12.3536 20.8248C4.844 22.9131 -0.656011 26.6932 0.0632211 29.262C2.17861 36.6759 9.98439 41.0198 17.494 38.9314C23.6075 37.2398 27.6479 31.8099 27.796 25.8579C22.3595 30.4732 15.0825 30.7447 15.0825 30.7447Z" fill="#F54547"/>
<path d="M22.5274 11.8003C21.2158 7.18487 16.3504 4.49079 11.6543 5.78562C8.1004 6.78806 5.64655 9.81629 5.28694 13.2622C5.92155 12.8445 8.73502 11.1738 13.0082 10.9023C13.1139 10.9023 13.1774 10.8814 13.1774 10.8814C13.41 10.8396 13.4734 11.1946 13.2619 11.2573H13.2407C8.54464 12.5521 5.11771 14.912 5.56193 16.5201C6.02732 18.1282 10.1735 18.358 14.8697 17.0631C19.5658 15.7474 22.9927 13.4084 22.5274 11.8003Z" fill="#F54547"/>
<path d="M42.8624 33.2891C40.3027 33.1429 37.0873 31.4095 35.7969 30.1146L38.6316 26.5434C39.3297 27.3161 42.672 29.2167 44.9566 28.799C45.57 28.6737 46.2681 28.1515 46.2681 27.337C46.3104 26.794 45.845 26.2928 45.4431 26.1048C45.0623 25.8333 43.8565 25.7916 43.0739 25.7498C42.1854 25.708 41.1701 25.6036 40.0911 25.165C38.1027 24.2044 36.7066 22.2204 36.6431 20.1111C36.6431 17.6258 37.6584 16.2475 38.695 15.3912C40.7893 13.7831 43.7085 13.6369 45.7181 14.1591C47.3046 14.535 49.0604 15.3912 50.097 16.3728L47.495 19.9649C47.1142 19.6934 45.2738 18.858 44.5758 18.6701C43.4969 18.3568 42.1219 18.5239 41.5084 18.8998C41.318 19.0042 41.0431 19.4428 41.1278 19.9649C41.1278 20.3407 41.4873 20.8837 41.7411 21.0299C42.2912 21.3014 42.7989 21.4476 43.5181 21.4894C44.5335 21.4894 46.2258 21.4894 47.5162 22.0951C49.6527 23.2437 50.9008 25.2068 50.7315 27.4623C50.6046 29.4254 49.2508 31.3259 47.4738 32.2449C46.1623 33.101 44.3854 33.4144 42.8624 33.2891Z" fill="#2A3137"/>
<path d="M61.7287 33.1018C59.2113 33.1018 56.8421 32.1412 55.0228 30.4287C53.1613 28.6745 52.1037 26.2936 52.0825 23.7249C52.0402 21.156 53.0132 18.7544 54.7901 16.8957C56.5671 15.0996 58.9786 14.0137 61.5806 13.9928C64.1825 13.951 66.594 14.9117 68.4556 16.666L65.2402 19.9657C64.3094 19.0886 63.0614 18.5873 61.7499 18.5873H61.6652C60.3113 18.5873 59.0633 19.1303 58.1326 20.0909C57.2017 21.0516 56.694 22.3047 56.7363 23.6622C56.7363 24.9987 57.2863 26.2309 58.2594 27.1499C59.2325 28.0688 60.5017 28.5699 61.8768 28.5283C63.1248 28.5283 64.2882 28.027 65.2191 27.1916L68.371 30.554C66.6152 32.1621 64.3306 33.0809 61.9613 33.1227H61.7287V33.1018Z" fill="#2A3137"/>
<path d="M87.8575 14.0545V33.1427H83.9863V31.4093C82.3998 32.4745 80.4959 33.1427 78.444 33.1427C73.0921 33.1427 68.7344 28.8196 68.7344 23.5569C68.7344 18.2731 73.0709 13.971 78.444 13.971C80.4959 13.971 82.3998 14.6184 83.9863 15.7044V14.0545H87.8575ZM83.4574 23.5569C83.4574 20.8001 81.2151 18.5864 78.4017 18.5864C75.6516 18.5864 73.3881 20.8001 73.3881 23.5569C73.3881 26.2718 75.6305 28.5065 78.4017 28.5065C81.2151 28.5065 83.4574 26.2718 83.4574 23.5569Z" fill="#2A3137"/>
<path d="M110.151 23.9357C110.151 29.1776 105.836 33.438 100.568 33.438C98.5798 33.438 96.7605 32.8323 95.2586 31.83V39.4527H90.6471V14.1827H95.2586V16.1041C96.7817 15.0599 98.6009 14.496 100.568 14.496C105.857 14.4751 110.151 18.7355 110.151 23.9357ZM105.539 23.9357C105.539 21.2207 103.318 19.0279 100.568 19.0279C97.8183 19.0279 95.5548 21.2207 95.5548 23.9357C95.5548 26.6506 97.7971 28.8852 100.568 28.8852C103.318 28.8852 105.539 26.6715 105.539 23.9357Z" fill="#2A3137"/>
<path d="M114.338 11.9064C112.604 11.9064 111.207 10.528 111.207 8.75284V8.544C111.207 6.83148 112.604 5.45312 114.338 5.45312C116.115 5.45312 117.575 6.83148 117.575 8.544V8.75284C117.575 10.5071 116.115 11.9064 114.338 11.9064ZM116.75 33.0204H112.181V13.9948H116.75V33.0204Z" fill="#2A3137"/>
<path d="M128.43 33.1018C125.913 33.1018 123.544 32.1412 121.724 30.4287C119.863 28.6745 118.805 26.2936 118.784 23.7249C118.742 21.156 119.715 18.7544 121.492 16.8957C123.269 15.0996 125.68 14.0137 128.282 13.9928C130.885 13.951 133.296 14.9117 135.157 16.666L131.942 19.9657C131.01 19.0886 129.763 18.5873 128.452 18.5873H128.367C127.012 18.5873 125.764 19.1303 124.834 20.0909C123.903 21.0516 123.396 22.3047 123.438 23.6622C123.438 24.9987 123.988 26.2309 124.961 27.1499C125.934 28.0688 127.204 28.5699 128.579 28.5283C129.827 28.5283 130.99 28.027 131.921 27.1916L135.073 30.554C133.316 32.1621 131.032 33.0809 128.663 33.1227H128.43V33.1018Z" fill="#2A3137"/>
</g>
<defs>
<clipPath id="clip0_8047_23963">
<rect width="135.156" height="44.911" fill="white"/>
</clipPath>
</defs>
</svg>
