<svg width="138" height="45" viewBox="0 0 138 45" fill="none" xmlns="http://www.w3.org/2000/svg">
<path d="M19.039 4.45312C9.0981 4.45312 1.03906 12.5121 1.03906 22.4532C1.03906 32.3948 9.0981 40.4531 19.039 40.4531C28.9809 40.4531 37.0391 32.3948 37.0391 22.4532C37.0391 12.5128 28.9809 4.45398 19.0387 4.45398L19.039 4.45312ZM27.2936 30.4144C26.9712 30.9432 26.2791 31.1109 25.7503 30.7863C21.5241 28.2048 16.2039 27.6201 9.93831 29.0517C9.33454 29.1892 8.7327 28.8109 8.59514 28.2069C8.45693 27.6029 8.83372 27.0011 9.439 26.8635C16.2957 25.297 22.1771 25.9715 26.9217 28.8711C27.4505 29.1957 27.6182 29.8857 27.2936 30.4144ZM29.4967 25.5132C29.0905 26.1735 28.2264 26.382 27.5666 25.9758C22.7282 23.0018 15.3529 22.1405 9.63008 23.8777C8.88789 24.1019 8.10399 23.6836 7.87873 22.9427C7.65519 22.2005 8.07369 21.418 8.81459 21.1924C15.3516 19.2088 23.4784 20.1696 29.0346 23.5841C29.6945 23.9903 29.903 24.8542 29.4967 25.5132ZM29.6859 20.4095C23.8846 16.9637 14.3132 16.6469 8.7744 18.328C7.88497 18.5977 6.94438 18.0956 6.67484 17.2062C6.40531 16.3163 6.90698 15.3763 7.79706 15.1059C14.1553 13.1757 24.725 13.5486 31.4041 17.5137C32.2059 17.9886 32.4681 19.0218 31.9931 19.8208C31.5202 20.6208 30.4833 20.8845 29.6859 20.4095Z" fill="#1ED760"/>
<path d="M53.837 19.4553C50.2108 18.5906 49.5664 17.9837 49.5664 16.7085C49.5664 15.5038 50.6999 14.6931 52.3875 14.6931C54.0226 14.6931 55.6426 15.3087 57.3428 16.5761C57.393 16.6145 57.4582 16.6298 57.5208 16.6198C57.586 16.6102 57.6412 16.5754 57.6788 16.523L59.4493 14.0273C59.522 13.9245 59.5019 13.7828 59.4041 13.7043C57.3804 12.0811 55.1034 11.2919 52.4402 11.2919C48.5257 11.2919 45.7897 13.6414 45.7897 17.003C45.7897 20.6078 48.1495 21.8842 52.2271 22.8695C55.6952 23.6687 56.282 24.3383 56.282 25.535C56.282 26.8615 55.0984 27.6866 53.1925 27.6866C51.076 27.6866 49.3482 26.9719 47.4173 25.3017C47.3696 25.2591 47.3044 25.2416 47.2442 25.2441C47.179 25.2491 47.1213 25.2792 47.0812 25.3268L45.0951 27.6891C45.0123 27.7894 45.0224 27.9348 45.1177 28.0201C47.3646 30.0263 50.1281 31.0845 53.1123 31.0845C57.3303 31.0845 60.0562 28.7799 60.0562 25.2115C60.0637 22.2004 58.2606 20.5328 53.8445 19.4585L53.837 19.4553ZM69.6005 15.8792C67.7724 15.8792 66.2728 16.5995 65.034 18.0753V16.4141C65.034 16.283 64.9286 16.1762 64.7982 16.1762H61.5508C61.4204 16.1762 61.315 16.283 61.315 16.4141V34.8712C61.315 35.0016 61.4204 35.1094 61.5508 35.1094H64.7982C64.9286 35.1094 65.034 35.0016 65.034 34.8712V29.0458C66.2728 30.4325 67.7724 31.1121 69.6005 31.1121C72.9985 31.1121 76.4391 28.4966 76.4391 23.4964C76.4441 18.4953 73.0035 15.879 69.603 15.879L69.6005 15.8792ZM72.6625 23.4964C72.6625 26.0415 71.0951 27.8195 68.8482 27.8195C66.6289 27.8195 64.9537 25.9613 64.9537 23.4964C64.9537 21.0314 66.6289 19.1736 68.8482 19.1736C71.0575 19.1734 72.6625 20.9912 72.6625 23.4964ZM85.2537 15.8792C80.8777 15.8792 77.4497 19.2486 77.4497 23.5509C77.4497 27.807 80.8552 31.1397 85.201 31.1397C89.5921 31.1397 93.0301 27.7819 93.0301 23.4964C93.0301 19.2255 89.6146 15.8792 85.2537 15.8792ZM85.2537 27.8446C82.9265 27.8446 81.1711 25.9738 81.1711 23.4952C81.1711 21.0053 82.8664 19.1985 85.201 19.1985C87.5433 19.1985 89.3087 21.0685 89.3087 23.5496C89.3087 26.039 87.6034 27.8446 85.2537 27.8446ZM102.374 16.1762H98.8004V12.5234C98.8004 12.3925 98.6951 12.2857 98.5647 12.2857H95.3172C95.1868 12.2857 95.0789 12.3925 95.0789 12.5234V16.1762H93.5191C93.3887 16.1762 93.2834 16.283 93.2834 16.4141V19.2045C93.2834 19.3354 93.3887 19.4425 93.5191 19.4425H95.0789V26.6634C95.0789 29.5799 96.5309 31.0595 99.3972 31.0595C100.561 31.0595 101.526 30.8187 102.437 30.3021C102.512 30.262 102.557 30.1818 102.557 30.0965V27.4383C102.557 27.3581 102.514 27.2803 102.444 27.2377C102.374 27.1926 102.286 27.1901 102.213 27.2277C101.589 27.5411 100.985 27.6866 100.308 27.6866C99.2668 27.6866 98.8004 27.2126 98.8004 26.1544V19.4437H102.374C102.504 19.4437 102.61 19.3369 102.61 19.2057V16.4156C102.615 16.2845 102.509 16.1777 102.376 16.1777L102.374 16.1762ZM114.822 16.1905V15.7418C114.822 14.422 115.329 13.8335 116.462 13.8335C117.139 13.8335 117.684 13.9679 118.293 14.171C118.368 14.1946 118.446 14.1828 118.506 14.1379C118.569 14.093 118.604 14.021 118.604 13.9448V11.2089C118.604 11.1043 118.539 11.0118 118.436 10.9809C117.794 10.7896 116.971 10.5932 115.738 10.5932C112.741 10.5932 111.153 12.2819 111.153 15.475V16.1621H109.594C109.463 16.1621 109.355 16.2689 109.355 16.3998V19.2045C109.355 19.3354 109.463 19.4425 109.594 19.4425H111.153V30.578C111.153 30.7109 111.261 30.8162 111.392 30.8162H114.637C114.77 30.8162 114.875 30.7109 114.875 30.578V19.4432H117.907L122.551 30.578C122.024 31.7466 121.505 31.9798 120.798 31.9798C120.226 31.9798 119.622 31.8093 119.008 31.4707C118.95 31.4406 118.88 31.4356 118.82 31.4532C118.757 31.4757 118.704 31.5209 118.679 31.5811L117.578 33.996C117.526 34.1114 117.571 34.2443 117.681 34.3044C118.83 34.9264 119.865 35.1922 121.147 35.1922C123.544 35.1922 124.871 34.0737 126.037 31.0695L131.669 16.5155C131.699 16.4422 131.689 16.3595 131.644 16.2945C131.601 16.2301 131.529 16.1912 131.451 16.1912H128.07C127.968 16.1912 127.877 16.2557 127.845 16.3507L124.382 26.2396L120.59 16.3442C120.555 16.2521 120.467 16.1912 120.369 16.1912L114.822 16.1905ZM107.605 16.1762H104.357C104.227 16.1762 104.119 16.283 104.119 16.4141V30.578C104.119 30.7109 104.227 30.8162 104.357 30.8162H107.605C107.735 30.8162 107.843 30.7109 107.843 30.578V16.4151C107.843 16.284 107.738 16.1772 107.605 16.1772V16.1762ZM106 9.72656C104.714 9.72656 103.67 10.7678 103.67 12.054C103.67 13.3409 104.714 14.3834 106 14.3834C107.287 14.3834 108.327 13.3409 108.327 12.054C108.327 10.768 107.284 9.72656 106 9.72656ZM134.443 20.7304C133.159 20.7304 132.158 19.6985 132.158 18.4454C132.158 17.1923 133.171 16.1486 134.455 16.1486C135.739 16.1486 136.74 17.1802 136.74 18.4324C136.74 19.6855 135.727 20.7304 134.443 20.7304ZM134.455 16.3758C133.284 16.3758 132.399 17.3061 132.399 18.4454C132.399 19.5841 133.279 20.502 134.443 20.502C135.614 20.502 136.499 19.5724 136.499 18.4324C136.499 17.2936 135.619 16.3758 134.455 16.3758ZM134.962 18.6673L135.609 19.5721H135.062L134.48 18.7421H133.981V19.5721H133.525V17.1737H134.593C135.152 17.1737 135.518 17.4589 135.518 17.9388C135.521 18.332 135.293 18.5723 134.964 18.6673H134.962ZM134.576 17.5852H133.981V18.3438H134.576C134.871 18.3438 135.049 18.1986 135.049 17.9642C135.049 17.7174 134.871 17.5852 134.576 17.5852Z" fill="#1ED760"/>
</svg>
