<svg width="251" height="45" viewBox="0 0 251 45" fill="none" xmlns="http://www.w3.org/2000/svg">
<g clip-path="url(#clip0_6808_26344)">
<path d="M20.3664 13.4457C19.7635 12.7349 18.7859 12.7349 18.1834 13.4457L8.35878 25.027C7.15241 26.4479 5.19792 26.4479 3.99242 25.027C2.78568 23.6056 2.78568 21.3013 3.99242 19.8791L13.6279 8.52136C12.4221 7.0996 10.4669 7.0996 9.26115 8.52136L1.80843 17.3063C-0.60281 20.1492 -0.60281 24.7577 1.80843 27.6009C4.2203 30.444 8.12966 30.444 10.5415 27.6009L20.3664 16.0195C20.9689 15.3088 20.9689 14.1564 20.3664 13.4457ZM23.6412 9.58566C21.2294 6.74228 17.32 6.74228 14.9081 9.58566L5.08379 21.1664C4.48129 21.8766 4.48129 23.0297 5.08379 23.7401C5.68667 24.4508 6.66379 24.4508 7.26678 23.7401L17.092 12.1594C18.2977 10.7376 20.2522 10.7376 21.4577 12.1594C22.0612 12.8696 23.0385 12.8696 23.6413 12.1594C24.2442 11.448 24.2442 10.2963 23.6413 9.58566H23.6412ZM26.9163 21.1664C26.3135 20.4564 25.3356 20.4564 24.7327 21.1664L14.9081 32.7475C13.7024 34.1688 11.7473 34.1688 10.5415 32.7475C9.93902 32.0373 8.96165 32.0373 8.35878 32.7475C7.75503 33.4585 7.75503 34.6109 8.35878 35.3208C10.7696 38.1639 14.68 38.1639 17.0919 35.3208L26.9163 23.7401C27.5188 23.0299 27.5188 21.8767 26.9163 21.1664ZM30.1916 17.3064C27.7797 14.4638 23.8697 14.4638 21.4585 17.3064L11.6333 28.8879C11.0304 29.5978 11.0304 30.7509 11.6333 31.4612C12.2365 32.1723 13.2141 32.1723 13.8166 31.4612L23.6412 19.88C24.8466 18.4584 26.8021 18.4584 28.0076 19.88C29.2133 21.3015 29.2133 23.6057 28.0076 25.0272L18.3721 36.3857C19.5779 37.8066 21.5321 37.8066 22.7388 36.3857L30.1916 27.6008C32.6028 24.7574 32.6028 20.1491 30.1916 17.3064Z" fill="#1A1918"/>
<path d="M43.2598 25.9416C43.4149 26.8412 43.905 27.6484 44.6316 28.2009C45.4649 28.7774 46.4651 29.0631 47.4773 29.0133C48.4405 29.0747 49.3942 28.7905 50.1669 28.2118C50.4748 27.9556 50.7202 27.6324 50.8842 27.267C51.0483 26.9014 51.1268 26.5033 51.1136 26.103C51.1245 25.7285 51.0373 25.3576 50.8607 25.0271C50.6839 24.7272 50.4411 24.4715 50.1507 24.2795C49.8043 24.0494 49.4277 23.8684 49.0317 23.7416L47.5364 23.2897L46.1109 22.9023C45.3205 22.6929 44.5515 22.4102 43.8138 22.0578C43.1806 21.7584 42.595 21.3667 42.0764 20.8959C41.6138 20.4664 41.2471 19.9438 41.0005 19.3628C40.7374 18.7234 40.6092 18.0367 40.624 17.3455C40.6163 16.5797 40.7818 15.8221 41.1081 15.1292C41.4226 14.4549 41.8883 13.8622 42.469 13.3971C43.1079 12.8858 43.8381 12.5006 44.6207 12.2621C45.5354 11.9722 46.491 11.8324 47.4504 11.8479C49.4263 11.8479 50.9916 12.3141 52.1464 13.2465C52.7187 13.7073 53.1934 14.2778 53.5426 14.9244C53.8918 15.5709 54.1084 16.2807 54.1799 17.012L50.9523 17.2756C50.7925 16.535 50.3774 15.8743 49.7795 15.409C49.0548 14.9245 48.1915 14.6902 47.3212 14.7419C46.4999 14.6936 45.6877 14.9333 45.0242 15.4197C44.7592 15.6262 44.5463 15.8919 44.4025 16.1955C44.2586 16.4991 44.1878 16.8322 44.1959 17.168C44.1826 17.526 44.2662 17.881 44.4379 18.1955C44.611 18.4857 44.8484 18.7323 45.1317 18.9162C45.4773 19.141 45.8495 19.3218 46.24 19.4542C46.6757 19.6155 47.1705 19.7878 47.7193 19.9652L49.0855 20.3902C49.9355 20.6592 50.7048 20.9388 51.3933 21.2293C52.0265 21.4986 52.6158 21.8614 53.1416 22.3052C53.6155 22.7064 53.994 23.208 54.2497 23.7738C54.5264 24.4414 54.6585 25.1601 54.6371 25.8825C54.646 26.7269 54.4621 27.5622 54.0992 28.3247C53.749 29.0571 53.2378 29.7008 52.6036 30.2075C51.9222 30.7464 51.1472 31.1548 50.3174 31.4125C49.3722 31.7064 48.3864 31.8499 47.3966 31.8375C45.6459 31.9026 43.9186 31.4172 42.4583 30.4495C41.7765 29.9562 41.2056 29.3255 40.7823 28.5984C40.3589 27.871 40.0924 27.0632 40 26.2268L43.2598 25.9416ZM68.2468 11.9016C69.5999 11.8841 70.9432 12.1327 72.2006 12.6332C73.3489 13.0932 74.3852 13.7939 75.2399 14.6881C76.0975 15.6 76.7617 16.6759 77.1925 17.8512C77.6656 19.1431 77.9007 20.5099 77.8865 21.8857C77.9057 23.2866 77.6556 24.6783 77.1496 25.9847C76.6777 27.1722 75.9653 28.249 75.057 29.1478L77.6175 32.144V33.0747H74.3899L72.5987 30.8852C71.9496 31.1958 71.2699 31.4374 70.5706 31.6061C69.8157 31.7675 69.0456 31.8469 68.2737 31.8428C66.905 31.8511 65.5484 31.5878 64.2821 31.0681C63.1403 30.6052 62.1113 29.9027 61.2644 29.0078C60.4173 28.1001 59.7638 27.0294 59.344 25.8609C58.8801 24.5819 58.6487 23.2301 58.6607 21.8695C58.6473 20.5001 58.8787 19.1392 59.344 17.8512C59.7664 16.6787 60.4257 15.6057 61.2806 14.6989C62.133 13.8044 63.1651 13.1004 64.309 12.6332C65.5591 12.1268 66.8984 11.8779 68.2468 11.9016ZM68.2199 14.785C67.3316 14.7713 66.4517 14.955 65.6432 15.3229C64.9004 15.666 64.244 16.1716 63.7228 16.8022C63.1807 17.4635 62.7714 18.2234 62.5178 19.04C62.2372 19.9493 62.0993 20.8965 62.109 21.848C62.0996 22.8078 62.243 23.7628 62.5338 24.6775C62.7945 25.5015 63.2067 26.2697 63.7497 26.9423C64.2701 27.5805 64.9262 28.0951 65.6701 28.4485C66.4776 28.8189 67.3584 29.0028 68.2468 28.9864C69.1344 28.995 70.0134 28.8114 70.8235 28.4485C71.5648 28.1126 72.2212 27.6144 72.7439 26.9906C73.293 26.3284 73.7061 25.5642 73.9596 24.7421C74.2538 23.8059 74.3991 22.8294 74.3899 21.848C74.3982 20.8808 74.2528 19.9185 73.9596 18.9969C73.7024 18.1796 73.2896 17.4197 72.7439 16.7592C72.2156 16.1353 71.5562 15.6357 70.8127 15.296C69.996 14.9384 69.111 14.764 68.2199 14.785ZM90.5656 29.1209C91.1637 29.1577 91.7625 29.0631 92.32 28.8438C92.8776 28.6244 93.3804 28.2856 93.7932 27.8513C94.557 27.0085 94.9389 25.7139 94.9389 23.9674V12.2728H98.2903V24.075C98.3167 25.2841 98.1347 26.4888 97.7524 27.6361C97.4434 28.5551 96.9218 29.3882 96.2299 30.0676C95.5438 30.7174 94.7117 31.1932 93.8039 31.4554C91.6919 32.0395 89.4607 32.0395 87.3487 31.4554C86.4441 31.1931 85.6157 30.717 84.9334 30.0676C84.2435 29.3868 83.7221 28.5543 83.4111 27.6361C83.0289 26.4888 82.8469 25.2841 82.8732 24.075V12.2728H86.2353V23.9674C86.2353 25.7104 86.6189 27.005 87.3863 27.8513C87.7933 28.2798 88.2882 28.6152 88.8369 28.8344C89.3857 29.0535 89.9753 29.1512 90.5656 29.1209ZM101.647 30.5302L108.452 12.2943H113.498L120.227 30.5302V31.4447H116.919L114.993 25.9685H106.693L104.745 31.4447H101.625L101.647 30.5302ZM107.704 23.1068H114.035L112.992 20.0621C112.583 18.8733 112.255 17.9103 112.002 17.1519C111.749 16.3934 111.534 15.7479 111.335 15.1777H110.512L110.189 16.0868C110.082 16.388 109.963 16.7269 109.829 17.0981C109.694 17.4692 109.549 17.8996 109.388 18.3837C109.226 18.8678 109.033 19.4219 108.802 20.0621L107.704 23.1068ZM139.022 31.4447H135.795L129.948 23.9137H127.796V31.4447H124.482V12.2728H130.706C131.639 12.2712 132.57 12.3377 133.493 12.4719C134.35 12.5962 135.168 12.9125 135.886 13.3971C137.4 14.3941 138.156 15.8967 138.156 17.905C138.171 18.6832 138.038 19.4574 137.764 20.1857C137.531 20.7992 137.182 21.3617 136.736 21.8426C136.311 22.2945 135.81 22.6694 135.257 22.9507C134.702 23.2343 134.115 23.4493 133.509 23.5909L139.022 30.5302V31.4447ZM127.785 21.0304H130.695C131.75 21.0866 132.8 20.8442 133.724 20.3311C134.096 20.0823 134.395 19.7388 134.59 19.336C134.784 18.9331 134.868 18.4855 134.832 18.0395C134.876 17.5967 134.794 17.1506 134.595 16.7527C134.396 16.3548 134.088 16.0213 133.708 15.7909C132.774 15.3266 131.737 15.1081 130.695 15.1561H127.785V21.0304ZM143.294 12.2728H155.71V15.2099H146.565V20.2288H155.054V23.1121H146.581V28.4914H155.898V31.4447H143.294V12.2728ZM163.32 25.9416C163.476 26.8412 163.967 27.6484 164.693 28.2009C165.525 28.7768 166.527 29.0622 167.538 29.0133C168.502 29.0747 169.455 28.7905 170.228 28.2118C170.535 27.9556 170.782 27.6324 170.945 27.267C171.109 26.9014 171.188 26.5033 171.175 26.103C171.185 25.7285 171.098 25.3576 170.923 25.0271C170.744 24.7272 170.503 24.4715 170.211 24.2795C169.865 24.0494 169.489 23.8684 169.093 23.7416L167.598 23.2897L166.156 22.8916C165.365 22.6822 164.597 22.3995 163.858 22.0471C163.225 21.7475 162.64 21.356 162.121 20.885C161.658 20.4555 161.292 19.9331 161.045 19.3519C160.78 18.6749 160.652 17.9515 160.671 17.2244C160.689 16.4972 160.853 15.7812 161.152 15.1185C161.47 14.4453 161.935 13.8529 162.513 13.3863C163.153 12.875 163.883 12.4899 164.665 12.2513C165.581 11.9615 166.537 11.8216 167.496 11.8371C169.471 11.8371 171.038 12.3033 172.196 13.2357C172.768 13.6969 173.243 14.2675 173.59 14.9141C173.938 15.5606 174.153 16.2702 174.225 17.0012L170.997 17.2648C170.84 16.5258 170.428 15.8653 169.835 15.3982C169.111 14.913 168.248 14.6787 167.377 14.7312C166.556 14.6829 165.743 14.9226 165.08 15.409C164.816 15.616 164.604 15.882 164.461 16.1855C164.318 16.4891 164.249 16.8218 164.257 17.1572C164.242 17.5148 164.323 17.8697 164.493 18.1847C164.667 18.475 164.903 18.7216 165.187 18.9055C165.534 19.1303 165.905 19.3109 166.295 19.4435C166.731 19.6049 167.227 19.7769 167.781 19.9545L169.142 20.3795C169.994 20.6485 170.764 20.9281 171.449 21.2186C172.083 21.4879 172.671 21.8506 173.198 22.2945C173.671 22.6957 174.05 23.1973 174.306 23.763C174.583 24.4307 174.714 25.1494 174.693 25.8718C174.701 26.7161 174.518 27.5515 174.155 28.314C173.807 29.0475 173.295 29.6914 172.66 30.1968C171.977 30.7313 171.201 31.136 170.373 31.3909C169.425 31.6848 168.439 31.8282 167.447 31.8159C165.696 31.8804 163.97 31.3951 162.509 30.428C161.831 29.9361 161.264 29.3084 160.843 28.5851C160.422 27.8618 160.154 27.0586 160.06 26.2268L163.32 25.9416ZM179.47 12.2728H186.463C187.571 12.2442 188.676 12.3987 189.734 12.7301C190.538 12.9778 191.273 13.4066 191.886 13.9834C192.422 14.5066 192.826 15.1528 193.057 15.8662C193.304 16.6196 193.427 17.4082 193.419 18.2008C193.44 19.094 193.271 19.9816 192.923 20.8043C192.608 21.5239 192.119 22.1527 191.499 22.6333C190.818 23.1364 190.047 23.5018 189.227 23.7092C188.242 23.9621 187.227 24.0833 186.21 24.0697H182.82V31.4447H179.481L179.47 12.2728ZM182.811 21.1918H186.011C186.552 21.1958 187.093 21.147 187.624 21.0464C188.078 20.9617 188.511 20.7959 188.904 20.5569C189.267 20.3302 189.562 20.0109 189.76 19.6317C189.977 19.1867 190.082 18.6956 190.066 18.2008C190.082 17.6939 189.977 17.1905 189.76 16.7323C189.569 16.3483 189.277 16.0231 188.916 15.7909C188.529 15.5503 188.099 15.3842 187.652 15.3014C187.119 15.2 186.579 15.1513 186.038 15.1561H182.783L182.811 21.1918ZM194.344 30.5302L201.154 12.2943H206.199L212.923 30.5302V31.4447H209.642L207.722 25.9685H199.389L197.469 31.4447H194.344V30.5302ZM200.405 23.1068H206.732L205.689 20.0621C205.279 18.8733 204.952 17.9103 204.704 17.1519L204.036 15.1777H203.187L202.865 16.0868C202.756 16.388 202.638 16.7269 202.503 17.0981C202.369 17.4692 202.225 17.8996 202.063 18.3837C201.901 18.8678 201.708 19.4219 201.476 20.0621L200.405 23.1068ZM233.268 26.3719C232.965 27.1221 232.566 27.8307 232.085 28.4807C231.584 29.1472 230.985 29.7316 230.304 30.2128C229.567 30.7306 228.752 31.1265 227.888 31.3856C226.898 31.6822 225.868 31.8274 224.834 31.8159C223.497 31.8362 222.172 31.5816 220.939 31.0681C219.81 30.597 218.792 29.8931 217.953 29.0025C217.11 28.0915 216.461 27.0192 216.044 25.8502C215.587 24.5788 215.36 23.2365 215.372 21.8857C215.359 20.5347 215.587 19.1925 216.044 17.9211C216.462 16.7469 217.115 15.6705 217.964 14.7581C218.808 13.8579 219.831 13.1435 220.965 12.6601C222.203 12.1399 223.535 11.8816 224.876 11.9016C226.743 11.8353 228.585 12.3483 230.149 13.3702C231.537 14.317 232.59 15.6808 233.156 17.2648L229.761 17.9319C229.338 17.0002 228.668 16.202 227.824 15.6241C226.932 15.0464 225.886 14.7537 224.823 14.785C223.951 14.7659 223.087 14.9501 222.3 15.3229C221.574 15.6789 220.937 16.1915 220.433 16.8237C219.904 17.4973 219.51 18.2661 219.272 19.0885C218.996 19.9934 218.86 20.9346 218.868 21.8802C218.86 22.8321 218.999 23.7793 219.281 24.6883C219.534 25.5025 219.942 26.2603 220.482 26.9207C221.007 27.5408 221.663 28.0384 222.402 28.3785C223.206 28.7474 224.082 28.9312 224.969 28.9164C226.067 28.9607 227.151 28.6411 228.05 28.0073C228.843 27.4266 229.488 26.6673 229.933 25.7911L233.268 26.3719ZM237.782 12.2728H250.196V15.2099H241.051V20.2288H249.556V23.1121H241.068V28.4914H250.386V31.4447H237.782V12.2728Z" fill="black"/>
</g>
<defs>
<clipPath id="clip0_6808_26344">
<rect width="250.386" height="44.911" fill="white"/>
</clipPath>
</defs>
</svg>
