<svg width="124" height="45" viewBox="0 0 124 45" fill="none" xmlns="http://www.w3.org/2000/svg">
<g clip-path="url(#clip0_6808_26340)">
<path d="M24 4.45312C30.6274 4.45312 36 9.82571 36 16.4531V28.4531C36 35.0805 30.6274 40.4531 24 40.4531H12C5.37258 40.4531 1.93283e-07 35.0805 0 28.4531V16.4531C0 9.82571 5.37258 4.45313 12 4.45312H24ZM17.9375 13.4531C13.771 13.4531 11.0002 15.6365 11 19.2822C11 24.9675 18.7998 24.0615 18.7998 26.5127C18.7998 27.4602 17.9785 27.7695 16.8291 27.7695C15.1255 27.7695 12.9497 27.0686 11.2256 26.1211V31.0234C13.1344 31.8474 15.0639 32.1982 16.8291 32.1982C21.0983 32.1982 24.0332 30.0758 24.0332 26.3887C24.0123 20.2507 16.1924 21.3422 16.1924 19.0352C16.1925 18.232 16.8498 17.9229 17.9375 17.9229C19.4973 17.9229 21.4675 18.3968 23.0273 19.2412V14.4004C21.3239 13.7208 19.6409 13.4531 17.9375 13.4531Z" fill="#635BFF"/>
<path fill-rule="evenodd" clip-rule="evenodd" d="M123.306 23.0039C123.306 17.3644 120.574 12.9145 115.353 12.9145C110.11 12.9145 106.938 17.3644 106.938 22.9598C106.938 29.5907 110.683 32.9391 116.058 32.9391C118.68 32.9391 120.662 32.3443 122.16 31.5072V27.1014C120.662 27.8504 118.944 28.313 116.763 28.313C114.626 28.313 112.732 27.564 112.489 24.9645H123.262C123.262 24.6781 123.306 23.5326 123.306 23.0039ZM112.423 20.9111C112.423 18.4218 113.943 17.3864 115.331 17.3864C116.675 17.3864 118.107 18.4218 118.107 20.9111H112.423Z" fill="#635BFF"/>
<path fill-rule="evenodd" clip-rule="evenodd" d="M98.4345 12.9144C96.2756 12.9144 94.8877 13.9278 94.1167 14.6327L93.8303 13.2669H88.9839V38.9531L94.4912 37.7856L94.5132 31.5513C95.3063 32.124 96.4739 32.9391 98.4124 32.9391C102.356 32.9391 105.946 29.7669 105.946 22.7836C105.924 16.3951 102.29 12.9144 98.4345 12.9144ZM97.1127 28.0927C95.813 28.0927 95.0419 27.63 94.5132 27.0573L94.4912 18.8844C95.064 18.2455 95.857 17.805 97.1127 17.805C99.1174 17.805 100.505 20.052 100.505 22.9378C100.505 25.8897 99.1394 28.0927 97.1127 28.0927Z" fill="#635BFF"/>
<path fill-rule="evenodd" clip-rule="evenodd" d="M81.4057 11.6147L86.935 10.4251V5.95312L81.4057 7.12068V11.6147Z" fill="#635BFF"/>
<path d="M86.935 13.2889H81.4057V32.5646H86.935V13.2889Z" fill="#635BFF"/>
<path fill-rule="evenodd" clip-rule="evenodd" d="M75.4795 14.9191L75.1271 13.2889H70.3687V32.5646H75.8761V19.5012C77.1758 17.8049 79.3787 18.1133 80.0616 18.3557V13.2889C79.3567 13.0246 76.7793 12.5399 75.4795 14.9191Z" fill="#635BFF"/>
<path fill-rule="evenodd" clip-rule="evenodd" d="M64.465 8.50851L59.0899 9.65403L59.0679 27.2995C59.0679 30.5599 61.5131 32.9611 64.7735 32.9611C66.5799 32.9611 67.9016 32.6306 68.6286 32.2341V27.7621C67.9237 28.0485 64.443 29.0619 64.443 25.8015V17.9811H68.6286V13.2889H64.443L64.465 8.50851Z" fill="#635BFF"/>
<path fill-rule="evenodd" clip-rule="evenodd" d="M49.5734 18.8844C49.5734 18.0253 50.2784 17.6948 51.4459 17.6948C53.1201 17.6948 55.235 18.2015 56.9092 19.1047V13.9278C55.0808 13.2008 53.2744 12.9145 51.4459 12.9145C46.974 12.9145 44 15.2496 44 19.1488C44 25.2289 52.3712 24.2596 52.3712 26.8811C52.3712 27.8944 51.49 28.2249 50.2563 28.2249C48.4279 28.2249 46.0928 27.4759 44.2423 26.4625V31.7055C46.2911 32.5867 48.3618 32.9612 50.2563 32.9612C54.8384 32.9612 57.9886 30.6921 57.9886 26.7489C57.9666 20.1841 49.5734 21.3517 49.5734 18.8844Z" fill="#635BFF"/>
</g>
<defs>
<clipPath id="clip0_6808_26340">
<rect width="123.306" height="44.911" fill="white"/>
</clipPath>
</defs>
</svg>
