<svg width="14" height="14" viewBox="0 0 14 14" fill="none" xmlns="http://www.w3.org/2000/svg">
  <path d="M6 0H8V2H6V0Z" fill="white" fill-opacity="0.8"/>
  <path d="M0 0H2V2H0V0Z" fill="white" fill-opacity="0.8"/>
  <path d="M9 3H11V5H9V3Z" fill="white" fill-opacity="0.8"/>
  <path d="M3 3H5V5H3V3Z" fill="white" fill-opacity="0.8"/>
  <path d="M12 6H14V8H12V6Z" fill="white" fill-opacity="0.8"/>
  <path d="M6 6H8V8H6V6Z" fill="white" fill-opacity="0.8"/>
  <path d="M9 9H11V11H9V9Z" fill="white" fill-opacity="0.8"/>
  <path d="M3 9H5V11H3V9Z" fill="white" fill-opacity="0.8"/>
  <path d="M6 12H8V14H6V12Z" fill="white" fill-opacity="0.8"/>
  <path d="M0 12H2V14H0V12Z" fill="white" fill-opacity="0.8"/>
</svg>
