<svg width="106" height="28" viewBox="0 0 106 28" fill="none" xmlns="http://www.w3.org/2000/svg">
<g clip-path="url(#clip0_879_27315)">
<path d="M26.5534 13.9994C26.5534 21.0664 20.7945 26.7957 13.688 26.7957C6.58159 26.7957 0.820312 21.0664 0.820312 13.9994C0.820312 6.93242 6.58159 1.20312 13.688 1.20312C20.7945 1.20312 26.5534 6.93242 26.5534 13.9994Z" fill="#565656"/>
<path d="M13.7919 21.135C10.2576 21.147 6.57911 18.147 6.56256 13.3275C6.55072 10.1419 8.28125 7.07393 10.4893 5.25429C12.6454 3.48166 15.5981 2.34143 18.2742 2.33203C18.6194 2.33203 18.9811 2.36019 19.201 2.43543C16.8605 2.91738 14.9976 5.08496 15.0047 7.54173C15.0047 7.62396 15.0117 7.71096 15.0212 7.75095C18.9385 8.70075 20.7163 11.0517 20.7281 14.3031C20.7375 17.5568 18.156 21.1209 13.7919 21.135Z" fill="white"/>
<path d="M34.8635 19.3005L30.9297 9.96484H33.4994L35.9534 16.1643L38.3316 9.96484H40.7856L36.9676 19.3005H34.8635Z" fill="#565656"/>
<path d="M47.6296 14.582C47.6296 14.1941 47.5847 13.825 47.4925 13.4747C47.4027 13.1244 47.2655 12.8235 47.0835 12.572C46.9015 12.318 46.6816 12.1182 46.4216 11.9701C46.1615 11.8196 45.8565 11.7444 45.5067 11.7444C45.1568 11.7444 44.8494 11.8196 44.5918 11.9701C44.3317 12.1182 44.1095 12.318 43.9298 12.572C43.7478 12.8235 43.6107 13.1244 43.5208 13.4747C43.4286 13.825 43.3837 14.1941 43.3837 14.582C43.3837 14.984 43.4286 15.3578 43.5208 15.7011C43.6107 16.0443 43.7431 16.3452 43.918 16.6038C44.0929 16.8625 44.3152 17.067 44.5823 17.2174C44.8471 17.3655 45.1568 17.4408 45.5067 17.4408C45.8565 17.4408 46.1615 17.3655 46.4216 17.2174C46.6816 17.067 46.9015 16.8625 47.0835 16.6038C47.2655 16.3452 47.4027 16.0443 47.4925 15.7011C47.5847 15.3578 47.6296 14.984 47.6296 14.582ZM50.0055 14.5923C50.0055 15.2012 49.911 15.7983 49.7242 16.386C49.5351 16.9738 49.2561 17.498 48.8849 17.9635C48.5161 18.429 48.0481 18.8028 47.483 19.0873C46.918 19.3718 46.2584 19.5128 45.5067 19.5128C44.7525 19.5128 44.0929 19.3717 43.5303 19.0873C42.9653 18.8028 42.4972 18.429 42.126 17.9635C41.7572 17.498 41.4783 16.9738 41.2891 16.386C41.1024 15.7983 41.0078 15.2012 41.0078 14.5923C41.0078 13.9857 41.1024 13.3933 41.2891 12.8102C41.4783 12.2295 41.7572 11.71 42.126 11.2515C42.4972 10.7931 42.9653 10.4263 43.5303 10.1489C44.0929 9.87151 44.7525 9.73047 45.5067 9.73047C46.2584 9.73047 46.9157 9.87155 47.4736 10.1489C48.0315 10.4263 48.4996 10.7931 48.8755 11.2515C49.2537 11.71 49.5351 12.2295 49.7242 12.8102C49.911 13.3933 50.0055 13.9857 50.0055 14.5923Z" fill="#565656"/>
<path d="M57.2644 12.0165C56.7987 11.8355 56.3661 11.7438 55.9642 11.7438C55.5528 11.7438 55.1959 11.8238 54.9004 11.9789C54.6025 12.134 54.3566 12.3433 54.1628 12.609C53.9689 12.8746 53.8247 13.1732 53.7278 13.5047C53.6308 13.8338 53.5812 14.1747 53.5812 14.525C53.5812 14.9129 53.6237 15.2843 53.7089 15.6417C53.7916 15.9967 53.9216 16.3094 54.0966 16.575C54.2691 16.8407 54.489 17.0546 54.7538 17.2169C55.0186 17.3767 55.333 17.459 55.6947 17.459C55.9926 17.459 56.2952 17.3768 56.6049 17.2169C56.9146 17.0546 57.1344 16.8619 57.2644 16.6432L57.2644 12.0165ZM57.4583 19.2974L57.3614 18.5828C57.1415 18.8273 56.8507 19.0436 56.4867 19.2293C56.125 19.4173 55.6971 19.5114 55.2053 19.5114C54.5599 19.5114 53.9878 19.3751 53.4985 19.1047C53.0044 18.8343 52.5906 18.4723 52.2549 18.0209C51.9192 17.5695 51.6616 17.0452 51.4866 16.4504C51.314 15.858 51.2266 15.2374 51.2266 14.5908C51.2266 13.9843 51.3164 13.3895 51.4961 12.8088C51.6781 12.2281 51.9523 11.7086 52.3211 11.2501C52.6923 10.7917 53.1533 10.4249 53.7112 10.1475C54.2668 9.8701 54.9216 9.72902 55.671 9.72902C56.1628 9.72902 56.6947 9.82065 57.2644 9.99939V6.37891H59.6782V19.2974H57.4583Z" fill="#565656"/>
<path d="M66.4764 14.9214C66.2163 14.9351 65.9468 14.9591 65.6726 14.9896C65.3983 15.0226 65.1383 15.0649 64.8901 15.1166C64.3652 15.2199 64.0035 15.3963 63.8002 15.6479C63.5993 15.9018 63.4976 16.1745 63.4976 16.4731C63.4976 16.7811 63.6111 17.0303 63.8404 17.2184C64.0697 17.4041 64.3912 17.4981 64.8097 17.4981C65.1241 17.4981 65.4291 17.4346 65.7222 17.3053C66.0154 17.176 66.2683 17.0138 66.4764 16.821V14.9214ZM66.6702 19.2919L66.5756 18.5936C66.3132 18.8804 65.9823 19.1061 65.578 19.2684C65.1738 19.4306 64.7317 19.5129 64.2494 19.5129C63.8451 19.5129 63.4551 19.4446 63.0863 19.3083C62.7127 19.1744 62.3841 18.9792 62.0981 18.7276C61.812 18.4761 61.5803 18.1681 61.4054 17.799C61.2281 17.4299 61.1406 17.0138 61.1406 16.5483C61.1406 16.0852 61.2305 15.6737 61.4149 15.3187C61.5969 14.9637 61.8428 14.6652 62.1572 14.4183C62.4692 14.1738 62.8286 13.974 63.2328 13.8188C63.6347 13.6637 64.0603 13.5461 64.5023 13.4685C64.8144 13.405 65.1572 13.358 65.5284 13.325C65.8995 13.2921 66.2092 13.264 66.4574 13.238V13.1017C66.4574 12.5845 66.3251 12.2177 66.0556 11.9968C65.7884 11.7781 65.4196 11.6676 64.9515 11.6676C64.6773 11.6676 64.4149 11.7005 64.1667 11.7664C63.9184 11.8299 63.6986 11.9099 63.5023 12.0062C63.3061 12.105 63.1335 12.2013 62.9822 12.2977C62.8333 12.3941 62.7127 12.4811 62.6205 12.5587L61.8215 10.8754C61.9255 10.7838 62.0839 10.6756 62.299 10.5463C62.5142 10.4169 62.7718 10.29 63.0792 10.1677C63.3841 10.0454 63.7269 9.94204 64.1099 9.8574C64.4929 9.77278 64.9066 9.73047 65.3463 9.73047C65.8664 9.73047 66.3416 9.79873 66.7695 9.93503C67.1974 10.0713 67.5686 10.283 67.8806 10.5745C68.1903 10.8636 68.4338 11.2304 68.6111 11.6771C68.7861 12.1214 68.8735 12.6598 68.8735 13.2922V19.2919H66.6702Z" fill="#565656"/>
<path d="M76.3345 8.51048C76.2565 8.47295 76.1052 8.41649 75.8783 8.34586C75.6489 8.2754 75.3487 8.24009 74.9704 8.24009C74.6348 8.24009 74.3511 8.34126 74.1241 8.54102C73.8972 8.74084 73.7837 9.06763 73.7837 9.51901V9.96335H75.8097V11.9005H73.8026V19.299H71.3865V11.9005H70.1406V9.96335H71.3865V9.46023C71.3865 8.85369 71.4645 8.34119 71.6205 7.92037C71.7766 7.5019 71.9941 7.15864 72.273 6.89534C72.552 6.62967 72.8806 6.43455 73.2565 6.3123C73.6347 6.18998 74.0437 6.12891 74.4858 6.12891C75.0697 6.12891 75.552 6.18298 75.935 6.29353C76.318 6.40408 76.5426 6.47691 76.6064 6.51689L76.3345 8.51048Z" fill="#565656"/>
<path d="M82.9187 14.582C82.9187 14.1941 82.8714 13.825 82.7816 13.4747C82.6917 13.1244 82.5546 12.8235 82.3726 12.572C82.1905 12.318 81.9707 12.1182 81.7106 11.9701C81.4506 11.8196 81.1456 11.7444 80.7957 11.7444C80.4458 11.7444 80.1385 11.8196 79.8808 11.9701C79.6208 12.1182 79.3985 12.318 79.2165 12.572C79.0369 12.8235 78.8997 13.1244 78.8075 13.4747C78.7177 13.825 78.6728 14.1941 78.6728 14.582C78.6728 14.984 78.7177 15.3578 78.8075 15.7011C78.8997 16.0443 79.0321 16.3452 79.2071 16.6038C79.382 16.8625 79.6042 17.067 79.869 17.2174C80.1361 17.3655 80.4458 17.4408 80.7957 17.4408C81.1456 17.4408 81.4506 17.3655 81.7106 17.2174C81.9707 17.067 82.1905 16.8625 82.3726 16.6038C82.5546 16.3452 82.6917 16.0443 82.7816 15.7011C82.8714 15.3578 82.9187 14.984 82.9187 14.582ZM85.2946 14.5923C85.2946 15.2012 85.2 15.7983 85.0109 16.386C84.8241 16.9738 84.5452 17.498 84.174 17.9635C83.8052 18.429 83.3371 18.8028 82.7721 19.0873C82.2071 19.3718 81.5475 19.5128 80.7957 19.5128C80.0416 19.5128 79.382 19.3717 78.8194 19.0873C78.2543 18.8028 77.7863 18.429 77.4151 17.9635C77.0463 17.498 76.7673 16.9738 76.5782 16.386C76.3891 15.7983 76.2969 15.2012 76.2969 14.5923C76.2969 13.9857 76.3891 13.3933 76.5782 12.8102C76.7673 12.2295 77.0463 11.71 77.4151 11.2515C77.7863 10.7931 78.2543 10.4263 78.8194 10.1489C79.382 9.87151 80.0416 9.73047 80.7957 9.73047C81.5475 9.73047 82.2047 9.87155 82.7627 10.1489C83.3206 10.4263 83.7887 10.7931 84.1646 11.2515C84.5428 11.71 84.8241 12.2295 85.0109 12.8102C85.2 13.3933 85.2946 13.9857 85.2946 14.5923Z" fill="#565656"/>
<path d="M92.7913 19.3004V13.9755C92.7913 13.2655 92.6423 12.7154 92.3445 12.3275C92.0442 11.9419 91.6305 11.7468 91.0962 11.7468C90.7203 11.7468 90.3728 11.8432 90.056 12.0383C89.7369 12.2311 89.4603 12.445 89.2262 12.6778V19.3004H86.8125V9.96476H89.0135L89.1293 10.7006C89.5076 10.3927 89.9307 10.1528 90.4059 9.98592C90.8787 9.81668 91.3563 9.73438 91.8362 9.73438C92.3303 9.73438 92.7842 9.80723 93.2002 9.95536C93.6163 10.1058 93.9733 10.3409 94.2712 10.663C94.5714 10.9851 94.8007 11.4059 94.9639 11.9208C95.1246 12.438 95.2074 13.0586 95.2074 13.7804V19.3004H92.7913Z" fill="#565656"/>
<path d="M102.721 13.5085C102.695 13.1864 102.626 12.9043 102.515 12.6669C102.404 12.4271 102.267 12.2343 102.104 12.0862C101.941 11.9357 101.766 11.8276 101.577 11.7547C101.385 11.6842 101.194 11.6489 100.997 11.6489C100.579 11.6489 100.182 11.804 99.8036 12.1144C99.4253 12.4247 99.2031 12.8879 99.1369 13.5085H102.721ZM99.0802 15.2318C99.1322 16.0193 99.378 16.5883 99.8225 16.9362C100.265 17.2842 100.839 17.4605 101.541 17.4605C101.867 17.4605 102.175 17.4299 102.461 17.3735C102.747 17.3148 103.002 17.2418 103.224 17.1501C103.447 17.0608 103.636 16.9691 103.792 16.8798C103.948 16.7882 104.064 16.7035 104.144 16.6259L104.787 18.5842C104.695 18.6477 104.548 18.7347 104.347 18.8452C104.146 18.9557 103.896 19.0568 103.598 19.1555C103.3 19.2519 102.948 19.3342 102.546 19.4071C102.144 19.4775 101.702 19.5128 101.222 19.5128C100.61 19.5128 100.031 19.4164 99.4773 19.2237C98.9265 19.0285 98.4419 18.7276 98.0281 18.3209C97.6121 17.9142 97.2811 17.4087 97.0352 16.8022C96.787 16.1956 96.6641 15.4715 96.6641 14.6322C96.6641 13.8447 96.7775 13.1464 97.0045 12.5399C97.2314 11.9333 97.5435 11.4231 97.9383 11.0094C98.3355 10.598 98.7965 10.2806 99.3213 10.0596C99.8485 9.84096 100.409 9.73047 101.007 9.73047C101.605 9.73047 102.156 9.82924 102.664 10.022C103.17 10.2148 103.607 10.5157 103.979 10.9224C104.347 11.3291 104.64 11.8557 104.853 12.5022C105.068 13.1464 105.175 13.9152 105.175 14.8062V15.2317L99.0802 15.2318Z" fill="#565656"/>
</g>
<defs>
<clipPath id="clip0_879_27315">
<rect width="106" height="28" fill="white"/>
</clipPath>
</defs>
</svg>
